<?xml version="1.0" encoding="UTF-8" standalone="no"?>
<!DOCTYPE svg PUBLIC "-//W3C//DTD SVG 1.1//EN" "http://www.w3.org/Graphics/SVG/1.1/DTD/svg11.dtd">
<svg xmlns="http://www.w3.org/2000/svg"><metadata/><defs><font id="SILInternational: Charis SIL Bold: 2014" horiz-adv-x="6144"><font-face font-family="Charis SIL" font-weight="700" font-stretch="normal" units-per-em="2048" panose-1="2 0 8 0 7 0 0 2 0 4" ascent="2450" descent="-900" x-height="4" bbox="-1475 -1092 6144 2600" underline-thickness="120" underline-position="-290" unicode-range="U+0020-fffd"/><missing-glyph horiz-adv-x="1400" d="M150 50 l1100 0 l0 1700 l-1100 0 l0 -1700 ZM100 1800 l1200 0 l0 -1800 l-1200 0 l0 1800 Z"/><glyph glyph-name="space" unicode=" " d=""/><glyph glyph-name="exclam" unicode="!" d="M514 143 q0 -35 -13.5 -66 q-13.5 -31 -36 -53.5 q-22.5 -22.5 -52 -35.5 q-29.5 -13 -62.5 -13 q-25 0 -54 9.5 q-29 9.5 -54 29.5 q-25 20 -41.5 52 q-16.5 32 -16.5 77 q0 40 15 70.5 q15 30.5 39 50.5 q24 20 53.5 30.5 q29.5 10.5 58.5 10.5 q28 0 57.5 -11 q29.5 -11 53 -32 q23.5 -21 38.5 -51 q15 -30 15 -68 ZM406 426 l-111 0 l-113 815 q0 43 13.5 74.5 q13.5 31.5 36 51.5 q22.5 20 53 30 q30.5 10 65.5 10 q34 0 64.5 -9.5 q30.5 -9.5 53 -29.5 q22.5 -20 35.5 -51.5 q13 -31.5 13 -75.5 l-110 -815 Z"/><glyph glyph-name="quotedbl" unicode="&quot;" d="M162 854 l-80 479 q0 57 27.5 93 q27.5 36 89.5 36 q62 0 90 -36 q28 -36 28 -93 l-79 -479 l-76 0 ZM563 854 l-80 479 q0 57 27.5 93 q27.5 36 89.5 36 q63 0 92 -36 q29 -36 29 -93 l-82 -479 l-76 0 Z"/><glyph glyph-name="numbersign" unicode="#" d="M678 848 l-90 -270 l254 0 l94 270 l-258 0 ZM1079 848 l-88 -270 l318 0 l0 -129 l-363 0 l-155 -498 l-142 35 l152 463 l-256 0 l-160 -498 l-137 37 l153 461 l-274 0 l0 129 l315 0 l88 270 l-303 0 l0 135 l346 0 l158 471 l137 -37 l-151 -434 l266 0 l152 471 l141 -39 l-154 -432 l269 0 l0 -135 l-312 0 Z"/><glyph glyph-name="dollar" unicode="$" d="M834 346 q0 51 -19 86 q-19 35 -46.5 58 q-27.5 23 -59.5 36.5 q-32 13.5 -58 20.5 l0 -414 q51 7 91 32 q17 10 33.5 26 q16.5 16 29.5 37.5 q13 21.5 21 50.5 q8 29 8 67 ZM530 1237 q-41 -6 -74 -27 q-28 -19 -50.5 -56 q-22.5 -37 -22.5 -103 q0 -63 22.5 -102 q22.5 -39 50.5 -61 q33 -26 74 -38 l0 387 ZM1094 420 q0 -88 -32.5 -159 q-32.5 -71 -91.5 -124 q-59 -53 -140.5 -87 q-81.5 -34 -178.5 -48 l0 -211 l-121 0 l0 209 q-71 3 -144 12 q-63 8 -136 21 q-73 13 -139 35 l0 354 l145 0 l43 -240 q32 -20 72 -31 q40 -11 75 -16 q41 -6 84 -8 l0 451 q-38 11 -83 26 q-45 15 -90.5 36 q-45.5 21 -87.5 50.5 q-42 29.5 -74.5 70 q-32.5 40.5 -52 94 q-19.5 53.5 -19.5 122.5 q0 70 17.5 124 q17.5 54 46 95 q28.5 41 65 69.5 q36.5 28.5 74.5 47.5 q90 45 204 55 l0 152 l121 0 l0 -152 q63 0 128.5 -9.5 q65.5 -9.5 119.5 -20.5 q63 -13 123 -29 l0 -342 l-141 0 l-39 227 q-2 7 -27.5 15.5 q-25.5 8.5 -58 16 q-32.5 7.5 -63 12.5 q-30.5 5 -42.5 5 l0 -422 q34 -9 80 -22.5 q46 -13.5 95 -34 q49 -20.5 97 -50 q48 -29.5 86 -71 q38 -41.5 61.5 -96.5 q23.5 -55 23.5 -127 Z"/><glyph glyph-name="percent" unicode="%" d="M541 979 q0 94 -10 158 q-10 64 -27 102.5 q-17 38.5 -41 55 q-24 16.5 -51 16.5 q-29 0 -55 -16.5 q-26 -16.5 -46.5 -55 q-20.5 -38.5 -32.5 -102.5 q-12 -64 -12 -158 q0 -95 12 -159 q12 -64 32.5 -103 q20.5 -39 46.5 -55.5 q26 -16.5 55 -16.5 q27 0 51 16.5 q24 16.5 41 55.5 q17 39 27 103 q10 64 10 159 ZM1548 395 q0 94 -9.5 158 q-9.5 64 -26.5 102.5 q-17 38.5 -41 55 q-24 16.5 -52 16.5 q-27 0 -52.5 -16.5 q-25.5 -16.5 -44.5 -55 q-19 -38.5 -30.5 -102.5 q-11.5 -64 -11.5 -158 q0 -95 11.5 -158.5 q11.5 -63.5 30.5 -102 q19 -38.5 44.5 -55 q25.5 -16.5 52.5 -16.5 q28 0 52 16.5 q24 16.5 41 55 q17 38.5 26.5 102 q9.5 63.5 9.5 158.5 ZM762 979 q0 -100 -22 -179.5 q-22 -79.5 -65.5 -135 q-43.5 -55.5 -109.5 -85.5 q-66 -30 -153 -30 q-88 0 -154 30 q-66 30 -110.5 85.5 q-44.5 55.5 -66.5 135 q-22 79.5 -22 179.5 q0 100 22 179 q22 79 66.5 134.5 q44.5 55.5 110.5 85 q66 29.5 154 29.5 q87 0 153 -29.5 q66 -29.5 109.5 -85 q43.5 -55.5 65.5 -134.5 q22 -79 22 -179 ZM563 0 l-145 0 l850 1374 l147 0 l-852 -1374 ZM1772 395 q0 -100 -22.5 -179 q-22.5 -79 -66.5 -134.5 q-44 -55.5 -110 -85 q-66 -29.5 -154 -29.5 q-87 0 -152.5 29.5 q-65.5 29.5 -109 85 q-43.5 55.5 -65 134.5 q-21.5 79 -21.5 179 q0 100 21.5 179.5 q21.5 79.5 65 134.5 q43.5 55 109 84.5 q65.5 29.5 152.5 29.5 q88 0 154 -29.5 q66 -29.5 110 -84.5 q44 -55 66.5 -134.5 q22.5 -79.5 22.5 -179.5 Z"/><glyph glyph-name="ampersand" unicode="&amp;" d="M1026 0 l0 49 l-86 96 q-48 -48 -111 -85 q-27 -16 -60 -31.5 q-33 -15.5 -72 -27.5 q-39 -12 -83.5 -19 q-44.5 -7 -93.5 -7 q-99 0 -180.5 29 q-81.5 29 -139.5 81.5 q-58 52.5 -90 126.5 q-32 74 -32 165 q0 73 20.5 129 q20.5 56 58.5 99 q38 43 91 73 q53 30 117 51 q-3 2 -16 12 q-15 11 -36 30.5 q-21 19.5 -45 47 q-24 27.5 -44.5 63 q-20.5 35.5 -34 78.5 q-13.5 43 -13.5 93 q0 85 35.5 150 q35.5 65 96 109 q60.5 44 141.5 66.5 q81 22.5 172 22.5 q40 0 85.5 -6 q45.5 -6 90.5 -21 q45 -15 86.5 -39 q41.5 -24 73 -59.5 q31.5 -35.5 50.5 -84.5 q19 -49 19 -112 q0 -69 -21 -120 q-21 -51 -53 -88.5 q-32 -37.5 -70 -62 q-38 -24.5 -72 -39 q-34 -14.5 -59.5 -21 q-25.5 -6.5 -31.5 -7.5 l315 -327 q24 31 45 67 q18 31 36 72.5 q18 41.5 28 89.5 q1 9 -7 21 q-8 12 -14 14 l-106 18 l0 97 l430 0 l0 -97 l-141 -28 q-25 -81 -58 -144 q-33 -63 -62 -107 q-35 -51 -71 -89 l193 -207 l166 -17 l0 -104 l-447 0 ZM451 657 q-28 -19 -49 -45 q-18 -23 -33 -58 q-15 -35 -15 -83 q0 -87 26.5 -148 q26.5 -61 69.5 -99 q43 -38 97 -55 q54 -17 108 -17 q52 0 89.5 12.5 q37.5 12.5 62.5 27.5 q29 18 49 41 l-405 424 ZM772 1075 q0 42 -11 79 q-11 37 -32 64.5 q-21 27.5 -51 43.5 q-30 16 -68 16 q-35 0 -65 -12 q-30 -12 -52 -33 q-22 -21 -34.5 -50.5 q-12.5 -29.5 -12.5 -64.5 q0 -34 10.5 -67.5 q10.5 -33.5 34 -69.5 q23.5 -36 60.5 -77 q37 -41 90 -89 q31 28 55.5 56 q24.5 28 41.5 58.5 q17 30.5 25.5 66 q8.5 35.5 8.5 79.5 Z"/><glyph glyph-name="quotesingle" unicode="'" d="M143 854 l-80 479 q0 57 27 93 q27 36 90 36 q62 0 90.5 -36 q28.5 -36 28.5 -93 l-82 -479 l-74 0 Z"/><glyph glyph-name="parenleft" unicode="(" d="M733 -291 q-151 4 -265.5 67 q-114.5 63 -191.5 177 q-77 114 -116 275 q-39 161 -39 362 q0 200 39 360.5 q39 160.5 116 274 q77 113.5 191.5 176 q114.5 62.5 265.5 67.5 l0 -110 q-108 -15 -176.5 -77.5 q-68.5 -62.5 -107.5 -163.5 q-39 -101 -53.5 -235.5 q-14.5 -134.5 -14.5 -291.5 q0 -158 14.5 -292.5 q14.5 -134.5 53.5 -235.5 q39 -101 107.5 -164 q68.5 -63 176.5 -78 l0 -111 Z"/><glyph glyph-name="parenright" unicode=")" d="M682 590 q0 -201 -39 -362 q-39 -161 -116.5 -275 q-77.5 -114 -192 -177 q-114.5 -63 -264.5 -67 l0 111 q107 15 175.5 78 q68.5 63 107.5 164 q39 101 54 235.5 q15 134.5 15 292.5 q0 157 -15 291.5 q-15 134.5 -54 235.5 q-39 101 -107.5 163.5 q-68.5 62.5 -175.5 77.5 l0 110 q150 -5 264.5 -67.5 q114.5 -62.5 192 -176 q77.5 -113.5 116.5 -274 q39 -160.5 39 -360.5 Z"/><glyph glyph-name="asterisk" unicode="*" d="M418 733 l-156 -41 l-6 160 l219 160 l25 -25 l-82 -254 ZM463 1038 l-266 -2 l-88 133 l147 60 l219 -162 l-12 -29 ZM762 692 l-156 41 l-82 254 l25 25 l219 -160 l-6 -160 ZM528 1092 l-34 0 l-84 256 l102 122 l102 -122 l-86 -256 ZM825 1036 l-264 2 l-14 31 l217 160 l151 -60 l-90 -133 Z"/><glyph glyph-name="plus" unicode="+" d="M1087 551 l0 -551 l-126 0 l0 551 l-551 0 l0 127 l551 0 l0 551 l126 0 l0 -551 l551 0 l0 -127 l-551 0 Z"/><glyph glyph-name="comma" unicode="," d="M496 121 q0 -64 -18 -123 q-18 -59 -48.5 -111.5 q-30.5 -52.5 -72 -96 q-41.5 -43.5 -88.5 -76 q-47 -32.5 -97.5 -52 q-50.5 -19.5 -99.5 -22.5 l0 100 q39 6 83.5 22.5 q44.5 16.5 81.5 48.5 q37 32 60 81.5 q23 49.5 20 121.5 l-124 0 q-19 15 -31 31.5 q-12 16.5 -19.5 33.5 q-7.5 17 -10.5 34 q-3 17 -3 32 q0 39 14.5 70.5 q14.5 31.5 38.5 54 q24 22.5 55 35 q31 12.5 64 12.5 q93 0 144 -53 q51 -53 51 -143 Z"/><glyph glyph-name="hyphen" unicode="-" d="M68 385 l0 217 l536 0 l0 -217 l-536 0 Z"/><glyph glyph-name="period" unicode="." d="M471 145 q0 -35 -13 -66 q-13 -31 -36 -54 q-23 -23 -54 -36.5 q-31 -13.5 -67 -13.5 q-35 0 -66.5 13.5 q-31.5 13.5 -55 36.5 q-23.5 23 -37 54 q-13.5 31 -13.5 66 q0 36 13.5 67 q13.5 31 37 54.5 q23.5 23.5 55 37 q31.5 13.5 66.5 13.5 q36 0 67 -13.5 q31 -13.5 54 -37 q23 -23.5 36 -54.5 q13 -31 13 -67 Z"/><glyph glyph-name="slash" unicode="/" d="M160 -190 l-160 0 l864 1564 l162 0 l-866 -1564 Z"/><glyph glyph-name="zero" unicode="0" d="M831 686 q0 44 -2 105.5 q-2 61.5 -9 127.5 q-7 66 -21.5 130.5 q-14.5 64.5 -40.5 116 q-26 51.5 -64.5 83 q-38.5 31.5 -93.5 31.5 q-55 0 -93 -31.5 q-38 -31.5 -63 -83 q-25 -51.5 -39.5 -116 q-14.5 -64.5 -21.5 -130.5 q-7 -66 -8.5 -127.5 q-1.5 -61.5 -1.5 -105.5 q0 -45 1.5 -106 q1.5 -61 8.5 -126.5 q7 -65.5 21.5 -129.5 q14.5 -64 39.5 -114.5 q25 -50.5 63 -82 q38 -31.5 93 -31.5 q55 0 93.5 31.5 q38.5 31.5 64.5 82 q26 50.5 40.5 114.5 q14.5 64 21.5 129.5 q7 65.5 9 126.5 q2 61 2 106 ZM1130 686 q0 -144 -30.5 -273.5 q-30.5 -129.5 -95 -226.5 q-64.5 -97 -164.5 -154 q-100 -57 -240 -57 q-139 0 -238.5 57 q-99.5 57 -163.5 154 q-64 97 -94 226.5 q-30 129.5 -30 273.5 q0 144 30 273 q30 129 94 227 q64 98 163.5 155.5 q99.5 57.5 238.5 57.5 q140 0 240 -57.5 q100 -57.5 164.5 -155.5 q64.5 -98 95 -227 q30.5 -129 30.5 -273 Z"/><glyph glyph-name="one" unicode="1" d="M236 0 l0 106 l176 7 q18 2 31.5 14 q13.5 12 13.5 31 l0 1024 l-305 -43 l0 108 l442 160 l151 0 l0 -1249 q0 -19 13.5 -31 q13.5 -12 32.5 -14 l161 -7 l0 -106 l-716 0 Z"/><glyph glyph-name="two" unicode="2" d="M88 0 l0 170 q41 34 107.5 82.5 q66.5 48.5 142 109 q75.5 60.5 152 131.5 q76.5 71 138.5 150 q62 79 101 164.5 q39 85.5 39 175.5 q0 61 -18 113.5 q-18 52.5 -51 91 q-33 38.5 -80 60.5 q-47 22 -105 22 q-21 0 -35.5 -2.5 q-14.5 -2.5 -27 -6 q-12.5 -3.5 -25 -8.5 q-12.5 -5 -29.5 -10 l0 -276 q-22 -11 -45 -20 q-20 -8 -44.5 -13.5 q-24.5 -5.5 -49.5 -5.5 q-75 0 -114.5 41.5 q-39.5 41.5 -39.5 109.5 q0 64 24.5 113.5 q24.5 49.5 65.5 86 q41 36.5 93.5 61 q52.5 24.5 108 39.5 q55.5 15 110 21.5 q54.5 6.5 98.5 6.5 q97 0 182 -29 q85 -29 148 -82 q63 -53 99 -128 q36 -75 36 -167 q0 -110 -53.5 -208 q-53.5 -98 -148.5 -192 q-95 -94 -225 -187 q-130 -93 -282 -193 l582 0 l39 180 l131 0 l0 -401 l-1024 0 Z"/><glyph glyph-name="three" unicode="3" d="M1112 393 q0 -67 -22.5 -124 q-22.5 -57 -62.5 -104.5 q-40 -47.5 -95.5 -84.5 q-55.5 -37 -121 -62 q-65.5 -25 -139 -38 q-73.5 -13 -149.5 -13 q-100 0 -180 23 q-80 23 -136.5 61.5 q-56.5 38.5 -87 87 q-30.5 48.5 -30.5 99.5 q0 43 14.5 70 q14.5 27 37 43 q22.5 16 49.5 22 q27 6 51 6 q27 0 49 -5.5 q22 -5.5 39 -13.5 l65 -231 q34 -9 71 -22 q37 -13 79 -13 q53 0 101.5 22.5 q48.5 22.5 85.5 61 q37 38.5 59 91 q22 52.5 22 112.5 q0 48 -18 93.5 q-18 45.5 -54 80 q-36 34.5 -89.5 55.5 q-53.5 21 -125.5 21 q-23 0 -48 -1.5 q-25 -1.5 -46 -3.5 q-25 -3 -49 -5 l0 153 q17 -2 30 -2 l27 0 q58 0 116 11.5 q58 11.5 104.5 40.5 q46.5 29 76 77.5 q29.5 48.5 29.5 122.5 q0 49 -20 93.5 q-20 44.5 -55 78.5 q-35 34 -83 54 q-48 20 -104 20 q-15 0 -33.5 -4 q-18.5 -4 -35.5 -9 q-19 -5 -40 -12 l0 -252 q-28 -18 -57 -23 q-29 -5 -53 -5 q-32 0 -61 9 q-29 9 -51 27 q-22 18 -35 45.5 q-13 27.5 -13 65.5 q0 64 38 118 q38 54 103 93.5 q65 39.5 151 61.5 q86 22 183 22 q84 0 167 -22 q83 -22 149 -66.5 q66 -44.5 107.5 -112 q41.5 -67.5 41.5 -159.5 q0 -65 -22 -114 q-22 -49 -56 -84.5 q-34 -35.5 -75.5 -59 q-41.5 -23.5 -80 -38 q-38.5 -14.5 -69.5 -21.5 q-28 -6 -42 -7 q13 -1 44 -3 q35 -3 79.5 -14.5 q44.5 -11.5 92 -33.5 q47.5 -22 87.5 -59 q40 -37 65.5 -91 q25.5 -54 25.5 -129 Z"/><glyph glyph-name="four" unicode="4" d="M702 1090 l-430 -539 l430 0 l0 539 ZM963 385 l0 -418 l-261 0 l0 416 l-628 0 l0 176 l667 848 l222 0 l0 -856 l167 0 l0 -166 l-167 0 Z"/><glyph glyph-name="five" unicode="5" d="M1120 465 q0 -116 -51.5 -208 q-51.5 -92 -137 -156.5 q-85.5 -64.5 -196 -99 q-110.5 -34.5 -227.5 -34.5 q-78 0 -154 17 q-76 17 -136 51 q-60 34 -97 84.5 q-37 50.5 -37 116.5 q0 23 9.5 46.5 q9.5 23.5 28 43 q18.5 19.5 46.5 31.5 q28 12 65 12 q20 0 42.5 -5 q22.5 -5 50.5 -14 l65 -244 q25 -4 46 -8 q18 -3 35.5 -5.5 q17.5 -2.5 25.5 -2.5 q89 0 151.5 34 q62.5 34 102 82.5 q39.5 48.5 57.5 100.5 q18 52 18 88 q0 69 -28.5 123.5 q-28.5 54.5 -78 92.5 q-49.5 38 -116 58.5 q-66.5 20.5 -141.5 20.5 q-53 0 -106 -5.5 q-53 -5.5 -97 -11.5 q-51 -7 -98 -16 l0 717 l880 0 l0 -227 l-706 0 l0 -330 q43 13 90 24 q40 9 90 17 q50 8 102 8 q110 0 202 -29.5 q92 -29.5 159 -82.5 q67 -53 104 -126.5 q37 -73.5 37 -162.5 Z"/><glyph glyph-name="six" unicode="6" d="M838 432 q0 67 -16 123 q-16 56 -49 96 q-33 40 -84 62 q-51 22 -120 22 q-44 0 -80.5 -7 q-36.5 -7 -62.5 -15 q-31 -10 -55 -21 q-4 -35 -4.5 -66.5 q-0.5 -31.5 0.5 -54.5 q1 -28 2 -51 q0 -71 14 -145.5 q14 -74.5 45 -135.5 q31 -61 79 -100 q48 -39 116 -39 q54 0 94 27.5 q40 27.5 67 73.5 q27 46 40.5 106 q13.5 60 13.5 125 ZM1130 494 q0 -119 -40.5 -216.5 q-40.5 -97.5 -110.5 -166.5 q-70 -69 -162.5 -106.5 q-92.5 -37.5 -195.5 -37.5 q-129 0 -231 41 q-102 41 -172 121 q-70 80 -107 197.5 q-37 117.5 -37 269.5 q0 201 63.5 354 q63.5 153 179.5 255 q116 102 278.5 153 q162.5 51 360.5 49 l0 -160 l-90 10 q-111 -8 -195 -41.5 q-84 -33.5 -142.5 -91 q-58.5 -57.5 -94.5 -137.5 q-36 -80 -51 -180 q42 28 93 51 q43 19 100.5 35 q57.5 16 123.5 16 q108 0 188.5 -37.5 q80.5 -37.5 134 -97 q53.5 -59.5 80.5 -133.5 q27 -74 27 -147 Z"/><glyph glyph-name="seven" unicode="7" d="M310 29 l0 -62 l-262 0 l668 1161 l-592 0 l-31 -190 l-143 0 l0 436 l1050 0 l0 -145 l-690 -1200 Z"/><glyph glyph-name="eight" unicode="8" d="M850 305 q0 50 -20.5 90 q-20.5 40 -53.5 71.5 q-33 31.5 -75.5 56.5 q-42.5 25 -86.5 44.5 q-44 19.5 -85.5 36 q-41.5 16.5 -73.5 31.5 q-9 -12 -29 -32.5 q-20 -20.5 -40 -50.5 q-20 -30 -35 -70 q-15 -40 -15 -91 q0 -60 21 -113.5 q21 -53.5 57.5 -93 q36.5 -39.5 85.5 -63 q49 -23.5 104 -23.5 q48 0 92 13.5 q44 13.5 78.5 40 q34.5 26.5 55 65 q20.5 38.5 20.5 88.5 ZM823 1030 q0 48 -15.5 92.5 q-15.5 44.5 -44 79 q-28.5 34.5 -68.5 55.5 q-40 21 -89 21 q-41 0 -76.5 -15.5 q-35.5 -15.5 -62 -42 q-26.5 -26.5 -42 -62.5 q-15.5 -36 -15.5 -77 q0 -61 27 -106 q27 -45 71.5 -80 q44.5 -35 100.5 -62.5 q56 -27.5 114 -52.5 q15 16 32.5 40 q17.5 24 32.5 55.5 q15 31.5 25 70.5 q10 39 10 84 ZM1128 377 q0 -105 -45.5 -182 q-45.5 -77 -121 -127.5 q-75.5 -50.5 -173 -75.5 q-97.5 -25 -200.5 -25 q-111 0 -205.5 30.5 q-94.5 30.5 -163 84.5 q-68.5 54 -107 128 q-38.5 74 -38.5 161 q0 83 30 138 q30 55 73.5 90.5 q43.5 35.5 93 55 q49.5 19.5 87.5 31.5 q-31 12 -70.5 37.5 q-39.5 25.5 -75 64 q-35.5 38.5 -59.5 90 q-24 51.5 -24 115.5 q0 116 44.5 195.5 q44.5 79.5 116.5 128 q72 48.5 161.5 69.5 q89.5 21 179.5 21 q81 0 160.5 -22 q79.5 -22 142.5 -67 q63 -45 102 -112.5 q39 -67.5 39 -158.5 q0 -73 -25 -124.5 q-25 -51.5 -63 -88 q-38 -36.5 -82.5 -61 q-44.5 -24.5 -83.5 -42.5 q14 -5 42 -14.5 q28 -9.5 62.5 -27 q34.5 -17.5 70 -43.5 q35.5 -26 65 -63.5 q29.5 -37.5 48.5 -88.5 q19 -51 19 -117 Z"/><glyph glyph-name="nine" unicode="9" d="M836 852 q0 73 -14.5 148 q-14.5 75 -45.5 136 q-31 61 -79 99.5 q-48 38.5 -115 38.5 q-54 0 -94.5 -27.5 q-40.5 -27.5 -67 -74 q-26.5 -46.5 -40 -107 q-13.5 -60.5 -13.5 -125.5 q0 -68 16 -123.5 q16 -55.5 49 -95.5 q33 -40 83.5 -62 q50.5 -22 119.5 -22 q43 0 80 6.5 q37 6.5 63 14.5 q31 10 56 22 q2 34 2.5 65 q0.5 31 0.5 55 q0 28 -1 52 ZM1130 776 q0 -201 -63.5 -353.5 q-63.5 -152.5 -179.5 -254.5 q-116 -102 -278.5 -152.5 q-162.5 -50.5 -360.5 -48.5 l0 160 l90 -10 q111 7 194.5 41 q83.5 34 142 91 q58.5 57 94 136.5 q35.5 79.5 50.5 179.5 q-42 -29 -92 -51 q-43 -20 -100 -35.5 q-57 -15.5 -123 -15.5 q-108 0 -189 37.5 q-81 37.5 -134.5 97.5 q-53.5 60 -80 134 q-26.5 74 -26.5 147 q0 119 40.5 216.5 q40.5 97.5 110.5 166.5 q70 69 162.5 107 q92.5 38 196.5 38 q128 0 229.5 -41.5 q101.5 -41.5 172 -122 q70.5 -80.5 107.5 -198 q37 -117.5 37 -269.5 Z"/><glyph glyph-name="colon" unicode=":" d="M471 852 q0 -36 -13 -67 q-13 -31 -36 -54 q-23 -23 -54 -36 q-31 -13 -67 -13 q-35 0 -66.5 13 q-31.5 13 -55 36 q-23.5 23 -37 54 q-13.5 31 -13.5 67 q0 35 13.5 66.5 q13.5 31.5 37 55 q23.5 23.5 55 37 q31.5 13.5 66.5 13.5 q36 0 67 -13.5 q31 -13.5 54 -37 q23 -23.5 36 -55 q13 -31.5 13 -66.5 ZM471 145 q0 -35 -13 -66 q-13 -31 -36 -54 q-23 -23 -54 -36.5 q-31 -13.5 -67 -13.5 q-35 0 -66.5 13.5 q-31.5 13.5 -55 36.5 q-23.5 23 -37 54 q-13.5 31 -13.5 66 q0 36 13.5 67 q13.5 31 37 54.5 q23.5 23.5 55 37 q31.5 13.5 66.5 13.5 q36 0 67 -13.5 q31 -13.5 54 -37 q23 -23.5 36 -54.5 q13 -31 13 -67 Z"/><glyph glyph-name="semicolon" unicode=";" d="M471 852 q0 -36 -13 -67 q-13 -31 -36 -54 q-23 -23 -54 -36 q-31 -13 -67 -13 q-35 0 -66.5 13 q-31.5 13 -55 36 q-23.5 23 -37 54 q-13.5 31 -13.5 67 q0 35 13.5 66.5 q13.5 31.5 37 55 q23.5 23.5 55 37 q31.5 13.5 66.5 13.5 q36 0 67 -13.5 q31 -13.5 54 -37 q23 -23.5 36 -55 q13 -31.5 13 -66.5 ZM496 121 q0 -64 -18 -123 q-18 -59 -48.5 -111.5 q-30.5 -52.5 -72 -96 q-41.5 -43.5 -88.5 -76 q-47 -32.5 -97.5 -52 q-50.5 -19.5 -99.5 -22.5 l0 100 q39 6 83.5 22.5 q44.5 16.5 81.5 48.5 q37 32 60 81.5 q23 49.5 20 121.5 l-124 0 q-19 15 -31 31.5 q-12 16.5 -19.5 33.5 q-7.5 17 -10.5 34 q-3 17 -3 32 q0 39 14.5 70.5 q14.5 31.5 38.5 54 q24 22.5 55 35 q31 12.5 64 12.5 q93 0 144 -53 q51 -53 51 -143 Z"/><glyph glyph-name="less" unicode="&lt;" d="M410 551 l0 127 l1228 471 l0 -127 l-1097 -408 l1097 -407 l0 -127 l-1228 471 Z"/><glyph glyph-name="equal" unicode="=" d="M410 365 l0 127 l1228 0 l0 -127 l-1228 0 ZM410 737 l0 127 l1228 0 l0 -127 l-1228 0 Z"/><glyph glyph-name="greater" unicode="&gt;" d="M410 80 l0 127 l1097 407 l-1097 408 l0 127 l1228 -471 l0 -127 l-1228 -471 Z"/><glyph glyph-name="question" unicode="?" d="M592 133 q0 -34 -13.5 -63 q-13.5 -29 -36.5 -50 q-23 -21 -53.5 -33 q-30.5 -12 -64.5 -12 q-33 0 -61.5 13.5 q-28.5 13.5 -49.5 36.5 q-21 23 -33 53 q-12 30 -12 63 q0 34 12.5 63.5 q12.5 29.5 33.5 52 q21 22.5 50 35.5 q29 13 62 13 q37 0 67.5 -14 q30.5 -14 52.5 -37.5 q22 -23.5 34 -55 q12 -31.5 12 -65.5 ZM938 1018 q0 -65 -19 -118.5 q-19 -53.5 -50.5 -97 q-31.5 -43.5 -71 -76.5 q-39.5 -33 -81.5 -58 q-98 -58 -222 -88 l0 -174 l-140 0 l0 272 q83 22 148 67 q28 19 54.5 45 q26.5 26 47.5 60 q21 34 34 76.5 q13 42.5 13 95.5 q0 58 -16.5 105.5 q-16.5 47.5 -50 82 q-33.5 34.5 -84 53.5 q-50.5 19 -117.5 19 l-92 -246 q-1 -1 -5 -2 q-3 -1 -7.5 -1.5 q-4.5 -0.5 -12.5 -0.5 q-20 0 -50 2.5 q-30 2.5 -58 15.5 q-28 13 -48 39 q-20 26 -20 74 q0 67 36.5 113.5 q36.5 46.5 92.5 75.5 q56 29 124 42 q68 13 130 13 q99 0 184 -27.5 q85 -27.5 147.5 -78 q62.5 -50.5 98 -122.5 q35.5 -72 35.5 -161 Z"/><glyph glyph-name="at" unicode="@" d="M1798 754 q0 -102 -22.5 -189.5 q-22.5 -87.5 -61 -160 q-38.5 -72.5 -90 -129 q-51.5 -56.5 -110.5 -95 q-59 -38.5 -121.5 -58.5 q-62.5 -20 -122.5 -20 q-47 0 -78.5 12 q-31.5 12 -52 31.5 q-20.5 19.5 -31 45.5 q-10.5 26 -14.5 55 q-32 -27 -65 -52.5 q-33 -25.5 -68 -45.5 q-35 -20 -72 -32 q-37 -12 -76 -12 q-70 0 -123 25.5 q-53 25.5 -89 71 q-36 45.5 -54.5 107.5 q-18.5 62 -18.5 136 q0 115 42.5 216.5 q42.5 101.5 115.5 178 q73 76.5 171.5 121 q98.5 44.5 209.5 44.5 q24 0 48.5 -6 q24.5 -6 48.5 -15.5 q24 -9.5 46.5 -20.5 q22.5 -11 42.5 -20 l27 51 l172 0 l-10 -38 q-7 -30 -17.5 -74 q-10.5 -44 -23 -98 q-12.5 -54 -25.5 -109 q-30 -129 -67 -289 q-8 -34 -12 -62 q-4 -28 0 -48 q4 -20 17.5 -31 q13.5 -11 41.5 -11 q20 0 49.5 15.5 q29.5 15.5 61 45.5 q31.5 30 62.5 74.5 q31 44.5 55.5 102 q24.5 57.5 40 128 q15.5 70.5 15.5 153.5 q0 97 -23 175.5 q-23 78.5 -62 139.5 q-39 61 -92.5 105.5 q-53.5 44.5 -113.5 73.5 q-60 29 -125 43 q-65 14 -128 14 q-108 0 -206.5 -26.5 q-98.5 -26.5 -184 -75 q-85.5 -48.5 -155.5 -118.5 q-70 -70 -120 -157.5 q-50 -87.5 -77 -190 q-27 -102.5 -27 -217.5 q0 -158 49 -290.5 q49 -132.5 139 -229.5 q90 -97 217 -151 q127 -54 283 -54 q81 0 154 13.5 q73 13.5 141 36.5 q68 23 133.5 54.5 q65.5 31.5 130.5 67.5 l43 -102 q-69 -36 -143 -69.5 q-74 -33.5 -154 -59 q-80 -25.5 -168.5 -41 q-88.5 -15.5 -185.5 -15.5 q-120 0 -229 25.5 q-109 25.5 -203 74.5 q-94 49 -170.5 119 q-76.5 70 -130.5 159.5 q-54 89.5 -83.5 196 q-29.5 106.5 -29.5 228.5 q0 149 36 276 q36 127 100.5 230 q64.5 103 153.5 181.5 q89 78.5 194.5 131.5 q105.5 53 224 80 q118.5 27 241.5 27 q166 0 301 -44 q135 -44 230 -127.5 q95 -83.5 146.5 -205 q51.5 -121.5 51.5 -276.5 ZM1167 795 q3 12 -1.5 30.5 q-4.5 18.5 -15.5 35.5 q-11 17 -30 29.5 q-19 12.5 -45 12.5 q-62 0 -116.5 -33 q-54.5 -33 -95.5 -91.5 q-41 -58.5 -65 -139.5 q-24 -81 -24 -176 q0 -58 11.5 -98.5 q11.5 -40.5 30.5 -66 q19 -25.5 42 -37 q23 -11.5 47 -11.5 q33 0 59.5 12.5 q26.5 12.5 48 31.5 q21.5 19 39.5 41 q18 22 33 40 l82 420 Z"/><glyph glyph-name="A" unicode="a" d="M631 1092 l-172 -492 l348 0 l-176 492 ZM829 0 l0 104 l121 15 q10 2 17 13 q7 11 2 22 l-111 325 l-438 0 l-113 -317 q-6 -16 6 -29 q12 -13 23 -14 l115 -15 l0 -104 l-441 0 l0 104 l115 17 l459 1286 l233 0 l455 -1249 q8 -19 15.5 -26.5 q7.5 -7.5 29.5 -12.5 l78 -15 l0 -104 l-566 0 Z"/><glyph glyph-name="B" unicode="b" d="M1233 399 q0 -96 -21 -162.5 q-21 -66.5 -56.5 -111 q-35.5 -44.5 -83 -69.5 q-47.5 -25 -100 -37.5 q-52.5 -12.5 -107 -15.5 q-54.5 -3 -105.5 -3 l-703 0 l0 104 l111 11 q19 2 32 13.5 q13 11.5 13 31.5 l0 1054 q0 20 -13 32 q-13 12 -32 14 l-111 10 l0 104 l660 0 q37 0 83.5 -3.5 q46.5 -3.5 95 -15 q48.5 -11.5 94.5 -32.5 q46 -21 82.5 -56.5 q36.5 -35.5 58.5 -87 q22 -51.5 22 -122.5 q0 -62 -17 -109 q-17 -47 -44 -82 q-27 -35 -60 -59 q-33 -24 -65.5 -40 q-32.5 -16 -60.5 -24.5 q-28 -8.5 -43 -11.5 q37 -1 79.5 -7 q42.5 -6 83.5 -20.5 q41 -14.5 78.5 -38.5 q37.5 -24 66 -60.5 q28.5 -36.5 45.5 -87 q17 -50.5 17 -118.5 ZM926 385 q0 132 -76 196 q-76 64 -242 64 l-37 0 q-22 0 -65 -2 l0 -522 q23 -1 43 -2 q17 -1 32.5 -1.5 q15.5 -0.5 20.5 -0.5 q78 0 138.5 14 q60.5 14 102 46 q41.5 32 62.5 83 q21 51 21 125 ZM852 1024 q0 45 -10 87.5 q-10 42.5 -38.5 75.5 q-28.5 33 -80 53 q-51.5 20 -133.5 20 l-10 0 q-3 0 -10.5 -0.5 q-7.5 -0.5 -22 -1.5 q-14.5 -1 -41.5 -3 l0 -487 q11 -1 22 -1 q9 -1 17 -1 l12 0 q88 0 145 20 q57 20 90.5 54.5 q33.5 34.5 46.5 82 q13 47.5 13 101.5 Z"/><glyph glyph-name="C" unicode="c" d="M1229 49 q-19 -8 -59.5 -21.5 q-40.5 -13.5 -97.5 -27 q-57 -13.5 -127.5 -23.5 q-70.5 -10 -149.5 -10 q-105 0 -199 24 q-94 24 -174 69 q-80 45 -144 109 q-64 64 -109 144.5 q-45 80.5 -69 175 q-24 94.5 -24 199.5 q0 160 55.5 292 q55.5 132 152.5 227 q97 95 229 147.5 q132 52.5 284 52.5 q58 0 106 -5 q48 -5 96.5 -15.5 q48.5 -10.5 103 -26.5 q54.5 -16 126.5 -39 l0 -348 l-160 0 l-45 229 q0 5 -8 16.5 q-8 11.5 -19 16.5 q-8 4 -24.5 9.5 q-16.5 5.5 -37 10.5 q-20.5 5 -42.5 9 q-22 4 -41 4 q-105 0 -189.5 -41.5 q-84.5 -41.5 -143.5 -118 q-59 -76.5 -90.5 -184 q-31.5 -107.5 -31.5 -240.5 q0 -72 11 -143 q11 -71 34.5 -136 q23.5 -65 61 -120.5 q37.5 -55.5 89.5 -96.5 q52 -41 120.5 -64.5 q68.5 -23.5 154.5 -23.5 q38 0 70 9.5 q32 9.5 49 17.5 q8 3 20 16.5 q12 13.5 15 22.5 l45 242 l162 0 l0 -359 Z"/><glyph glyph-name="D" unicode="d" d="M1077 680 q0 118 -18 206.5 q-18 88.5 -49.5 152 q-31.5 63.5 -74.5 105.5 q-43 42 -92 66.5 q-49 24.5 -102 34.5 q-53 10 -106 10 l-129 0 l0 -1134 l170 4 q44 1 91 12 q47 11 91.5 36 q44.5 25 84 66.5 q39.5 41.5 69.5 103 q30 61.5 47.5 145 q17.5 83.5 17.5 192.5 ZM1407 702 q0 -176 -50.5 -307.5 q-50.5 -131.5 -144 -219.5 q-93.5 -88 -225.5 -131.5 q-132 -43.5 -295 -43.5 l-639 0 l0 104 l113 11 q18 2 32.5 13.5 q14.5 11.5 14.5 31.5 l0 1054 q0 20 -14.5 32 q-14.5 12 -32.5 14 l-113 10 l0 104 l627 0 q175 0 310.5 -49 q135.5 -49 228 -137.5 q92.5 -88.5 140.5 -212 q48 -123.5 48 -273.5 Z"/><glyph glyph-name="E" unicode="e" d="M53 0 l0 104 l113 11 q18 2 32.5 13.5 q14.5 11.5 14.5 31.5 l0 1054 q0 20 -14.5 32 q-14.5 12 -32.5 14 l-113 10 l0 104 l1045 0 l0 -327 l-148 0 l-32 170 q-4 15 -13.5 26.5 q-9.5 11.5 -23.5 11.5 l-381 0 l0 -481 l243 0 q14 0 23.5 13 q9.5 13 11.5 24 l19 139 l127 0 l0 -481 l-127 0 l-19 139 q-2 11 -11.5 24 q-9.5 13 -23.5 13 l-243 0 l0 -522 l446 0 q13 0 24 14 q11 14 13 25 l31 213 l149 0 l0 -375 l-1110 0 Z"/><glyph glyph-name="F" unicode="f" d="M942 1024 l-29 186 q-3 16 -12.5 27.5 q-9.5 11.5 -23.5 11.5 l-371 0 l0 -504 l254 0 q14 0 23.5 13 q9.5 13 11.5 24 l20 140 l127 0 l0 -484 l-127 0 l-20 140 q-2 11 -12.5 23.5 q-10.5 12.5 -22.5 12.5 l-254 0 l0 -454 q0 -20 13 -31.5 q13 -11.5 32 -13.5 l133 -11 l0 -104 l-629 0 l0 104 l111 11 q18 2 32.5 13.5 q14.5 11.5 14.5 31.5 l0 1054 q0 20 -14.5 32 q-14.5 12 -32.5 14 l-117 10 l0 104 l1041 0 l0 -350 l-148 0 Z"/><glyph glyph-name="G" unicode="g" d="M1315 565 q-19 -2 -33 -13.5 q-14 -11.5 -14 -31.5 l0 -457 q-61 -27 -135 -48 q-64 -18 -150.5 -33 q-86.5 -15 -189.5 -15 q-154 0 -285 51.5 q-131 51.5 -227 146.5 q-96 95 -150.5 228 q-54.5 133 -54.5 297 q0 166 55 299 q55 133 152.5 226 q97.5 93 232 142.5 q134.5 49.5 293.5 49.5 q101 0 185 -12.5 q84 -12.5 146 -27.5 q72 -18 130 -40 l0 -354 l-160 0 l-41 221 q-2 11 -13 24.5 q-11 13.5 -24 18.5 q-48 18 -89 26.5 q-41 8.5 -58 8.5 q-89 0 -160.5 -22.5 q-71.5 -22.5 -126 -62 q-54.5 -39.5 -93.5 -93.5 q-39 -54 -64 -118 q-25 -64 -36.5 -134.5 q-11.5 -70.5 -11.5 -143.5 q0 -132 33 -238.5 q33 -106.5 96.5 -182 q63.5 -75.5 156.5 -116 q93 -40.5 214 -40.5 q14 0 34.5 -1.5 q20.5 -1.5 57.5 1.5 l0 399 q0 20 -14 32.5 q-14 12.5 -33 12.5 l-137 10 l0 105 l618 0 l0 -105 l-104 -10 Z"/><glyph glyph-name="H" unicode="h" d="M918 0 l0 104 l106 11 q19 2 32 13.5 q13 11.5 13 31.5 l0 495 l-563 0 l0 -495 q0 -20 13 -31.5 q13 -11.5 32 -13.5 l108 -11 l0 -104 l-598 0 l0 104 l107 11 q19 2 32 13.5 q13 11.5 13 31.5 l0 1054 q0 20 -13 32 q-13 12 -32 14 l-107 10 l0 104 l598 0 l0 -104 l-108 -10 q-19 -2 -32 -14 q-13 -12 -13 -32 l0 -428 l563 0 l0 428 q0 20 -13 32 q-13 12 -32 14 l-106 10 l0 104 l595 0 l0 -104 l-106 -10 q-17 -2 -31 -14 q-14 -12 -14 -32 l0 -1054 q0 -20 13 -31.5 q13 -11.5 32 -13.5 l106 -11 l0 -104 l-595 0 Z"/><glyph glyph-name="I" unicode="i" d="M47 0 l0 104 l127 11 q19 2 32 13.5 q13 11.5 13 31.5 l0 1054 q0 20 -13 32 q-13 12 -32 14 l-127 10 l0 104 l639 0 l0 -104 l-127 -10 q-17 -2 -32 -14 q-15 -12 -15 -32 l0 -1054 q0 -20 15 -31.5 q15 -11.5 32 -13.5 l127 -11 l0 -104 l-639 0 Z"/><glyph glyph-name="J" unicode="j" d="M879 1260 q-19 -2 -32 -14 q-13 -12 -13 -32 l0 -718 q0 -119 -28 -216 q-28 -97 -86.5 -167 q-58.5 -70 -149 -108 q-90.5 -38 -216.5 -38 q-42 0 -86 6 q-44 6 -84.5 14.5 q-40.5 8.5 -75.5 18.5 q-35 10 -59 19 l0 374 l160 0 l47 -274 q3 -10 10 -18 q6 -7 16 -12 q10 -5 27 -5 q57 0 100.5 21 q43.5 21 73.5 69 q30 48 45 127 q15 79 15 195 l0 712 q0 20 -14 32 q-14 12 -31 14 l-127 10 l0 104 l633 0 l0 -104 l-125 -10 Z"/><glyph glyph-name="K" unicode="k" d="M952 0 l0 76 l-334 524 l-112 0 l0 -440 q0 -20 13 -31.5 q13 -11.5 32 -13.5 l108 -11 l0 -104 l-600 0 l0 104 l109 11 q19 2 32 13.5 q13 11.5 13 31.5 l0 1054 q0 20 -13 32 q-13 12 -32 14 l-109 10 l0 104 l600 0 l0 -104 l-108 -10 q-19 -2 -32 -14 q-13 -12 -13 -32 l0 -516 l57 0 l441 537 q5 6 2.5 15.5 q-2.5 9.5 -13.5 9.5 l-116 10 l0 104 l469 0 l0 -104 q-22 -2 -47 -4 q-21 -2 -46.5 -4.5 q-25.5 -2.5 -50.5 -4.5 l-381 -454 l430 -686 l146 -13 l0 -104 l-445 0 Z"/><glyph glyph-name="L" unicode="l" d="M55 0 l0 104 l113 11 q19 2 32 13.5 q13 11.5 13 31.5 l0 1054 q0 20 -13 32 q-13 12 -32 14 l-113 10 l0 104 l611 0 l0 -104 l-115 -10 q-19 -2 -32 -14 q-13 -12 -13 -32 l0 -1089 l356 0 q11 0 19.5 5 q8.5 5 15 12.5 q6.5 7.5 10 15.5 q3.5 8 4.5 14 l27 236 l164 0 l0 -408 l-1047 0 Z"/><glyph glyph-name="M" unicode="m" d="M1196 0 l0 104 l100 11 q17 2 31 13.5 q14 11.5 14 31.5 l0 1075 l-411 -1235 l-158 0 l-403 1227 l0 -1067 q0 -20 14 -31.5 q14 -11.5 31 -13.5 l110 -11 l0 -104 l-473 0 l0 104 l115 11 q18 2 32.5 13.5 q14.5 11.5 14.5 31.5 l0 1054 q0 20 -14.5 32 q-14.5 12 -32.5 14 l-115 10 l0 104 l588 0 l0 -57 l289 -877 l286 877 l0 57 l582 0 l0 -104 l-117 -10 q-18 -2 -31.5 -14 q-13.5 -12 -13.5 -32 l0 -1054 q0 -20 13.5 -31.5 q13.5 -11.5 31.5 -13.5 l117 -11 l0 -104 l-600 0 Z"/><glyph glyph-name="N" unicode="n" d="M1354 1260 q-17 -2 -31 -14 q-14 -12 -14 -32 l0 -1214 l-250 0 l-690 1083 l0 -923 q0 -20 14 -31.5 q14 -11.5 31 -13.5 l114 -11 l0 -104 l-473 0 l0 104 l113 11 q19 2 32 13.5 q13 11.5 13 31.5 l0 1054 q0 20 -13 32 q-13 12 -32 14 l-111 10 l0 104 l506 0 l0 -55 l590 -924 l0 819 q0 20 -14.5 32 q-14.5 12 -32.5 14 l-117 10 l0 104 l475 0 l0 -104 l-110 -10 Z"/><glyph glyph-name="O" unicode="o" d="M1145 672 q0 120 -22.5 228.5 q-22.5 108.5 -67.5 190.5 q-45 82 -112.5 130.5 q-67.5 48.5 -156.5 48.5 q-71 0 -127 -24 q-56 -24 -98.5 -65.5 q-42.5 -41.5 -72.5 -97.5 q-30 -56 -49 -120.5 q-19 -64.5 -27.5 -134 q-8.5 -69.5 -8.5 -138.5 q0 -73 9.5 -145 q9.5 -72 28.5 -138 q19 -66 49 -123 q30 -57 70 -98.5 q40 -41.5 91.5 -65.5 q51.5 -24 114.5 -24 q68 0 123 24.5 q55 24.5 97 66.5 q42 42 72 98 q30 56 49.5 120 q19.5 64 28.5 132.5 q9 68.5 9 134.5 ZM1475 680 q0 -147 -49.5 -276.5 q-49.5 -129.5 -140.5 -226.5 q-91 -97 -218 -153.5 q-127 -56.5 -281 -56.5 q-153 0 -283.5 48.5 q-130.5 48.5 -225 141.5 q-94.5 93 -148 229 q-53.5 136 -53.5 310 q0 151 47 281.5 q47 130.5 135.5 225.5 q88.5 95 217 149.5 q128.5 54.5 292.5 54.5 q106 0 200 -26.5 q94 -26.5 172.5 -74 q78.5 -47.5 140.5 -114 q62 -66.5 105 -147.5 q43 -81 66 -173.5 q23 -92.5 23 -191.5 Z"/><glyph glyph-name="P" unicode="p" d="M1178 958 q0 -88 -21.5 -155.5 q-21.5 -67.5 -59.5 -118 q-38 -50.5 -89.5 -85 q-51.5 -34.5 -111 -55.5 q-59.5 -21 -125 -30.5 q-65.5 -9.5 -130.5 -9.5 q-29 0 -61 -0.5 q-32 -0.5 -74 4.5 l0 -348 q0 -20 13 -31.5 q13 -11.5 32 -13.5 l129 -11 l0 -104 l-627 0 l0 104 l113 11 q18 2 32.5 13.5 q14.5 11.5 14.5 31.5 l0 1054 q0 20 -14.5 32 q-14.5 12 -32.5 14 l-119 10 l0 104 l574 0 q69 0 137 -5.5 q68 -5.5 130 -22 q62 -16.5 115 -45 q53 -28.5 92 -75 q39 -46.5 61 -112.5 q22 -66 22 -156 ZM872 948 q0 72 -18 128 q-18 56 -51 94.5 q-33 38.5 -79 58.5 q-46 20 -103 20 l-115 0 l0 -618 q12 -1 19.5 -1.5 q7.5 -0.5 12.5 -0.5 l23 0 q71 1 128.5 18 q57.5 17 98 55 q40.5 38 62.5 98.5 q22 60.5 22 147.5 Z"/><glyph glyph-name="Q" unicode="q" d="M1145 672 q0 120 -22.5 228.5 q-22.5 108.5 -67.5 190.5 q-45 82 -112.5 130.5 q-67.5 48.5 -156.5 48.5 q-71 0 -127 -24 q-56 -24 -98.5 -65.5 q-42.5 -41.5 -72.5 -97.5 q-30 -56 -49 -120.5 q-19 -64.5 -27.5 -134 q-8.5 -69.5 -8.5 -138.5 q0 -73 9.5 -145 q9.5 -72 28.5 -138 q19 -66 49 -123 q30 -57 70 -98.5 q40 -41.5 91.5 -65.5 q51.5 -24 114.5 -24 q68 0 123 24.5 q55 24.5 97 66.5 q42 42 72 98 q30 56 49.5 120 q19.5 64 28.5 132.5 q9 68.5 9 134.5 ZM1407 -330 q-106 -24 -193 -35.5 q-87 -11.5 -170 -11.5 q-110 0 -188 25.5 q-78 25.5 -127 72 q-49 46.5 -72 112.5 q-23 66 -24 147 q-124 22 -226.5 79.5 q-102.5 57.5 -176 148.5 q-73.5 91 -114 213.5 q-40.5 122.5 -40.5 274.5 q0 151 47 281.5 q47 130.5 135.5 225.5 q88.5 95 217 149.5 q128.5 54.5 292.5 54.5 q106 0 200 -26.5 q94 -26.5 172.5 -74 q78.5 -47.5 140.5 -114 q62 -66.5 105 -147.5 q43 -81 66 -173.5 q23 -92.5 23 -191.5 q0 -128 -38 -243 q-38 -115 -108 -207.5 q-70 -92.5 -169.5 -156.5 q-99.5 -64 -221.5 -89 q-2 -56 20.5 -98.5 q22.5 -42.5 61 -72 q38.5 -29.5 90 -44.5 q51.5 -15 107.5 -15 q30 0 76 4.5 q46 4.5 114 20.5 l0 -109 Z"/><glyph glyph-name="R" unicode="r" d="M1442 0 q-68 -8 -116.5 -20.5 q-48.5 -12.5 -86.5 -12.5 q-99 0 -165 27.5 q-66 27.5 -109.5 72 q-43.5 44.5 -70.5 101.5 q-27 57 -48.5 116.5 q-21.5 59.5 -42.5 116.5 q-21 57 -53 101.5 q-32 44.5 -80 72 q-48 27.5 -123 27.5 l-41 0 l0 -442 q0 -20 13 -31.5 q13 -11.5 32 -13.5 l113 -11 l0 -104 l-607 0 l0 104 l109 11 q18 2 32.5 13.5 q14.5 11.5 14.5 31.5 l0 1054 q0 20 -14.5 32 q-14.5 12 -32.5 14 l-109 10 l0 104 l680 0 q38 0 86 -5 q48 -5 97.5 -18.5 q49.5 -13.5 97 -37.5 q47.5 -24 84.5 -61.5 q37 -37.5 59.5 -91 q22.5 -53.5 22.5 -126.5 q0 -69 -18.5 -121 q-18.5 -52 -49 -90.5 q-30.5 -38.5 -69 -65 q-38.5 -26.5 -78.5 -43 q-40 -16.5 -77 -25.5 q-37 -9 -65 -13 q67 -13 114 -38.5 q47 -25.5 79 -59.5 q32 -34 52.5 -74 q20.5 -40 35 -82.5 q14.5 -42.5 26 -84.5 q11.5 -42 26.5 -80 q15 -38 35.5 -69.5 q20.5 -31.5 52.5 -53 q32 -21.5 79 -30 q47 -8.5 115 -0.5 l0 -104 ZM877 995 q0 130 -78 193 q-78 63 -228 63 q-8 1 -19 1 l-21 0 q-12 0 -25 -1 l0 -524 q26 -2 42.5 -3 q16.5 -1 24.5 -1 q48 0 101.5 9.5 q53.5 9.5 98.5 39 q45 29.5 74.5 83 q29.5 53.5 29.5 140.5 Z"/><glyph glyph-name="S" unicode="s" d="M1022 401 q0 -108 -45 -189.5 q-45 -81.5 -120.5 -135.5 q-75.5 -54 -174.5 -81.5 q-99 -27.5 -207 -27.5 q-81 0 -152.5 12 q-71.5 12 -126.5 27 q-64 17 -120 39 l0 375 l162 0 l34 -248 q2 -12 12 -21.5 q10 -9.5 15 -9.5 q24 -10 50 -18 q23 -7 51 -12 q28 -5 57 -5 q45 0 92 11 q47 11 85.5 34 q38.5 23 62.5 60 q24 37 24 88 q0 64 -30 110.5 q-30 46.5 -78 84 q-48 37.5 -108.5 69 q-60.5 31.5 -121.5 64.5 q-54 29 -104.5 62.5 q-50.5 33.5 -89.5 76.5 q-39 43 -62 98 q-23 55 -23 127 q0 100 40 177.5 q40 77.5 108 130.5 q68 53 157.5 80.5 q89.5 27.5 188.5 27.5 q78 0 148 -13 q70 -13 124 -28 q62 -18 115 -41 l0 -336 l-158 0 l-34 219 q-1 4 -5.5 9 q-4.5 5 -9.5 10 q-6 5 -14 10 q-11 9 -29 16 q-15 6 -38 11.5 q-23 5.5 -56 5.5 q-51 0 -96.5 -12 q-45.5 -12 -80 -35 q-34.5 -23 -55 -58 q-20.5 -35 -20.5 -80 q0 -54 23 -95.5 q23 -41.5 61.5 -74.5 q38.5 -33 88.5 -60 q50 -27 104 -54 q64 -32 127.5 -67 q63.5 -35 114.5 -80.5 q51 -45.5 82.5 -106.5 q31.5 -61 31.5 -146 Z"/><glyph glyph-name="T" unicode="t" d="M1065 999 l-37 228 q-3 24 -29 24 l-229 0 l0 -1091 q0 -20 13.5 -31.5 q13.5 -11.5 31.5 -13.5 l121 -11 l0 -104 l-625 0 l0 104 l119 11 q19 2 33 13.5 q14 11.5 14 31.5 l0 1091 l-229 0 q-28 0 -31 -24 l-37 -228 l-147 0 l0 375 l1181 0 l0 -375 l-149 0 Z"/><glyph glyph-name="U" unicode="u" d="M1331 1260 q-17 -2 -31 -14 q-14 -12 -14 -32 l0 -694 q0 -151 -34 -256.5 q-34 -105.5 -103 -171.5 q-69 -66 -174.5 -95.5 q-105.5 -29.5 -249.5 -29.5 q-264 0 -393 141.5 q-129 141.5 -129 411.5 l0 694 q0 20 -14.5 32 q-14.5 12 -32.5 14 l-111 10 l0 104 l606 0 l0 -104 l-110 -10 q-17 -2 -31 -14 q-14 -12 -14 -32 l0 -710 q0 -192 81 -279.5 q81 -87.5 250 -87.5 q81 0 138 26.5 q57 26.5 94 74.5 q37 48 54 115.5 q17 67.5 17 150.5 l0 710 q0 20 -13 32 q-13 12 -32 14 l-116 10 l0 104 l471 0 l0 -104 l-109 -10 Z"/><glyph glyph-name="V" unicode="v" d="M1296 1253 l-471 -1286 l-194 0 l-479 1284 l-132 19 l0 104 l584 0 l0 -104 l-115 -15 q-18 -3 -21.5 -17.5 q-3.5 -14.5 1.5 -27.5 l324 -891 l313 893 q3 13 -1.5 26.5 q-4.5 13.5 -27.5 16.5 l-110 15 l0 104 l458 0 l0 -104 l-129 -17 Z"/><glyph glyph-name="W" unicode="w" d="M1833 1253 l-322 -1286 l-194 0 l-320 1065 l-313 -1065 l-197 0 l-342 1286 l-125 17 l0 104 l558 0 l0 -104 l-121 -13 q-19 -2 -20.5 -16 q-1.5 -14 1.5 -27 l217 -811 l287 971 l221 0 l297 -993 l205 833 q3 13 -2 26.5 q-5 13.5 -27 16.5 l-131 13 l0 104 l453 0 l0 -104 l-125 -17 Z"/><glyph glyph-name="X" unicode="x" d="M739 0 l0 104 l125 9 q14 2 18.5 16 q4.5 14 -8.5 33 l-229 360 l-276 -358 q-8 -9 -9 -17.5 q-1 -8.5 2 -15.5 q3 -7 8.5 -11 q5.5 -4 10.5 -5 l123 -11 l0 -104 l-484 0 l0 104 l132 17 l407 534 l-383 596 l-129 19 l0 104 l600 0 l0 -104 l-108 -10 q-11 0 -17 -15 q-6 -15 6 -35 l205 -323 l252 325 q14 17 8 33.5 q-6 16.5 -20 16.5 l-109 8 l0 104 l467 0 l0 -104 l-129 -19 l-383 -497 l406 -633 l129 -17 l0 -104 l-615 0 Z"/><glyph glyph-name="Y" unicode="y" d="M1219 1251 l-379 -657 l0 -434 q0 -20 13 -31.5 q13 -11.5 32 -13.5 l125 -11 l0 -104 l-635 0 l0 104 l125 11 q17 2 32 13.5 q15 11.5 15 31.5 l0 377 l-395 714 l-132 19 l0 104 l582 0 l0 -104 l-108 -10 q-11 0 -16.5 -15 q-5.5 -15 5.5 -35 l258 -485 l279 487 q11 19 7.5 34.5 q-3.5 15.5 -17.5 15.5 l-125 8 l0 104 l452 0 l0 -104 l-118 -19 Z"/><glyph glyph-name="Z" unicode="z" d="M76 0 l0 121 l702 1128 l-452 0 q-26 0 -29 -24 l-37 -224 l-149 0 l0 373 l993 0 l0 -121 l-701 -1126 l490 0 q25 0 31 23 l41 253 l149 0 l0 -403 l-1038 0 Z"/><glyph glyph-name="bracketleft" unicode="[" d="M480 -270 l0 1720 l568 0 l0 -123 l-314 0 l0 -1479 l314 0 l0 -118 l-568 0 Z"/><glyph glyph-name="backslash" unicode="\" d="M852 -190 l-852 1564 l160 0 l852 -1564 l-160 0 Z"/><glyph glyph-name="bracketright" unicode="]" d="M74 -270 l0 118 l313 0 l0 1479 l-313 0 l0 123 l567 0 l0 -1720 l-567 0 Z"/><glyph glyph-name="underscore" unicode="_" d="M0 -340 l0 165 l696 0 l0 -165 l-696 0 Z"/><glyph glyph-name="a" unicode="a" d="M717 0 l-27 102 q-53 -36 -111 -64 q-51 -24 -114 -43.5 q-63 -19.5 -131 -19.5 q-56 0 -104.5 18.5 q-48.5 18.5 -85 53 q-36.5 34.5 -57.5 83.5 q-21 49 -21 110 q0 46 7.5 85 q7.5 39 30 72.5 q22.5 33.5 64.5 64 q42 30.5 111.5 59.5 q69.5 29 170.5 58 q101 29 242 60 l0 25 q0 15 1 27 q0 14 1 28 q1 29 -6 62.5 q-7 33.5 -28 62 q-21 28.5 -59 47 q-38 18.5 -99 18.5 q-21 0 -37.5 -1 q-16.5 -1 -27.5 -3 q-13 -2 -23 -4 l0 -194 l-211 0 q-26 -2 -46 5 q-17 6 -31.5 21 q-14.5 15 -14.5 47 q0 57 40.5 102 q40.5 45 106 76.5 q65.5 31.5 147 48.5 q81.5 17 162.5 17 q88 0 161 -13 q73 -13 125.5 -50.5 q52.5 -37.5 81 -105.5 q28.5 -68 28.5 -179 l0 -526 q0 -19 13 -32.5 q13 -13.5 32 -15.5 l90 -6 l0 -96 l-381 0 ZM690 528 q-99 -20 -163.5 -41 q-64.5 -21 -102.5 -48 q-38 -27 -53 -61.5 q-15 -34.5 -15 -80.5 q0 -32 10.5 -59.5 q10.5 -27.5 30 -48 q19.5 -20.5 46.5 -32.5 q27 -12 59 -12 q33 0 66.5 7 q33.5 7 60.5 15 q32 10 61 23 l0 338 Z"/><glyph glyph-name="b" unicode="b" d="M1159 561 q0 -118 -40 -220.5 q-40 -102.5 -116.5 -178 q-76.5 -75.5 -188 -119 q-111.5 -43.5 -255.5 -43.5 l-375 0 l0 1329 l-143 0 l0 84 l313 103 l105 0 l0 -586 q43 26 91 47 q42 17 95 32 q53 15 111 15 q82 0 155.5 -31 q73.5 -31 128.5 -90.5 q55 -59.5 87 -145.5 q32 -86 32 -196 ZM862 500 q0 83 -19 148.5 q-19 65.5 -56 111.5 q-37 46 -92.5 70 q-55.5 24 -127.5 24 q-19 0 -37.5 -2 q-18.5 -2 -34.5 -4 l-36 -6 l0 -727 q18 0 25.5 -1 q7.5 -1 17.5 -1 q85 0 152 19.5 q67 19.5 113 65 q46 45.5 70.5 119.5 q24.5 74 24.5 183 Z"/><glyph glyph-name="c" unicode="c" d="M965 90 q-26 -12 -63.5 -31 q-37.5 -19 -87 -38 q-49.5 -19 -112.5 -32.5 q-63 -13.5 -141 -13.5 q-120 0 -212 41 q-92 41 -155 110.5 q-63 69.5 -95.5 160.5 q-32.5 91 -32.5 192 q0 121 41.5 221.5 q41.5 100.5 113 172.5 q71.5 72 167.5 111.5 q96 39.5 206 39.5 q81 0 146 -16.5 q65 -16.5 111.5 -46.5 q46.5 -30 71.5 -71.5 q25 -41.5 25 -90.5 q0 -35 -12.5 -63 q-12.5 -28 -32.5 -48.5 q-20 -20.5 -46 -31.5 q-26 -11 -54 -11 q-32 0 -53.5 4 q-21.5 4 -36.5 10.5 q-15 6.5 -26 14 q-11 7.5 -21 14.5 l0 230 q-13 0 -20.5 1 q-7.5 1 -18.5 1 q-47 0 -93.5 -24 q-46.5 -24 -83.5 -71.5 q-37 -47.5 -60 -119 q-23 -71.5 -23 -166.5 q0 -90 21.5 -162.5 q21.5 -72.5 61.5 -123.5 q40 -51 98 -78.5 q58 -27.5 130 -27.5 q47 0 94 13 q47 13 86.5 30 q39.5 17 68 33.5 q28.5 16.5 38.5 24.5 l0 -158 Z"/><glyph glyph-name="d" unicode="d" d="M791 864 q-24 10 -50 18 q-22 7 -47.5 13 q-25.5 6 -48.5 6 q-71 0 -124 -29 q-53 -29 -87.5 -80 q-34.5 -51 -51.5 -120 q-17 -69 -17 -148 q0 -81 16.5 -147 q16.5 -66 49.5 -113.5 q33 -47.5 83 -73.5 q50 -26 117 -26 q28 0 56.5 5.5 q28.5 5.5 51.5 13.5 q27 9 52 20 l0 661 ZM791 0 l0 119 q-12 -6 -43 -29.5 q-31 -23.5 -75 -49 q-44 -25.5 -97 -45.5 q-53 -20 -109 -20 q-94 0 -168.5 38 q-74.5 38 -126 105 q-51.5 67 -79 159 q-27.5 92 -27.5 200 q0 132 40 234 q40 102 111 171.5 q71 69.5 169 105.5 q98 36 214 36 q29 0 62.5 -4 q33.5 -4 62.5 -9 q33 -5 66 -12 l0 330 l-152 0 l0 84 l319 103 l105 0 l0 -1366 q0 -19 13 -32.5 q13 -13.5 32 -15.5 l86 -6 l0 -96 l-403 0 Z"/><glyph glyph-name="e" unicode="e" d="M727 668 q0 49 -9 92 q-9 43 -29.5 74.5 q-20.5 31.5 -52.5 50 q-32 18.5 -77 18.5 q-57 0 -95.5 -25.5 q-38.5 -25.5 -62 -66 q-23.5 -40.5 -33.5 -90.5 q-10 -50 -10 -98 l369 0 l0 45 ZM1020 96 q-53 -35 -119 -61 q-57 -23 -136 -41.5 q-79 -18.5 -177 -18.5 q-131 0 -228.5 40 q-97.5 40 -163 109.5 q-65.5 69.5 -98 162.5 q-32.5 93 -32.5 200 q0 116 36.5 214.5 q36.5 98.5 104 170 q67.5 71.5 163 112 q95.5 40.5 212.5 40.5 q120 0 203.5 -39.5 q83.5 -39.5 135.5 -105 q52 -65.5 75.5 -149.5 q23.5 -84 23.5 -173 l0 -49 l-672 0 q0 -84 21 -151 q21 -67 61.5 -114 q40.5 -47 99.5 -72.5 q59 -25.5 134 -25.5 q78 0 142.5 17.5 q64.5 17.5 112.5 39.5 q55 26 101 58 l0 -164 Z"/><glyph glyph-name="f" unicode="f" d="M860 1352 q0 -24 -10.5 -45 q-10.5 -21 -28 -38.5 q-17.5 -17.5 -40.5 -30.5 q-23 -13 -48 -21 l-203 190 q-15 -23 -27.5 -48.5 q-12.5 -25.5 -20.5 -61 q-8 -35.5 -12.5 -84.5 q-4.5 -49 -4.5 -119 l0 -119 l223 0 l0 -131 l-221 0 l0 -694 q0 -19 12.5 -33.5 q12.5 -14.5 32.5 -14.5 l125 -6 l0 -96 l-594 0 l0 96 l104 6 q19 2 32.5 15.5 q13.5 13.5 13.5 32.5 l0 694 l-134 0 l0 82 l131 67 q0 81 22.5 153 q22.5 72 66.5 140 q30 50 70.5 92 q40.5 42 89.5 73 q49 31 105.5 48 q56.5 17 119.5 17 q30 0 64.5 -9.5 q34.5 -9.5 64 -29 q29.5 -19.5 48.5 -51 q19 -31.5 19 -74.5 Z"/><glyph glyph-name="g" unicode="g" d="M793 -141 q0 36 -22 62 q-22 26 -57 44.5 q-35 18.5 -79 30.5 q-44 12 -88 19.5 q-44 7.5 -83 11 q-39 3.5 -65 6.5 q-10 -15 -21 -31 q-11 -16 -20.5 -35 q-9.5 -19 -15.5 -42.5 q-6 -23.5 -6 -51.5 q-1 -49 19 -91.5 q20 -42.5 52 -74 q32 -31.5 72.5 -49.5 q40.5 -18 81.5 -18 q41 0 82.5 15.5 q41.5 15.5 74.5 44 q33 28.5 54 69 q21 40.5 21 90.5 ZM709 688 q0 42 -9.5 84.5 q-9.5 42.5 -29 76 q-19.5 33.5 -48.5 54.5 q-29 21 -67 21 q-46 0 -78 -20.5 q-32 -20.5 -51.5 -54.5 q-19.5 -34 -28 -76.5 q-8.5 -42.5 -8.5 -86.5 q0 -45 9.5 -89.5 q9.5 -44.5 29 -79 q19.5 -34.5 50.5 -56 q31 -21.5 73 -21.5 q42 0 71.5 21.5 q29.5 21.5 49 57 q19.5 35.5 28.5 80 q9 44.5 9 89.5 ZM938 840 q11 -22 20 -47 q8 -22 14.5 -49.5 q6.5 -27.5 6.5 -59.5 q0 -69 -23 -121.5 q-23 -52.5 -61.5 -91 q-38.5 -38.5 -88.5 -64.5 q-50 -26 -104.5 -41 q-54.5 -15 -109.5 -20 q-55 -5 -103 -2 q-18 -12 -32.5 -25 q-14.5 -13 -22.5 -27.5 q-8 -14.5 -8.5 -31.5 q-0.5 -17 8.5 -39 q168 -14 286.5 -39 q118.5 -25 193.5 -62 q75 -37 109 -87.5 q34 -50.5 34 -114.5 q0 -59 -22.5 -111 q-22.5 -52 -61.5 -95.5 q-39 -43.5 -92 -78 q-53 -34.5 -114.5 -58 q-61.5 -23.5 -128.5 -36 q-67 -12.5 -134 -12.5 q-81 0 -159.5 18.5 q-78.5 18.5 -140.5 57.5 q-62 39 -100 99 q-38 60 -38 142 q0 64 24 106.5 q24 42.5 57 68 q33 25.5 67.5 34.5 q34.5 9 55.5 6 q-14 28 -20 58.5 q-6 30.5 -6 50.5 q0 26 7 49.5 q7 23.5 21 46 q14 22.5 35.5 45.5 q21.5 23 50.5 49 q-27 6 -69.5 25 q-42.5 19 -83 55.5 q-40.5 36.5 -70 92 q-29.5 55.5 -29.5 135.5 q0 92 35.5 159.5 q35.5 67.5 97 111.5 q61.5 44 144 65.5 q82.5 21.5 176.5 21.5 q48 0 90.5 -7 q42.5 -7 79 -16.5 q36.5 -9.5 67 -20.5 q30.5 -11 56.5 -19 l266 0 l0 -121 l-180 0 Z"/><glyph glyph-name="h" unicode="h" d="M713 0 l0 96 l65 6 q19 2 32 15.5 q13 13.5 13 32.5 l0 483 q0 25 -5.5 60 q-5.5 35 -23.5 66.5 q-18 31.5 -52 54 q-34 22.5 -91 22.5 q-31 0 -64.5 -4.5 q-33.5 -4.5 -62.5 -9.5 q-33 -6 -65 -13 l0 -659 q0 -19 13 -32.5 q13 -13.5 32 -15.5 l71 -6 l0 -96 l-520 0 l0 96 l84 6 q19 2 32 15.5 q13 13.5 13 32.5 l0 1179 l-145 0 l0 84 l313 103 l107 0 l0 -619 q57 35 119 63 q26 12 55.5 23.5 q29.5 11.5 60 20.5 q30.5 9 62 14.5 q31.5 5.5 61.5 5.5 q60 0 104.5 -15.5 q44.5 -15.5 76 -41 q31.5 -25.5 51 -59 q19.5 -33.5 30.5 -69.5 q11 -36 15 -71.5 q4 -35.5 4 -65.5 l0 -552 q0 -19 13 -32.5 q13 -13.5 32 -15.5 l86 -6 l0 -96 l-516 0 Z"/><glyph glyph-name="i" unicode="i" d="M66 0 l0 96 l94 6 q18 2 31.5 15.5 q13.5 13.5 13.5 32.5 l0 688 l-131 0 l0 84 l299 102 l104 0 l0 -874 q0 -19 14.5 -32.5 q14.5 -13.5 32.5 -15.5 l99 -6 l0 -96 l-557 0 ZM506 1358 q0 -33 -12.5 -62 q-12.5 -29 -34.5 -51 q-22 -22 -51 -34.5 q-29 -12.5 -62 -12.5 q-33 0 -62 12.5 q-29 12.5 -50 34.5 q-21 22 -33.5 51 q-12.5 29 -12.5 62 q0 33 12.5 62 q12.5 29 33.5 50 q21 21 50 33.5 q29 12.5 62 12.5 q33 0 62 -12.5 q29 -12.5 51 -33.5 q22 -21 34.5 -50 q12.5 -29 12.5 -62 Z"/><glyph glyph-name="j" unicode="j" d="M477 96 q0 -112 -27 -217 q-27 -105 -85 -186 q-56 -76 -141 -121 q-85 -45 -204 -45 q-41 0 -78 10 q-37 10 -65 30 q-28 20 -44.5 49 q-16.5 29 -16.5 67 q0 27 10.5 51 q10.5 24 28.5 42.5 q18 18.5 42 30 q24 11.5 50 13.5 l200 -203 q12 19 21 45.5 q9 26.5 15 56.5 q6 30 10 61.5 q4 31.5 7 61.5 q5 70 5 148 l0 848 l-146 0 l0 84 l314 102 l104 0 l0 -928 ZM498 1358 q0 -33 -12.5 -62 q-12.5 -29 -33.5 -51 q-21 -22 -50 -34.5 q-29 -12.5 -62 -12.5 q-33 0 -62 12.5 q-29 12.5 -51 34.5 q-22 22 -34.5 51 q-12.5 29 -12.5 62 q0 33 12.5 62 q12.5 29 34.5 50 q22 21 51 33.5 q29 12.5 62 12.5 q33 0 62 -12.5 q29 -12.5 50 -33.5 q21 -21 33.5 -50 q12.5 -29 12.5 -62 Z"/><glyph glyph-name="k" unicode="k" d="M780 0 l0 84 l-225 379 l-96 0 l0 -313 q0 -19 12.5 -32.5 q12.5 -13.5 32.5 -15.5 l82 -6 l0 -96 l-533 0 l0 96 l86 6 q19 2 32 15.5 q13 13.5 13 32.5 l0 1179 l-143 0 l0 84 l313 103 l105 0 l0 -984 l45 0 l274 328 q10 11 5.5 22 q-4.5 11 -19.5 13 l-78 8 l0 96 l426 0 l0 -96 l-135 -16 l-219 -250 l315 -531 l121 -10 l0 -96 l-414 0 Z"/><glyph glyph-name="l" unicode="l" d="M59 0 l0 96 l101 6 q20 2 32.5 15 q12.5 13 12.5 33 l0 1179 l-146 0 l0 84 l314 103 l104 0 l0 -1366 q0 -20 12.5 -33 q12.5 -13 32.5 -15 l103 -6 l0 -96 l-566 0 Z"/><glyph glyph-name="m" unicode="m" d="M1296 0 l0 96 l64 6 q18 2 32.5 15.5 q14.5 13.5 14.5 32.5 l0 493 q0 37 -9 72 q-9 35 -29.5 62 q-20.5 27 -54.5 43 q-34 16 -85 16 q-33 0 -62.5 -5.5 q-29.5 -5.5 -52.5 -11.5 q-26 -7 -49 -16 l0 -653 q0 -19 13 -32.5 q13 -13.5 32 -15.5 l64 -6 l0 -96 l-492 0 l0 96 l63 6 q19 2 32.5 15.5 q13.5 13.5 13.5 32.5 l0 493 q0 37 -10 72 q-10 35 -31 62 q-21 27 -54.5 43 q-33.5 16 -81.5 16 q-42 0 -73.5 -5.5 q-31.5 -5.5 -51.5 -11.5 q-24 -7 -40 -16 l0 -653 q0 -19 14 -32.5 q14 -13.5 33 -15.5 l63 -6 l0 -96 l-504 0 l0 96 l76 6 q19 2 32 15.5 q13 13.5 13 32.5 l0 686 l-131 0 l0 84 l301 104 l103 0 l0 -125 q52 35 108 62 q48 23 107.5 43 q59.5 20 119.5 20 q58 0 99 -15.5 q41 -15.5 69.5 -37 q28.5 -21.5 47 -45.5 q18.5 -24 32.5 -41 q60 38 122 69 q27 13 57 25.5 q30 12.5 61.5 22.5 q31.5 10 63 16 q31.5 6 61.5 6 q62 0 107 -16.5 q45 -16.5 76.5 -43.5 q31.5 -27 50.5 -60.5 q19 -33.5 30 -68.5 q11 -35 14.5 -67.5 q3.5 -32.5 3.5 -56.5 l0 -561 q0 -19 13.5 -32.5 q13.5 -13.5 31.5 -15.5 l74 -6 l0 -96 l-502 0 Z"/><glyph glyph-name="n" unicode="n" d="M702 0 l0 96 l76 6 q19 2 32 15.5 q13 13.5 13 32.5 l0 481 q0 39 -9 76 q-9 37 -29 65.5 q-20 28.5 -52 46 q-32 17.5 -78 17.5 q-42 0 -78 -4.5 q-36 -4.5 -62 -9.5 q-31 -6 -56 -13 l0 -659 q0 -19 14 -32.5 q14 -13.5 33 -15.5 l61 -6 l0 -96 l-501 0 l0 96 l73 6 q19 2 32 15.5 q13 13.5 13 32.5 l0 686 l-141 0 l0 84 l309 104 l107 0 l0 -125 q53 35 113 62 q51 23 115 43 q64 20 130 20 q88 0 143 -30.5 q55 -30.5 85 -80.5 q30 -50 40.5 -114 q10.5 -64 10.5 -131 l0 -518 q0 -19 14 -32.5 q14 -13.5 33 -15.5 l63 -6 l0 -96 l-504 0 Z"/><glyph glyph-name="o" unicode="o" d="M827 496 q0 43 -4 90.5 q-4 47.5 -13.5 93.5 q-9.5 46 -26.5 87 q-17 41 -42.5 72 q-25.5 31 -60.5 49.5 q-35 18.5 -82 18.5 q-69 0 -113 -38 q-44 -38 -68.5 -97.5 q-24.5 -59.5 -34 -130.5 q-9.5 -71 -9.5 -137 q0 -44 3.5 -92 q3.5 -48 13 -94 q9.5 -46 25.5 -87 q16 -41 41.5 -72.5 q25.5 -31.5 60.5 -50 q35 -18.5 83 -18.5 q70 0 114 37.5 q44 37.5 69 96.5 q25 59 34.5 131 q9.5 72 9.5 141 ZM1133 494 q0 -115 -36.5 -210.5 q-36.5 -95.5 -106.5 -164 q-70 -68.5 -170.5 -106.5 q-100.5 -38 -227.5 -38 q-117 0 -213.5 36 q-96.5 36 -166 103 q-69.5 67 -108 163.5 q-38.5 96.5 -38.5 218.5 q0 126 40 224 q40 98 111.5 165.5 q71.5 67.5 170.5 103 q99 35.5 218 35.5 q127 0 225 -39 q98 -39 165 -109.5 q67 -70.5 102 -167.5 q35 -97 35 -214 Z"/><glyph glyph-name="p" unicode="p" d="M868 498 q0 67 -15.5 129 q-15.5 62 -47 108.5 q-31.5 46.5 -80 74.5 q-48.5 28 -115.5 28 q-27 0 -53.5 -5 q-26.5 -5 -48.5 -11 q-26 -7 -49 -15 l0 -696 q20 -8 40 -13 q17 -5 36 -8.5 q19 -3.5 36 -3.5 q74 0 129.5 32 q55.5 32 93 87.5 q37.5 55.5 56 131 q18.5 75.5 18.5 161.5 ZM1171 528 q0 -124 -39 -226 q-39 -102 -111 -174.5 q-72 -72.5 -174 -112.5 q-102 -40 -229 -40 q-31 0 -59 3 q-28 3 -51 7 q-26 4 -49 11 l0 -295 q0 -20 12.5 -33.5 q12.5 -13.5 32.5 -13.5 l108 -6 l0 -97 l-563 0 l0 97 l90 6 q19 0 32 13.5 q13 13.5 13 33.5 l0 1135 l-135 0 l0 84 l303 104 l107 0 l0 -129 q48 36 103 64 q47 24 105 44.5 q58 20.5 121 20.5 q62 0 115 -20 q53 -20 95.5 -54.5 q42.5 -34.5 75 -82 q32.5 -47.5 54 -102.5 q21.5 -55 32.5 -115.5 q11 -60.5 11 -121.5 Z"/><glyph glyph-name="q" unicode="q" d="M776 895 q-10 2 -23 4 q-11 2 -26.5 3 q-15.5 1 -32.5 1 q-91 0 -154 -29.5 q-63 -29.5 -102 -81.5 q-39 -52 -56 -123 q-17 -71 -17 -153 q0 -84 19 -151 q19 -67 55 -114 q36 -47 88 -72 q52 -25 118 -25 q23 0 46 1 q23 1 42 3 q22 2 43 4 l0 733 ZM618 -449 l0 97 l113 6 q20 0 32.5 13.5 q12.5 13.5 12.5 33.5 l0 379 q-43 -30 -92 -53 q-43 -20 -98.5 -36 q-55.5 -16 -118.5 -16 q-92 0 -166.5 40 q-74.5 40 -126.5 108 q-52 68 -80 157.5 q-28 89.5 -28 188.5 q0 145 49 250 q49 105 136.5 172.5 q87.5 67.5 209 100 q121.5 32.5 266.5 32.5 q52 0 109 -4 q57 -4 105 -9 q56 -5 110 -12 l0 -1298 q0 -20 13 -33.5 q13 -13.5 32 -13.5 l84 -6 l0 -97 l-562 0 Z"/><glyph glyph-name="r" unicode="r" d="M725 676 q-7 10 -17.5 24 q-10.5 14 -26 27 q-15.5 13 -37.5 22 q-22 9 -52 9 q-29 0 -54 -6 q-25 -6 -42 -13 q-21 -8 -37 -18 l0 -574 q0 -18 12.5 -32.5 q12.5 -14.5 32.5 -14.5 l131 -6 l0 -96 l-586 0 l0 96 l90 6 q19 2 32 15.5 q13 13.5 13 31.5 l0 689 l-149 0 l0 84 l317 104 l107 0 l0 -217 q19 24 51.5 61 q32.5 37 70.5 71.5 q38 34.5 78.5 59.5 q40.5 25 75.5 25 q18 0 37 -3 q19 -3 36.5 -8.5 q17.5 -5.5 32 -12 q14.5 -6.5 23.5 -13.5 l0 -311 l-139 0 Z"/><glyph glyph-name="s" unicode="s" d="M815 686 l-127 0 l-22 164 q-20 23 -62 37 q-42 14 -98 14 q-72 0 -113 -29.5 q-41 -29.5 -41 -83.5 q0 -30 17 -56 q17 -26 46 -49 q29 -23 66 -43.5 q37 -20.5 78 -41.5 q51 -26 103 -53 q52 -27 93 -60 q41 -33 67 -73.5 q26 -40.5 26 -92.5 q0 -97 -37 -162.5 q-37 -65.5 -96 -106 q-59 -40.5 -134 -58 q-75 -17.5 -151 -17.5 q-76 0 -141.5 8.5 q-65.5 8.5 -115.5 19.5 q-58 12 -107 28 l0 311 l129 0 q2 -21 6 -53 q4 -32 8 -62 q4 -35 10 -73 q2 -5 23 -14.5 q21 -9.5 50 -19.5 q29 -10 61 -17 q32 -7 57 -7 q52 0 86 14 q34 14 54 34 q20 20 28 42.5 q8 22.5 8 40.5 q0 42 -26.5 72.5 q-26.5 30.5 -68.5 55.5 q-42 25 -94.5 47.5 q-52.5 22.5 -103.5 48.5 q-43 21 -82 46 q-39 25 -68.5 56 q-29.5 31 -47 70 q-17.5 39 -17.5 90 q0 71 30.5 128.5 q30.5 57.5 85.5 98 q55 40.5 130 62.5 q75 22 165 22 q76 0 136.5 -8.5 q60.5 -8.5 102.5 -19.5 q49 -12 87 -27 l0 -283 Z"/><glyph glyph-name="t" unicode="t" d="M760 45 q-48 -20 -102 -35 q-46 -14 -104.5 -24.5 q-58.5 -10.5 -121.5 -10.5 q-68 0 -115.5 15 q-47.5 15 -77 46.5 q-29.5 31.5 -42.5 78.5 q-13 47 -13 112 l0 641 l-135 0 l0 82 l158 94 l110 218 l142 0 l0 -263 l284 0 l0 -131 l-284 0 l0 -557 q0 -98 43 -138 q43 -40 125 -40 q24 0 48 2 q24 2 43 5 q22 3 42 7 l0 -102 Z"/><glyph glyph-name="u" unicode="u" d="M811 0 l0 113 q-51 -39 -106 -69 q-47 -26 -104 -47.5 q-57 -21.5 -114 -21.5 q-87 0 -145.5 23 q-58.5 23 -93.5 66 q-35 43 -49.5 105 q-14.5 62 -14.5 140 l0 529 l-133 0 l0 84 l301 102 l107 0 l0 -635 q0 -38 5 -78 q5 -40 24 -73 q19 -33 56.5 -54.5 q37.5 -21.5 102.5 -21.5 q32 0 61.5 5 q29.5 5 52.5 12 q26 8 50 18 l0 641 l-129 0 l0 84 l299 102 l104 0 l0 -874 q0 -19 14.5 -32.5 q14.5 -13.5 33.5 -15.5 l90 -6 l0 -96 l-412 0 Z"/><glyph glyph-name="v" unicode="v" d="M1024 889 l-352 -889 l-203 0 l-328 891 l-121 12 l0 96 l539 0 l0 -96 l-94 -6 q-19 -2 -27 -15 q-8 -13 -2 -30 l201 -567 l223 567 q6 15 -4 29 q-10 14 -27 16 l-86 6 l0 96 l398 0 l0 -96 l-117 -14 Z"/><glyph glyph-name="w" unicode="w" d="M1589 889 l-274 -889 l-228 0 l-223 727 l-235 -727 l-223 0 l-265 891 l-121 12 l0 96 l525 0 l0 -96 l-88 -6 q-17 -2 -26.5 -15 q-9.5 -13 -4.5 -30 l160 -563 l229 710 l225 0 l220 -714 l170 567 q5 15 -3.5 29 q-8.5 14 -25.5 16 l-90 6 l0 96 l393 0 l0 -96 l-115 -14 Z"/><glyph glyph-name="x" unicode="x" d="M580 0 l0 96 l79 8 q16 2 20.5 12.5 q4.5 10.5 -3.5 22.5 l-162 221 l-180 -221 q-9 -11 -5 -22 q4 -11 19 -13 l72 -8 l0 -96 l-400 0 l0 96 l123 17 l293 354 l-303 422 l-108 14 l0 96 l503 0 l0 -96 l-59 -6 q-17 -2 -20.5 -14 q-3.5 -12 6.5 -23 l143 -198 l164 198 q8 11 4.5 23 q-3.5 12 -18.5 14 l-66 6 l0 96 l381 0 l0 -96 l-115 -14 l-272 -336 l315 -440 l109 -17 l0 -96 l-520 0 Z"/><glyph glyph-name="y" unicode="y" d="M1032 889 l-354 -869 q-19 -46 -42 -100 q-23 -54 -51.5 -108.5 q-28.5 -54.5 -62.5 -105 q-34 -50.5 -76 -89.5 q-43 -42 -93.5 -66 q-50.5 -24 -110.5 -24 q-30 0 -62.5 11.5 q-32.5 11.5 -59 33 q-26.5 21.5 -43.5 52 q-17 30.5 -16 67.5 q0 28 10.5 51.5 q10.5 23.5 27 42.5 q16.5 19 38 33 q21.5 14 43.5 24 l174 -133 q28 26 52.5 62 q24.5 36 44 74.5 q19.5 38.5 34 74.5 q14.5 36 21.5 62 l-365 909 l-121 12 l0 96 l539 0 l0 -96 l-94 -6 q-19 -2 -28 -15 q-9 -13 -3 -30 l211 -526 l217 526 q6 15 -4 29 q-10 14 -27 16 l-90 6 l0 96 l400 0 l0 -96 l-109 -14 Z"/><glyph glyph-name="z" unicode="z" d="M66 0 l0 133 l524 750 l-309 0 q-16 0 -27.5 -14.5 q-11.5 -14.5 -11.5 -28.5 l-15 -158 l-145 0 l0 317 l829 0 l0 -114 l-536 -764 l352 0 q7 0 14 5 q7 5 13.5 12 q6.5 7 11 15.5 q4.5 8.5 6.5 16.5 l27 174 l141 0 l0 -344 l-874 0 Z"/><glyph glyph-name="braceleft" unicode="{" d="M864 -250 l-40 0 q-27 0 -63.5 1.5 q-36.5 1.5 -78.5 6 q-42 4.5 -83 14 q-41 9.5 -78 24.5 q-37 15 -62 38 q-47 41 -68 97 q-21 56 -27.5 117.5 q-6.5 61.5 -5 125 q1.5 63.5 0.5 121.5 q-1 58 -10.5 106 q-9.5 48 -39.5 78 q-30 30 -69 42.5 q-39 12.5 -74 16.5 q-40 4 -82 -1 l0 122 q42 -6 82 -2 q35 3 74 15.5 q39 12.5 69 42.5 q30 30 39.5 78.5 q9.5 48.5 10.5 106.5 q1 58 -0.5 122 q-1.5 64 5 125.5 q6.5 61.5 27.5 117.5 q21 56 68 97 q25 23 62 38 q37 15 78 24.5 q41 9.5 83 14 q42 4.5 78.5 6 q36.5 1.5 63.5 1.5 l40 0 l0 -113 q-37 0 -73 -5 q-31 -5 -64.5 -16 q-33.5 -11 -56.5 -34 q-31 -30 -42 -74.5 q-11 -44.5 -13 -97 q-2 -52.5 -1 -109.5 q1 -57 -5 -112.5 q-6 -55.5 -24.5 -106.5 q-18.5 -51 -60.5 -90 q-32 -31 -67 -49 q-35 -18 -65 -27 q-30 -9 -53 -12 q-17 -2 -26 -2 q9 -1 26 -3 q23 -3 53 -12.5 q30 -9.5 65 -27.5 q35 -18 67 -49 q42 -40 60.5 -90.5 q18.5 -50.5 24.5 -106 q6 -55.5 5 -112 q-1 -56.5 1 -108.5 q2 -52 13 -96.5 q11 -44.5 42 -74.5 q23 -23 56.5 -34 q33.5 -11 64.5 -16 q36 -5 73 -5 l0 -113 Z"/><glyph glyph-name="bar" unicode="|" d="M320 -528 l0 2158 l175 0 l0 -2158 l-175 0 Z"/><glyph glyph-name="braceright" unicode="}" d="M930 537 q-43 5 -83 1 q-35 -4 -74 -16.5 q-39 -12.5 -68 -42.5 q-30 -31 -40 -79 q-10 -48 -11.5 -106 q-1.5 -58 0 -121.5 q1.5 -63.5 -5 -125 q-6.5 -61.5 -27 -117 q-20.5 -55.5 -66.5 -96.5 q-26 -23 -62.5 -38 q-36.5 -15 -77.5 -24.5 q-41 -9.5 -83 -14 q-42 -4.5 -78.5 -6 q-36.5 -1.5 -64.5 -1.5 l-39 0 l0 113 q37 0 73 5 q31 5 64 16 q33 11 57 34 q31 30 42 74 q11 44 13 96 q2 52 1 108.5 q-1 56.5 4.5 112 q5.5 55.5 24 106.5 q18.5 51 60.5 91 q32 30 66 48 q34 18 64.5 27.5 q30.5 9.5 53.5 12.5 q23 3 32 4 q-7 0 -29.5 2 q-22.5 2 -53 11 q-30.5 9 -65.5 27 q-35 18 -68 50 q-42 40 -60.5 91 q-18.5 51 -24 106.5 q-5.5 55.5 -4.5 112.5 q1 57 -1 109.5 q-2 52.5 -13 96.5 q-11 44 -42 74 q-24 23 -57 34 q-33 11 -64 16 q-36 5 -73 5 l0 113 l39 0 q28 0 64.5 -1.5 q36.5 -1.5 78.5 -6 q42 -4.5 83 -14 q41 -9.5 78 -24.5 q37 -15 62 -38 q46 -42 66.5 -97.5 q20.5 -55.5 27 -117 q6.5 -61.5 5 -125.5 q-1.5 -64 0 -122 q1.5 -58 11.5 -106.5 q10 -48.5 40 -78.5 q29 -30 68 -42.5 q39 -12.5 74 -15.5 q40 -4 83 2 l0 -122 Z"/><glyph glyph-name="Ccedilla" unicode="" d="M996 -268 q0 -50 -19 -88 q-19 -38 -52.5 -64 q-33.5 -26 -80 -39.5 q-46.5 -13.5 -100.5 -13.5 q-32 0 -62 3 q-30 3 -53 8 q-27 4 -51 11 l0 103 q23 -5 46 -9 q20 -3 42 -5.5 q22 -2.5 41 -2.5 q20 0 41.5 3 q21.5 3 39 10.5 q17.5 7.5 29 21.5 q11.5 14 11.5 35 q0 18 -7.5 31.5 q-7.5 13.5 -20 22 q-12.5 8.5 -28.5 12.5 q-16 4 -34 4 q-6 0 -13.5 -0.5 q-7.5 -0.5 -14.5 -1.5 q-8 -1 -17 -2 l0 202 q-50 6 -97 18 q-94 24 -174 69 q-80 45 -144 109 q-64 64 -109 144.5 q-45 80.5 -69 175 q-24 94.5 -24 199.5 q0 160 55.5 292 q55.5 132 152.5 227 q97 95 229 147.5 q132 52.5 284 52.5 q58 0 106 -5 q48 -5 96.5 -15.5 q48.5 -10.5 103 -26.5 q54.5 -16 126.5 -39 l0 -348 l-160 0 l-45 229 q0 5 -8 16.5 q-8 11.5 -19 16.5 q-8 4 -24.5 9.5 q-16.5 5.5 -37 10.5 q-20.5 5 -42.5 9 q-22 4 -41 4 q-105 0 -189.5 -41.5 q-84.5 -41.5 -143.5 -118 q-59 -76.5 -90.5 -184 q-31.5 -107.5 -31.5 -240.5 q0 -72 11 -143 q11 -71 34.5 -136 q23.5 -65 61 -120.5 q37.5 -55.5 89.5 -96.5 q52 -41 120.5 -64.5 q68.5 -23.5 154.5 -23.5 q38 0 70 9.5 q32 9.5 49 17.5 q8 3 20 16.5 q12 13.5 15 22.5 l45 242 l162 0 l0 -359 q-19 -8 -59.5 -21.5 q-40.5 -13.5 -97.5 -27 q-57 -13.5 -127.5 -23.5 q-70.5 -10 -149.5 -10 l0 -78 q3 -1 7 -1 q5 -1 22 -1 q35 0 66.5 -9 q31.5 -9 55 -28 q23.5 -19 37 -48.5 q13.5 -29.5 13.5 -69.5 Z"/><glyph glyph-name="ccedilla" unicode="" d="M821 -268 q0 -50 -19 -88 q-19 -38 -52.5 -64 q-33.5 -26 -80 -39.5 q-46.5 -13.5 -100.5 -13.5 q-32 0 -62 3 q-30 3 -53 8 q-27 4 -51 11 l0 103 q23 -5 46 -9 q20 -3 42 -5.5 q22 -2.5 41 -2.5 q20 0 41.5 3 q21.5 3 39 10.5 q17.5 7.5 29 21.5 q11.5 14 11.5 35 q0 18 -7.5 31.5 q-7.5 13.5 -20 22 q-12.5 8.5 -28.5 12.5 q-16 4 -34 4 q-6 0 -13.5 -0.5 q-7.5 -0.5 -14.5 -1.5 q-8 -1 -17 -2 l0 206 q-94 6 -169 39 q-92 41 -155 110.5 q-63 69.5 -95.5 160.5 q-32.5 91 -32.5 192 q0 121 41.5 221.5 q41.5 100.5 113 172.5 q71.5 72 167.5 111.5 q96 39.5 206 39.5 q81 0 146 -16.5 q65 -16.5 111.5 -46.5 q46.5 -30 71.5 -71.5 q25 -41.5 25 -90.5 q0 -35 -12.5 -63 q-12.5 -28 -32.5 -48.5 q-20 -20.5 -46 -31.5 q-26 -11 -54 -11 q-32 0 -53.5 4 q-21.5 4 -36.5 10.5 q-15 6.5 -26 14 q-11 7.5 -21 14.5 l0 230 q-13 0 -20.5 1 q-7.5 1 -18.5 1 q-47 0 -93.5 -24 q-46.5 -24 -83.5 -71.5 q-37 -47.5 -60 -119 q-23 -71.5 -23 -166.5 q0 -90 21.5 -162.5 q21.5 -72.5 61.5 -123.5 q40 -51 98 -78.5 q58 -27.5 130 -27.5 q47 0 94 13 q47 13 86.5 30 q39.5 17 68 33.5 q28.5 16.5 38.5 24.5 l0 -158 q-26 -12 -63.5 -31 q-37.5 -19 -87 -38 q-49.5 -19 -112.5 -32 q-38 -8 -82 -12 l0 -88 q3 -1 7 -1 q5 -1 22 -1 q35 0 66.5 -9 q31.5 -9 55 -28 q23.5 -19 37 -48.5 q13.5 -29.5 13.5 -69.5 Z"/><glyph glyph-name="dagger" unicode="" d="M543 -270 l-62 0 l-106 852 l114 360 l46 0 l114 -360 l-106 -852 ZM178 864 l-137 125 l137 127 l291 -108 l0 -45 l-291 -99 ZM535 1028 l-46 0 l-112 281 l135 157 l129 -157 l-106 -281 ZM838 864 l-283 99 l0 45 l283 108 l145 -127 l-145 -125 Z"/><glyph glyph-name="degree" unicode="" d="M471 1249 q0 30 -11 56 q-11 26 -30.5 45.5 q-19.5 19.5 -45.5 31 q-26 11.5 -56 11.5 q-30 0 -56.5 -11.5 q-26.5 -11.5 -46 -31 q-19.5 -19.5 -30.5 -45.5 q-11 -26 -11 -56 q0 -30 11 -56 q11 -26 30.5 -45.5 q19.5 -19.5 46 -30.5 q26.5 -11 56.5 -11 q30 0 56 11 q26 11 45.5 30.5 q19.5 19.5 30.5 45.5 q11 26 11 56 ZM553 1249 q0 -47 -17.5 -88 q-17.5 -41 -48 -71.5 q-30.5 -30.5 -71.5 -48 q-41 -17.5 -88 -17.5 q-47 0 -88 17.5 q-41 17.5 -72 48 q-31 30.5 -48.5 71.5 q-17.5 41 -17.5 88 q0 47 17.5 88 q17.5 41 48.5 72 q31 31 72 48.5 q41 17.5 88 17.5 q47 0 88 -17.5 q41 -17.5 71.5 -48.5 q30.5 -31 48 -72 q17.5 -41 17.5 -88 Z"/><glyph glyph-name="cent" unicode="" d="M659 928 q-41 -9 -84 -35.5 q-43 -26.5 -78 -75.5 q-35 -49 -57 -123 q-22 -74 -22 -178 q0 -82 20.5 -149 q20.5 -67 54 -116.5 q33.5 -49.5 77 -80.5 q43.5 -31 89.5 -43 l0 801 ZM1067 55 q-7 -7 -28 -14 q-21 -7 -49.5 -13 q-28.5 -6 -61 -11 q-32.5 -5 -63 -9 q-30.5 -4 -54.5 -6 q-24 -2 -35 -2 l0 -211 l-117 0 l0 213 q-107 0 -202 39.5 q-95 39.5 -166.5 109 q-71.5 69.5 -113.5 163.5 q-42 94 -42 202 q0 117 41.5 214.5 q41.5 97.5 113 168.5 q71.5 71 167 110.5 q95.5 39.5 202.5 39.5 l0 211 l117 0 l0 -207 q34 0 73.5 -5 q39.5 -5 79.5 -13.5 q40 -8.5 76 -20 q36 -11.5 62 -23.5 l0 -295 l-127 0 l-22 148 l0 47 q-7 5 -22.5 12 q-15.5 7 -35.5 13.5 q-20 6.5 -42 11 q-22 4.5 -42 4.5 l0 -809 q35 0 61.5 5 q26.5 5 43.5 11 q20 7 34 17 l0 41 l25 163 l127 0 l0 -305 Z"/><glyph glyph-name="sterling" unicode="" d="M86 0 l0 156 q10 4 30 8 q20 4 44 14.5 q24 10.5 49.5 31 q25.5 20.5 46 59.5 q20.5 39 32.5 99 q12 60 11 150 l-2 90 l-143 0 l0 131 l141 0 l-4 36 q-2 16 -3 33.5 q-1 17.5 -1 33.5 q0 120 27 223.5 q27 103.5 85 179.5 q58 76 148 119 q90 43 215 43 q54 0 116 -14 q62 -14 114.5 -44 q52.5 -30 87 -76.5 q34.5 -46.5 34.5 -111.5 q0 -35 -14 -62 q-14 -27 -37.5 -45 q-23.5 -18 -53.5 -27 q-30 -9 -61 -9 q-14 0 -28.5 2.5 q-14.5 2.5 -28.5 6.5 q-16 4 -31 9 l0 250 q-5 2 -13 4 q-7 2 -19 3 q-12 1 -29 1 q-62 0 -104 -24 q-42 -24 -68.5 -62 q-26.5 -38 -40.5 -86.5 q-14 -48.5 -20 -98 q-6 -49.5 -6.5 -95 q-0.5 -45.5 -0.5 -78.5 q0 -25 0.5 -45.5 q0.5 -20.5 1.5 -34.5 q1 -18 2 -31 l371 0 l0 -131 l-367 0 q0 -54 -7.5 -106.5 q-7.5 -52.5 -30.5 -103 q-23 -50.5 -67 -100 q-44 -49.5 -116 -97.5 q35 4 63 8 q24 3 45.5 5.5 q21.5 2.5 26.5 2.5 l633 0 l0 -217 l-1028 0 Z"/><glyph glyph-name="section" unicode="" d="M750 557 q0 46 -20 83.5 q-20 37.5 -51 67 q-31 29.5 -68 52 q-37 22.5 -72 39 q-35 16.5 -62.5 28 q-27.5 11.5 -38.5 19.5 q-2 -1 -15 -5.5 q-13 -4.5 -32 -13.5 q-19 -9 -40.5 -23.5 q-21.5 -14.5 -40 -36 q-18.5 -21.5 -30.5 -50.5 q-12 -29 -12 -66 q0 -43 15 -77 q15 -34 40.5 -62 q25.5 -28 58 -50.5 q32.5 -22.5 67.5 -41.5 q35 -19 70 -35 q35 -16 65 -31 q-5 -3 5 2 q10 5 28.5 17 q18.5 12 41.5 30 q23 18 43 41 q20 23 34 51.5 q14 28.5 14 61.5 ZM938 627 q0 -62 -17.5 -110 q-17.5 -48 -43.5 -84.5 q-26 -36.5 -57 -62 q-31 -25.5 -59 -42 q-28 -16.5 -47.5 -25 q-19.5 -8.5 -23.5 -10.5 q17 -11 51.5 -30 q34.5 -19 69 -50.5 q34.5 -31.5 60.5 -77 q26 -45.5 26 -108.5 q0 -89 -38.5 -150.5 q-38.5 -61.5 -99.5 -99 q-61 -37.5 -137 -54 q-76 -16.5 -151 -16.5 q-74 0 -135.5 10.5 q-61.5 10.5 -106.5 23.5 q-53 15 -96 34 l0 284 l125 0 l27 -190 q20 -12 46 -21 q26 -9 52 -15 q26 -6 50.5 -8.5 q24.5 -2.5 41.5 -2.5 q39 0 74 11.5 q35 11.5 61.5 32 q26.5 20.5 42 49.5 q15.5 29 15.5 65 q0 45 -25 78.5 q-25 33.5 -66 62 q-41 28.5 -93 53.5 q-52 25 -107 52 q-55 27 -107 59.5 q-52 32.5 -93 74.5 q-41 42 -66 97.5 q-25 55.5 -25 128.5 q0 56 15 100 q15 44 38 78 q23 34 51.5 59 q28.5 25 55 42 q26.5 17 48.5 27 q22 10 32 15 q-20 12 -54 32 q-34 20 -66 51.5 q-32 31.5 -55.5 77 q-23.5 45.5 -23.5 110.5 q0 76 34 131.5 q34 55.5 92 92.5 q58 37 133.5 55 q75.5 18 158.5 18 q73 0 133 -8 q60 -8 104 -18 q51 -11 92 -26 l0 -282 l-112 0 l-23 168 q-22 15 -50 27 q-24 11 -59 19.5 q-35 8.5 -79 8.5 q-35 0 -68 -10 q-33 -10 -59.5 -30 q-26.5 -20 -42.5 -49.5 q-16 -29.5 -16 -68.5 q0 -40 24.5 -71.5 q24.5 -31.5 65 -58.5 q40.5 -27 92 -51.5 q51.5 -24.5 105 -51.5 q53.5 -27 105 -58.5 q51.5 -31.5 92 -72.5 q40.5 -41 65 -93.5 q24.5 -52.5 24.5 -121.5 Z"/><glyph glyph-name="bullet" unicode="" d="M543 696 q0 -49 -18.5 -92 q-18.5 -43 -50.5 -74.5 q-32 -31.5 -75 -50 q-43 -18.5 -92 -18.5 q-49 0 -92 18.5 q-43 18.5 -74.5 50 q-31.5 31.5 -50 74.5 q-18.5 43 -18.5 92 q0 49 18.5 92 q18.5 43 50 75 q31.5 32 74.5 50.5 q43 18.5 92 18.5 q49 0 92 -18.5 q43 -18.5 75 -50.5 q32 -32 50.5 -75 q18.5 -43 18.5 -92 Z"/><glyph glyph-name="paragraph" unicode="" d="M883 -162 l-150 0 l0 1407 l-127 0 l0 -694 q-121 0 -222.5 18 q-101.5 18 -174.5 64 q-73 46 -113.5 125.5 q-40.5 79.5 -40.5 202.5 q0 117 35 196 q35 79 100.5 127 q65.5 48 158.5 69 q93 21 210 21 l451 0 l0 -117 l-127 -18 l0 -1401 Z"/><glyph glyph-name="germandbls" unicode="" d="M55 96 l82 6 q19 2 33 13 q14 11 14 32 l0 760 q0 49 8.5 114 q8.5 65 31.5 134 q23 69 63.5 136.5 q40.5 67.5 105 120.5 q64.5 53 155.5 85.5 q91 32.5 214 32.5 q78 0 152.5 -23.5 q74.5 -23.5 133 -70.5 q58.5 -47 94.5 -119.5 q36 -72.5 36 -169.5 q0 -50 -5 -95 q-5 -45 -16 -83 q-18 3 -34 2.5 q-16 -0.5 -27 -0.5 q-34 -1 -67 -9.5 q-33 -8.5 -59.5 -26 q-26.5 -17.5 -42.5 -44.5 q-16 -27 -16 -66 q0 -44 30.5 -78.5 q30.5 -34.5 76.5 -66.5 q46 -32 99 -65 q53 -33 99 -74.5 q46 -41.5 76.5 -94.5 q30.5 -53 30.5 -124 q0 -80 -33 -144 q-33 -64 -88.5 -109 q-55.5 -45 -128.5 -69.5 q-73 -24.5 -153 -24.5 q-55 0 -103.5 6 q-48.5 6 -85.5 14 q-43 9 -80 21 l0 297 l135 0 l17 -192 q10 -9 25 -15 q13 -5 32.5 -9.5 q19.5 -4.5 48.5 -4.5 q37 0 66.5 14 q29.5 14 49.5 36.5 q20 22.5 31 50 q11 27.5 11 55.5 q0 43 -18 74.5 q-18 31.5 -48 57.5 q-30 26 -67.5 47 q-37.5 21 -77.5 43 q-40 22 -77.5 46 q-37.5 24 -67.5 55 q-30 31 -48 71 q-18 40 -18 93 q0 58 17.5 103.5 q17.5 45.5 49 79.5 q31.5 34 73.5 57 q42 23 92 35 q5 32 9 62 l6 52 q3 26 3 43 q0 38 -10.5 80 q-10.5 42 -33 77 q-22.5 35 -57.5 58 q-35 23 -83 23 q-65 0 -108.5 -25.5 q-43.5 -25.5 -71.5 -65.5 q-28 -40 -43 -87.5 q-15 -47.5 -21.5 -91 q-6.5 -43.5 -7 -77.5 q-0.5 -34 -0.5 -46 l0 -865 q0 -21 14 -32 q14 -11 33 -13 l82 -6 l0 -96 l-533 0 l0 96 Z"/><glyph glyph-name="registered" unicode="" d="M1651 717 q0 -110 -28.5 -212 q-28.5 -102 -80.5 -190.5 q-52 -88.5 -124.5 -161.5 q-72.5 -73 -161 -124.5 q-88.5 -51.5 -190.5 -80 q-102 -28.5 -212 -28.5 q-108 0 -208.5 28.5 q-100.5 28.5 -188 80 q-87.5 51.5 -159.5 124.5 q-72 73 -123.5 161.5 q-51.5 88.5 -80 190.5 q-28.5 102 -28.5 212 q0 109 28.5 211 q28.5 102 79.5 190 q51 88 123.5 161 q72.5 73 160.5 125 q88 52 189.5 80.5 q101.5 28.5 210.5 28.5 q108 0 209 -28.5 q101 -28.5 189.5 -80 q88.5 -51.5 161 -124.5 q72.5 -73 124.5 -161.5 q52 -88.5 80.5 -190 q28.5 -101.5 28.5 -211.5 ZM1552 717 q0 97 -25 186.5 q-25 89.5 -70 167 q-45 77.5 -108.5 141.5 q-63.5 64 -140.5 109.5 q-77 45.5 -165.5 70.5 q-88.5 25 -184.5 25 q-95 0 -183 -24.5 q-88 -24.5 -165 -70 q-77 -45.5 -141 -109.5 q-64 -64 -109.5 -142 q-45.5 -78 -70.5 -168.5 q-25 -90.5 -25 -189.5 q0 -95 24.5 -184 q24.5 -89 69.5 -166 q45 -77 108 -141 q63 -64 140 -110 q77 -46 165.5 -71 q88.5 -25 184.5 -25 q96 0 185 25.5 q89 25.5 166.5 71.5 q77.5 46 141 110 q63.5 64 108.5 142 q45 78 70 167 q25 89 25 185 ZM1337 291 q-46 -6 -74 -7 q-28 -1 -53 -1 q-67 0 -111 17 q-44 17 -73.5 45 q-29.5 28 -47 64 q-17.5 36 -31.5 73.5 q-14 37.5 -27.5 73.5 q-13.5 36 -34.5 64 q-21 28 -53 45 q-32 17 -82 17 q-8 0 -12 1 q-4 1 -15 1 l0 -289 q0 -14 9 -22 q9 -8 22 -8 l75 -7 l0 -67 l-405 0 l0 67 l72 7 q11 0 20.5 8 q9.5 8 9.5 22 l0 688 q0 13 -9.5 20 q-9.5 7 -20.5 9 l-72 8 l0 68 l455 0 q24 0 55.5 -3.5 q31.5 -3.5 64.5 -12.5 q33 -9 64.5 -24.5 q31.5 -15.5 56 -40.5 q24.5 -25 39.5 -60 q15 -35 15 -82 q0 -68 -27 -111.5 q-27 -43.5 -65 -69.5 q-38 -26 -78.5 -37.5 q-40.5 -11.5 -67.5 -15.5 q56 -11 91.5 -34.5 q35.5 -23.5 57.5 -54 q22 -30.5 34.5 -65 q12.5 -34.5 22.5 -68.5 q10 -34 21.5 -64 q11.5 -30 32.5 -51.5 q21 -21.5 54 -31.5 q33 -10 87 -4 l0 -67 ZM969 918 q0 85 -52 126 q-52 41 -151 41 l-43 0 l0 -344 q17 -2 28 -2 l17 0 q31 0 66 6.5 q35 6.5 65 26 q30 19.5 50 54.5 q20 35 20 92 Z"/><glyph glyph-name="copyright" unicode="" d="M1552 717 q0 97 -25 186.5 q-25 89.5 -70 167 q-45 77.5 -108.5 141.5 q-63.5 64 -140.5 109.5 q-77 45.5 -165.5 70.5 q-88.5 25 -184.5 25 q-95 0 -183 -24.5 q-88 -24.5 -165 -70 q-77 -45.5 -141 -109.5 q-64 -64 -109.5 -142 q-45.5 -78 -70.5 -168.5 q-25 -90.5 -25 -189.5 q0 -95 24.5 -184 q24.5 -89 69.5 -166 q45 -77 108 -141 q63 -64 140 -110 q77 -46 165.5 -71 q88.5 -25 184.5 -25 q96 0 185 25.5 q89 25.5 166.5 71.5 q77.5 46 141 110 q63.5 64 108.5 142 q45 78 70 167 q25 89 25 185 ZM1651 717 q0 -110 -28.5 -212 q-28.5 -102 -80.5 -190.5 q-52 -88.5 -124.5 -161.5 q-72.5 -73 -161 -124.5 q-88.5 -51.5 -190.5 -80 q-102 -28.5 -212 -28.5 q-108 0 -208.5 28.5 q-100.5 28.5 -188 80 q-87.5 51.5 -159.5 124.5 q-72 73 -123.5 161.5 q-51.5 88.5 -80 190.5 q-28.5 102 -28.5 212 q0 109 28.5 211 q28.5 102 79.5 190 q51 88 123.5 161 q72.5 73 160.5 125 q88 52 189.5 80.5 q101.5 28.5 210.5 28.5 q108 0 209 -28.5 q101 -28.5 189.5 -80 q88.5 -51.5 161 -124.5 q72.5 -73 124.5 -161.5 q52 -88.5 80.5 -190 q28.5 -101.5 28.5 -211.5 ZM1204 285 q-37 -15 -83 -26 q-39 -10 -93.5 -18 q-54.5 -8 -120.5 -8 q-108 0 -199.5 32.5 q-91.5 32.5 -157.5 95 q-66 62.5 -103 152.5 q-37 90 -37 204 q0 99 34.5 186.5 q34.5 87.5 100 153 q65.5 65.5 159 103.5 q93.5 38 211.5 38 q69 0 123 -8.5 q54 -8.5 91 -19.5 q43 -12 75 -27 l0 -248 l-114 0 l-29 164 q-12 10 -29 18 q-14 7 -36 13 q-22 6 -52 6 q-81 0 -138.5 -35 q-57.5 -35 -93.5 -90 q-36 -55 -52.5 -123 q-16.5 -68 -16.5 -135 q0 -81 20 -150 q20 -69 58.5 -119.5 q38.5 -50.5 93 -79 q54.5 -28.5 123.5 -28.5 q28 0 50 4.5 q22 4.5 39 9.5 q18 6 34 15 l29 176 l114 0 l0 -256 Z"/><glyph glyph-name="trademark" unicode="" d="M477 1202 l-14 88 q0 10 -17 10 l-79 0 l0 -419 l67 -15 l0 -51 l-260 0 l0 51 l68 15 l0 419 l-78 0 q-8 0 -13.5 -3.5 q-5.5 -3.5 -5.5 -6.5 l-14 -88 l-65 0 l0 154 l477 0 l0 -154 l-66 0 ZM1069 815 l0 51 l59 15 l0 399 l-163 -465 l-68 0 l-158 467 l0 -401 l62 -15 l0 -51 l-191 0 l0 51 l62 15 l0 409 l-62 10 l0 56 l236 0 l0 -27 l115 -342 l112 342 l0 27 l238 0 l0 -56 l-68 -12 l0 -407 l68 -15 l0 -51 l-242 0 Z"/><glyph glyph-name="notequal" unicode="" d="M856 365 l-225 -226 l-82 82 l143 144 l-282 0 l0 127 l409 0 l246 245 l-655 0 l0 127 l782 0 l225 226 l82 -82 l-143 -144 l282 0 l0 -127 l-409 0 l-246 -245 l655 0 l0 -127 l-782 0 Z"/><glyph glyph-name="AE" unicode="" d="M981 1257 l-377 -630 l377 0 l0 630 ZM821 0 l0 104 l107 9 q21 2 37 16.5 q16 14.5 16 28.5 l0 342 l-453 0 l-202 -342 q-10 -17 -5 -29 q5 -12 19 -14 l117 -11 l0 -104 l-447 0 l0 104 l125 15 l651 1098 q5 7 3.5 14.5 q-1.5 7.5 -6 13.5 q-4.5 6 -11.5 10 q-7 4 -14 5 l-101 10 l0 104 l1201 0 l0 -327 l-148 0 l-29 170 q-3 15 -11 26.5 q-8 11.5 -23 11.5 l-373 0 l0 -481 l227 0 q14 0 24.5 13 q10.5 13 12.5 24 l18 139 l127 0 l0 -481 l-127 0 l-18 141 q-2 11 -13 23 q-11 12 -24 12 l-227 0 l0 -522 l432 0 q12 0 22.5 14 q10.5 14 12.5 25 l33 213 l149 0 l0 -375 l-1102 0 Z"/><glyph glyph-name="Oslash" unicode="" d="M1182 1280 q69 -50 123.5 -115 q54.5 -65 92 -142 q37.5 -77 57.5 -163.5 q20 -86.5 20 -179.5 q0 -147 -49.5 -276.5 q-49.5 -129.5 -140.5 -226.5 q-91 -97 -218 -153.5 q-127 -56.5 -281 -56.5 q-88 0 -168 15.5 q-80 15.5 -151 46.5 l-119 -207 l-104 61 l116 205 q-132 91 -208 244.5 q-76 153.5 -76 363.5 q0 151 47 281.5 q47 130.5 135.5 225.5 q88.5 95 217 149.5 q128.5 54.5 292.5 54.5 q87 0 164 -17.5 q77 -17.5 145 -48.5 l109 191 l106 -59 l-110 -193 ZM557 188 q40 -43 92 -67.5 q52 -24.5 117 -24.5 q68 0 123 24.5 q55 24.5 97 66.5 q42 42 72 98 q30 56 49.5 120 q19.5 64 28.5 132.5 q9 68.5 9 134.5 q0 114 -21 217.5 q-21 103.5 -61 183.5 l-506 -885 ZM987 1184 q-40 42 -90.5 64 q-50.5 22 -110.5 22 q-71 0 -127 -24 q-56 -24 -98.5 -65.5 q-42.5 -41.5 -72.5 -97.5 q-30 -56 -49 -120.5 q-19 -64.5 -27.5 -134 q-8.5 -69.5 -8.5 -138.5 q0 -105 19 -206 q19 -101 59 -185 l506 885 Z"/><glyph glyph-name="infinity" unicode="" d="M954 614 q-32 27 -69.5 58.5 q-37.5 31.5 -78.5 59 q-41 27.5 -84.5 45.5 q-43.5 18 -88.5 18 q-39 0 -73 -15.5 q-34 -15.5 -58.5 -42 q-24.5 -26.5 -38.5 -61 q-14 -34.5 -14 -72.5 q0 -38 16.5 -70.5 q16.5 -32.5 43.5 -56.5 q27 -24 61.5 -37.5 q34.5 -13.5 70.5 -13.5 q50 0 92.5 17.5 q42.5 17.5 80.5 44.5 q38 27 72.5 60.5 q34.5 33.5 67.5 65.5 ZM1597 604 q0 38 -14 72.5 q-14 34.5 -38.5 61 q-24.5 26.5 -58.5 42 q-34 15.5 -73 15.5 q-45 0 -88.5 -18 q-43.5 -18 -84.5 -45.5 q-41 -27.5 -78.5 -59 q-37.5 -31.5 -69.5 -58.5 q33 -32 67.5 -65.5 q34.5 -33.5 72.5 -60.5 q38 -27 81 -44.5 q43 -17.5 94 -17.5 q36 0 70 13.5 q34 13.5 61 37.5 q27 24 43 56.5 q16 32.5 16 70.5 ZM1704 618 q0 -56 -21.5 -108 q-21.5 -52 -59 -92 q-37.5 -40 -88 -64 q-50.5 -24 -108.5 -24 q-68 0 -122.5 18.5 q-54.5 18.5 -101.5 49 q-47 30.5 -90 69.5 q-43 39 -89 80 q-47 -41 -90 -80 q-43 -39 -90 -69.5 q-47 -30.5 -101 -49 q-54 -18.5 -122 -18.5 q-58 0 -108.5 24 q-50.5 24 -88 64 q-37.5 40 -59 92 q-21.5 52 -21.5 108 q0 58 24 110 q24 52 64 90 q40 38 92.5 60.5 q52.5 22.5 110.5 22.5 q57 0 110 -20.5 q53 -20.5 101.5 -53 q48.5 -32.5 93 -71 q44.5 -38.5 84.5 -74.5 q39 36 83 74.5 q44 38.5 93 71 q49 32.5 102.5 53 q53.5 20.5 110.5 20.5 q58 0 110.5 -22.5 q52.5 -22.5 92.5 -60.5 q40 -38 64 -90 q24 -52 24 -110 Z"/><glyph glyph-name="plusminus" unicode="" d="M410 0 l0 127 l1228 0 l0 -127 l-1228 0 ZM1087 733 l0 -368 l-126 0 l0 368 l-551 0 l0 127 l551 0 l0 369 l126 0 l0 -369 l551 0 l0 -127 l-551 0 Z"/><glyph glyph-name="lessequal" unicode="" d="M410 0 l0 113 l1228 0 l0 -113 l-1228 0 ZM410 629 l0 127 l1228 389 l0 -127 l-1097 -326 l1097 -325 l0 -127 l-1228 389 Z"/><glyph glyph-name="greaterequal" unicode="" d="M410 0 l0 113 l1228 0 l0 -113 l-1228 0 ZM410 240 l0 127 l1097 325 l-1097 326 l0 127 l1228 -389 l0 -127 l-1228 -389 Z"/><glyph glyph-name="yen" unicode="" d="M1169 1247 l-202 -364 l266 0 l0 -107 l-330 0 l-106 -192 l436 0 l0 -105 l-430 0 l0 -317 q0 -11 12.5 -26.5 q12.5 -15.5 40.5 -18.5 l121 -11 l0 -106 l-635 0 l0 106 l123 11 q28 3 39.5 18.5 q11.5 15.5 11.5 26.5 l0 317 l-438 0 l0 105 l414 0 l-99 192 l-315 0 l0 107 l250 0 l-189 366 l-125 21 l0 104 l564 0 l0 -104 l-95 -8 q-15 -2 -24.5 -16 q-9.5 -14 -1.5 -29 l256 -492 l262 481 q3 5 4.5 11.5 q1.5 6.5 -1 13 q-2.5 6.5 -9.5 12 q-7 5.5 -21 8.5 l-100 21 l0 102 l438 0 l0 -104 l-117 -23 Z"/><glyph glyph-name="mu" unicode="" d="M1202 242 q-9 -135 -68.5 -201 q-59.5 -66 -181.5 -66 q-27 0 -54.5 11.5 q-27.5 11.5 -52.5 32.5 q-25 21 -46 51.5 q-21 30.5 -35 68.5 q-31 -46 -61.5 -77.5 q-30.5 -31.5 -64 -50.5 q-33.5 -19 -71.5 -27.5 q-38 -8.5 -84 -8.5 q-15 0 -37 9 q-22 9 -45 21.5 q-23 12.5 -43.5 26 q-20.5 13.5 -31.5 23.5 l0 -45 q0 -56 10.5 -106.5 q10.5 -50.5 23 -94 q12.5 -43.5 23 -78.5 q10.5 -35 10.5 -59 q0 -27 -14 -50.5 q-14 -23.5 -35 -40.5 q-21 -17 -46 -26.5 q-25 -9.5 -46 -9.5 q-19 0 -42 9 q-23 9 -43.5 25.5 q-20.5 16.5 -34 39 q-13.5 22.5 -13.5 49.5 q0 32 5 52 q5 20 12 39 q7 19 15.5 43.5 q8.5 24.5 15.5 65.5 q7 41 12 105 q5 64 5 162 l0 864 l258 0 l0 -665 q0 -47 5.5 -77.5 q5.5 -30.5 11.5 -45.5 q7 -16 17 -31.5 q10 -15.5 23 -27.5 q13 -12 27 -19.5 q14 -7.5 29 -7.5 q28 0 51 8.5 q23 8.5 44.5 25.5 q21.5 17 44.5 41 q23 24 50 56 l0 743 l263 0 l0 -778 q0 -16 2.5 -35 q2.5 -19 8 -35 q5.5 -16 14 -27 q8.5 -11 20.5 -11 q15 0 27 5.5 q12 5.5 22 20 q10 14.5 18.5 39.5 q8.5 25 16.5 64 l65 0 Z"/><glyph glyph-name="partialdiff" unicode="" d="M784 639 q-17 18 -37 42 q-20 24 -47 45 q-27 21 -63.5 35.5 q-36.5 14.5 -85.5 14.5 q-53 0 -96.5 -21 q-43.5 -21 -78 -57 q-34.5 -36 -60 -82.5 q-25.5 -46.5 -42.5 -98 q-17 -51.5 -25.5 -103.5 q-8.5 -52 -8.5 -99 q0 -21 2 -51 q2 -30 8.5 -63 q6.5 -33 20 -66 q13.5 -33 36 -59 q22.5 -26 55.5 -42 q33 -16 80 -16 q53 0 97 26 q44 26 79 70.5 q35 44.5 62 105 q27 60.5 47.5 129.5 q20.5 69 34 143 q13.5 74 22.5 147 ZM987 840 q0 -34 -3.5 -90 q-3.5 -56 -13 -124.5 q-9.5 -68.5 -26.5 -145 q-17 -76.5 -44 -151 q-27 -74.5 -66 -142.5 q-39 -68 -92 -119.5 q-53 -51.5 -122 -82 q-69 -30.5 -157 -30.5 q-94 0 -169 35 q-75 35 -127.5 90 q-52.5 55 -81 122 q-28.5 67 -28.5 132 q0 108 22.5 189.5 q22.5 81.5 58.5 140 q36 58.5 82 96.5 q46 38 93 60 q47 22 90.5 31 q43.5 9 75.5 9 q47 0 83 -7 q36 -7 71 -24 q35 -17 74.5 -45 q39.5 -28 93.5 -69 q14 66 17 126 q3 60 5 122 q1 78 -23.5 147 q-24.5 69 -66.5 121 q-42 52 -96.5 82 q-54.5 30 -112.5 30 q-40 0 -67 -4 q-27 -4 -52 -12.5 q-25 -8.5 -52.5 -21.5 q-27.5 -13 -67.5 -31 l-84 106 q23 10 53 21 q30 11 65 20 q35 9 73.5 15 q38.5 6 78.5 6 q109 0 190 -36 q81 -36 138.5 -92 q57.5 -56 94 -125.5 q36.5 -69.5 57 -136 q20.5 -66.5 28.5 -123.5 q8 -57 8 -89 Z"/><glyph glyph-name="pi" unicode="" d="M1176 311 q0 -84 -18.5 -147 q-18.5 -63 -50 -105 q-31.5 -42 -73.5 -63 q-42 -21 -90 -21 q-75 0 -118.5 25.5 q-43.5 25.5 -66.5 64.5 q-23 39 -29.5 86 q-6.5 47 -6.5 91 l0 579 l-279 0 l0 -469 q0 -80 -17 -149 q-17 -69 -50 -119.5 q-33 -50.5 -81 -79.5 q-48 -29 -110 -29 q-44 0 -72.5 25 q-28.5 25 -44.5 65.5 q-16 40.5 -22 92 q-6 51.5 -6 104.5 l68 0 q0 -60 21.5 -97.5 q21.5 -37.5 55.5 -37.5 q15 0 33.5 5.5 q18.5 5.5 37 22 q18.5 16.5 35.5 46.5 q17 30 30.5 78.5 q13.5 48.5 21.5 118 q8 69.5 8 165.5 l0 258 l-86 0 q-51 0 -80 -13 q-29 -13 -44 -31.5 q-15 -18.5 -21 -38.5 q-6 -20 -10 -33 l-60 0 q0 34 13 77 q13 43 41.5 81 q28.5 38 73.5 63.5 q45 25.5 110 25.5 l737 0 q34 0 63 16 q29 16 35 38 l52 0 q0 -38 -8 -71.5 q-8 -33.5 -26 -59 q-18 -25.5 -47.5 -40 q-29.5 -14.5 -72.5 -14.5 l-125 0 l0 -545 q0 -51 -0.5 -92 q-0.5 -41 5.5 -69 q6 -28 22 -43 q16 -15 49 -15 q23 0 45.5 15 q22.5 15 40 46.5 q17.5 31.5 28.5 79.5 q11 48 11 113 l78 0 Z"/><glyph glyph-name="integral" unicode="" d="M889 1360 q-6 -13 -22 -26.5 q-16 -13.5 -37.5 -20 q-21.5 -6.5 -46 -3.5 q-24.5 3 -46.5 23 q-43 37 -70.5 47 q-27.5 10 -43.5 4 q-16 -6 -23 -22 q-7 -16 -8 -31 q-2 -28 -4 -98 q-2 -70 -4 -164 q-2 -94 -4.5 -202 q-2.5 -108 -6.5 -212 l-10 -274 q-6 -162 -18 -280 q-12 -118 -30 -201.5 q-18 -83.5 -42.5 -137.5 q-24.5 -54 -56 -87 q-31.5 -33 -70 -49.5 q-38.5 -16.5 -84.5 -26.5 q-24 -6 -48.5 -7 q-24.5 -1 -46 1 q-21.5 2 -38.5 8.5 q-17 6.5 -27 15.5 q-32 31 -39 65.5 q-7 34.5 9 71.5 q6 14 22.5 28 q16.5 14 38 21.5 q21.5 7.5 46.5 4.5 q25 -3 48 -23 q42 -37 69.5 -47 q27.5 -10 43.5 -4.5 q16 5.5 23.5 21 q7.5 15.5 9.5 30.5 q1 28 5 99 q4 71 9 170 q5 99 10 218.5 q5 119.5 9 245.5 l8 230 q7 215 24 356.5 q17 141.5 49.5 228 q32.5 86.5 83.5 128.5 q51 42 127 57 q24 4 48 5.5 q24 1.5 45.5 -1 q21.5 -2.5 39 -8.5 q17.5 -6 27.5 -15 q34 -32 40 -66.5 q6 -34.5 -9 -72.5 Z"/><glyph glyph-name="ordfeminine" unicode="" d="M449 1102 q-65 -12 -107 -25 q-42 -13 -67 -29.5 q-25 -16.5 -34.5 -37 q-9.5 -20.5 -9.5 -47.5 q0 -39 26.5 -65 q26.5 -26 68.5 -26 q21 0 43 3.5 q22 3.5 40 8.5 q21 5 40 13 l0 205 ZM98 616 l0 72 l613 0 l0 -72 l-613 0 ZM465 784 l-16 62 q-33 -21 -72 -38 q-33 -14 -75 -26 q-42 -12 -87 -12 q-35 0 -66.5 11 q-31.5 11 -55 31 q-23.5 20 -37 49.5 q-13.5 29.5 -13.5 66.5 q0 27 4.5 50.5 q4.5 23.5 19.5 44 q15 20.5 42.5 39 q27.5 18.5 72.5 35.5 q45 17 111 34.5 q66 17.5 158 35.5 l0 47 q1 18 -3.5 38 q-4.5 20 -18 37.5 q-13.5 17.5 -38.5 28.5 q-25 11 -65 11 q-14 0 -24 -0.5 q-10 -0.5 -18 -1.5 q-9 -1 -16 -2 l0 -117 l-137 0 q-17 -1 -30 3 q-11 4 -20 13 q-9 9 -9 29 q0 34 26.5 61 q26.5 27 69 46 q42.5 19 95.5 29 q53 10 106 10 q57 0 104.5 -8 q47.5 -8 81.5 -30.5 q34 -22.5 53 -63.5 q19 -41 19 -107 l0 -316 q0 -12 8 -20 q8 -8 20 -8 l60 -4 l0 -58 l-250 0 Z"/><glyph glyph-name="ordmasculine" unicode="" d="M539 1081 q0 39 -6.5 83 q-6.5 44 -23 80.5 q-16.5 36.5 -46 60.5 q-29.5 24 -74.5 24 q-45 0 -74 -23 q-29 -23 -45 -59 q-16 -36 -22 -79 q-6 -43 -6 -83 q0 -39 5.5 -82.5 q5.5 -43.5 22 -80 q16.5 -36.5 45.5 -60.5 q29 -24 76 -24 q45 0 74 23 q29 23 45.5 58 q16.5 35 22.5 78 q6 43 6 84 ZM84 612 l0 72 l612 0 l0 -72 l-612 0 ZM735 1079 q0 -68 -23.5 -125 q-23.5 -57 -68.5 -98 q-45 -41 -110 -63.5 q-65 -22.5 -148 -22.5 q-76 0 -139 21.5 q-63 21.5 -108 61.5 q-45 40 -70 97.5 q-25 57.5 -25 130.5 q0 75 26 134.5 q26 59.5 72.5 100 q46.5 40.5 111 62 q64.5 21.5 142.5 21.5 q82 0 145.5 -23.5 q63.5 -23.5 106.5 -65.5 q43 -42 65.5 -101 q22.5 -59 22.5 -130 Z"/><glyph glyph-name="ae" unicode="" d="M1233 670 q0 31 -3.5 72.5 q-3.5 41.5 -18.5 79.5 q-15 38 -44.5 64.5 q-29.5 26.5 -81.5 26.5 q-43 0 -72.5 -16.5 q-29.5 -16.5 -49 -42.5 q-19.5 -26 -30 -58.5 q-10.5 -32.5 -15.5 -64.5 q-5 -32 -6 -59.5 q-1 -27.5 -1 -44.5 l322 0 l0 43 ZM655 532 q-98 -26 -158.5 -51 q-60.5 -25 -93.5 -52.5 q-33 -27.5 -44 -58 q-11 -30.5 -11 -67.5 q0 -31 8.5 -58.5 q8.5 -27.5 25 -48.5 q16.5 -21 41 -33.5 q24.5 -12.5 56.5 -12.5 q30 0 61 8 q31 8 57 19 q30 12 58 28 l0 327 ZM1513 553 q0 -5 -0.5 -12.5 q-0.5 -7.5 -0.5 -13.5 q-1 -8 -1 -15 l-593 0 l0 -236 q29 -35 72 -61 q37 -23 94 -42 q57 -19 137 -19 q60 0 113 17 q53 17 92 38 q46 24 85 55 l0 -162 q-47 -33 -106 -59 q-51 -23 -120.5 -41 q-69.5 -18 -154.5 -18 q-100 0 -176 23 q-76 23 -127 51 q-61 33 -104 75 q-55 -42 -119 -75 q-27 -14 -59 -27 q-32 -13 -67.5 -23.5 q-35.5 -10.5 -73 -17 q-37.5 -6.5 -76.5 -6.5 q-69 0 -119 22.5 q-50 22.5 -81.5 60 q-31.5 37.5 -46.5 86 q-15 48.5 -15 99.5 q0 84 31.5 141 q31.5 57 101 100 q69.5 43 182 77.5 q112.5 34.5 274.5 72.5 l0 57 q0 110 -45.5 161.5 q-45.5 51.5 -144.5 51.5 q-10 0 -22 -1 q-12 -1 -23 -3 q-13 -2 -27 -4 l0 -196 l-184 0 q-30 0 -49.5 3.5 q-19.5 3.5 -30.5 12.5 q-11 9 -15.5 24 q-4.5 15 -4.5 37 q0 57 39 101.5 q39 44.5 101.5 75.5 q62.5 31 139.5 47 q77 16 152 16 q81 0 138.5 -17.5 q57.5 -17.5 94.5 -38.5 q43 -25 72 -55 q31 30 74 55 q37 21 90 38.5 q53 17.5 123 17.5 q104 0 176.5 -39.5 q72.5 -39.5 117.5 -105 q45 -65.5 65.5 -151 q20.5 -85.5 20.5 -177.5 Z"/><glyph glyph-name="oslash" unicode="" d="M827 496 q0 62 -8.5 130 q-8.5 68 -30.5 128 l-331 -596 q26 -31 60.5 -49.5 q34.5 -18.5 82.5 -18.5 q70 0 114 37.5 q44 37.5 69 96.5 q25 59 34.5 131 q9.5 72 9.5 141 ZM727 856 q-25 25 -56 38 q-31 13 -73 13 q-69 0 -113 -38 q-44 -38 -68.5 -97.5 q-24.5 -59.5 -34 -130.5 q-9.5 -71 -9.5 -137 q0 -56 5.5 -116 q5.5 -60 20.5 -114 l328 582 ZM1133 494 q0 -115 -36.5 -210.5 q-36.5 -95.5 -106.5 -164 q-70 -68.5 -170.5 -106.5 q-100.5 -38 -227.5 -38 q-60 0 -114 9.5 q-54 9.5 -103 27.5 l-101 -182 l-90 57 l97 172 q-103 66 -159 176.5 q-56 110.5 -56 260.5 q0 126 40 224 q40 98 111.5 165.5 q71.5 67.5 170.5 103 q99 35.5 218 35.5 q111 0 197 -31 l102 183 l90 -52 l-96 -172 q115 -68 174.5 -186 q59.5 -118 59.5 -272 Z"/><glyph glyph-name="questiondown" unicode="" d="M979 -164 q0 -67 -36.5 -113.5 q-36.5 -46.5 -93 -75.5 q-56.5 -29 -124 -42 q-67.5 -13 -129.5 -13 q-99 0 -184 27.5 q-85 27.5 -147.5 78.5 q-62.5 51 -98 123 q-35.5 72 -35.5 161 q0 65 19 118.5 q19 53.5 50.5 96.5 q31.5 43 71 76 q39.5 33 81.5 58 q98 58 222 89 l0 174 l140 0 l0 -272 q-84 -22 -149 -67 q-28 -19 -54.5 -45 q-26.5 -26 -47.5 -60.5 q-21 -34.5 -33.5 -77.5 q-12.5 -43 -12.5 -95 q0 -57 16.5 -104.5 q16.5 -47.5 50 -82 q33.5 -34.5 83.5 -54 q50 -19.5 118 -19.5 l92 246 q1 1 5 2 q3 1 7.5 1.5 q4.5 0.5 12.5 0.5 q20 0 50 -2.5 q30 -2.5 58 -15.5 q28 -13 48 -39 q20 -26 20 -74 ZM801 858 q0 -34 -12.5 -63.5 q-12.5 -29.5 -33.5 -52 q-21 -22.5 -50 -35.5 q-29 -13 -62 -13 q-37 0 -67.5 14 q-30.5 14 -52.5 37.5 q-22 23.5 -34 54.5 q-12 31 -12 66 q0 34 13.5 63 q13.5 29 36.5 50 q23 21 53.5 33 q30.5 12 64.5 12 q33 0 61.5 -13.5 q28.5 -13.5 49.5 -36.5 q21 -23 33 -53 q12 -30 12 -63 Z"/><glyph glyph-name="exclamdown" unicode="" d="M514 -242 q0 -42 -13.5 -73 q-13.5 -31 -36 -52 q-22.5 -21 -53.5 -31 q-31 -10 -65 -10 q-34 0 -64 10 q-30 10 -52.5 30.5 q-22.5 20.5 -36 51.5 q-13.5 31 -13.5 74 l111 815 l110 0 l113 -815 ZM512 856 q0 -40 -15 -70 q-15 -30 -39 -50.5 q-24 -20.5 -53.5 -31 q-29.5 -10.5 -58.5 -10.5 q-29 0 -58 11 q-29 11 -52.5 32 q-23.5 21 -38.5 51 q-15 30 -15 68 q0 35 13 66 q13 31 35.5 53.5 q22.5 22.5 52.5 35.5 q30 13 63 13 q25 0 54.5 -9 q29.5 -9 54 -29.5 q24.5 -20.5 41 -52.5 q16.5 -32 16.5 -77 Z"/><glyph glyph-name="logicalnot" unicode="" d="M1065 387 l0 350 l-983 0 l0 123 l1106 0 l0 -473 l-123 0 Z"/><glyph glyph-name="radical" unicode="" d="M1075 1372 l-370 -1372 l-62 0 l-442 872 l-127 -63 l-33 61 l240 121 l399 -780 l334 1223 l164 0 l0 -62 l-103 0 Z"/><glyph glyph-name="florin" unicode="" d="M860 1352 q0 -24 -10.5 -45 q-10.5 -21 -28 -38.5 q-17.5 -17.5 -40.5 -30.5 q-23 -13 -48 -21 l-203 190 q-15 -23 -27.5 -48.5 q-12.5 -25.5 -20.5 -61 q-8 -35.5 -12.5 -84.5 q-4.5 -49 -4.5 -119 l0 -119 l223 0 l0 -131 l-221 0 l0 -789 q0 -103 -33.5 -198 q-33.5 -95 -99.5 -170 q-31 -35 -68.5 -64.5 q-37.5 -29.5 -81 -50.5 q-43.5 -21 -91.5 -33 q-48 -12 -99 -12 q-31 0 -65.5 8 q-34.5 8 -64 26 q-29.5 18 -48.5 48 q-19 30 -19 74 q0 24 10.5 45 q10.5 21 28.5 38.5 q18 17.5 41 30.5 q23 13 47 21 l203 -191 q16 23 28.5 49 q12.5 26 20.5 61.5 q8 35.5 12.5 84.5 q4.5 49 4.5 119 l0 903 l-134 0 l0 82 l131 67 q0 81 22 152 q22 71 64 139 q31 51 71.5 93.5 q40.5 42.5 90 73 q49.5 30.5 106.5 48 q57 17.5 120 17.5 q30 0 64.5 -9.5 q34.5 -9.5 64 -29 q29.5 -19.5 48.5 -51 q19 -31.5 19 -74.5 Z"/><glyph glyph-name="approxequal" unicode="" d="M1638 453 q-21 -20 -51.5 -42 q-30.5 -22 -68.5 -41.5 q-38 -19.5 -81 -33.5 q-43 -14 -89 -17 q-61 -4 -103 -0.5 q-42 3.5 -78.5 12.5 q-36.5 9 -73.5 22.5 q-37 13.5 -87 31.5 q-84 30 -150 45 q-66 15 -119.5 17 q-53.5 2 -97 -8.5 q-43.5 -10.5 -81.5 -30.5 q-38 -20 -74 -50 q-36 -30 -74 -67 l0 141 q19 19 43 41 q24 22 59.5 41.5 q35.5 19.5 86.5 34.5 q51 15 124 20 q57 5 112 -4.5 q55 -9.5 107 -25.5 q52 -16 100.5 -34.5 q48.5 -18.5 90.5 -31.5 q93 -29 163.5 -31 q70.5 -2 129 16 q58.5 18 109 53.5 q50.5 35.5 103.5 82.5 l0 -141 ZM1638 801 q-21 -19 -51.5 -41 q-30.5 -22 -68.5 -41.5 q-38 -19.5 -81 -33.5 q-43 -14 -89 -17 q-61 -4 -103 -1 q-42 3 -78.5 12 q-36.5 9 -73.5 22.5 q-37 13.5 -87 31.5 q-84 30 -150 45 q-66 15 -119.5 17 q-53.5 2 -97 -8.5 q-43.5 -10.5 -81.5 -30.5 q-38 -20 -74 -50 q-36 -30 -74 -67 l0 141 q19 19 43 41 q24 22 59.5 41.5 q35.5 19.5 86.5 34.5 q51 15 124 21 q57 4 112 -5.5 q55 -9.5 107 -25.5 q52 -16 100.5 -34.5 q48.5 -18.5 90.5 -31.5 q93 -29 163.5 -31 q70.5 -2 129 16 q58.5 18 109 53.5 q50.5 35.5 103.5 82.5 l0 -141 Z"/><glyph glyph-name="guillemotleft" unicode="" d="M430 441 l0 103 l330 443 l150 0 l-255 -494 l255 -493 l-150 0 l-330 441 ZM50 441 l0 103 l330 443 l150 0 l-255 -494 l255 -493 l-150 0 l-330 441 Z"/><glyph glyph-name="guillemotright" unicode="" d="M490 546 l0 -103 l-330 -443 l-150 0 l255 494 l-255 493 l150 0 l330 -441 ZM870 546 l0 -103 l-330 -443 l-150 0 l255 494 l-255 493 l150 0 l330 -441 Z"/><glyph glyph-name="ellipsis" unicode="" d="M1878 145 q0 -37 -13.5 -68 q-13.5 -31 -37 -53.5 q-23.5 -22.5 -55 -35.5 q-31.5 -13 -66.5 -13 q-37 0 -68 13.5 q-31 13.5 -53.5 37 q-22.5 23.5 -35.5 54 q-13 30.5 -13 65.5 q0 36 13.5 67 q13.5 31 37 54.5 q23.5 23.5 54 37 q30.5 13.5 65.5 13.5 q34 0 65.5 -13 q31.5 -13 55 -36.5 q23.5 -23.5 37.5 -55 q14 -31.5 14 -67.5 ZM512 145 q0 -37 -13.5 -68 q-13.5 -31 -37 -53.5 q-23.5 -22.5 -54.5 -35.5 q-31 -13 -65 -13 q-38 0 -69.5 13.5 q-31.5 13.5 -54 37 q-22.5 23.5 -35.5 54 q-13 30.5 -13 65.5 q0 36 13.5 67 q13.5 31 37 54.5 q23.5 23.5 55 37 q31.5 13.5 66.5 13.5 q34 0 64.5 -13 q30.5 -13 54 -36.5 q23.5 -23.5 37.5 -55 q14 -31.5 14 -67.5 ZM1194 145 q0 -37 -13.5 -68 q-13.5 -31 -37 -53.5 q-23.5 -22.5 -54.5 -35.5 q-31 -13 -65 -13 q-38 0 -69 13.5 q-31 13.5 -53.5 37 q-22.5 23.5 -35 54 q-12.5 30.5 -12.5 65.5 q0 36 13.5 67 q13.5 31 36.5 54.5 q23 23.5 54 37 q31 13.5 66 13.5 q34 0 64.5 -13 q30.5 -13 54 -36.5 q23.5 -23.5 37.5 -55 q14 -31.5 14 -67.5 Z"/><glyph glyph-name="uni00A0" unicode="" d=""/><glyph glyph-name="OE" unicode="" d="M1100 676 q0 114 -21 219.5 q-21 105.5 -63.5 185.5 q-42.5 80 -106 128 q-63.5 48 -147.5 48 q-71 0 -126 -24.5 q-55 -24.5 -95.5 -67 q-40.5 -42.5 -68 -98.5 q-27.5 -56 -44.5 -119 q-17 -63 -24 -129.5 q-7 -66.5 -7 -128.5 q0 -68 9 -136.5 q9 -68.5 27 -131.5 q18 -63 46.5 -118.5 q28.5 -55.5 67.5 -96.5 q39 -41 89 -64.5 q50 -23.5 112 -23.5 q83 0 148.5 41.5 q65.5 41.5 110.5 115.5 q45 74 69 176 q24 102 24 224 ZM1096 0 l0 189 q-2 -3 -14 -19.5 q-12 -16.5 -35 -40.5 q-23 -24 -56.5 -51 q-33.5 -27 -79 -50 q-45.5 -23 -103 -38 q-57.5 -15 -126.5 -15 q-99 0 -182 28 q-83 28 -150.5 77 q-67.5 49 -118.5 116.5 q-51 67.5 -85.5 146.5 q-34.5 79 -52 166.5 q-17.5 87.5 -17.5 176.5 q0 69 11 148.5 q11 79.5 38.5 158.5 q27.5 79 74.5 152 q47 73 119 129 q72 56 172 89.5 q100 33.5 234 33.5 q66 0 119 -14 q53 -14 94 -35 q41 -21 70 -46 q29 -25 48.5 -46.5 q19.5 -21.5 29 -37.5 q9.5 -16 10.5 -18 l0 174 l850 0 l0 -327 l-152 0 l-27 170 q-3 15 -11.5 26.5 q-8.5 11.5 -22.5 11.5 l-369 0 l0 -481 l225 0 q14 0 24.5 13 q10.5 13 10.5 24 l16 139 l127 0 l0 -481 l-125 0 l-18 139 q0 11 -11.5 24 q-11.5 13 -25.5 13 l-223 0 l0 -522 l428 0 q12 0 24 14 q12 14 15 25 l31 213 l147 0 l0 -375 l-913 0 Z"/><glyph glyph-name="oe" unicode="" d="M1419 672 q0 46 -7.5 89.5 q-7.5 43.5 -26.5 77 q-19 33.5 -50 54 q-31 20.5 -78 20.5 q-51 0 -85 -28.5 q-34 -28.5 -54.5 -70.5 q-20.5 -42 -29.5 -91 q-9 -49 -9 -90 l340 0 l0 39 ZM793 479 q0 86 -10.5 164.5 q-10.5 78.5 -34.5 138.5 q-24 60 -64 95.5 q-40 35.5 -100 35.5 q-48 0 -83 -19 q-35 -19 -59.5 -50 q-24.5 -31 -40 -71.5 q-15.5 -40.5 -24.5 -84 q-9 -43.5 -12 -87 q-3 -43.5 -3 -79.5 q0 -75 8 -150.5 q8 -75.5 32 -136.5 q24 -61 67 -99 q43 -38 113 -38 q65 0 106 37 q41 37 64.5 93.5 q23.5 56.5 32 123.5 q8.5 67 8.5 127 ZM1708 102 q-44 -32 -103 -58 q-51 -22 -123.5 -40 q-72.5 -18 -166.5 -18 q-76 0 -133 14 q-57 14 -98.5 34.5 q-41.5 20.5 -68.5 45.5 q-27 25 -43.5 46.5 q-16.5 21.5 -23.5 37 q-7 15.5 -8 17.5 q-1 -2 -7.5 -17.5 q-6.5 -15.5 -23.5 -37 q-17 -21.5 -44.5 -46.5 q-27.5 -25 -70.5 -45.5 q-43 -20.5 -102.5 -34.5 q-59.5 -14 -138.5 -14 q-122 0 -213 41.5 q-91 41.5 -152 112 q-61 70.5 -91.5 163.5 q-30.5 93 -30.5 195 q0 109 32 205 q32 96 96 168 q64 72 158.5 113.5 q94.5 41.5 220.5 41.5 q51 0 94.5 -8 q43.5 -8 79.5 -21.5 q36 -13.5 65.5 -30 q29.5 -16.5 52.5 -34.5 q54 -41 87 -94 q28 53 77 94 q21 18 48.5 34.5 q27.5 16.5 62 30 q34.5 13.5 77.5 21.5 q43 8 94 8 q104 0 179 -37.5 q75 -37.5 123.5 -101 q48.5 -63.5 71.5 -147.5 q23 -84 23 -177 l0 -45 l-639 0 q0 -62 17 -126 q17 -64 55 -116.5 q38 -52.5 98 -86 q60 -33.5 147 -33.5 q72 0 131.5 17 q59.5 17 101.5 37 q49 24 89 54 l0 -162 Z"/><glyph glyph-name="endash" unicode="" d="M0 391 l0 203 l1024 0 l0 -203 l-1024 0 Z"/><glyph glyph-name="emdash" unicode="" d="M0 391 l0 203 l2048 0 l0 -203 l-2048 0 Z"/><glyph glyph-name="quotedblleft" unicode="" d="M909 1346 q-56 -23 -100 -60 q-19 -16 -37 -36.5 q-18 -20.5 -32 -46.5 q-14 -26 -22.5 -57 q-8.5 -31 -8.5 -67 l0 -35 l122 0 q11 -15 20 -33 q8 -15 14.5 -34 q6.5 -19 6.5 -39 q0 -35 -11.5 -63.5 q-11.5 -28.5 -31.5 -48.5 q-20 -20 -47.5 -31 q-27.5 -11 -58.5 -11 q-47 0 -81.5 19 q-34.5 19 -57.5 50 q-23 31 -34 71.5 q-11 40.5 -11 83.5 q0 59 14.5 108.5 q14.5 49.5 37.5 90 q23 40.5 53 72 q30 31.5 61 55.5 q73 56 167 89 l37 -77 ZM444 1346 q-38 -22 -74 -47 q-36 -25 -63.5 -57.5 q-27.5 -32.5 -44 -75 q-16.5 -42.5 -16.5 -99.5 q0 -13 1 -17 q0 -4 1 -6 l121 0 q11 -11 20 -27 q8 -14 14.5 -35.5 q6.5 -21.5 6.5 -51.5 q0 -68 -41.5 -107 q-41.5 -39 -106.5 -39 q-45 0 -79.5 17.5 q-34.5 17.5 -58 46.5 q-23.5 29 -36 67.5 q-12.5 38.5 -12.5 79.5 q0 63 14.5 114.5 q14.5 51.5 37.5 93 q23 41.5 53 74 q30 32.5 62 56.5 q73 57 167 88 l34 -75 Z"/><glyph glyph-name="quotedblright" unicode="" d="M489 1198 q0 -60 -14.5 -109 q-14.5 -49 -38 -89.5 q-23.5 -40.5 -54 -72 q-30.5 -31.5 -61.5 -55.5 q-74 -56 -167 -88 l-33 78 q55 23 98 60 q18 16 36 36.5 q18 20.5 31.5 46 q13.5 25.5 22 56.5 q8.5 31 8.5 67 l0 35 l-122 0 q-12 14 -21 32 q-8 14 -14 33.5 q-6 19.5 -6 39.5 q0 36 12 64.5 q12 28.5 32 49 q20 20.5 47.5 31 q27.5 10.5 59.5 10.5 q47 0 81.5 -19 q34.5 -19 57.5 -50.5 q23 -31.5 34 -72 q11 -40.5 11 -83.5 ZM952 1212 q0 -63 -14.5 -114.5 q-14.5 -51.5 -38 -93.5 q-23.5 -42 -54 -74.5 q-30.5 -32.5 -61.5 -56.5 q-74 -57 -168 -87 l-34 76 q39 22 75 47 q36 25 64 58 q28 33 44.5 75.5 q16.5 42.5 16.5 98.5 q0 5 -0.5 9 q-0.5 4 -0.5 7 q-1 4 -1 6 l-123 0 q-12 10 -21 27 q-8 14 -14 36 q-6 22 -6 52 q0 34 11.5 60.5 q11.5 26.5 31.5 45.5 q20 19 47.5 29 q27.5 10 59.5 10 q45 0 79.5 -17.5 q34.5 -17.5 58 -46.5 q23.5 -29 36 -67 q12.5 -38 12.5 -80 Z"/><glyph glyph-name="quoteleft" unicode="" d="M442 1346 q-11 -3 -42.5 -20.5 q-31.5 -17.5 -66 -51 q-34.5 -33.5 -61 -85 q-26.5 -51.5 -26.5 -122.5 l0 -8 q0 -4 1 -7 q0 -4 1 -8 l121 0 q11 -15 20 -33 q8 -15 14.5 -35.5 q6.5 -20.5 6.5 -43.5 q0 -35 -12 -62.5 q-12 -27.5 -32.5 -46.5 q-20.5 -19 -47.5 -29 q-27 -10 -58 -10 q-43 0 -77 16.5 q-34 16.5 -58 45.5 q-24 29 -36.5 68 q-12.5 39 -12.5 83 q0 63 14.5 114.5 q14.5 51.5 38 93 q23.5 41.5 53.5 74 q30 32.5 62 56.5 q74 57 168 88 l30 -77 Z"/><glyph glyph-name="quoteright" unicode="" d="M487 1210 q0 -63 -14.5 -115 q-14.5 -52 -38 -93.5 q-23.5 -41.5 -54 -74 q-30.5 -32.5 -61.5 -56.5 q-74 -57 -167 -87 l-31 78 q60 33 100 66.5 q40 33.5 63 68 q23 34.5 30.5 70.5 q7.5 36 2.5 74 q0 2 -0.5 4.5 q-0.5 2.5 -0.5 6.5 q-1 4 -1 9 l-120 0 q-12 14 -21 32 q-8 15 -14 36 q-6 21 -6 45 q0 32 9 59.5 q9 27.5 27.5 47.5 q18.5 20 46.5 31 q28 11 66 11 q41 0 75 -16.5 q34 -16.5 58 -45 q24 -28.5 37.5 -67.5 q13.5 -39 13.5 -84 Z"/><glyph glyph-name="divide" unicode="" d="M1147 285 q0 -26 -9.5 -48 q-9.5 -22 -26.5 -38 q-17 -16 -39.5 -25.5 q-22.5 -9.5 -47.5 -9.5 q-26 0 -48 9.5 q-22 9.5 -39 25.5 q-17 16 -26.5 38 q-9.5 22 -9.5 48 q0 26 9.5 48.5 q9.5 22.5 26.5 39 q17 16.5 39 26 q22 9.5 48 9.5 q25 0 47.5 -9.5 q22.5 -9.5 39.5 -26 q17 -16.5 26.5 -39 q9.5 -22.5 9.5 -48.5 ZM410 551 l0 127 l1228 0 l0 -127 l-1228 0 ZM1147 944 q0 -26 -9.5 -48.5 q-9.5 -22.5 -26.5 -39 q-17 -16.5 -39.5 -26 q-22.5 -9.5 -47.5 -9.5 q-26 0 -48 9.5 q-22 9.5 -39 26 q-17 16.5 -26.5 39 q-9.5 22.5 -9.5 48.5 q0 25 9.5 47.5 q9.5 22.5 26.5 39.5 q17 17 39 26.5 q22 9.5 48 9.5 q25 0 47.5 -9.5 q22.5 -9.5 39.5 -26.5 q17 -17 26.5 -39.5 q9.5 -22.5 9.5 -47.5 Z"/><glyph glyph-name="lozenge" unicode="" d="M551 1473 l-352 -670 l352 -688 l350 688 l-350 670 ZM614 0 l-129 0 l-413 803 l413 786 l129 0 l414 -786 l-414 -803 Z"/><glyph glyph-name="fraction" unicode="" d="M162 -190 l-162 0 l866 1564 l164 0 l-868 -1564 Z"/><glyph glyph-name="currency" unicode="" d="M950 877 q0 64 -24.5 121 q-24.5 57 -66.5 100 q-42 43 -99 68.5 q-57 25.5 -121 25.5 q-67 0 -125 -24.5 q-58 -24.5 -101.5 -67.5 q-43.5 -43 -68.5 -101 q-25 -58 -25 -125 q0 -66 25 -123.5 q25 -57.5 68.5 -100 q43.5 -42.5 102 -67 q58.5 -24.5 124.5 -24.5 q65 0 122 25.5 q57 25.5 99 69 q42 43.5 66 101 q24 57.5 24 122.5 ZM1114 328 l-211 211 q-56 -48 -124.5 -72.5 q-68.5 -24.5 -139.5 -24.5 q-77 0 -146 23.5 q-69 23.5 -126 73.5 l-211 -211 l-74 73 l211 211 q-45 56 -67.5 123 q-22.5 67 -22.5 139 q0 36 5.5 72.5 q5.5 36.5 17 71.5 q11.5 35 29 67.5 q17.5 32.5 42.5 59.5 l-215 215 l74 74 l215 -215 q55 45 125.5 67.5 q70.5 22.5 142.5 22.5 q71 0 138 -23.5 q67 -23.5 120 -68.5 l217 217 l74 -74 l-213 -213 q43 -54 67.5 -126 q24.5 -72 24.5 -144 q0 -73 -22 -141 q-22 -68 -68 -124 l211 -211 l-74 -73 Z"/><glyph glyph-name="guilsinglleft" unicode="" d="M26 441 l0 103 l330 443 l150 0 l-255 -494 l255 -493 l-150 0 l-330 441 Z"/><glyph glyph-name="guilsinglright" unicode="" d="M490 546 l0 -103 l-330 -443 l-150 0 l255 494 l-255 493 l150 0 l330 -441 Z"/><glyph glyph-name="fi" unicode="" d="M774 0 l0 96 l96 6 q19 2 32 15.5 q13 13.5 13 32.5 l0 694 l-448 0 l0 -694 q0 -19 12.5 -33.5 q12.5 -14.5 32.5 -14.5 l125 -6 l0 -96 l-594 0 l0 96 l104 6 q19 2 32.5 15.5 q13.5 13.5 13.5 32.5 l0 694 l-134 0 l0 82 l131 67 q0 79 21 148 q21 69 61 135 q31 51 72 94.5 q41 43.5 90.5 76 q49.5 32.5 107 51 q57.5 18.5 122.5 18.5 q30 0 64.5 -9.5 q34.5 -9.5 64 -29 q29.5 -19.5 48.5 -51 q19 -31.5 19 -74.5 q0 -24 -10.5 -45 q-10.5 -21 -28 -38.5 q-17.5 -17.5 -40.5 -30.5 q-23 -13 -48 -21 l-203 190 q-15 -23 -27.5 -48.5 q-12.5 -25.5 -20.5 -61 q-8 -35.5 -12.5 -84.5 q-4.5 -49 -4.5 -119 l0 -119 l534 0 l84 51 l105 0 l0 -876 q0 -19 14 -32.5 q14 -13.5 33 -15.5 l98 -6 l0 -96 l-559 0 ZM1217 1358 q0 -33 -12.5 -62 q-12.5 -29 -34.5 -51 q-22 -22 -51 -34.5 q-29 -12.5 -62 -12.5 q-33 0 -62 12.5 q-29 12.5 -51 34.5 q-22 22 -34.5 51 q-12.5 29 -12.5 62 q0 33 12.5 62 q12.5 29 34.5 50 q22 21 51 33.5 q29 12.5 62 12.5 q33 0 62 -12.5 q29 -12.5 51 -33.5 q22 -21 34.5 -50 q12.5 -29 12.5 -62 Z"/><glyph glyph-name="fl" unicode="" d="M770 0 l0 96 l100 6 q20 2 32.5 15 q12.5 13 12.5 33 l0 1179 l-61 0 q-14 -34 -47.5 -66 q-33.5 -32 -73.5 -46 l-203 190 q-15 -23 -27.5 -48.5 q-12.5 -25.5 -20.5 -61 q-8 -35.5 -12.5 -84.5 q-4.5 -49 -4.5 -119 l0 -119 l223 0 l0 -131 l-221 0 l0 -694 q0 -19 12.5 -33.5 q12.5 -14.5 32.5 -14.5 l125 -6 l0 -96 l-594 0 l0 96 l104 6 q19 2 32.5 15.5 q13.5 13.5 13.5 32.5 l0 694 l-134 0 l0 82 l131 67 q0 81 22 151 q22 70 64 136 q31 50 71.5 93 q40.5 43 89.5 75 q49 32 106 50 q57 18 121 18 q24 0 49.5 -6 q25.5 -6 50 -17.5 q24.5 -11.5 45.5 -29 q21 -17.5 35 -40.5 l239 93 l105 0 l0 -1366 q0 -20 12.5 -33 q12.5 -13 32.5 -15 l102 -6 l0 -96 l-565 0 Z"/><glyph glyph-name="daggerdbl" unicode="" d="M186 45 l-145 127 l145 125 l283 -96 l0 -47 l-283 -109 ZM512 -303 l-129 156 l106 280 l46 0 l112 -280 l-135 -156 ZM846 45 l-291 109 l0 47 l291 96 l137 -125 l-137 -127 ZM535 219 l-46 0 l-114 363 l114 360 l46 0 l114 -360 l-114 -363 ZM178 864 l-137 125 l137 127 l291 -108 l0 -45 l-291 -99 ZM535 1028 l-46 0 l-112 281 l135 157 l129 -157 l-106 -281 ZM838 864 l-283 99 l0 45 l283 108 l145 -127 l-145 -125 Z"/><glyph glyph-name="periodcentered" unicode="" d="M313 696 q0 -25 -9.5 -47 q-9.5 -22 -25.5 -38.5 q-16 -16.5 -38 -26 q-22 -9.5 -47 -9.5 q-26 0 -48 9.5 q-22 9.5 -38 26 q-16 16.5 -25.5 38.5 q-9.5 22 -9.5 47 q0 25 9.5 47.5 q9.5 22.5 25.5 38.5 q16 16 38 25.5 q22 9.5 48 9.5 q25 0 47 -9.5 q22 -9.5 38 -25.5 q16 -16 25.5 -38.5 q9.5 -22.5 9.5 -47.5 Z"/><glyph glyph-name="quotesinglbase" unicode="" d="M487 66 q0 -63 -14.5 -115 q-14.5 -52 -38 -93.5 q-23.5 -41.5 -54 -74 q-30.5 -32.5 -61.5 -56.5 q-74 -57 -167 -87 l-31 77 q60 33 100 66.5 q40 33.5 63 68 q23 34.5 30.5 70.5 q7.5 36 2.5 74 q0 2 -0.5 4.5 q-0.5 2.5 -0.5 6.5 q-1 4 -1 9 l-120 0 q-12 15 -21 33 q-8 15 -14 35.5 q-6 20.5 -6 44.5 q0 32 9 59.5 q9 27.5 27.5 47.5 q18.5 20 46.5 31.5 q28 11.5 66 11.5 q41 0 75 -16.5 q34 -16.5 58 -45 q24 -28.5 37.5 -67.5 q13.5 -39 13.5 -84 Z"/><glyph glyph-name="quotedblbase" unicode="" d="M489 59 q0 -60 -14.5 -109 q-14.5 -49 -38 -89 q-23.5 -40 -54 -71.5 q-30.5 -31.5 -61.5 -55.5 q-74 -56 -167 -88 l-33 78 q55 23 98 60 q18 16 36 36 q18 20 31.5 45.5 q13.5 25.5 22 56.5 q8.5 31 8.5 68 l0 35 l-122 0 q-12 15 -21 32 q-8 14 -14 33 q-6 19 -6 39 q0 35 12 64 q12 29 32 49.5 q20 20.5 47.5 31.5 q27.5 11 59.5 11 q47 0 81.5 -19 q34.5 -19 57.5 -50.5 q23 -31.5 34 -72.5 q11 -41 11 -84 ZM952 74 q0 -63 -14.5 -115 q-14.5 -52 -38 -93.5 q-23.5 -41.5 -54 -74 q-30.5 -32.5 -61.5 -56.5 q-74 -57 -168 -87 l-34 76 q39 21 75 46 q36 25 64 57.5 q28 32.5 44.5 75 q16.5 42.5 16.5 99.5 q0 5 -0.5 9.5 q-0.5 4.5 -0.5 7.5 q-1 4 -1 6 l-123 0 q-12 10 -21 27 q-8 14 -14 35.5 q-6 21.5 -6 51.5 q0 34 11.5 61 q11.5 27 31.5 46 q20 19 47.5 29 q27.5 10 59.5 10 q45 0 79.5 -17.5 q34.5 -17.5 58 -47 q23.5 -29.5 36 -67.5 q12.5 -38 12.5 -79 Z"/><glyph glyph-name="perthousand" unicode="" d="M2292 395 q0 94 -10 158 q-10 64 -27 102.5 q-17 38.5 -41 55 q-24 16.5 -51 16.5 q-29 0 -54.5 -16.5 q-25.5 -16.5 -45 -55 q-19.5 -38.5 -31 -102.5 q-11.5 -64 -11.5 -158 q0 -95 11.5 -158.5 q11.5 -63.5 31 -102 q19.5 -38.5 45 -55 q25.5 -16.5 54.5 -16.5 q27 0 51 16.5 q24 16.5 41 55 q17 38.5 27 102 q10 63.5 10 158.5 ZM2513 395 q0 -100 -22 -179 q-22 -79 -65.5 -134.5 q-43.5 -55.5 -109.5 -85 q-66 -29.5 -153 -29.5 q-88 0 -153 29.5 q-65 29.5 -108.5 85 q-43.5 55.5 -65 134.5 q-21.5 79 -21.5 179 q0 100 21.5 179.5 q21.5 79.5 65 134.5 q43.5 55 108.5 84.5 q65 29.5 153 29.5 q87 0 153 -29.5 q66 -29.5 109.5 -84.5 q43.5 -55 65.5 -134.5 q22 -79.5 22 -179.5 ZM541 979 q0 94 -10 158 q-10 64 -27 102.5 q-17 38.5 -41 55 q-24 16.5 -51 16.5 q-29 0 -55 -16.5 q-26 -16.5 -46.5 -55 q-20.5 -38.5 -32.5 -102.5 q-12 -64 -12 -158 q0 -95 12 -159 q12 -64 32.5 -103 q20.5 -39 46.5 -55.5 q26 -16.5 55 -16.5 q27 0 51 16.5 q24 16.5 41 55.5 q17 39 27 103 q10 64 10 159 ZM1489 395 q0 94 -9.5 158 q-9.5 64 -26.5 102.5 q-17 38.5 -41 55 q-24 16.5 -52 16.5 q-29 0 -54.5 -16.5 q-25.5 -16.5 -44.5 -55 q-19 -38.5 -30.5 -102.5 q-11.5 -64 -11.5 -158 q0 -95 11.5 -158.5 q11.5 -63.5 30.5 -102 q19 -38.5 44.5 -55 q25.5 -16.5 54.5 -16.5 q28 0 52 16.5 q24 16.5 41 55 q17 38.5 26.5 102 q9.5 63.5 9.5 158.5 ZM762 979 q0 -100 -22 -179.5 q-22 -79.5 -65.5 -135 q-43.5 -55.5 -109.5 -85.5 q-66 -30 -153 -30 q-88 0 -154 30 q-66 30 -110.5 85.5 q-44.5 55.5 -66.5 135 q-22 79.5 -22 179.5 q0 100 22 179 q22 79 66.5 134.5 q44.5 55.5 110.5 85 q66 29.5 154 29.5 q87 0 153 -29.5 q66 -29.5 109.5 -85 q43.5 -55.5 65.5 -134.5 q22 -79 22 -179 ZM535 0 l-148 0 l850 1374 l149 0 l-851 -1374 ZM1710 395 q0 -100 -22 -179 q-22 -79 -65.5 -134.5 q-43.5 -55.5 -109.5 -85 q-66 -29.5 -153 -29.5 q-88 0 -153 29.5 q-65 29.5 -108.5 85 q-43.5 55.5 -65 134.5 q-21.5 79 -21.5 179 q0 100 21.5 179.5 q21.5 79.5 65 134.5 q43.5 55 108.5 84.5 q65 29.5 153 29.5 q87 0 153 -29.5 q66 -29.5 109.5 -84.5 q43.5 -55 65.5 -134.5 q22 -79.5 22 -179.5 Z"/><glyph glyph-name="uni25CC" unicode="" d="M486 868 q0 20 13.5 34 q13.5 14 33.5 14 q20 0 34 -14 q14 -14 14 -34 q0 -20 -14 -33.5 q-14 -13.5 -34 -13.5 q-20 0 -33.5 13.5 q-13.5 13.5 -13.5 33.5 ZM486 47 q0 20 13.5 34 q13.5 14 33.5 14 q20 0 34 -14 q14 -14 14 -34 q0 -20 -14 -33.5 q-14 -13.5 -34 -13.5 q-20 0 -33.5 13.5 q-13.5 13.5 -13.5 33.5 ZM646 855 q6 14 18 22 q12 8 26 8 q20 0 34 -15 q14 -15 14 -34 q0 -20 -15 -33.5 q-15 -13.5 -33 -13.5 q-20 0 -33.5 15.5 q-13.5 15.5 -13.5 33.5 q0 8 3 17 ZM332 96 q6 14 19.5 22 q13.5 8 25.5 8 q20 0 33.5 -15 q13.5 -15 13.5 -33 q0 -20 -15 -33.5 q-15 -13.5 -33 -13.5 q-20 0 -34 15 q-14 15 -14 32 q0 5 1 9 q1 4 3 9 ZM789 782 q16 14 34 14 q20 0 33.5 -14 q13.5 -14 13.5 -34 q0 -20 -13.5 -34 q-13.5 -14 -33.5 -14 q-20 0 -33.5 15 q-13.5 15 -13.5 33 q0 19 13 34 ZM209 200 q15 15 32 15 q21 0 35 -13.5 q14 -13.5 14 -33.5 q0 -19 -13.5 -33.5 q-13.5 -14.5 -33.5 -14.5 q-19 0 -33.5 14.5 q-14.5 14.5 -14.5 33.5 q0 18 14 32 ZM894 659 q5 2 9 3 q4 1 9 1 q18 0 33 -14 q15 -14 15 -34 q0 -18 -14 -33 q-14 -15 -35 -15 q-18 0 -32 13.5 q-14 13.5 -14 33.5 q0 14 7.5 26.5 q7.5 12.5 21.5 18.5 ZM135 344 q8 4 19 4 q20 0 34 -13 q14 -13 14 -33 q0 -19 -14 -34 q-14 -15 -34 -15 q-19 0 -33.5 14.5 q-14.5 14.5 -14.5 34.5 q0 14 7.5 25.5 q7.5 11.5 21.5 16.5 ZM943 506 q20 0 34 -14 q14 -14 14 -34 q0 -19 -13.5 -33 q-13.5 -14 -33.5 -14 l-4 0 q-18 0 -31.5 14 q-13.5 14 -13.5 32 q0 20 15 33.5 q15 13.5 33 15.5 ZM122 505 q19 0 34 -13.5 q15 -13.5 15 -32.5 q0 -20 -15 -34.5 q-15 -14.5 -33 -14.5 l-2 0 q-20 0 -33 14.5 q-13 14.5 -13 33.5 q0 20 13.5 33.5 q13.5 13.5 33.5 13.5 ZM930 345 q14 -6 22 -18 q8 -12 8 -26 q0 -20 -14.5 -33.5 q-14.5 -13.5 -33.5 -13.5 q-23 0 -35.5 14.5 q-12.5 14.5 -12.5 32.5 q0 23 15.5 35 q15.5 12 33.5 12 q9 0 17 -3 ZM171 659 q14 -6 22.5 -19 q8.5 -13 8.5 -27 q0 -20 -15.5 -33 q-15.5 -13 -33.5 -13 q-21 0 -34 15 q-13 15 -13 33 q0 20 14.5 34 q14.5 14 32.5 14 q5 0 9 -1 q4 -1 9 -3 ZM857 202 q14 -14 14 -34 q0 -19 -13.5 -33 q-13.5 -14 -34.5 -14 q-20 0 -34 14 q-14 14 -14 33 q0 20 13 33.5 q13 13.5 33 13.5 q20 0 36 -13 ZM275 782 q15 -13 15 -33 q0 -22 -13 -35 q-13 -13 -34 -13 q-20 0 -34 13.5 q-14 13.5 -14 32.5 q0 20 14 34.5 q14 14.5 33 14.5 q19 0 33 -14 ZM734 97 q2 -5 3 -9 q1 -4 1 -9 q0 -18 -14 -33 q-14 -15 -34 -15 q-18 0 -33 14 q-15 14 -15 35 q0 17 13 32 q13 15 32 15 q14 0 27 -8 q13 -8 20 -22 ZM419 856 q4 -8 4 -19 q0 -19 -12.5 -33.5 q-12.5 -14.5 -32.5 -14.5 q-20 0 -35 13.5 q-15 13.5 -15 34.5 q0 18 14.5 33 q14.5 15 34.5 15 q14 0 25 -7.5 q11 -7.5 17 -21.5 Z"/><glyph glyph-name="dotlessi" unicode="" d="M66 0 l0 96 l94 6 q18 2 31.5 15.5 q13.5 13.5 13.5 32.5 l0 688 l-131 0 l0 84 l299 102 l104 0 l0 -874 q0 -19 14.5 -32.5 q14.5 -13.5 32.5 -15.5 l99 -6 l0 -96 l-557 0 Z"/><glyph glyph-name="tilde" unicode="" d="M719 1452 q-13 -53 -34 -99 q-21 -46 -51 -80.5 q-30 -34.5 -70.5 -54.5 q-40.5 -20 -92.5 -20 q-40 0 -70 15.5 q-30 15.5 -59.5 33.5 q-29.5 18 -62.5 33.5 q-33 15.5 -78 15.5 q-34 0 -59.5 -28 q-25.5 -28 -30.5 -70 l-111 0 q13 53 34 99 q21 46 51 80.5 q30 34.5 70 54.5 q40 20 91 20 q40 0 71 -15 q31 -15 60.5 -33 q29.5 -18 62.5 -33 q33 -15 78 -15 q16 0 31.5 7.5 q15.5 7.5 27.5 20.5 q12 13 20.5 30.5 q8.5 17.5 10.5 37.5 l111 0 Z"/><glyph glyph-name="dotaccent" unicode="" d="M279 1337 q0 -28 -10.5 -53.5 q-10.5 -25.5 -29.5 -44.5 q-19 -19 -44.5 -30 q-25.5 -11 -55.5 -11 q-30 0 -55.5 10.5 q-25.5 10.5 -44 29 q-18.5 18.5 -29 44 q-10.5 25.5 -10.5 55.5 q0 31 10 58 q10 27 28.5 47.5 q18.5 20.5 44 32.5 q25.5 12 56.5 12 q29 0 54.5 -11.5 q25.5 -11.5 44.5 -32 q19 -20.5 30 -48 q11 -27.5 11 -58.5 Z"/><glyph glyph-name="ring" unicode="" d="M387 1386 q0 27 -10 50.5 q-10 23.5 -27.5 41.5 q-17.5 18 -41 28 q-23.5 10 -50.5 10 q-26 0 -49.5 -10 q-23.5 -10 -41 -28 q-17.5 -18 -28 -41.5 q-10.5 -23.5 -10.5 -50.5 q0 -27 10.5 -50.5 q10.5 -23.5 28 -41 q17.5 -17.5 41 -27.5 q23.5 -10 49.5 -10 q27 0 50.5 10 q23.5 10 41 27.5 q17.5 17.5 27.5 41 q10 23.5 10 50.5 ZM518 1386 q0 -54 -20.5 -101 q-20.5 -47 -56 -82 q-35.5 -35 -82.5 -55 q-47 -20 -101 -20 q-53 0 -100 20 q-47 20 -82 55 q-35 35 -55.5 82 q-20.5 47 -20.5 101 q0 54 20.5 101 q20.5 47 55.5 82.5 q35 35.5 82 55.5 q47 20 100 20 q54 0 101 -20 q47 -20 82.5 -55.5 q35.5 -35.5 56 -82.5 q20.5 -47 20.5 -101 Z"/><glyph glyph-name="hungarumlaut" unicode="" d="M526 1395 q0 -10 -4 -22.5 q-4 -12.5 -11 -24.5 q-7 -12 -16.5 -22.5 q-9.5 -10.5 -21.5 -16.5 l-330 -181 l-143 0 l281 310 q17 19 31.5 31.5 q14.5 12.5 29 20 q14.5 7.5 31 10.5 q16.5 3 37.5 3 q33 0 55 -10 q22 -10 35.5 -25.5 q13.5 -15.5 19.5 -35 q6 -19.5 6 -37.5 ZM967 1395 q0 -10 -4 -22.5 q-4 -12.5 -11.5 -24.5 q-7.5 -12 -17 -22.5 q-9.5 -10.5 -21.5 -16.5 l-329 -181 l-144 0 l281 310 q17 19 31.5 31.5 q14.5 12.5 29.5 20 q15 7.5 31 10.5 q16 3 37 3 q33 0 55.5 -10 q22.5 -10 36 -25.5 q13.5 -15.5 19.5 -35 q6 -19.5 6 -37.5 Z"/><glyph glyph-name="uni0430" unicode="" d="M717 0 l-27 102 q-53 -36 -111 -64 q-51 -24 -114 -43.5 q-63 -19.5 -131 -19.5 q-56 0 -104.5 18.5 q-48.5 18.5 -85 53 q-36.5 34.5 -57.5 83.5 q-21 49 -21 110 q0 46 7.5 85 q7.5 39 30 72.5 q22.5 33.5 64.5 64 q42 30.5 111.5 59.5 q69.5 29 170.5 58 q101 29 242 60 l0 25 q0 15 1 27 q0 14 1 28 q1 29 -6 62.5 q-7 33.5 -28 62 q-21 28.5 -59 47 q-38 18.5 -99 18.5 q-21 0 -37.5 -1 q-16.5 -1 -27.5 -3 q-13 -2 -23 -4 l0 -194 l-211 0 q-26 -2 -46 5 q-17 6 -31.5 21 q-14.5 15 -14.5 47 q0 57 40.5 102 q40.5 45 106 76.5 q65.5 31.5 147 48.5 q81.5 17 162.5 17 q88 0 161 -13 q73 -13 125.5 -50.5 q52.5 -37.5 81 -105.5 q28.5 -68 28.5 -179 l0 -526 q0 -19 13 -32.5 q13 -13.5 32 -15.5 l90 -6 l0 -96 l-381 0 ZM690 528 q-99 -20 -163.5 -41 q-64.5 -21 -102.5 -48 q-38 -27 -53 -61.5 q-15 -34.5 -15 -80.5 q0 -32 10.5 -59.5 q10.5 -27.5 30 -48 q19.5 -20.5 46.5 -32.5 q27 -12 59 -12 q33 0 66.5 7 q33.5 7 60.5 15 q32 10 61 23 l0 338 Z"/><glyph glyph-name="uni2090" unicode="" d="M466 -460 l-18 61 q-34 -21 -72 -38 q-33 -15 -74 -26.5 q-41 -11.5 -85 -11.5 q-36 0 -67.5 11 q-31.5 11 -55.5 32 q-24 21 -37.5 50 q-13.5 29 -13.5 66 q0 28 5 51 q5 23 19.5 43.5 q14.5 20.5 41.5 38.5 q27 18 72.5 35.5 q45.5 17.5 111 35 q65.5 17.5 157.5 35.5 l0 32 q0 8 1 16 q1 18 -3.5 38 q-4.5 20 -18.5 37 q-14 17 -38.5 28 q-24.5 11 -64.5 11 q-13 0 -24 -0.5 q-11 -0.5 -18 -1.5 q-8 -1 -15 -2 l0 -117 l-137 0 q-17 -1 -30 3 q-11 4 -20.5 13 q-9.5 9 -9.5 28 q0 34 26.5 61 q26.5 27 69 46 q42.5 19 95.5 29 q53 10 106 10 q57 0 104.5 -7.5 q47.5 -7.5 81.5 -30 q34 -22.5 52.5 -63.5 q18.5 -41 18.5 -107 l0 -316 q0 -11 8.5 -19.5 q8.5 -8.5 20.5 -9.5 l59 -3 l0 -58 l-248 0 ZM448 -143 q-64 -12 -106 -24.5 q-42 -12.5 -66.5 -29 q-24.5 -16.5 -34.5 -37 q-10 -20.5 -10 -48.5 q0 -19 7 -35.5 q7 -16.5 19.5 -29 q12.5 -12.5 30 -19.5 q17.5 -7 38.5 -7 q22 0 43.5 4 q21.5 4 39.5 9 q21 6 39 14 l0 203 Z"/><glyph glyph-name="uni1D43" unicode="" d="M449 1102 q-65 -12 -107 -25 q-42 -13 -67 -29.5 q-25 -16.5 -34.5 -37 q-9.5 -20.5 -9.5 -47.5 q0 -39 26.5 -65 q26.5 -26 68.5 -26 q21 0 43 3.5 q22 3.5 40 8.5 q21 5 40 13 l0 205 ZM465 784 l-16 62 q-33 -21 -72 -38 q-33 -14 -75 -26 q-42 -12 -87 -12 q-35 0 -66.5 11 q-31.5 11 -55 31 q-23.5 20 -37 49.5 q-13.5 29.5 -13.5 66.5 q0 27 4.5 50.5 q4.5 23.5 19.5 44 q15 20.5 42.5 39 q27.5 18.5 72.5 35.5 q45 17 111 34.5 q66 17.5 158 35.5 l0 47 q1 18 -3.5 38 q-4.5 20 -18 37.5 q-13.5 17.5 -38.5 28.5 q-25 11 -65 11 q-14 0 -24 -0.5 q-10 -0.5 -18 -1.5 q-9 -1 -16 -2 l0 -117 l-137 0 q-17 -1 -30 3 q-11 4 -20 13 q-9 9 -9 29 q0 34 26.5 61 q26.5 27 69 46 q42.5 19 95.5 29 q53 10 106 10 q57 0 104.5 -8 q47.5 -8 81.5 -30.5 q34 -22.5 53 -63.5 q19 -41 19 -107 l0 -316 q0 -12 8 -20 q8 -8 20 -8 l60 -4 l0 -58 l-250 0 Z"/><glyph glyph-name="aogonek" unicode="" d="M1034 -362 q-38 -18 -74 -32 q-31 -12 -64.5 -22 q-33.5 -10 -56.5 -10 q-48 0 -89.5 11.5 q-41.5 11.5 -72 34 q-30.5 22.5 -48 54 q-17.5 31.5 -17.5 72.5 q0 45 17 85 q17 40 42.5 72.5 q25.5 32.5 54.5 57.5 q27 24 49 39 l-58 0 l-27 102 q-53 -36 -111 -64 q-51 -24 -114 -43.5 q-63 -19.5 -131 -19.5 q-56 0 -104.5 18.5 q-48.5 18.5 -85 53 q-36.5 34.5 -57.5 83.5 q-21 49 -21 110 q0 46 7.5 85 q7.5 39 30 72.5 q22.5 33.5 64.5 64 q42 30.5 111.5 59.5 q69.5 29 170.5 58 q101 29 242 60 l0 25 q0 15 1 27 q0 14 1 28 q1 29 -6 62.5 q-7 33.5 -28 62 q-21 28.5 -59 47 q-38 18.5 -99 18.5 q-21 0 -37.5 -1 q-16.5 -1 -27.5 -3 q-13 -2 -23 -4 l0 -194 l-211 0 q-26 -2 -46 5 q-17 6 -31.5 21 q-14.5 15 -14.5 47 q0 57 40.5 102 q40.5 45 106 76.5 q65.5 31.5 147 48.5 q81.5 17 162.5 17 q88 0 161 -13 q73 -13 125.5 -50.5 q52.5 -37.5 81 -105.5 q28.5 -68 28.5 -179 l0 -526 q0 -19 13 -32.5 q13 -13.5 32 -15.5 l90 -6 l0 -96 l-194 0 q-55 -42 -90 -91 q-36 -50 -36 -110 q0 -45 25.5 -75.5 q25.5 -30.5 76.5 -30.5 q10 0 23.5 7 q13.5 7 27 15.5 q13.5 8.5 24 17 q10.5 8.5 15.5 11.5 l64 -106 ZM690 528 q-99 -20 -163.5 -41 q-64.5 -21 -102.5 -48 q-38 -27 -53 -61.5 q-15 -34.5 -15 -80.5 q0 -32 10.5 -59.5 q10.5 -27.5 30 -48 q19.5 -20.5 46.5 -32.5 q27 -12 59 -12 q33 0 66.5 7 q33.5 7 60.5 15 q32 10 61 23 l0 338 Z"/><glyph glyph-name="uni1D8F" unicode="" d="M717 0 l-27 102 q-53 -36 -111 -64 q-51 -24 -114 -43.5 q-63 -19.5 -131 -19.5 q-56 0 -104.5 18.5 q-48.5 18.5 -85 53 q-36.5 34.5 -57.5 83.5 q-21 49 -21 110 q0 46 7.5 85 q7.5 39 30 72.5 q22.5 33.5 64.5 64 q42 30.5 111.5 59.5 q69.5 29 170.5 58 q101 29 242 60 l0 25 q0 15 1 27 q0 14 1 28 q1 29 -6 62.5 q-7 33.5 -28 62 q-21 28.5 -59 47 q-38 18.5 -99 18.5 q-21 0 -37.5 -1 q-16.5 -1 -27.5 -3 q-13 -2 -23 -4 l0 -194 l-211 0 q-26 -2 -46 5 q-17 6 -31.5 21 q-14.5 15 -14.5 47 q0 57 40.5 102 q40.5 45 106 76.5 q65.5 31.5 147 48.5 q81.5 17 162.5 17 q88 0 161 -13 q73 -13 125.5 -50.5 q52.5 -37.5 81 -105.5 q28.5 -68 28.5 -179 l0 -526 q0 -19 13 -32.5 q13 -13.5 32 -15.5 l90 -6 l0 -315 q0 -34 8 -55 q8 -21 23.5 -32.5 q15.5 -11.5 38.5 -15.5 q23 -4 53 -4 l197 187 q24 -14 45.5 -30 q21.5 -16 37 -38 q15.5 -22 24.5 -51.5 q9 -29.5 9 -69.5 q0 -37 -25.5 -63.5 q-25.5 -26.5 -63.5 -44 q-38 -17.5 -82.5 -25.5 q-44.5 -8 -81.5 -8 q-49 0 -103.5 14 q-54.5 14 -101 44.5 q-46.5 30.5 -77 79 q-30.5 48.5 -30.5 116.5 l0 215 l-252 0 ZM690 528 q-99 -20 -163.5 -41 q-64.5 -21 -102.5 -48 q-38 -27 -53 -61.5 q-15 -34.5 -15 -80.5 q0 -32 10.5 -59.5 q10.5 -27.5 30 -48 q19.5 -20.5 46.5 -32.5 q27 -12 59 -12 q33 0 66.5 7 q33.5 7 60.5 15 q32 10 61 23 l0 338 Z"/><glyph glyph-name="uni2C65" unicode="" d="M1032 1113 l-121 -213 q25 -39 38.5 -94 q13.5 -55 13.5 -130 l0 -526 q0 -19 13 -32.5 q13 -13.5 32 -15.5 l90 -6 l0 -96 l-381 0 l-27 102 q-43 -29 -92 -54 q-42 -21 -96.5 -41 q-54.5 -20 -114.5 -28 l-89 -157 l-104 61 l58 103 q-41 11 -75 34 q-34 23 -58.5 55.5 q-24.5 32.5 -38.5 74 q-14 41.5 -14 90.5 q0 44 6.5 81 q6.5 37 26.5 69.5 q20 32.5 57 62 q37 29.5 97.5 57 q60.5 27.5 149 55 q88.5 27.5 210.5 56.5 l79 139 q-4 27 -15 53.5 q-11 26.5 -32.5 47.5 q-21.5 21 -56.5 34.5 q-35 13.5 -86 13.5 q-21 0 -37.5 -1 q-16.5 -1 -27.5 -3 q-13 -2 -23 -4 l0 -194 l-211 0 q-26 -2 -46 5 q-17 6 -31.5 21 q-14.5 15 -14.5 47 q0 57 40.5 102 q40.5 45 106 76.5 q65.5 31.5 147 48.5 q81.5 17 162.5 17 q75 0 138 -9 q63 -9 113 -33 l108 190 l106 -59 ZM690 511 l-208 -365 q5 -1 10 -1 l10 0 q33 0 66.5 7 q33.5 7 60.5 15 q32 10 61 23 l0 321 ZM356 297 q0 -50 24 -86 l159 280 q-53 -17 -88 -36 q-35 -19 -56 -42.5 q-21 -23.5 -30 -51.5 q-9 -28 -9 -64 Z"/><glyph glyph-name="uniA733" unicode="" d="M1324 0 l-27 102 q-53 -36 -111 -64 q-51 -24 -114 -43.5 q-63 -19.5 -131 -19.5 q-80 0 -139 37 q-59 37 -88 103 q-19 -12 -59 -35.5 q-40 -23.5 -92.5 -46.5 q-52.5 -23 -112 -40.5 q-59.5 -17.5 -116.5 -17.5 q-56 0 -104.5 18.5 q-48.5 18.5 -85 53 q-36.5 34.5 -57.5 83.5 q-21 49 -21 110 q0 46 7.5 85 q7.5 39 30 72.5 q22.5 33.5 64.5 64 q42 30.5 111.5 59.5 q69.5 29 170.5 58 q101 29 242 60 l0 25 q0 15 1 27 q0 14 1 28 q1 29 -6 62.5 q-7 33.5 -28 62 q-21 28.5 -59 47 q-38 18.5 -99 18.5 q-21 0 -37.5 -1 q-16.5 -1 -27.5 -3 q-13 -2 -23 -4 l0 -194 l-211 0 q-26 -2 -46 5 q-17 6 -31.5 21 q-14.5 15 -14.5 47 q0 57 40.5 102 q40.5 45 106 76.5 q65.5 31.5 147 48.5 q81.5 17 162.5 17 q90 0 162.5 -13.5 q72.5 -13.5 125.5 -51.5 q69 32 153.5 48.5 q84.5 16.5 165.5 16.5 q88 0 161 -13 q73 -13 125.5 -50.5 q52.5 -37.5 81 -105.5 q28.5 -68 28.5 -179 l0 -526 q0 -19 13 -32.5 q13 -13.5 32 -15.5 l90 -6 l0 -96 l-381 0 ZM1297 528 q-99 -20 -163.5 -41 q-64.5 -21 -102.5 -48 q-38 -27 -53 -61.5 q-15 -34.5 -15 -80.5 q0 -33 11 -61 q11 -28 30.5 -48 q19.5 -20 46 -31.5 q26.5 -11.5 58.5 -11.5 q33 0 66.5 7 q33.5 7 60.5 15 q32 10 61 23 l0 338 ZM690 528 q-99 -20 -163.5 -41 q-64.5 -21 -102.5 -48 q-38 -27 -53 -61.5 q-15 -34.5 -15 -80.5 q0 -32 10.5 -59.5 q10.5 -27.5 30 -48 q19.5 -20.5 46.5 -32.5 q27 -12 59 -12 q33 0 66.5 7 q33.5 7 60.5 15 q32 10 61 23 l0 338 ZM963 548 q63 23 145.5 45 q82.5 22 190.5 46 l0 25 q0 15 1 27 q0 14 1 28 q1 29 -6 62.5 q-7 33.5 -28 62 q-21 28.5 -59 47 q-38 18.5 -99 18.5 q-27 0 -53 -4.5 q-26 -4.5 -47 -9.5 q-25 -6 -46 -14 l0 -333 Z"/><glyph glyph-name="uniA735" unicode="" d="M1707 494 q0 -115 -33.5 -210.5 q-33.5 -95.5 -99.5 -164 q-66 -68.5 -163.5 -106.5 q-97.5 -38 -224.5 -38 q-129 0 -227 42.5 q-98 42.5 -162 123.5 q-29 -18 -79.5 -46.5 q-50.5 -28.5 -113 -55 q-62.5 -26.5 -132.5 -45.5 q-70 -19 -138 -19 q-56 0 -104.5 18.5 q-48.5 18.5 -85 53 q-36.5 34.5 -57.5 83.5 q-21 49 -21 110 q0 46 7.5 85 q7.5 39 30 72.5 q22.5 33.5 64.5 64 q42 30.5 111.5 59.5 q69.5 29 170.5 58 q101 29 242 60 l0 25 q0 15 1 27 q0 14 1 28 q1 29 -6 62.5 q-7 33.5 -28 62 q-21 28.5 -59 47 q-38 18.5 -99 18.5 q-21 0 -37.5 -1 q-16.5 -1 -27.5 -3 q-13 -2 -23 -4 l0 -194 l-211 0 q-26 -2 -46 5 q-17 6 -31.5 21 q-14.5 15 -14.5 47 q0 57 40.5 102 q40.5 45 106 76.5 q65.5 31.5 147 48.5 q81.5 17 162.5 17 q103 0 183.5 -18 q80.5 -18 132.5 -72 q63 45 142 67.5 q79 22.5 175 22.5 q127 0 222 -39 q95 -39 158.5 -109.5 q63.5 -70.5 95 -167.5 q31.5 -97 31.5 -214 ZM1401 496 q0 43 -2.5 90.5 q-2.5 47.5 -10 93.5 q-7.5 46 -21.5 87 q-14 41 -37 72 q-23 31 -57 49.5 q-34 18.5 -81 18.5 q-69 0 -109.5 -38 q-40.5 -38 -62 -97.5 q-21.5 -59.5 -27.5 -130.5 q-6 -71 -6 -137 q0 -44 2 -92 q2 -48 9.5 -94 q7.5 -46 21 -87 q13.5 -41 36.5 -72.5 q23 -31.5 57 -50 q34 -18.5 81 -18.5 q46 0 79.5 17.5 q33.5 17.5 56.5 47 q23 29.5 37 69.5 q14 40 21.5 85.5 q7.5 45.5 10 93 q2.5 47.5 2.5 93.5 ZM690 528 q-99 -20 -163.5 -41 q-64.5 -21 -102.5 -48 q-38 -27 -53 -61.5 q-15 -34.5 -15 -80.5 q0 -32 10.5 -59.5 q10.5 -27.5 30 -48 q19.5 -20.5 46.5 -32.5 q27 -12 59 -12 q33 0 66.5 7 q33.5 7 60.5 15 q32 10 61 23 l0 338 Z"/><glyph glyph-name="uniA737" unicode="" d="M502 145 q30 0 61.5 6 q31.5 6 59 14 q27.5 8 48 15.5 q20.5 7.5 27.5 10.5 q-5 27 -6.5 56.5 q-1.5 29.5 -1.5 61.5 l0 219 q-99 -20 -163.5 -41 q-64.5 -21 -102.5 -48 q-38 -27 -53 -61.5 q-15 -34.5 -15 -80.5 q0 -32 10.5 -59.5 q10.5 -27.5 30 -48 q19.5 -20.5 46.5 -32.5 q27 -12 59 -12 ZM1297 0 l0 113 q-52 -39 -106 -69 q-23 -13 -48.5 -25.5 q-25.5 -12.5 -52.5 -22 q-27 -9.5 -54.5 -15.5 q-27.5 -6 -52.5 -6 q-113 0 -175.5 37.5 q-62.5 37.5 -90.5 108.5 l-27 -19 q-53 -36 -111 -64 q-51 -24 -114 -43.5 q-63 -19.5 -131 -19.5 q-56 0 -104.5 18.5 q-48.5 18.5 -85 53 q-36.5 34.5 -57.5 83.5 q-21 49 -21 110 q0 46 7 85 q7 39 29.5 72.5 q22.5 33.5 64.5 64 q42 30.5 111 59.5 q69 29 170 58 q101 29 242 60 l0 80 q0 30 -6.5 63 q-6.5 33 -26 61.5 q-19.5 28.5 -57 47 q-37.5 18.5 -98.5 18.5 q-21 0 -37.5 -1 q-16.5 -1 -27.5 -3 q-13 -2 -23 -4 l0 -194 l-211 0 q-26 -2 -46 5 q-17 6 -31.5 21 q-14.5 15 -14.5 47 q0 57 40.5 102 q40.5 45 106 76.5 q65.5 31.5 147 48.5 q81.5 17 162.5 17 q88 0 161 -13 q73 -13 125.5 -50.5 q52.5 -37.5 81 -105.5 q28.5 -68 28.5 -179 l0 -287 q0 -38 3.5 -78 q3.5 -40 21 -73 q17.5 -33 54 -54.5 q36.5 -21.5 101.5 -21.5 q32 0 60 5 q28 5 49 12 q25 8 45 18 l0 641 l-129 0 l0 84 l299 102 l104 0 l0 -874 q0 -19 14.5 -32.5 q14.5 -13.5 33.5 -15.5 l90 -6 l0 -96 l-412 0 Z"/><glyph glyph-name="uniA739" unicode="" d="M1421 889 l-352 -889 l-352 0 l-27 102 q-53 -36 -111 -64 q-51 -24 -114 -43.5 q-63 -19.5 -131 -19.5 q-56 0 -104.5 18.5 q-48.5 18.5 -85 53 q-36.5 34.5 -57.5 83.5 q-21 49 -21 110 q0 46 7.5 85 q7.5 39 30 72.5 q22.5 33.5 64.5 64 q42 30.5 111.5 59.5 q69.5 29 170.5 58 q101 29 242 60 l0 25 q0 15 1 27 q0 14 1 28 q1 29 -6 62.5 q-7 33.5 -28 62 q-21 28.5 -59 47 q-38 18.5 -99 18.5 q-21 0 -37.5 -1 q-16.5 -1 -27.5 -3 q-13 -2 -23 -4 l0 -194 l-211 0 q-26 -2 -46 5 q-17 6 -31.5 21 q-14.5 15 -14.5 47 q0 57 40.5 102 q40.5 45 106 76.5 q65.5 31.5 147 48.5 q81.5 17 162.5 17 q88 0 161 -13 q73 -13 125.5 -50.5 q52.5 -37.5 81 -105.5 q28.5 -68 28.5 -179 l0 -570 l294 746 q6 15 -4 29 q-10 14 -27 16 l-86 6 l0 96 l398 0 l0 -96 l-117 -14 ZM690 528 q-99 -20 -163.5 -41 q-64.5 -21 -102.5 -48 q-38 -27 -53 -61.5 q-15 -34.5 -15 -80.5 q0 -32 10.5 -59.5 q10.5 -27.5 30 -48 q19.5 -20.5 46.5 -32.5 q27 -12 59 -12 q33 0 66.5 7 q33.5 7 60.5 15 q32 10 61 23 l0 338 Z"/><glyph glyph-name="uniA73B" unicode="" d="M1270 508 l-201 -508 l-352 0 l-27 102 q-53 -36 -111 -64 q-51 -24 -114 -43.5 q-63 -19.5 -131 -19.5 q-56 0 -104.5 18.5 q-48.5 18.5 -85 53 q-36.5 34.5 -57.5 83.5 q-21 49 -21 110 q0 46 7.5 85 q7.5 39 30 72.5 q22.5 33.5 64.5 64 q42 30.5 111.5 59.5 q69.5 29 170.5 58 q101 29 242 60 l0 25 q0 15 1 27 q0 14 1 28 q1 29 -6 62.5 q-7 33.5 -28 62 q-21 28.5 -59 47 q-38 18.5 -99 18.5 q-21 0 -37.5 -1 q-16.5 -1 -27.5 -3 q-13 -2 -23 -4 l0 -194 l-211 0 q-26 -2 -46 5 q-17 6 -31.5 21 q-14.5 15 -14.5 47 q0 57 40.5 102 q40.5 45 106 76.5 q65.5 31.5 147 48.5 q81.5 17 162.5 17 q88 0 161 -13 q73 -13 125.5 -50.5 q52.5 -37.5 81 -105.5 q28.5 -68 28.5 -179 l0 -37 l210 0 l84 213 q6 15 -4 29 q-10 14 -27 16 l-86 6 l0 96 l398 0 l0 -96 l-117 -14 l-99 -250 l196 0 l0 -131 l-248 0 ZM690 528 q-99 -20 -163.5 -41 q-64.5 -21 -102.5 -48 q-38 -27 -53 -61.5 q-15 -34.5 -15 -80.5 q0 -32 10.5 -59.5 q10.5 -27.5 30 -48 q19.5 -20.5 46.5 -32.5 q27 -12 59 -12 q33 0 66.5 7 q33.5 7 60.5 15 q32 10 61 23 l0 338 ZM963 508 l0 -402 l158 402 l-158 0 Z"/><glyph glyph-name="uniA73D" unicode="" d="M1545 889 l-354 -869 q-19 -46 -42 -100 q-23 -54 -51.5 -108.5 q-28.5 -54.5 -62.5 -105 q-34 -50.5 -76 -89.5 q-43 -42 -93.5 -66 q-50.5 -24 -110.5 -24 q-30 0 -62.5 11.5 q-32.5 11.5 -59 33 q-26.5 21.5 -43.5 52 q-17 30.5 -16 67.5 q0 28 10.5 51.5 q10.5 23.5 27 42.5 q16.5 19 38 33 q21.5 14 43.5 24 l174 -133 q28 26 51.5 62.5 q23.5 36.5 42.5 75 q19 38.5 33.5 74.5 q14.5 36 24.5 61 l7 18 l-309 0 l-27 102 q-53 -36 -111 -64 q-51 -24 -114 -43.5 q-63 -19.5 -131 -19.5 q-56 0 -104.5 18.5 q-48.5 18.5 -85 53 q-36.5 34.5 -57.5 83.5 q-21 49 -21 110 q0 46 7.5 85 q7.5 39 30 72.5 q22.5 33.5 64.5 64 q42 30.5 111.5 59.5 q69.5 29 170.5 58 q101 29 242 60 l0 25 q0 15 1 27 q0 14 1 28 q1 29 -6 62.5 q-7 33.5 -28 62 q-21 28.5 -59 47 q-38 18.5 -99 18.5 q-21 0 -37.5 -1 q-16.5 -1 -27.5 -3 q-13 -2 -23 -4 l0 -194 l-211 0 q-26 -2 -46 5 q-17 6 -31.5 21 q-14.5 15 -14.5 47 q0 57 40.5 102 q40.5 45 106 76.5 q65.5 31.5 147 48.5 q81.5 17 162.5 17 q88 0 161 -13 q73 -13 125.5 -50.5 q52.5 -37.5 81 -105.5 q28.5 -68 28.5 -179 l0 -526 q0 -19 13 -32.5 q13 -13.5 32 -15.5 l58 -4 l309 754 q6 15 -4 29 q-10 14 -27 16 l-90 6 l0 96 l400 0 l0 -96 l-109 -14 ZM690 528 q-99 -20 -163.5 -41 q-64.5 -21 -102.5 -48 q-38 -27 -53 -61.5 q-15 -34.5 -15 -80.5 q0 -32 10.5 -59.5 q10.5 -27.5 30 -48 q19.5 -20.5 46.5 -32.5 q27 -12 59 -12 q33 0 66.5 7 q33.5 7 60.5 15 q32 10 61 23 l0 338 Z"/><glyph glyph-name="uni0250" unicode="" d="M776 702 q0 31 -10.5 59 q-10.5 28 -29.5 48.5 q-19 20.5 -45.5 32.5 q-26.5 12 -57.5 12 q-33 0 -67 -7.5 q-34 -7.5 -62 -15.5 q-33 -10 -62 -22 l0 -340 q100 21 165 42.5 q65 21.5 102.5 48.5 q37.5 27 52 61.5 q14.5 34.5 14.5 80.5 ZM1067 760 q0 -46 -7 -85 q-7 -39 -29.5 -73.5 q-22.5 -34.5 -64.5 -65 q-42 -30.5 -112 -60 q-70 -29.5 -171.5 -58.5 q-101.5 -29 -242.5 -60 q0 -11 -0.5 -24 q-0.5 -13 -0.5 -25 q-1 -14 -1 -28 q-1 -29 6 -63 q7 -34 28.5 -63 q21.5 -29 60 -48 q38.5 -19 100.5 -19 q20 0 36.5 1 q16.5 1 27.5 3 q13 2 24 4 l0 197 l211 0 q26 1 46 -6 q17 -6 31.5 -22 q14.5 -16 14.5 -48 q0 -56 -41 -100.5 q-41 -44.5 -107 -76 q-66 -31.5 -148 -48.5 q-82 -17 -163 -17 q-88 0 -161 13 q-73 13 -125 51 q-52 38 -80.5 106 q-28.5 68 -28.5 179 l0 526 q0 18 -13 31.5 q-13 13.5 -32 15.5 l-90 6 l0 96 l383 0 l24 -102 q52 35 111 63 q51 24 115 44 q64 20 133 20 q55 0 103.5 -18.5 q48.5 -18.5 84.5 -53 q36 -34.5 57 -83 q21 -48.5 21 -109.5 Z"/><glyph glyph-name="uni1D44" unicode="" d="M694 1241 q0 -28 -5 -51 q-5 -23 -19.5 -44 q-14.5 -21 -41.5 -39 q-27 -18 -72.5 -36 q-45.5 -18 -111.5 -35.5 q-66 -17.5 -158 -35.5 q0 -7 -0.5 -14.5 q-0.5 -7.5 -0.5 -15.5 l0 -16 q-1 -18 3.5 -38.5 q4.5 -20.5 18.5 -37.5 q14 -17 39 -28.5 q25 -11.5 65 -11.5 q13 0 24 0.5 q11 0.5 18 1.5 q8 1 16 3 l0 118 l137 0 q17 0 30 -4 q11 -3 20.5 -13 q9.5 -10 9.5 -29 q0 -33 -27 -60 q-27 -27 -70 -46 q-43 -19 -96 -29 q-53 -10 -106 -10 q-57 0 -104.5 8 q-47.5 8 -81 30.5 q-33.5 22.5 -52.5 63.5 q-19 41 -19 107 l0 316 q0 11 -8 19 q-8 8 -21 9 l-58 4 l0 57 l249 0 l15 -61 q34 21 72 38 q34 14 75.5 26 q41.5 12 86.5 12 q35 0 66.5 -11 q31.5 -11 55 -31.5 q23.5 -20.5 37.5 -49.5 q14 -29 14 -66 ZM504 1206 q0 19 -6.5 35.5 q-6.5 16.5 -19 29 q-12.5 12.5 -29.5 19.5 q-17 7 -38 7 q-21 0 -43 -4.5 q-22 -4.5 -40 -8.5 q-22 -6 -41 -14 l0 -204 q65 13 107.5 26 q42.5 13 67 29 q24.5 16 33.5 37 q9 21 9 48 Z"/><glyph glyph-name="uni0251" unicode="" d="M788 797 q-11 18 -32 36.5 q-21 18.5 -46.5 33.5 q-25.5 15 -52.5 24.5 q-27 9.5 -49 9.5 q-72 0 -119.5 -30.5 q-47.5 -30.5 -75.5 -83 q-28 -52.5 -39.5 -122.5 q-11.5 -70 -11.5 -149 q0 -81 16.5 -146 q16.5 -65 50 -111.5 q33.5 -46.5 83.5 -71.5 q50 -25 117 -25 q27 0 55.5 6 q28.5 6 51.5 14 q27 9 52 21 l0 594 ZM788 0 l0 119 q-50 -40 -105 -72 q-47 -27 -103.5 -49.5 q-56.5 -22.5 -112.5 -22.5 q-94 0 -168.5 36.5 q-74.5 36.5 -126 102 q-51.5 65.5 -79 156.5 q-27.5 91 -27.5 199 q0 132 37 235 q37 103 103 174.5 q66 71.5 157.5 108.5 q91.5 37 199.5 37 q57 0 120.5 -25.5 q63.5 -25.5 117.5 -70.5 l147 96 l113 0 l0 -874 q0 -20 12.5 -33 q12.5 -13 32.5 -15 l86 -6 l0 -96 l-404 0 Z"/><glyph glyph-name="uni1D45" unicode="" d="M512 1263 q-7 11 -20.5 22 q-13.5 11 -30 20 q-16.5 9 -34.5 15 q-18 6 -32 6 q-47 0 -77.5 -18.5 q-30.5 -18.5 -49 -50 q-18.5 -31.5 -26 -73.5 q-7.5 -42 -7.5 -89 q0 -49 11 -88 q11 -39 32.5 -67 q21.5 -28 54 -43 q32.5 -15 76.5 -15 q17 0 35.5 3.5 q18.5 3.5 33.5 8.5 q18 6 34 13 l0 356 ZM512 785 l0 71 q-32 -24 -68 -43 q-31 -16 -67.5 -29.5 q-36.5 -13.5 -72.5 -13.5 q-62 0 -110 22 q-48 22 -81.5 61 q-33.5 39 -51.5 94 q-18 55 -18 119 q0 80 24 141.5 q24 61.5 67 104.5 q43 43 102.5 65 q59.5 22 129.5 22 q37 0 78.5 -15 q41.5 -15 76.5 -42 l95 57 l74 0 l0 -524 q0 -12 8 -20 q8 -8 21 -9 l56 -3 l0 -58 l-263 0 Z"/><glyph glyph-name="uni1D90" unicode="" d="M788 0 l0 119 q-50 -40 -105 -72 q-47 -27 -103.5 -49.5 q-56.5 -22.5 -112.5 -22.5 q-94 0 -168.5 36.5 q-74.5 36.5 -126 102 q-51.5 65.5 -79 156.5 q-27.5 91 -27.5 199 q0 132 37 235 q37 103 103 174.5 q66 71.5 157.5 108.5 q91.5 37 199.5 37 q57 0 120.5 -25.5 q63.5 -25.5 117.5 -70.5 l147 96 l113 0 l0 -874 q0 -20 12.5 -33 q12.5 -13 32.5 -15 l86 -6 l0 -315 q0 -34 8 -55 q8 -21 23.5 -32.5 q15.5 -11.5 38.5 -15.5 q23 -4 53 -4 l197 187 q24 -14 45.5 -30 q21.5 -16 37 -38 q15.5 -22 24.5 -51.5 q9 -29.5 9 -69.5 q0 -37 -25.5 -63.5 q-25.5 -26.5 -63.5 -44 q-38 -17.5 -82.5 -25.5 q-44.5 -8 -81.5 -8 q-49 0 -103.5 14 q-54.5 14 -101 44.5 q-46.5 30.5 -77 79 q-30.5 48.5 -30.5 116.5 l0 215 l-275 0 ZM788 797 q-11 18 -32 36.5 q-21 18.5 -46.5 33.5 q-25.5 15 -52.5 24.5 q-27 9.5 -49 9.5 q-72 0 -119.5 -30.5 q-47.5 -30.5 -75.5 -83 q-28 -52.5 -39.5 -122.5 q-11.5 -70 -11.5 -149 q0 -81 16.5 -146 q16.5 -65 50 -111.5 q33.5 -46.5 83.5 -71.5 q50 -25 117 -25 q27 0 55.5 6 q28.5 6 51.5 14 q27 9 52 21 l0 594 Z"/><glyph glyph-name="uniAB64" unicode="" d="M788 796 q-25 11 -52 20 q-23 8 -51.5 14.5 q-28.5 6.5 -55.5 6.5 q-67 0 -117 -25 q-50 -25 -83.5 -71.5 q-33.5 -46.5 -50 -111.5 q-16.5 -65 -16.5 -146 q0 -79 11.5 -149 q11.5 -70 39.5 -122.5 q28 -52.5 75.5 -83 q47.5 -30.5 119.5 -30.5 q22 0 49 9.5 q27 9.5 52.5 24.5 q25.5 15 46.5 33.5 q21 18.5 32 36.5 l0 594 ZM1192 999 l0 -96 l-86 -6 q-20 -2 -32.5 -15 q-12.5 -13 -12.5 -33 l0 -874 l-113 0 l-147 96 q-54 -45 -117.5 -70.5 q-63.5 -25.5 -120.5 -25.5 q-108 0 -199.5 37 q-91.5 37 -157.5 108.5 q-66 71.5 -103 174.5 q-37 103 -37 235 q0 108 27.5 199 q27.5 91 79 156.5 q51.5 65.5 126 102 q74.5 36.5 168.5 36.5 q56 0 112.5 -22.5 q56.5 -22.5 103.5 -49.5 q55 -32 105 -72 l0 119 l404 0 Z"/><glyph glyph-name="uni0252" unicode="" d="M883 483 q0 81 -17 146.5 q-17 65.5 -50.5 112 q-33.5 46.5 -83.5 71.5 q-50 25 -116 25 q-28 0 -56 -6.5 q-28 -6.5 -51 -14.5 q-27 -9 -52 -20 l0 -594 q10 -18 30.5 -36.5 q20.5 -18.5 46 -34.5 q25.5 -16 53 -26 q27.5 -10 50.5 -10 q71 0 118.5 30.5 q47.5 30.5 76 83 q28.5 52.5 40 123 q11.5 70.5 11.5 150.5 ZM1180 530 q0 -132 -37 -235 q-37 -103 -103.5 -174.5 q-66.5 -71.5 -158 -108.5 q-91.5 -37 -199.5 -37 q-59 0 -121.5 26 q-62.5 26 -116.5 71 l-147 -97 l-115 0 l0 875 q0 20 -12.5 32.5 q-12.5 12.5 -32.5 14.5 l-86 6 l0 96 l406 0 l0 -118 q50 39 105 71 q47 27 103 49.5 q56 22.5 113 22.5 q93 0 167.5 -36.5 q74.5 -36.5 126.5 -102 q52 -65.5 80 -156.5 q28 -91 28 -199 Z"/><glyph glyph-name="uni1D9B" unicode="" d="M574 1075 q0 48 -11 87.5 q-11 39.5 -33 67.5 q-22 28 -54.5 43 q-32.5 15 -75.5 15 q-18 0 -36 -4 q-18 -4 -33 -9 q-18 -5 -34 -12 l0 -356 q7 -11 20 -22 q13 -11 29.5 -20.5 q16.5 -9.5 34.5 -15.5 q18 -6 33 -6 q46 0 77 18 q31 18 49.5 49.5 q18.5 31.5 26 74 q7.5 42.5 7.5 90.5 ZM767 1103 q0 -79 -24 -141 q-24 -62 -67.5 -105 q-43.5 -43 -103 -65 q-59.5 -22 -129.5 -22 q-38 0 -78.5 15.5 q-40.5 15.5 -75.5 42.5 l-96 -58 l-75 0 l0 525 q0 12 -8 19.5 q-8 7.5 -21 8.5 l-56 4 l0 57 l264 0 l0 -70 q33 23 68 42 q31 16 67.5 29.5 q36.5 13.5 73.5 13.5 q60 0 108.5 -21.5 q48.5 -21.5 82.5 -61 q34 -39.5 52 -94 q18 -54.5 18 -119.5 Z"/><glyph glyph-name="uniF1A1" unicode="" d="M983 1117 l0 -16 q-1 -5 -1 -9 l-385 0 l0 -141 q19 -21 46 -37 q25 -14 62 -25.5 q37 -11.5 89 -11.5 q39 0 73.5 10.5 q34.5 10.5 59.5 22.5 q30 15 55 33 l0 -97 q-30 -20 -69 -35 q-33 -14 -78 -25 q-45 -11 -101 -11 q-65 0 -114 14 q-49 14 -82 31 q-40 20 -68 45 q-36 -25 -77 -45 q-18 -9 -39 -16.5 q-21 -7.5 -44 -14 q-23 -6.5 -47 -10.5 q-24 -4 -50 -4 q-45 0 -77.5 13.5 q-32.5 13.5 -53 36 q-20.5 22.5 -30 52 q-9.5 29.5 -9.5 59.5 q0 51 20.5 85 q20.5 34 65.5 60 q45 26 118 46.5 q73 20.5 179 43.5 l0 34 q0 66 -29.5 97 q-29.5 31 -94.5 31 q-6 0 -14 -0.5 q-8 -0.5 -15 -2.5 q-8 -1 -18 -2 l0 -118 l-119 0 q-20 0 -32.5 2.5 q-12.5 2.5 -19.5 7.5 q-7 5 -10 14 q-3 9 -3 23 q0 34 25.5 60.5 q25.5 26.5 66 45 q40.5 18.5 90.5 28.5 q50 10 99 10 q52 0 89.5 -10.5 q37.5 -10.5 61.5 -23.5 q28 -15 47 -33 q20 18 48 33 q24 13 58.5 23.5 q34.5 10.5 79.5 10.5 q68 0 115 -24 q47 -24 76.5 -63 q29.5 -39 42.5 -90.5 q13 -51.5 13 -106.5 ZM426 1104 q-64 -15 -103.5 -30 q-39.5 -15 -61 -31.5 q-21.5 -16.5 -28.5 -35 q-7 -18.5 -7 -40.5 q0 -19 5.5 -35.5 q5.5 -16.5 16.5 -29 q11 -12.5 27 -20 q16 -7.5 36 -7.5 q20 0 40 5 q20 5 37 11 q20 7 38 17 l0 196 ZM801 1187 q0 19 -2 43.5 q-2 24.5 -12 47.5 q-10 23 -29 39 q-19 16 -53 16 q-28 0 -47 -10 q-19 -10 -31.5 -25.5 q-12.5 -15.5 -19.5 -35 q-7 -19.5 -10.5 -39 q-3.5 -19.5 -4 -36 q-0.5 -16.5 -0.5 -26.5 l209 0 l0 26 Z"/><glyph glyph-name="uni1D02" unicode="" d="M66 448 l0 12 q0 7 1 14 q0 7 1 15 l593 0 l0 236 q-29 34 -72 61 q-37 23 -94.5 42 q-57.5 19 -136.5 19 q-61 0 -113.5 -17.5 q-52.5 -17.5 -91.5 -37.5 q-46 -25 -85 -55 l0 162 q47 33 106 59 q51 22 120.5 40.5 q69.5 18.5 154.5 18.5 q100 0 175.5 -23.5 q75.5 -23.5 127.5 -51.5 q60 -33 104 -74 q55 41 119 74 q55 28 126 51.5 q71 23.5 150 23.5 q69 0 119 -22.5 q50 -22.5 81.5 -60 q31.5 -37.5 46.5 -86 q15 -48.5 15 -99.5 q0 -84 -31.5 -141 q-31.5 -57 -101 -100 q-69.5 -43 -182 -77.5 q-112.5 -34.5 -274.5 -72.5 l0 -57 q0 -110 45.5 -161.5 q45.5 -51.5 144.5 -51.5 q9 0 21.5 1 q12.5 1 23.5 3 q13 2 27 4 l0 196 l184 0 q30 0 49.5 -3.5 q19.5 -3.5 30.5 -12.5 q11 -9 15.5 -24 q4.5 -15 4.5 -37 q0 -57 -39 -101.5 q-39 -44.5 -101.5 -75.5 q-62.5 -31 -139.5 -47 q-77 -16 -152 -16 q-81 0 -138.5 17 q-57.5 17 -94.5 38 q-43 25 -72 56 q-31 -31 -74 -56 q-37 -21 -90.5 -38 q-53.5 -17 -122.5 -17 q-104 0 -176.5 39.5 q-72.5 39.5 -117.5 105 q-45 65.5 -65.5 151 q-20.5 85.5 -20.5 177.5 ZM924 469 q98 26 158.5 51 q60.5 25 93.5 52.5 q33 27.5 44 58 q11 30.5 11 67.5 q0 31 -8.5 58.5 q-8.5 27.5 -25 48.5 q-16.5 21 -41 33.5 q-24.5 12.5 -56.5 12.5 q-30 0 -61 -8.5 q-31 -8.5 -57 -19.5 q-30 -12 -58 -27 l0 -327 ZM346 331 q0 -31 3.5 -72.5 q3.5 -41.5 18.5 -79.5 q15 -38 44.5 -64.5 q29.5 -26.5 81.5 -26.5 q43 0 72.5 16.5 q29.5 16.5 49 42.5 q19.5 26 30 58.5 q10.5 32.5 15.5 64.5 q5 32 6 59.5 q1 27.5 1 44.5 l-322 0 l0 -43 Z"/><glyph glyph-name="uni1D46" unicode="" d="M43 1054 l0 7 q0 4 1 8 l0 9 l386 0 l0 142 q-19 20 -47 37 q-24 13 -61.5 24.5 q-37.5 11.5 -88.5 11.5 q-40 0 -74 -10.5 q-34 -10.5 -60 -22.5 q-29 -15 -55 -33 l0 97 q31 20 69 36 q33 13 78.5 24 q45.5 11 100.5 11 q65 0 114 -14 q49 -14 83 -31 q39 -20 67 -44 q36 24 78 44 q35 17 81.5 31 q46.5 14 97.5 14 q45 0 77.5 -13.5 q32.5 -13.5 53 -36 q20.5 -22.5 30 -51.5 q9.5 -29 9.5 -60 q0 -50 -20.5 -84 q-20.5 -34 -65.5 -60 q-45 -26 -118 -46.5 q-73 -20.5 -178 -43.5 l0 -34 q0 -66 29.5 -97 q29.5 -31 93.5 -31 q6 0 14 0.5 q8 0.5 15 1.5 q9 1 18 3 l0 117 l119 0 q20 0 32.5 -2 q12.5 -2 20 -7.5 q7.5 -5.5 10 -14.5 q2.5 -9 2.5 -22 q0 -34 -25 -61 q-25 -27 -65.5 -45.5 q-40.5 -18.5 -91 -28 q-50.5 -9.5 -98.5 -9.5 q-53 0 -90.5 10 q-37.5 10 -61.5 23 q-28 15 -47 34 q-20 -19 -48 -34 q-24 -13 -58.5 -23 q-34.5 -10 -79.5 -10 q-68 0 -115 23.5 q-47 23.5 -76 63 q-29 39.5 -42.5 91 q-13.5 51.5 -13.5 106.5 ZM601 1066 q63 16 102.5 31 q39.5 15 61 31.5 q21.5 16.5 28.5 35 q7 18.5 7 40.5 q0 18 -5.5 34.5 q-5.5 16.5 -16 29.5 q-10.5 13 -26.5 20.5 q-16 7.5 -37 7.5 q-20 0 -40 -5.5 q-20 -5.5 -37 -11.5 q-19 -7 -37 -16 l0 -197 ZM225 984 q0 -19 2 -44 q2 -25 12 -47.5 q10 -22.5 29 -38.5 q19 -16 53 -16 q28 0 47 10 q19 10 32 25.5 q13 15.5 19.5 35 q6.5 19.5 10 38.5 q3.5 19 4 35.5 q0.5 16.5 0.5 26.5 l-209 0 l0 -25 Z"/><glyph glyph-name="alpha" unicode="" d="M860 420 q-6 61 -10 120.5 q-4 59.5 -12 113 q-8 53.5 -22.5 98.5 q-14.5 45 -40.5 78.5 q-26 33.5 -66 52 q-40 18.5 -99 18.5 q-70 0 -114.5 -33 q-44.5 -33 -70 -88.5 q-25.5 -55.5 -35 -127.5 q-9.5 -72 -9.5 -150 q0 -66 16 -127 q16 -61 48 -108 q32 -47 79.5 -75 q47.5 -28 110.5 -28 q48 0 82 17 q34 17 59.5 49.5 q25.5 32.5 45.5 80 q20 47.5 38 109.5 ZM1317 258 q-23 -80 -54 -142 q-13 -27 -29 -52 q-16 -25 -34.5 -45 q-18.5 -20 -39.5 -32 q-21 -12 -44 -12 q-47 0 -80 12.5 q-33 12.5 -56 38 q-23 25.5 -37.5 63.5 q-14.5 38 -24.5 89 q-82 -97 -192.5 -150 q-110.5 -53 -256.5 -53 q-103 0 -176.5 44.5 q-73.5 44.5 -121 115 q-47.5 70.5 -69.5 158 q-22 87.5 -22 174.5 q0 104 28 204 q28 100 88 178.5 q60 78.5 153 126.5 q93 48 224 48 q155 0 251.5 -68 q96.5 -68 144.5 -192 l53 235 l217 0 q-2 -18 -7 -41.5 q-5 -23.5 -11 -50 q-6 -26.5 -13.5 -54.5 q-7.5 -28 -14.5 -55 q-17 -62 -36 -130 q-17 -65 -34.5 -133 q-17.5 -68 -45.5 -129 q11 -56 17.5 -100.5 q6.5 -44.5 14 -75 q7.5 -30.5 18.5 -46.5 q11 -16 30 -16 q17 0 27.5 14 q10.5 14 17.5 31 q8 19 12 45 l103 0 Z"/><glyph glyph-name="uni0410" unicode="" d="M631 1092 l-172 -492 l348 0 l-176 492 ZM829 0 l0 104 l121 15 q10 2 17 13 q7 11 2 22 l-111 325 l-438 0 l-113 -317 q-6 -16 6 -29 q12 -13 23 -14 l115 -15 l0 -104 l-441 0 l0 104 l115 17 l459 1286 l233 0 l455 -1249 q8 -19 15.5 -26.5 q7.5 -7.5 29.5 -12.5 l78 -15 l0 -104 l-566 0 Z"/><glyph glyph-name="uni1D2C" unicode="" d="M410 1440 l-112 -295 l227 0 l-115 295 ZM539 785 l0 62 l78 9 q7 2 11.5 8.5 q4.5 6.5 1.5 12.5 l-72 195 l-285 0 l-73 -190 q-4 -9 3.5 -17 q7.5 -8 14.5 -9 l75 -9 l0 -62 l-287 0 l0 62 l75 11 l299 771 l151 0 l296 -749 q5 -12 10 -16.5 q5 -4.5 19 -7.5 l51 -9 l0 -62 l-368 0 Z"/><glyph glyph-name="uni1D00" unicode="" d="M506 758 l-119 -309 l242 0 l-123 309 ZM649 0 l0 96 l107 13 q2 0 4 3 q2 3 0 5 l-84 223 l-328 0 l-86 -217 q0 -3 3 -8.5 q3 -5.5 11 -5.5 l101 -13 l0 -96 l-369 0 l0 94 l92 15 l361 915 l198 0 l361 -895 q3 -12 7 -15.5 q4 -3.5 20 -7.5 l69 -12 l0 -94 l-467 0 Z"/><glyph glyph-name="Aogonek" unicode="" d="M1341 -362 q-38 -18 -74 -32 q-31 -12 -64.5 -22 q-33.5 -10 -56.5 -10 q-48 0 -89.5 11.5 q-41.5 11.5 -72 34 q-30.5 22.5 -48 54 q-17.5 31.5 -17.5 72.5 q0 45 17 85 q17 40 42.5 72.5 q25.5 32.5 54.5 57.5 q27 24 49 39 l-253 0 l0 104 l121 15 q10 2 17 13 q7 11 2 22 l-111 325 l-438 0 l-113 -317 q-6 -16 6 -29 q12 -13 23 -14 l115 -15 l0 -104 l-441 0 l0 104 l115 17 l459 1286 l233 0 l455 -1249 q8 -19 15.5 -26.5 q7.5 -7.5 29.5 -12.5 l78 -15 l0 -104 l-184 0 q-55 -42 -90 -91 q-36 -50 -36 -110 q0 -45 25.5 -75.5 q25.5 -30.5 76.5 -30.5 q10 0 23.5 7 q13.5 7 27 15.5 q13.5 8.5 24 17 q10.5 8.5 15.5 11.5 l64 -106 ZM631 1092 l-172 -492 l348 0 l-176 492 Z"/><glyph glyph-name="uni023A" unicode="" d="M829 0 l0 104 l121 15 q10 2 17 13 q7 11 2 22 l-111 325 l-224 0 l-213 -371 l30 -4 l0 -104 l-91 0 l-102 -178 l-104 61 l67 117 l-211 0 l0 104 l115 17 l459 1286 l233 0 l81 -222 l198 347 l106 -59 l-250 -437 l320 -878 q8 -19 15.5 -26.5 q7.5 -7.5 29.5 -12.5 l78 -15 l0 -104 l-566 0 ZM631 1092 l-172 -492 l104 0 l150 262 l-82 230 ZM307 162 q-3 -8 -2 -15 l189 332 l-74 0 l-113 -317 ZM807 600 l-40 112 l-64 -112 l104 0 Z"/><glyph glyph-name="uni2C6F" unicode="" d="M774 282 l172 492 l-348 0 l176 -492 ZM576 1374 l0 -104 l-121 -15 q-10 -2 -17 -13 q-7 -11 -2 -22 l111 -325 l438 0 l113 317 q3 8 1 15.5 q-2 7.5 -7 13.5 q-5 6 -11.5 9.5 q-6.5 3.5 -11.5 4.5 l-115 15 l0 104 l441 0 l0 -104 l-115 -17 l-459 -1286 l-233 0 l-455 1249 q-8 19 -15.5 26.5 q-7.5 7.5 -29.5 12.5 l-78 15 l0 104 l566 0 Z"/><glyph glyph-name="uniA734" unicode="" d="M631 1092 l-172 -492 l348 0 l-176 492 ZM1846 672 q0 120 -18 228.5 q-18 108.5 -57.5 190.5 q-39.5 82 -102 130.5 q-62.5 48.5 -151.5 48.5 q-71 0 -125 -24 q-54 -24 -93 -65.5 q-39 -41.5 -65 -97.5 q-26 -56 -41.5 -120.5 q-15.5 -64.5 -22 -134 q-6.5 -69.5 -6.5 -138.5 q0 -73 7 -145 q7 -72 23 -138 q16 -66 42 -123 q26 -57 63 -98.5 q37 -41.5 86 -65.5 q49 -24 112 -24 q68 0 120.5 24.5 q52.5 24.5 91.5 66.5 q39 42 65 98 q26 56 42 120 q16 64 23 132.5 q7 68.5 7 134.5 ZM2176 680 q0 -147 -45 -276.5 q-45 -129.5 -130 -226.5 q-85 -97 -207.5 -153.5 q-122.5 -56.5 -276.5 -56.5 q-122 0 -225 28.5 q-103 28.5 -186 90.5 q-83 62 -145.5 159 q-62.5 97 -102.5 234 l-438 0 l-113 -317 q-6 -16 6 -29 q12 -13 23 -14 l115 -15 l0 -104 l-441 0 l0 104 l115 17 l459 1286 l233 0 l117 -321 q42 73 96.5 132.5 q54.5 59.5 123.5 101.5 q69 42 154.5 64.5 q85.5 22.5 190.5 22.5 q160 0 285.5 -58 q125.5 -58 212.5 -157 q87 -99 133 -231 q46 -132 46 -281 Z"/><glyph glyph-name="uniA732" unicode="" d="M631 1092 l-172 -492 l348 0 l-176 492 ZM1471 1092 l-172 -492 l348 0 l-176 492 ZM1669 0 l0 104 l121 15 q10 2 17 13 q7 11 2 22 l-111 325 l-438 0 l-52 -146 l64 -175 q8 -19 15.5 -26.5 q7.5 -7.5 29.5 -12.5 l78 -15 l0 -104 l-566 0 l0 104 l121 15 q10 2 17 13 q7 11 2 22 l-111 325 l-438 0 l-113 -317 q-6 -16 6 -29 q12 -13 23 -14 l115 -15 l0 -104 l-441 0 l0 104 l115 17 l459 1286 l233 0 l306 -842 l301 842 l233 0 l455 -1249 q8 -19 15.5 -26.5 q7.5 -7.5 29.5 -12.5 l78 -15 l0 -104 l-566 0 Z"/><glyph glyph-name="uniA736" unicode="" d="M631 1092 l-172 -492 l348 0 l-176 492 ZM1936 1260 q-17 -2 -31 -14 q-14 -12 -14 -32 l0 -694 q0 -151 -30 -256.5 q-30 -105.5 -92 -171.5 q-62 -66 -156.5 -95.5 q-94.5 -29.5 -222.5 -29.5 q-107 0 -185 26 q-78 26 -135 75.5 q-57 49.5 -97.5 121.5 q-40.5 72 -71.5 164 l-43 125 l-438 0 l-113 -317 q-6 -16 6 -29 q12 -13 23 -14 l115 -15 l0 -104 l-441 0 l0 104 l115 17 l459 1286 l233 0 l405 -1111 l1 -4 q15 -33 35.5 -61.5 q20.5 -28.5 49.5 -49.5 q29 -21 69 -32.5 q40 -11.5 95 -11.5 q72 0 122 26.5 q50 26.5 81.5 74.5 q31.5 48 45.5 115.5 q14 67.5 14 150.5 l0 710 q0 20 -13 32 q-13 12 -32 14 l-116 10 l0 104 l471 0 l0 -104 l-109 -10 Z"/><glyph glyph-name="uniA738" unicode="" d="M631 1092 l-172 -492 l348 0 l-176 492 ZM1711 1253 l-471 -1286 l-194 0 l-188 512 l-438 0 l-113 -317 q-6 -16 6 -29 q12 -13 23 -14 l115 -15 l0 -104 l-441 0 l0 104 l115 17 l459 1286 l233 0 l393 -1081 l311 886 q3 13 -1.5 26.5 q-4.5 13.5 -27.5 16.5 l-110 15 l0 104 l458 0 l0 -104 l-129 -17 Z"/><glyph glyph-name="uniA73A" unicode="" d="M1210 326 l53 153 l-109 0 l56 -153 ZM631 1092 l-172 -492 l348 0 l-176 492 ZM1427 479 l-187 -512 l-194 0 l-188 512 l-438 0 l-113 -317 q-6 -16 6 -29 q12 -13 23 -14 l115 -15 l0 -104 l-441 0 l0 104 l115 17 l459 1286 l233 0 l293 -807 l196 0 l215 612 q3 13 -1.5 26.5 q-4.5 13.5 -27.5 16.5 l-110 15 l0 104 l458 0 l0 -104 l-129 -17 l-239 -653 l267 0 l0 -121 l-312 0 Z"/><glyph glyph-name="uniA73C" unicode="" d="M631 1092 l-172 -492 l348 0 l-176 492 ZM1711 1253 l-513 -1403 q-26 -70 -58 -129.5 q-32 -59.5 -75.5 -102.5 q-43.5 -43 -101 -67 q-57.5 -24 -132.5 -24 q-53 0 -95 13.5 q-42 13.5 -71.5 33.5 q-29.5 20 -45 44.5 q-15.5 24.5 -15.5 45.5 q0 15 7.5 36 q7.5 21 23 45 q15.5 24 39 49 q23.5 25 55.5 49 l233 -114 q32 32 54.5 75.5 q22.5 43.5 47.5 109.5 l-206 565 l-438 0 l-113 -317 q-6 -16 6 -29 q12 -13 23 -14 l115 -15 l0 -104 l-441 0 l0 104 l115 17 l459 1286 l233 0 l392 -1080 l312 885 q3 13 -1.5 26.5 q-4.5 13.5 -27.5 16.5 l-110 15 l0 104 l458 0 l0 -104 l-129 -17 Z"/><glyph glyph-name="uni20B3" unicode="" d="M364 460 l362 0 l-33 115 l-297 0 l-32 -115 ZM431 700 l225 0 l-114 392 l-111 -392 ZM1009 335 l52 -177 q6 -19 12.5 -26.5 q6.5 -7.5 23.5 -12.5 l64 -15 l0 -104 l-458 0 l0 104 l98 15 q8 2 13.5 13 q5.5 11 1.5 22 l-53 181 l-435 0 l-48 -173 q-5 -16 5 -28.5 q10 -12.5 19 -14.5 l93 -15 l0 -104 l-357 0 l0 104 l93 17 l61 214 l-127 0 l0 125 l163 0 l33 115 l-196 0 l0 125 l232 0 l205 707 l189 0 l208 -707 l232 0 l0 -125 l-195 0 l34 -115 l161 0 l0 -125 l-124 0 Z"/><glyph glyph-name="uni2C6D" unicode="" d="M993 1096 q-12 23 -43 50 q-31 27 -68.5 50.5 q-37.5 23.5 -76 39 q-38.5 15.5 -64.5 15.5 q-83 0 -146.5 -46 q-63.5 -46 -106.5 -121.5 q-43 -75.5 -65 -172.5 q-22 -97 -22 -200 q0 -105 28 -199.5 q28 -94.5 77 -166.5 q49 -72 115.5 -114.5 q66.5 -42.5 144.5 -42.5 q38 0 78.5 12 q40.5 12 73.5 26 q39 17 75 38 l0 832 ZM993 0 l0 145 q-58 -50 -125 -89 q-29 -17 -62.5 -33 q-33.5 -16 -70.5 -28.5 q-37 -12.5 -76.5 -20 q-39.5 -7.5 -80.5 -7.5 q-108 0 -200 54 q-92 54 -159 147 q-67 93 -105 217 q-38 124 -38 264 q0 171 48.5 310.5 q48.5 139.5 131.5 239 q83 99.5 194.5 154 q111.5 54.5 237.5 54.5 q32 0 71.5 -10.5 q39.5 -10.5 81 -28.5 q41.5 -18 81 -41.5 q39.5 -23.5 71.5 -48.5 l243 129 l50 0 l0 -1257 q0 -20 12.5 -33 q12.5 -13 32.5 -15 l107 -6 l0 -96 l-445 0 Z"/><glyph glyph-name="uni2C70" unicode="" d="M506 278 q12 -23 46 -50 q34 -27 75.5 -50.5 q41.5 -23.5 83 -39 q41.5 -15.5 67.5 -15.5 q83 0 143.5 46 q60.5 46 99.5 121.5 q39 75.5 58 172.5 q19 97 19 200 q0 105 -28 199.5 q-28 94.5 -77 166.5 q-49 72 -115.5 114.5 q-66.5 42.5 -144.5 42.5 q-38 0 -78.5 -12 q-40.5 -12 -73.5 -26 q-39 -17 -75 -38 l0 -832 ZM506 1374 l0 -145 q58 49 125 89 q28 16 61.5 32 q33.5 16 70.5 29 q37 13 77 20.5 q40 7.5 81 7.5 q108 0 200 -54 q92 -54 159 -147 q67 -93 105 -217 q38 -124 38 -264 q0 -171 -45.5 -310.5 q-45.5 -139.5 -125 -239 q-79.5 -99.5 -187.5 -154 q-108 -54.5 -234 -54.5 q-32 0 -75 10.5 q-43 10.5 -87.5 28.5 q-44.5 18 -87.5 41 q-43 23 -75 49 l-243 -129 l-50 0 l0 1257 q0 20 -12.5 33 q-12.5 13 -32.5 15 l-107 6 l0 96 l445 0 Z"/><glyph glyph-name="uni1D2D" unicode="" d="M638 1539 l-245 -378 l245 0 l0 378 ZM534 785 l0 62 l69 6 q14 1 24.5 9.5 q10.5 8.5 10.5 17.5 l0 205 l-295 0 l-131 -205 q-7 -10 -3.5 -17.5 q3.5 -7.5 12.5 -8.5 l76 -7 l0 -62 l-291 0 l0 62 l82 9 l423 659 q3 4 2 8.5 q-1 4.5 -4 8.5 q-3 4 -7.5 6 q-4.5 2 -8.5 3 l-66 6 l0 62 l781 0 l0 -196 l-97 0 l-18 102 q-2 9 -7.5 16 q-5.5 7 -14.5 7 l-243 0 l0 -289 l148 0 q9 0 15.5 8 q6.5 8 8.5 15 l11 83 l83 0 l0 -289 l-83 0 l-11 85 q-2 7 -9 14 q-7 7 -15 7 l-148 0 l0 -313 l281 0 q8 0 14.5 8.5 q6.5 8.5 8.5 14.5 l21 128 l97 0 l0 -225 l-716 0 Z"/><glyph glyph-name="uni1D01" unicode="" d="M483 450 l295 0 l0 454 l-295 -454 ZM413 341 l-141 -218 q0 -3 3 -8.5 q3 -5.5 11 -5.5 l91 -13 l0 -96 l-369 0 l0 94 l92 15 l486 748 q9 13 5.5 25 q-3.5 12 -17.5 13 l-101 8 l0 96 l1018 0 l0 -256 l-135 0 l-27 131 q-2 8 -7 12.5 q-5 4.5 -11 4.5 l-285 0 l0 -318 l178 0 q9 0 15 17.5 q6 17.5 10 39.5 q4 22 5.5 42.5 q1.5 20.5 2.5 25.5 l119 0 l0 -364 l-119 0 q-1 3 -2.5 23 q-1.5 20 -5 42.5 q-3.5 22.5 -9.5 41 q-6 18.5 -16 18.5 l-178 0 l0 -350 l336 0 q3 0 9.5 6.5 q6.5 6.5 6.5 11.5 l27 162 l137 0 l0 -289 l-889 0 l0 96 l101 8 q12 1 18 7 q6 6 6 14 l0 216 l-365 0 Z"/><glyph glyph-name="u1D504" unicode="" d="M1331 244 l-226 -252 q-41 0 -80.5 9.5 q-39.5 9.5 -70.5 35 q-31 25.5 -50 70 q-19 44.5 -19 113.5 l0 113 l-404 -366 l-380 258 l0 50 q102 48 169.5 101.5 q67.5 53.5 108.5 112 q41 58.5 58 122.5 q17 64 17 133 q0 69 -22 127.5 q-22 58.5 -56 100.5 q-34 42 -74 66 q-40 24 -76 24 q-23 0 -43.5 -2 q-20.5 -2 -37.5 -4 q-19 -3 -37 -6 l-28 62 l244 212 q84 -1 153.5 -38 q69.5 -37 119.5 -97 q50 -60 78 -137.5 q28 -77.5 28 -158.5 q0 -81 -25 -152 q-25 -71 -65.5 -134 q-40.5 -63 -92 -118.5 q-51.5 -55.5 -105.5 -105.5 q4 -3 16 -11 q12 -8 28 -19.5 q16 -11.5 35 -25 q19 -13.5 39 -26.5 q46 -32 101 -71 l251 224 l0 458 q0 55 -10 91.5 q-10 36.5 -24.5 59 q-14.5 22.5 -31 33 q-16.5 10.5 -30.5 14.5 l0 63 q60 10 119.5 28 q59.5 18 114 39 q54.5 21 102.5 43 q48 22 85 41 l43 -59 q-30 -30 -54 -64 q-20 -29 -36.5 -66.5 q-16.5 -37.5 -16.5 -78.5 l0 -697 q0 -42 20.5 -58 q20.5 -16 46 -17.5 q25.5 -1.5 48 5 q22.5 6.5 27.5 9.5 l43 -54 Z"/><glyph glyph-name="uni1D47" unicode="" d="M754 1120 q0 -71 -26 -132 q-26 -61 -76 -106.5 q-50 -45.5 -122 -71.5 q-72 -26 -165 -26 l-244 0 l0 797 l-94 0 l0 51 l204 62 l68 0 l0 -353 q27 16 59 29 q27 11 61.5 20 q34.5 9 72.5 9 q54 0 101.5 -19 q47.5 -19 83 -54.5 q35.5 -35.5 56.5 -87.5 q21 -52 21 -118 ZM561 1083 q0 101 -49 157 q-49 56 -143 56 q-12 0 -24 -1 q-12 -1 -23 -3 q-12 -2 -23 -4 l0 -434 q11 -2 15 -2 l12 0 q55 0 98.5 11.5 q43.5 11.5 74 38.5 q30.5 27 46.5 71.5 q16 44.5 16 109.5 Z"/><glyph glyph-name="uni1D80" unicode="" d="M1159 561 q0 -118 -40 -220.5 q-40 -102.5 -117 -178.5 l-5 -5 l0 -372 q0 -68 -30.5 -116.5 q-30.5 -48.5 -76.5 -79 q-46 -30.5 -101 -44.5 q-55 -14 -103 -14 q-38 0 -82 8 q-44 8 -82.5 25.5 q-38.5 17.5 -64 44 q-25.5 26.5 -25.5 63.5 q0 40 9 69.5 q9 29.5 24.5 51.5 q15.5 22 37 38 q21.5 16 46.5 30 l196 -187 q30 0 53 4 q23 4 38.5 15.5 q15.5 11.5 23.5 32.5 q8 21 8 55 l0 286 q-26 -13 -54 -24 q-111 -43 -255 -43 l-375 0 l0 1329 l-143 0 l0 84 l313 103 l105 0 l0 -586 q43 26 91 47 q42 17 95 32 q53 15 111 15 q82 0 155.5 -31 q73.5 -31 128.5 -90.5 q55 -59.5 87 -145.5 q32 -86 32 -196 ZM862 500 q0 83 -19 148.5 q-19 65.5 -56 111.5 q-37 46 -92.5 70 q-55.5 24 -127.5 24 q-19 0 -37.5 -2 q-18.5 -2 -34.5 -4 l-36 -6 l0 -727 q18 0 25.5 -1 q7.5 -1 17.5 -1 q85 0 152 19.5 q67 19.5 113 65 q46 45.5 70.5 119.5 q24.5 74 24.5 183 Z"/><glyph glyph-name="uni0180" unicode="" d="M1159 561 q0 -118 -40 -220.5 q-40 -102.5 -116.5 -178 q-76.5 -75.5 -188 -119 q-111.5 -43.5 -255.5 -43.5 l-375 0 l0 1092 l-174 0 l0 129 l174 0 l0 108 l-143 0 l0 84 l313 103 l105 0 l0 -295 l213 0 l0 -129 l-213 0 l0 -162 q43 26 91 47 q42 17 95 32 q53 15 111 15 q82 0 155.5 -31 q73.5 -31 128.5 -90.5 q55 -59.5 87 -145.5 q32 -86 32 -196 ZM862 500 q0 83 -19 148.5 q-19 65.5 -56 111.5 q-37 46 -92.5 70 q-55.5 24 -127.5 24 q-19 0 -37.5 -2 q-18.5 -2 -34.5 -4 l-36 -6 l0 -727 q18 0 25.5 -1 q7.5 -1 17.5 -1 q85 0 152 19.5 q67 19.5 113 65 q46 45.5 70.5 119.5 q24.5 74 24.5 183 Z"/><glyph glyph-name="uni1D6C" unicode="" d="M1159 561 q0 -118 -40 -220.5 q-40 -102.5 -116.5 -178 q-76.5 -75.5 -188 -119 q-111.5 -43.5 -255.5 -43.5 l-375 0 l0 1120 q-20 3 -43 3 q-19 0 -36.5 -7 q-17.5 -7 -31.5 -20 q-14 -13 -23 -30 q-9 -17 -12 -36 l-128 0 q15 50 39 94 q24 44 58.5 77 q34.5 33 80.5 52 q42 17 96 19 l0 57 l-143 0 l0 84 l313 103 l105 0 l0 -332 q22 -3 48 -3 q18 0 35.5 7 q17.5 7 31.5 19.5 q14 12.5 23.5 29 q9.5 16.5 12.5 35.5 l128 0 q-15 -50 -39 -94 q-24 -44 -59 -77 q-35 -33 -82 -52 q-44 -18 -99 -19 l0 -100 q43 26 91 47 q42 17 95 32 q53 15 111 15 q82 0 155.5 -31 q73.5 -31 128.5 -90.5 q55 -59.5 87 -145.5 q32 -86 32 -196 ZM862 500 q0 83 -19 148.5 q-19 65.5 -56 111.5 q-37 46 -92.5 70 q-55.5 24 -127.5 24 q-19 0 -37.5 -2 q-18.5 -2 -34.5 -4 l-36 -6 l0 -727 q18 0 25.5 -1 q7.5 -1 17.5 -1 q85 0 152 19.5 q67 19.5 113 65 q46 45.5 70.5 119.5 q24.5 74 24.5 183 Z"/><glyph glyph-name="uni0253" unicode="" d="M844 500 q0 167 -75 257.5 q-75 90.5 -220 90.5 q-19 0 -39.5 -1.5 q-20.5 -1.5 -37.5 -3.5 q-20 -3 -40 -5 l0 -723 l74 0 q91 0 155 26.5 q64 26.5 104.5 76 q40.5 49.5 59.5 121 q19 71.5 19 161.5 ZM1141 561 q0 -122 -39 -225 q-39 -103 -118 -177.5 q-79 -74.5 -197 -116.5 q-118 -42 -275 -42 l-352 0 l0 1024 q0 72 16 144 q16 72 53 135 q26 46 63.5 85 q37.5 39 87 67.5 q49.5 28.5 112 44.5 q62.5 16 137.5 16 q67 0 128.5 -11.5 q61.5 -11.5 109 -34.5 q47.5 -23 76 -58 q28.5 -35 28.5 -83 q0 -47 -20 -74.5 q-20 -27.5 -43 -41.5 q-27 -17 -62 -23 l-172 199 q-43 0 -86.5 -21 q-43.5 -21 -78 -65.5 q-34.5 -44.5 -56 -113.5 q-21.5 -69 -21.5 -165 l0 -100 q45 28 94 50 q42 19 96 34.5 q54 15.5 111 15.5 q83 0 157 -31 q74 -31 130 -90.5 q56 -59.5 88.5 -145.5 q32.5 -86 32.5 -196 Z"/><glyph glyph-name="uniF26D" unicode="" d="M928 500 q0 166 -75.5 258 q-75.5 92 -219.5 92 q-19 0 -39.5 -1.5 q-20.5 -1.5 -37.5 -3.5 q-20 -3 -40 -5 l0 -725 l74 0 q90 0 154.5 26.5 q64.5 26.5 105 76 q40.5 49.5 59.5 121 q19 71.5 19 161.5 ZM1225 561 q0 -122 -39 -225 q-39 -103 -117.5 -177.5 q-78.5 -74.5 -196 -116.5 q-117.5 -42 -274.5 -42 l-354 0 l0 1024 q0 96 -4.5 165 q-4.5 69 -19 113.5 q-14.5 44.5 -40 65.5 q-25.5 21 -67.5 21 l-172 -199 q-36 6 -63 23 q-23 14 -42.5 41.5 q-19.5 27.5 -19.5 74.5 q0 48 28.5 83 q28.5 35 76 58 q47.5 23 109 34.5 q61.5 11.5 128.5 11.5 q44 0 87.5 -8.5 q43.5 -8.5 83.5 -31 q40 -22.5 74 -61.5 q34 -39 59 -99.5 q25 -60.5 39.5 -145 q14.5 -84.5 14.5 -197.5 l0 -47 q45 28 94 50 q42 19 96 34.5 q54 15.5 111 15.5 q83 0 157 -31.5 q74 -31.5 130 -91 q56 -59.5 88.5 -146 q32.5 -86.5 32.5 -196.5 Z"/><glyph glyph-name="uniA797" unicode="" d="M1389 561 q0 -118 -40 -220.5 q-40 -102.5 -116.5 -178 q-76.5 -75.5 -188 -119 q-111.5 -43.5 -255.5 -43.5 l-375 0 l0 698 q-78 -97 -114.5 -216.5 q-36.5 -119.5 -36.5 -242.5 q0 -117 31 -208.5 q31 -91.5 85.5 -155 q54.5 -63.5 129.5 -97 q75 -33.5 162 -33.5 q93 0 198 30 l0 -127 q-79 -28 -161.5 -41 q-82.5 -13 -182.5 -13 q-114 0 -213 39.5 q-99 39.5 -171.5 113 q-72.5 73.5 -114 177.5 q-41.5 104 -41.5 233 q0 90 33 180.5 q33 90.5 90.5 175 q57.5 84.5 136 160 q78.5 75.5 169.5 135.5 l0 521 l-143 0 l0 84 l313 103 l105 0 l0 -586 q43 26 91 47 q42 17 95 32 q53 15 111 15 q82 0 155.5 -31 q73.5 -31 128.5 -90.5 q55 -59.5 87 -145.5 q32 -86 32 -196 ZM1092 500 q0 83 -19 148.5 q-19 65.5 -56 111.5 q-37 46 -92.5 70 q-55.5 24 -127.5 24 q-19 0 -37.5 -2 q-18.5 -2 -34.5 -4 l-36 -6 l0 -727 q18 0 25.5 -1 q7.5 -1 17.5 -1 q85 0 152 19.5 q67 19.5 113 65 q46 45.5 70.5 119.5 q24.5 74 24.5 183 Z"/><glyph glyph-name="uni0185" unicode="" d="M1159 561 q0 -118 -40 -220.5 q-40 -102.5 -116.5 -178 q-76.5 -75.5 -188 -119 q-111.5 -43.5 -255.5 -43.5 l-375 0 l0 969 l-173 104 l448 483 l0 -626 q43 26 91 47 q42 17 95 32 q53 15 111 15 q82 0 155.5 -31 q73.5 -31 128.5 -90.5 q55 -59.5 87 -145.5 q32 -86 32 -196 ZM862 500 q0 83 -19 148.5 q-19 65.5 -56 111.5 q-37 46 -92.5 70 q-55.5 24 -127.5 24 q-19 0 -37.5 -2 q-18.5 -2 -34.5 -4 l-36 -6 l0 -727 q18 0 25.5 -1 q7.5 -1 17.5 -1 q85 0 152 19.5 q67 19.5 113 65 q46 45.5 70.5 119.5 q24.5 74 24.5 183 Z"/><glyph glyph-name="uni0183" unicode="" d="M184 1516 l883 0 l0 -336 l-147 0 l-27 174 q-5 25 -15 35 q-10 10 -30 10 l-359 0 q-16 0 -23 -10.5 q-7 -10.5 -7 -19.5 l0 -439 q43 26 91 47 q42 17 95 32 q53 15 111 15 q82 0 155.5 -31 q73.5 -31 128.5 -90.5 q55 -59.5 87 -145.5 q32 -86 32 -196 q0 -118 -40 -220.5 q-40 -102.5 -116.5 -178 q-76.5 -75.5 -188 -119 q-111.5 -43.5 -255.5 -43.5 l-375 0 l0 1516 ZM862 500 q0 83 -19 148.5 q-19 65.5 -56 111.5 q-37 46 -92.5 70 q-55.5 24 -127.5 24 q-19 0 -37.5 -2 q-18.5 -2 -34.5 -4 l-36 -6 l0 -727 q18 0 25.5 -1 q7.5 -1 17.5 -1 q85 0 152 19.5 q67 19.5 113 65 q46 45.5 70.5 119.5 q24.5 74 24.5 183 Z"/><glyph glyph-name="uni0431" unicode="" d="M807 496 q0 90 -18.5 167 q-18.5 77 -50 133 q-31.5 56 -73.5 87.5 q-42 31.5 -90 31.5 q-51 0 -93 -31.5 q-42 -31.5 -73 -87.5 q-31 -56 -48 -133 q-17 -77 -17 -167 q0 -90 18.5 -165.5 q18.5 -75.5 49.5 -130.5 q31 -55 72.5 -85.5 q41.5 -30.5 88.5 -30.5 q51 0 94 30.5 q43 30.5 74 85.5 q31 55 48.5 130.5 q17.5 75.5 17.5 165.5 ZM1083 496 q0 -104 -31 -198.5 q-31 -94.5 -94.5 -166 q-63.5 -71.5 -159.5 -114 q-96 -42.5 -225 -42.5 q-131 0 -227 46 q-96 46 -158 120.5 q-62 74.5 -92 167.5 q-30 93 -30 187 l0 155 q0 215 50 356.5 q50 141.5 141 225 q91 83.5 219 117.5 q128 34 284 34 q67 0 108 8 q41 8 62.5 18.5 q21.5 10.5 29 20.5 q7.5 10 9.5 15 l86 0 q-11 -49 -31 -96 q-20 -47 -62 -83.5 q-42 -36.5 -111.5 -58.5 q-69.5 -22 -178.5 -22 q-105 0 -180 -23 q-75 -23 -126 -62.5 q-51 -39.5 -81 -91.5 q-30 -52 -45 -110 q30 23 67 45.5 q37 22.5 79.5 40 q42.5 17.5 90 28.5 q47.5 11 98.5 11 q132 0 227.5 -44.5 q95.5 -44.5 158 -118 q62.5 -73.5 92.5 -168.5 q30 -95 30 -197 Z"/><glyph glyph-name="uni044C" unicode="" d="M721 301 q0 47 -8 86 q-8 39 -27.5 67.5 q-19.5 28.5 -52 44 q-32.5 15.5 -82.5 15.5 q-5 0 -17.5 -0.5 q-12.5 -0.5 -26.5 -0.5 q-14 0 -27.5 -0.5 q-13.5 -0.5 -20.5 -0.5 l0 -406 q4 0 13 -0.5 q9 -0.5 20 -0.5 q11 0 21 -0.5 q10 -0.5 15 -0.5 q67 0 105.5 16.5 q38.5 16.5 58 44.5 q19.5 28 24.5 63 q5 35 5 73 ZM1006 301 q0 -74 -22.5 -130 q-22.5 -56 -78.5 -94 q-56 -38 -150.5 -57.5 q-94.5 -19.5 -238.5 -19.5 l-471 0 l0 96 l94 6 q19 2 32 15.5 q13 13.5 13 32.5 l0 700 q0 18 -13 31.5 q-13 13.5 -32 15.5 l-94 6 l0 96 l553 0 l0 -96 l-94 -6 q-19 -2 -32 -15.5 q-13 -13.5 -13 -31.5 l0 -229 q18 2 43.5 3 q25.5 1 42.5 1 q111 0 196.5 -22.5 q85.5 -22.5 144.5 -64.5 q59 -42 89.5 -102 q30.5 -60 30.5 -135 Z"/><glyph glyph-name="uni048D" unicode="" d="M721 301 q0 47 -8 86 q-8 39 -27.5 67.5 q-19.5 28.5 -52 44 q-32.5 15.5 -82.5 15.5 q-5 0 -17.5 -0.5 q-12.5 -0.5 -26.5 -0.5 q-14 0 -27.5 -0.5 q-13.5 -0.5 -20.5 -0.5 l0 -406 q4 0 13 -0.5 q9 -0.5 20 -0.5 q11 0 21 -0.5 q10 -0.5 15 -0.5 q67 0 105.5 16.5 q38.5 16.5 58 44.5 q19.5 28 24.5 63 q5 35 5 73 ZM14 999 l170 0 l0 171 l275 0 l0 -171 l170 0 l0 -131 l-170 0 l0 -247 q18 2 43.5 3 q25.5 1 42.5 1 q111 0 196.5 -22.5 q85.5 -22.5 144.5 -64.5 q59 -42 89.5 -102 q30.5 -60 30.5 -135 q0 -74 -22.5 -130 q-22.5 -56 -78.5 -94 q-56 -38 -150.5 -57.5 q-94.5 -19.5 -238.5 -19.5 l-471 0 l0 96 l94 6 q19 2 32 15.5 q13 13.5 13 32.5 l0 718 l-170 0 l0 131 Z"/><glyph glyph-name="uni044A" unicode="" d="M872 301 q0 47 -5.5 86 q-5.5 39 -25 67.5 q-19.5 28.5 -56.5 44 q-37 15.5 -101 15.5 q-9 0 -27.5 -1 q-18.5 -1 -33.5 -1 l0 -406 q9 0 19.5 -1 q10.5 -1 21.5 -1 q81 0 124 16.5 q43 16.5 61.5 44.5 q18.5 28 20.5 63 q2 35 2 73 ZM1159 301 q0 -74 -22 -130 q-22 -56 -77.5 -94 q-55.5 -38 -149.5 -57.5 q-94 -19.5 -238 -19.5 l-461 0 l0 96 l94 6 q19 2 32 15.5 q13 13.5 13 32.5 l0 684 q0 18 -13 32.5 q-13 14.5 -32 14.5 l-115 0 q-15 0 -25.5 -10.5 q-10.5 -10.5 -12.5 -28.5 l-25 -176 l-104 0 l0 333 l739 0 l0 -96 l-94 -6 q-19 -2 -32 -15.5 q-13 -13.5 -13 -31.5 l0 -229 q18 2 38 3 q20 1 37 1 q111 0 196.5 -22.5 q85.5 -22.5 144.5 -64.5 q59 -42 89.5 -102 q30.5 -60 30.5 -135 Z"/><glyph glyph-name="uni0463" unicode="" d="M807 281 q0 94 -46 144 q-46 50 -124 50 q-5 0 -17.5 -0.5 q-12.5 -0.5 -26.5 -1 q-14 -0.5 -27.5 -1 q-13.5 -0.5 -20.5 -1.5 l0 -365 q4 0 13 -0.5 q9 -0.5 20 -0.5 q11 0 21 -0.5 q10 -0.5 15 -0.5 q40 0 75 13.5 q35 13.5 61.5 37 q26.5 23.5 41.5 56 q15 32.5 15 70.5 ZM1092 281 q0 -74 -22.5 -127 q-22.5 -53 -78.5 -87.5 q-56 -34.5 -150.5 -50.5 q-94.5 -16 -238.5 -16 l-471 0 l0 96 l94 6 q19 2 32 15.5 q13 13.5 13 32.5 l0 591 l-57 0 q-23 0 -29 -8.5 q-6 -8.5 -12 -30.5 l-22 -86 l-125 0 l0 213 l245 0 l0 43 q0 20 -13 34 q-13 14 -32 16 l-94 6 l0 96 l551 0 l0 -96 l-92 -6 q-19 -2 -32 -16 q-13 -14 -13 -34 l0 -43 l243 0 l0 -213 l-124 0 l-23 86 q-6 22 -12 30.5 q-6 8.5 -29 8.5 l-55 0 l0 -161 q18 2 43.5 3 q25.5 1 42.5 1 q221 0 341 -77.5 q120 -77.5 120 -225.5 Z"/><glyph glyph-name="uni044B" unicode="" d="M721 301 q0 47 -8 86 q-8 39 -27.5 67.5 q-19.5 28.5 -52 44 q-32.5 15.5 -82.5 15.5 q-5 0 -17.5 -0.5 q-12.5 -0.5 -26.5 -0.5 q-14 0 -27.5 -0.5 q-13.5 -0.5 -20.5 -0.5 l0 -406 q4 0 13 -0.5 q9 -0.5 20 -0.5 q11 0 21 -0.5 q10 -0.5 15 -0.5 q67 0 105.5 16.5 q38.5 16.5 58 44.5 q19.5 28 24.5 63 q5 35 5 73 ZM1028 0 l0 96 l84 6 q20 2 32.5 15.5 q12.5 13.5 12.5 32.5 l0 700 q0 18 -12.5 31.5 q-12.5 13.5 -32.5 15.5 l-84 6 l0 96 l533 0 l0 -96 l-84 -6 q-19 -2 -32 -15.5 q-13 -13.5 -13 -31.5 l0 -700 q0 -19 13 -32.5 q13 -13.5 32 -15.5 l84 -6 l0 -96 l-533 0 ZM995 301 q0 -74 -21 -130 q-21 -56 -75 -94 q-54 -38 -146.5 -57.5 q-92.5 -19.5 -236.5 -19.5 l-471 0 l0 96 l94 6 q19 2 32 15.5 q13 13.5 13 32.5 l0 700 q0 18 -13 31.5 q-13 13.5 -32 15.5 l-94 6 l0 96 l553 0 l0 -96 l-94 -6 q-19 -2 -32 -15.5 q-13 -13.5 -13 -31.5 l0 -229 q18 2 43.5 3 q25.5 1 42.5 1 q111 0 195 -22.5 q84 -22.5 140.5 -64.5 q56.5 -42 85.5 -102 q29 -60 29 -135 Z"/><glyph glyph-name="uni0432" unicode="" d="M1040 299 q0 -59 -19.5 -104 q-19.5 -45 -53 -78.5 q-33.5 -33.5 -79.5 -55.5 q-46 -22 -98 -35.5 q-52 -13.5 -108 -19.5 q-56 -6 -111 -6 l-526 0 l0 96 l94 6 q19 2 32 15.5 q13 13.5 13 32.5 l0 700 q0 18 -13 31.5 q-13 13.5 -32 15.5 l-94 6 l0 96 l508 0 q117 0 197.5 -19 q80.5 -19 130.5 -53 q50 -34 72 -80.5 q22 -46.5 22 -101.5 q0 -41 -14 -75 q-14 -34 -38 -60.5 q-24 -26.5 -54.5 -46 q-30.5 -19.5 -63.5 -31.5 q51 -9 94 -27.5 q43 -18.5 74.5 -47 q31.5 -28.5 49 -68 q17.5 -39.5 17.5 -90.5 ZM758 287 q0 47 -16 79 q-16 32 -44.5 52 q-28.5 20 -67 28.5 q-38.5 8.5 -83.5 8.5 q-22 0 -45 -1 q-23 -1 -43 -3 l0 -342 q5 0 15 -0.5 q10 -0.5 20.5 -1 q10.5 -0.5 20.5 -1 q10 -0.5 15 -0.5 q52 0 94.5 10 q42.5 10 72 31.5 q29.5 21.5 45.5 56 q16 34.5 16 83.5 ZM690 735 q0 41 -12.5 71 q-12.5 30 -34 50 q-21.5 20 -50.5 29.5 q-29 9.5 -61 9.5 l-73 0 l0 -336 l34 0 q19 0 31 2 q91 11 128.5 54 q37.5 43 37.5 120 Z"/><glyph glyph-name="uni0412" unicode="" d="M1233 399 q0 -96 -21 -162.5 q-21 -66.5 -56.5 -111 q-35.5 -44.5 -83 -69.5 q-47.5 -25 -100 -37.5 q-52.5 -12.5 -107 -15.5 q-54.5 -3 -105.5 -3 l-703 0 l0 104 l111 11 q19 2 32 13.5 q13 11.5 13 31.5 l0 1054 q0 20 -13 32 q-13 12 -32 14 l-111 10 l0 104 l660 0 q37 0 83.5 -3.5 q46.5 -3.5 95 -15 q48.5 -11.5 94.5 -32.5 q46 -21 82.5 -56.5 q36.5 -35.5 58.5 -87 q22 -51.5 22 -122.5 q0 -62 -17 -109 q-17 -47 -44 -82 q-27 -35 -60 -59 q-33 -24 -65.5 -40 q-32.5 -16 -60.5 -24.5 q-28 -8.5 -43 -11.5 q37 -1 79.5 -7 q42.5 -6 83.5 -20.5 q41 -14.5 78.5 -38.5 q37.5 -24 66 -60.5 q28.5 -36.5 45.5 -87 q17 -50.5 17 -118.5 ZM926 385 q0 132 -76 196 q-76 64 -242 64 l-37 0 q-22 0 -65 -2 l0 -522 q23 -1 43 -2 q17 -1 32.5 -1.5 q15.5 -0.5 20.5 -0.5 q78 0 138.5 14 q60.5 14 102 46 q41.5 32 62.5 83 q21 51 21 125 ZM852 1024 q0 45 -10 87.5 q-10 42.5 -38.5 75.5 q-28.5 33 -80 53 q-51.5 20 -133.5 20 l-10 0 q-3 0 -10.5 -0.5 q-7.5 -0.5 -22 -1.5 q-14.5 -1 -41.5 -3 l0 -487 q11 -1 22 -1 q9 -1 17 -1 l12 0 q88 0 145 20 q57 20 90.5 54.5 q33.5 34.5 46.5 82 q13 47.5 13 101.5 Z"/><glyph glyph-name="uni1D2E" unicode="" d="M801 1024 q0 -57 -13.5 -97 q-13.5 -40 -36.5 -66.5 q-23 -26.5 -54 -41.5 q-31 -15 -65 -22.5 q-34 -7.5 -69.5 -9.5 q-35.5 -2 -68.5 -2 l-457 0 l0 62 l72 7 q13 1 21 8 q8 7 8 19 l0 632 q0 12 -8 19.5 q-8 7.5 -21 8.5 l-72 6 l0 62 l429 0 q24 0 54.5 -2 q30.5 -2 62 -9 q31.5 -7 61 -19.5 q29.5 -12.5 53.5 -33.5 q24 -21 38 -52 q14 -31 14 -74 q0 -37 -11 -65 q-11 -28 -28.5 -49 q-17.5 -21 -39 -35.5 q-21.5 -14.5 -42.5 -24 q-21 -9.5 -39 -15.5 q-14 -5 -25 -6 q23 -1 48 -5 q28 -3 55 -12 q27 -9 51 -23 q24 -14 42.5 -36 q18.5 -22 29.5 -52.5 q11 -30.5 11 -71.5 ZM602 1016 q0 79 -49.5 117.5 q-49.5 38.5 -157.5 38.5 l-24 0 q-14 0 -42 -1 l0 -313 q15 -1 28 -2 q11 0 21 -0.5 q10 -0.5 13 -0.5 q51 0 90.5 8.5 q39.5 8.5 66.5 27.5 q27 19 40.5 50 q13.5 31 13.5 75 ZM554 1399 q0 27 -6.5 52.5 q-6.5 25.5 -25 45.5 q-18.5 20 -52 32 q-33.5 12 -87.5 12 l-6 0 q-2 0 -7 -0.5 q-5 -0.5 -14.5 -1 q-9.5 -0.5 -26.5 -1.5 l0 -292 q7 -1 14 -1 l19 0 q57 0 94 12 q37 12 59 32.5 q22 20.5 30.5 49 q8.5 28.5 8.5 60.5 Z"/><glyph glyph-name="uni0299" unicode="" d="M1004 295 q0 -71 -17.5 -120.5 q-17.5 -49.5 -46.5 -82.5 q-29 -33 -67.5 -51.5 q-38.5 -18.5 -81 -27.5 q-42.5 -9 -86 -11 q-43.5 -2 -82.5 -2 l-560 0 l0 96 l97 8 q12 2 18 7.5 q6 5.5 6 13.5 l0 749 q0 18 -24 21 l-97 8 l0 96 l529 0 q27 0 64 -2.5 q37 -2.5 76 -10.5 q39 -8 76.5 -24 q37.5 -16 67 -42 q29.5 -26 48 -65 q18.5 -39 18.5 -93 q0 -51 -17 -89 q-17 -38 -43 -65 q-26 -27 -57 -44 q-31 -17 -59 -27 q42 -6 84 -20.5 q42 -14.5 76.5 -42.5 q34.5 -28 56 -71.5 q21.5 -43.5 21.5 -107.5 ZM741 285 q0 87 -54.5 130.5 q-54.5 43.5 -180.5 43.5 l-28 0 q-14 0 -42 -2 l0 -348 q8 -1 18 -2 l20 -1 q10 0 17 0 l11 0 q122 0 180.5 41 q58.5 41 58.5 138 ZM684 737 q0 31 -7 59.5 q-7 28.5 -28 50.5 q-21 22 -58.5 35 q-37.5 13 -98.5 13 q-14 0 -26.5 -1 q-12.5 -1 -29.5 -1 l0 -326 l31 0 q66 0 108 13 q42 13 66.5 36 q24.5 23 33.5 54 q9 31 9 67 Z"/><glyph glyph-name="uni0243" unicode="" d="M1233 399 q0 -96 -21 -162.5 q-21 -66.5 -56.5 -111 q-35.5 -44.5 -83 -69.5 q-47.5 -25 -100 -37.5 q-52.5 -12.5 -107 -15.5 q-54.5 -3 -105.5 -3 l-703 0 l0 104 l111 11 q19 2 32 13.5 q13 11.5 13 31.5 l0 211 l-176 0 l0 129 l176 0 l0 714 q0 20 -13 32 q-13 12 -32 14 l-111 10 l0 104 l660 0 q37 0 83.5 -3.5 q46.5 -3.5 95 -15 q48.5 -11.5 94.5 -32.5 q46 -21 82.5 -56.5 q36.5 -35.5 58.5 -87 q22 -51.5 22 -122.5 q0 -62 -17 -109 q-17 -47 -44 -82 q-27 -35 -60 -59 q-33 -24 -65.5 -40 q-32.5 -16 -60.5 -24.5 q-28 -8.5 -43 -11.5 q37 -1 79.5 -7 q42.5 -6 83.5 -20.5 q41 -14.5 78.5 -38.5 q37.5 -24 66 -60.5 q28.5 -36.5 45.5 -87 q17 -50.5 17 -118.5 ZM926 385 q0 132 -76 196 q-76 64 -242 64 l-37 0 q-22 0 -65 -2 l0 -143 l237 0 l0 -129 l-237 0 l0 -250 q23 -1 43 -2 q17 -1 32.5 -1.5 q15.5 -0.5 20.5 -0.5 q78 0 138.5 14 q60.5 14 102 46 q41.5 32 62.5 83 q21 51 21 125 ZM852 1024 q0 45 -10 87.5 q-10 42.5 -38.5 75.5 q-28.5 33 -80 53 q-51.5 20 -133.5 20 l-10 0 q-3 0 -10.5 -0.5 q-7.5 -0.5 -22 -1.5 q-14.5 -1 -41.5 -3 l0 -487 q11 -1 22 -1 q9 -1 17 -1 l12 0 q88 0 145 20 q57 20 90.5 54.5 q33.5 34.5 46.5 82 q13 47.5 13 101.5 Z"/><glyph glyph-name="uni1D2F" unicode="" d="M803 1021 q0 -55 -14 -94 q-14 -39 -37 -65.5 q-23 -26.5 -54 -41.5 q-31 -15 -65 -23 q-34 -8 -69 -10 q-35 -2 -66 -2 l-458 0 l0 60 l78 7 q19 3 19 17 l0 292 l-105 0 l0 100 l105 0 l0 261 q0 16 -19 17 l-78 7 l0 65 l434 0 q33 0 81 -5.5 q48 -5.5 92 -25 q44 -19.5 75.5 -59 q31.5 -39.5 31.5 -106.5 q0 -50 -31 -88 q-31 -38 -76 -66 l164 0 l0 -100 l-117 0 q22 -10 42 -23 q20 -13 35 -30 q15 -17 23.5 -38.5 q8.5 -21.5 8.5 -48.5 ZM603 1021 q0 72 -49.5 106 q-49.5 34 -150.5 34 l-74 0 l0 -305 q6 -1 16 -1.5 q10 -0.5 19 -0.5 l28 0 q115 0 163 43.5 q48 43.5 48 123.5 ZM557 1394 q0 25 -5 51 q-5 26 -23 47 q-18 21 -52.5 34 q-34.5 13 -92.5 13 q-12 0 -26.5 -0.5 q-14.5 -0.5 -28.5 -0.5 l0 -277 l43 0 q52 0 87.5 9.5 q35.5 9.5 57.5 27 q22 17.5 31 42 q9 24.5 9 54.5 Z"/><glyph glyph-name="uni1D03" unicode="" d="M1004 285 q0 -67 -17.5 -114 q-17.5 -47 -46.5 -78.5 q-29 -31.5 -67.5 -50 q-38.5 -18.5 -81 -28 q-42.5 -9.5 -86 -12 q-43.5 -2.5 -82.5 -2.5 l-560 0 l0 96 l97 8 q12 2 18 7.5 q6 5.5 6 13.5 l0 330 l-131 0 l0 121 l131 0 l0 298 q0 18 -24 21 l-97 8 l0 96 l529 0 q27 0 64 -2.5 q37 -2.5 76 -10.5 q39 -8 76.5 -24 q37.5 -16 67 -42 q29.5 -26 48 -65 q18.5 -39 18.5 -93 q0 -30 -10 -56.5 q-10 -26.5 -28 -49.5 q-18 -23 -42 -43 q-24 -20 -52 -37 l204 0 l0 -121 l-148 0 q28 -12 53.5 -27.5 q25.5 -15.5 44 -36 q18.5 -20.5 29.5 -47 q11 -26.5 11 -59.5 ZM741 285 q0 42 -11 73.5 q-11 31.5 -36 52.5 q-25 21 -65.5 32 q-40.5 11 -100.5 12 l-92 0 l0 -346 q8 -1 18 -2 l20 -1 q10 0 17 0 l11 0 q122 0 180.5 41 q58.5 41 58.5 138 ZM684 737 q0 31 -7 59.5 q-7 28.5 -28 50.5 q-21 22 -58.5 35 q-37.5 13 -98.5 13 q-14 0 -26.5 -1 q-12.5 -1 -29.5 -1 l0 -317 l54 0 q61 1 99 13 q38 12 59 33 q21 21 28.5 50.5 q7.5 29.5 7.5 64.5 Z"/><glyph glyph-name="uni0181" unicode="" d="M1378 399 q0 -96 -21 -162.5 q-21 -66.5 -56.5 -111 q-35.5 -44.5 -83 -69.5 q-47.5 -25 -100 -37.5 q-52.5 -12.5 -107 -15.5 q-54.5 -3 -105.5 -3 l-702 0 l0 104 l110 11 q19 2 32 13.5 q13 11.5 13 31.5 l0 1050 q0 43 -43 43 l-65 0 q-32 0 -52.5 -9 q-20.5 -9 -37.5 -38 l84 -145 q-20 -19 -34.5 -31.5 q-14.5 -12.5 -30 -19.5 q-15.5 -7 -35 -10 q-19.5 -3 -50.5 -3 q-35 -1 -60 10.5 q-25 11.5 -42 32.5 q-17 21 -25 50 q-8 29 -8 63 q0 114 86.5 167.5 q86.5 53.5 249.5 53.5 l567 0 q37 0 83.5 -3.5 q46.5 -3.5 95 -15 q48.5 -11.5 95 -32.5 q46.5 -21 82.5 -56.5 q36 -35.5 58 -87 q22 -51.5 22 -122.5 q0 -62 -17 -109 q-17 -47 -43.5 -82 q-26.5 -35 -59.5 -59 q-33 -24 -65 -40 q-32 -16 -60 -24.5 q-28 -8.5 -44 -11.5 q37 -1 79 -7 q42 -6 83 -20.5 q41 -14.5 78.5 -38.5 q37.5 -24 66 -60.5 q28.5 -36.5 45.5 -87 q17 -50.5 17 -118.5 ZM1071 385 q0 132 -75.5 196 q-75.5 64 -241.5 64 l-38 0 q-21 0 -65 -2 l0 -522 q24 -1 44 -2 q17 -1 32.5 -1.5 q15.5 -0.5 20.5 -0.5 q79 0 139 14 q60 14 101 46 q41 32 62 83 q21 51 21 125 ZM997 1024 q0 45 -10 87.5 q-10 42.5 -38.5 75.5 q-28.5 33 -80 53 q-51.5 20 -133.5 20 l-9 0 q-3 0 -10.5 -0.5 q-7.5 -0.5 -22 -1.5 q-14.5 -1 -42.5 -3 l0 -487 q12 -1 23 -1 q9 -1 17 -1 l11 0 q88 0 145 20 q57 20 90.5 54.5 q33.5 34.5 46.5 82 q13 47.5 13 101.5 Z"/><glyph glyph-name="uniA796" unicode="" d="M1464 399 q0 -96 -21 -162.5 q-21 -66.5 -56.5 -111 q-35.5 -44.5 -83 -69.5 q-47.5 -25 -100 -37.5 q-52.5 -12.5 -107 -15.5 q-54.5 -3 -105.5 -3 l-703 0 l0 104 l111 11 q19 2 32 13.5 q13 11.5 13 31.5 l0 481 l-33 0 q-65 0 -104.5 -16 q-39.5 -16 -60.5 -39.5 q-21 -23.5 -28 -50 q-7 -26.5 -7 -46.5 l154 -124 q-5 -15 -15 -39.5 q-10 -24.5 -28.5 -48 q-18.5 -23.5 -46.5 -40.5 q-28 -17 -70 -17 q-48 0 -81 19.5 q-33 19.5 -52.5 50.5 q-19.5 31 -28 68 q-8.5 37 -8.5 72 q0 72 31 133.5 q31 61.5 84.5 106.5 q53.5 45 126.5 70.5 q73 25.5 157 25.5 l10 0 l0 448 q0 20 -13 32 q-13 12 -32 14 l-111 10 l0 104 l660 0 q37 0 83.5 -3.5 q46.5 -3.5 95 -15 q48.5 -11.5 94.5 -32.5 q46 -21 82.5 -56.5 q36.5 -35.5 58.5 -87 q22 -51.5 22 -122.5 q0 -62 -17 -109 q-17 -47 -44 -82 q-27 -35 -60 -59 q-33 -24 -65.5 -40 q-32.5 -16 -60.5 -24.5 q-28 -8.5 -43 -11.5 q37 -1 79.5 -7 q42.5 -6 83.5 -20.5 q41 -14.5 78.5 -38.5 q37.5 -24 66 -60.5 q28.5 -36.5 45.5 -87 q17 -50.5 17 -118.5 ZM1157 385 q0 132 -76 196 q-76 64 -242 64 l-102 0 l0 -524 q23 -1 43 -2 q17 -1 32.5 -1.5 q15.5 -0.5 20.5 -0.5 q78 0 138.5 14 q60.5 14 102 46 q41.5 32 62.5 83 q21 51 21 125 ZM1083 1024 q0 45 -10 87.5 q-10 42.5 -38.5 75.5 q-28.5 33 -80 53 q-51.5 20 -133.5 20 l-10 0 q-3 0 -10.5 -0.5 q-7.5 -0.5 -22 -1.5 q-14.5 -1 -41.5 -3 l0 -489 l51 0 q88 0 145 20 q57 20 90.5 54.5 q33.5 34.5 46.5 82 q13 47.5 13 101.5 Z"/><glyph glyph-name="uni0184" unicode="" d="M926 385 q0 85 -28 137 q-28 52 -74.5 80.5 q-46.5 28.5 -106 38 q-59.5 9.5 -123.5 9.5 q-16 0 -42 -3 q-26 -3 -46 -6 l0 -526 q12 0 28 -1 q16 -1 33 -1 q88 0 155 13.5 q67 13.5 112.5 45.5 q45.5 32 68.5 84 q23 52 23 129 ZM1233 399 q0 -105 -37 -180 q-37 -75 -116 -124 q-79 -49 -203 -72 q-124 -23 -299 -23 l-535 0 l0 104 l125 11 q19 2 32 13.5 q13 11.5 13 31.5 l0 614 l-190 160 l483 480 l0 -654 q25 2 53.5 4 q28.5 2 52.5 2 q134 0 247.5 -18 q113.5 -18 196.5 -60.5 q83 -42.5 130 -113 q47 -70.5 47 -175.5 Z"/><glyph glyph-name="uni0182" unicode="" d="M926 385 q0 85 -28 137 q-28 52 -74.5 80.5 q-46.5 28.5 -106 38 q-59.5 9.5 -123.5 9.5 q-16 0 -42 -3 q-26 -3 -46 -6 l0 -526 q12 0 28 -1 q16 -1 33 -1 q88 0 155 13.5 q67 13.5 112.5 45.5 q45.5 32 68.5 84 q23 52 23 129 ZM1233 399 q0 -105 -37 -180 q-37 -75 -116 -124 q-79 -49 -203 -72 q-124 -23 -299 -23 l-535 0 l0 104 l125 11 q19 2 32 13.5 q13 11.5 13 31.5 l0 1054 q0 20 -13 32 q-13 12 -32 14 l-125 10 l0 104 l1024 0 l0 -336 l-147 0 l-27 174 q-5 25 -15 35 q-10 10 -30 10 l-312 0 q-16 0 -23 -10.5 q-7 -10.5 -7 -19.5 l0 -467 q25 2 53.5 4 q28.5 2 52.5 2 q134 0 247.5 -18 q113.5 -18 196.5 -60.5 q83 -42.5 130 -113 q47 -70.5 47 -175.5 Z"/><glyph glyph-name="uni0411" unicode="" d="M895 418 q0 91 -23 154.5 q-23 63.5 -63.5 103 q-40.5 39.5 -95.5 57 q-55 17.5 -119 17.5 q-16 0 -42 -3 q-26 -3 -46 -6 l0 -626 q12 0 28 -1 q16 -1 33 -1 q88 0 150 19 q62 19 101.5 57 q39.5 38 58 95 q18.5 57 18.5 134 ZM1190 418 q0 -105 -30 -183 q-30 -78 -101 -130.5 q-71 -52.5 -188.5 -78.5 q-117.5 -26 -292.5 -26 l-535 0 l0 104 l125 11 q19 2 32 13.5 q13 11.5 13 31.5 l0 1054 q0 20 -13 32 q-13 12 -32 14 l-125 10 l0 104 l1024 0 l0 -336 l-147 0 l-27 174 q-5 25 -15 35 q-10 10 -30 10 l-312 0 q-16 0 -23 -10.5 q-7 -10.5 -7 -19.5 l0 -367 q25 2 53.5 4 q28.5 2 52.5 2 q134 0 241 -30.5 q107 -30.5 182 -88.5 q75 -58 115 -141 q40 -83 40 -188 Z"/><glyph glyph-name="uni042C" unicode="" d="M874 418 q0 91 -20 154.5 q-20 63.5 -57 103 q-37 39.5 -88.5 57 q-51.5 17.5 -114.5 17.5 q-16 0 -42 -3 q-26 -3 -46 -6 l0 -622 q12 0 28 -1 q16 -1 33 -1 q88 0 147 18 q59 18 94.5 55.5 q35.5 37.5 50.5 94 q15 56.5 15 133.5 ZM1190 418 q0 -105 -30 -183 q-30 -78 -101 -130.5 q-71 -52.5 -188.5 -78.5 q-117.5 -26 -292.5 -26 l-515 0 l0 104 l105 11 q19 2 32 13.5 q13 11.5 13 31.5 l0 1054 q0 20 -13 32 q-13 12 -32 14 l-105 10 l0 104 l592 0 l0 -104 l-104 -10 q-17 -2 -31 -14 q-14 -12 -14 -32 l0 -354 q25 2 53.5 4 q28.5 2 52.5 2 q134 0 241 -30.5 q107 -30.5 182 -88.5 q75 -58 115 -141 q40 -83 40 -188 Z"/><glyph glyph-name="uni048C" unicode="" d="M874 418 q0 91 -20 154.5 q-20 63.5 -57 103 q-37 39.5 -88.5 57 q-51.5 17.5 -114.5 17.5 q-16 0 -42 -3 q-26 -3 -46 -6 l0 -622 q12 0 28 -1 q16 -1 33 -1 q88 0 147 18 q59 18 94.5 55.5 q35.5 37.5 50.5 94 q15 56.5 15 133.5 ZM13 1374 l200 0 l0 150 l293 0 l0 -150 l200 0 l0 -121 l-200 0 l0 -393 q25 2 53.5 4 q28.5 2 52.5 2 q134 0 241 -30.5 q107 -30.5 182 -88.5 q75 -58 115 -141 q40 -83 40 -188 q0 -105 -30 -183 q-30 -78 -101 -130.5 q-71 -52.5 -188.5 -78.5 q-117.5 -26 -292.5 -26 l-515 0 l0 104 l105 11 q19 2 32 13.5 q13 11.5 13 31.5 l0 1093 l-200 0 l0 121 Z"/><glyph glyph-name="uni042A" unicode="" d="M1055 418 q0 91 -20 154.5 q-20 63.5 -57 103 q-37 39.5 -88.5 57 q-51.5 17.5 -115.5 17.5 q-7 0 -17.5 -1 q-10.5 -1 -23 -2 q-12.5 -1 -25 -3 q-12.5 -2 -22.5 -3 l0 -622 q14 0 30 -1 q16 -1 32 -1 q88 0 147 18 q59 18 94.5 55.5 q35.5 37.5 50.5 94 q15 56.5 15 133.5 ZM1370 418 q0 -105 -29.5 -183 q-29.5 -78 -100 -130.5 q-70.5 -52.5 -188 -78.5 q-117.5 -26 -292.5 -26 l-516 0 l0 104 l104 11 q19 2 32 13.5 q13 11.5 13 31.5 l0 1050 q0 23 -8 32 q-8 9 -31 9 l-118 0 q-19 0 -27.5 -8 q-8.5 -8 -11.5 -33 l-37 -229 l-150 0 l0 393 l828 0 l0 -104 l-107 -10 q-17 -2 -31 -14 q-14 -12 -14 -32 l0 -354 q26 2 55 4 q29 2 52 2 q134 0 241 -30.5 q107 -30.5 181.5 -88.5 q74.5 -58 114.5 -141 q40 -83 40 -188 Z"/><glyph glyph-name="uni0462" unicode="" d="M1079 428 q0 91 -20 148 q-20 57 -56 89 q-36 32 -87.5 43 q-51.5 11 -114.5 11 q-16 0 -43 -2 q-27 -2 -45 -4 l0 -594 q12 0 28 -1 q16 -1 31 -1 q88 0 147.5 20 q59.5 20 94.5 59 q35 39 50 97 q15 58 15 135 ZM1397 428 q0 -104 -30 -184 q-30 -80 -101.5 -134 q-71.5 -54 -189 -82 q-117.5 -28 -292.5 -28 l-516 0 l0 104 l107 11 q17 2 31 13.5 q14 11.5 14 31.5 l0 905 l-168 0 q-23 0 -29 -9.5 q-6 -9.5 -10 -31.5 l-31 -129 l-149 0 l0 283 l387 0 l0 69 q0 20 -14 31.5 q-14 11.5 -31 13.5 l-107 11 l0 104 l594 0 l0 -104 l-104 -11 q-19 -2 -32 -13.5 q-13 -11.5 -13 -31.5 l0 -69 l385 0 l0 -283 l-150 0 l-28 129 q-5 22 -11.5 31.5 q-6.5 9.5 -29.5 9.5 l-166 0 l0 -236 q24 4 52.5 5.5 q28.5 1.5 51.5 1.5 q135 0 242.5 -24 q107.5 -24 182.5 -74.5 q75 -50.5 115 -127.5 q40 -77 40 -182 Z"/><glyph glyph-name="uni042B" unicode="" d="M874 418 q0 91 -20 154.5 q-20 63.5 -57 103 q-37 39.5 -88.5 57 q-51.5 17.5 -114.5 17.5 q-16 0 -42 -3 q-26 -3 -46 -6 l0 -622 q12 0 28 -1 q16 -1 33 -1 q88 0 147 18 q59 18 94.5 55.5 q35.5 37.5 50.5 94 q15 56.5 15 133.5 ZM1194 0 l0 104 l127 11 q17 2 31 13.5 q14 11.5 14 31.5 l0 1054 q0 20 -14 32 q-14 12 -31 14 l-127 10 l0 104 l639 0 l0 -104 l-127 -10 q-19 -2 -33 -14 q-14 -12 -14 -32 l0 -1054 q0 -20 14 -31.5 q14 -11.5 33 -13.5 l127 -11 l0 -104 l-639 0 ZM1190 418 q0 -105 -30 -183 q-30 -78 -101 -130.5 q-71 -52.5 -188.5 -78.5 q-117.5 -26 -292.5 -26 l-515 0 l0 104 l105 11 q19 2 32 13.5 q13 11.5 13 31.5 l0 1054 q0 20 -13 32 q-13 12 -32 14 l-105 10 l0 104 l592 0 l0 -104 l-104 -10 q-17 -2 -31 -14 q-14 -12 -14 -32 l0 -354 q25 2 53.5 4 q28.5 2 52.5 2 q134 0 241 -30.5 q107 -30.5 182 -88.5 q75 -58 115 -141 q40 -83 40 -188 Z"/><glyph glyph-name="u1D505" unicode="" d="M1086 403 q0 75 -32.5 125.5 q-32.5 50.5 -83 81 q-50.5 30.5 -112 43.5 q-61.5 13 -118.5 13 q-16 0 -35.5 -2 q-19.5 -2 -39.5 -5 q-20 -3 -40 -6.5 q-20 -3.5 -37 -7.5 q-41 -65 -91 -112.5 q-50 -47.5 -92 -76.5 l482 -253 q50 -1 87.5 19.5 q37.5 20.5 62 51 q24.5 30.5 37 65.5 q12.5 35 12.5 64 ZM1004 965 q0 39 -14 63 q-14 24 -37.5 37.5 q-23.5 13.5 -55 18.5 q-31.5 5 -65.5 5 q-13 0 -33 -4 q-20 -4 -40 -10.5 q-20 -6.5 -38 -14.5 q-18 -8 -27 -17 l-45 -43 q6 -29 7.5 -59.5 q1.5 -30.5 1.5 -61.5 q0 -43 -7.5 -81 q-7.5 -38 -20.5 -73 l84 13 q13 2 40 9.5 q27 7.5 59 19.5 q32 12 66 30.5 q34 18.5 62 42.5 q28 24 45.5 55.5 q17.5 31.5 17.5 69.5 ZM1354 491 q0 -52 -15.5 -96 q-15.5 -44 -41.5 -80 q-26 -36 -59.5 -64 q-33.5 -28 -68.5 -49 q-35 -21 -69.5 -34.5 q-34.5 -13.5 -62.5 -19.5 q-37 -8 -82 -25 q-45 -17 -105 -49 l-192 -103 l-559 306 l0 99 q88 33 148.5 71 q60.5 38 98 84 q37.5 46 54.5 102 q17 56 17 125 q0 69 -19 125 q-19 56 -48.5 96.5 q-29.5 40.5 -66.5 62.5 q-37 22 -73 22 q-23 0 -41.5 -3 q-18.5 -3 -32.5 -7 q-16 -4 -28 -9 l-28 62 l244 210 q61 -9 109 -30 q48 -21 85 -51 q37 -30 62.5 -67.5 q25.5 -37.5 42.5 -80.5 l279 239 q62 6 126 -8 q64 -14 115.5 -46 q51.5 -32 84.5 -81 q33 -49 33 -112 q0 -48 -9 -86 q-9 -38 -28 -67.5 q-19 -29.5 -47 -53 q-28 -23.5 -65 -43.5 q59 -20 104.5 -55 q45.5 -35 76 -80 q30.5 -45 46 -97.5 q15.5 -52.5 15.5 -106.5 Z"/><glyph glyph-name="beta" unicode="" d="M1226 453 q1 -92 -18 -163.5 q-19 -71.5 -53 -124.5 q-34 -53 -79.5 -89.5 q-45.5 -36.5 -98.5 -58.5 q-53 -22 -110 -32 q-57 -10 -113 -10 q-48 0 -103 10.5 q-55 10.5 -97 30.5 l0 126 q50 -26 96 -38 q46 -12 74 -12 q37 0 72.5 11 q35.5 11 63.5 44.5 q28 33.5 44.5 94.5 q16.5 61 16.5 161 q0 88 -14.5 157.5 q-14.5 69.5 -53 116.5 q-38.5 47 -106 71.5 q-67.5 24.5 -173.5 22.5 q0 21 0.5 49 q0.5 28 2.5 54 q77 -1 124 19 q47 20 72 58 q25 38 33 93 q8 55 8 125 q0 46 -11 86.5 q-11 40.5 -31.5 70.5 q-20.5 30 -48.5 47.5 q-28 17.5 -62 17.5 q-58 0 -96.5 -31 q-38.5 -31 -62 -83.5 q-23.5 -52.5 -33.5 -122 q-10 -69.5 -10 -146.5 l0 -1301 q0 -23 10 -36 q10 -13 21 -13 l121 -11 l0 -97 l-562 0 l0 97 l96 11 q19 1 29 18 q10 17 10 31 l0 1221 q0 70 13 141 q13 71 39.5 136.5 q26.5 65.5 68.5 122 q42 56.5 99.5 98.5 q57.5 42 131.5 66 q74 24 166 24 q96 0 170.5 -25 q74.5 -25 126 -71 q51.5 -46 78 -109.5 q26.5 -63.5 26.5 -141.5 q0 -70 -24 -126.5 q-24 -56.5 -63 -98.5 q-39 -42 -87.5 -69.5 q-48.5 -27.5 -97.5 -39.5 q82 -12 154 -35.5 q72 -23.5 125 -67 q53 -43.5 84 -111.5 q31 -68 32 -168 Z"/><glyph glyph-name="uni1D66" unicode="" d="M797 -188 q1 -55 -11.5 -98 q-12.5 -43 -34.5 -75 q-22 -32 -52 -54 q-30 -22 -64 -35 q-34 -13 -71.5 -19 q-37.5 -6 -73.5 -6 q-31 0 -67 6.5 q-36 6.5 -63 18.5 l0 75 q33 -15 62.5 -22.5 q29.5 -7.5 48.5 -7.5 q24 0 47 6.5 q23 6.5 41 27 q18 20.5 29 57 q11 36.5 11 96.5 q0 53 -9.5 94.5 q-9.5 41.5 -34.5 69.5 q-25 28 -69 43 q-44 15 -113 14 q0 12 0.5 29 q0.5 17 1.5 32 q50 0 80.5 12 q30.5 12 47 34.5 q16.5 22.5 21.5 55.5 q5 33 5 75 q0 28 -7 52.5 q-7 24.5 -20.5 42.5 q-13.5 18 -31.5 28.5 q-18 10.5 -40 10.5 q-38 0 -63 -19 q-25 -19 -40.5 -50.5 q-15.5 -31.5 -22 -73 q-6.5 -41.5 -6.5 -87.5 l0 -781 q0 -14 6.5 -21.5 q6.5 -7.5 13.5 -7.5 l79 -7 l0 -58 l-365 0 l0 58 l62 7 q13 0 19.5 10.5 q6.5 10.5 6.5 18.5 l0 733 q0 42 8 84.5 q8 42.5 25.5 82 q17.5 39.5 45 73 q27.5 33.5 64.5 59 q37 25.5 85 40 q48 14.5 108 14.5 q63 0 111.5 -15 q48.5 -15 81.5 -43 q33 -28 50.5 -66 q17.5 -38 17.5 -85 q0 -42 -15.5 -75.5 q-15.5 -33.5 -41 -59 q-25.5 -25.5 -57 -42 q-31.5 -16.5 -63.5 -23.5 q53 -7 100 -21 q47 -14 81.5 -40.5 q34.5 -26.5 54.5 -67 q20 -40.5 21 -100.5 Z"/><glyph glyph-name="uni1D5D" unicode="" d="M797 1057 q1 -55 -11.5 -98 q-12.5 -43 -34.5 -75 q-22 -32 -52 -54 q-30 -22 -64 -35 q-34 -13 -71.5 -19 q-37.5 -6 -73.5 -6 q-31 0 -67 6.5 q-36 6.5 -63 18.5 l0 75 q33 -15 62.5 -22.5 q29.5 -7.5 48.5 -7.5 q24 0 47 6.5 q23 6.5 41 27 q18 20.5 29 57 q11 36.5 11 96.5 q0 53 -9.5 94.5 q-9.5 41.5 -34.5 69.5 q-25 28 -69 43 q-44 15 -113 14 q0 12 0.5 29 q0.5 17 1.5 32 q50 0 80.5 12 q30.5 12 47 34.5 q16.5 22.5 21.5 55.5 q5 33 5 75 q0 28 -7 52.5 q-7 24.5 -20.5 42.5 q-13.5 18 -31.5 28.5 q-18 10.5 -40 10.5 q-38 0 -63 -19 q-25 -19 -40.5 -50.5 q-15.5 -31.5 -22 -73 q-6.5 -41.5 -6.5 -87.5 l0 -781 q0 -14 6.5 -21.5 q6.5 -7.5 13.5 -7.5 l79 -7 l0 -58 l-365 0 l0 58 l62 7 q13 0 19.5 10.5 q6.5 10.5 6.5 18.5 l0 733 q0 42 8 84.5 q8 42.5 25.5 82 q17.5 39.5 45 73 q27.5 33.5 64.5 59 q37 25.5 85 40 q48 14.5 108 14.5 q63 0 111.5 -15 q48.5 -15 81.5 -43 q33 -28 50.5 -66 q17.5 -38 17.5 -85 q0 -42 -15.5 -75.5 q-15.5 -33.5 -41 -59 q-25.5 -25.5 -57 -42 q-31.5 -16.5 -63.5 -23.5 q53 -7 100 -21 q47 -14 81.5 -40.5 q34.5 -26.5 54.5 -67 q20 -40.5 21 -100.5 Z"/><glyph glyph-name="uni1E9E" unicode="" d="M212 720 q0 180 42.5 309.5 q42.5 129.5 124 213.5 q81.5 84 200.5 124 q119 40 273 40 q71 0 136 -6.5 q65 -6.5 131 -20.5 q66 -14 137.5 -36.5 q71.5 -22.5 155.5 -53.5 l-353 -431 q135 -57 224.5 -105.5 q89.5 -48.5 143.5 -101.5 q54 -53 76 -116.5 q22 -63.5 22 -150.5 q0 -77 -30 -152 q-30 -75 -93 -134 q-63 -59 -160 -95.5 q-97 -36.5 -230 -36.5 q-65 0 -127.5 13 q-62.5 13 -113.5 30 q-59 18 -113 43 l0 323 l169 0 l27 -182 q2 -12 12.5 -25 q10.5 -13 21.5 -20 q29 -18 67 -31 q38 -13 70 -13 q97 0 149 56.5 q52 56.5 52 152.5 q0 52 -20.5 96.5 q-20.5 44.5 -75 89.5 q-54.5 45 -149 94 q-94.5 49 -242.5 110 l368 452 q-38 32 -73.5 54 q-35.5 22 -70.5 36 q-35 14 -69.5 20 q-34.5 6 -71.5 6 q-36 0 -73.5 -10.5 q-37.5 -10.5 -73 -35.5 q-35.5 -25 -67 -67.5 q-31.5 -42.5 -55 -106 q-23.5 -63.5 -37.5 -150.5 q-14 -87 -14 -202 l0 -542 q0 -15 10.5 -29 q10.5 -14 32.5 -16 l67 -8 l0 -105 l-551 0 l0 105 l106 8 q22 2 33.5 16 q11.5 14 11.5 29 l0 562 Z"/><glyph glyph-name="uni0441" unicode="" d="M965 90 q-26 -12 -63.5 -31 q-37.5 -19 -87 -38 q-49.5 -19 -112.5 -32.5 q-63 -13.5 -141 -13.5 q-120 0 -212 41 q-92 41 -155 110.5 q-63 69.5 -95.5 160.5 q-32.5 91 -32.5 192 q0 121 41.5 221.5 q41.5 100.5 113 172.5 q71.5 72 167.5 111.5 q96 39.5 206 39.5 q81 0 146 -16.5 q65 -16.5 111.5 -46.5 q46.5 -30 71.5 -71.5 q25 -41.5 25 -90.5 q0 -35 -12.5 -63 q-12.5 -28 -32.5 -48.5 q-20 -20.5 -46 -31.5 q-26 -11 -54 -11 q-32 0 -53.5 4 q-21.5 4 -36.5 10.5 q-15 6.5 -26 14 q-11 7.5 -21 14.5 l0 230 q-13 0 -20.5 1 q-7.5 1 -18.5 1 q-47 0 -93.5 -24 q-46.5 -24 -83.5 -71.5 q-37 -47.5 -60 -119 q-23 -71.5 -23 -166.5 q0 -90 21.5 -162.5 q21.5 -72.5 61.5 -123.5 q40 -51 98 -78.5 q58 -27.5 130 -27.5 q47 0 94 13 q47 13 86.5 30 q39.5 17 68 33.5 q28.5 16.5 38.5 24.5 l0 -158 Z"/><glyph glyph-name="uni1D9C" unicode="" d="M627 840 q-17 -8 -41.5 -20 q-24.5 -12 -56.5 -23 q-32 -11 -73 -19 q-41 -8 -91 -8 q-78 0 -138 24 q-60 24 -101 65.5 q-41 41.5 -62 96 q-21 54.5 -21 115.5 q0 73 27 133.5 q27 60.5 73.5 103.5 q46.5 43 108.5 67 q62 24 133 24 q53 0 95.5 -10.5 q42.5 -10.5 72.5 -28.5 q30 -18 46.5 -42.5 q16.5 -24.5 16.5 -53.5 q0 -21 -8 -38 q-8 -17 -21.5 -29.5 q-13.5 -12.5 -31 -19 q-17.5 -6.5 -35.5 -6.5 q-21 0 -34.5 2.5 q-13.5 2.5 -23 6 q-9.5 3.5 -16.5 8 q-7 4.5 -14 8.5 l0 137 q-8 2 -12 2 l-12 0 q-31 0 -61.5 -14 q-30.5 -14 -54.5 -42.5 q-24 -28.5 -39 -71 q-15 -42.5 -15 -99.5 q0 -54 14 -98 q14 -44 40 -74.5 q26 -30.5 63.5 -47 q37.5 -16.5 84.5 -16.5 q31 0 61.5 7.5 q30.5 7.5 56.5 18 q26 10.5 44.5 20 q18.5 9.5 24.5 14.5 l0 -92 Z"/><glyph glyph-name="uni1E09" unicode="" d="M821 -268 q0 -50 -19 -88 q-19 -38 -52.5 -64 q-33.5 -26 -80 -39.5 q-46.5 -13.5 -100.5 -13.5 q-32 0 -62 3 q-30 3 -53 8 q-27 4 -51 11 l0 103 q23 -5 46 -9 q20 -3 42 -5.5 q22 -2.5 41 -2.5 q20 0 41.5 3 q21.5 3 39 10.5 q17.5 7.5 29 21.5 q11.5 14 11.5 35 q0 18 -7.5 31.5 q-7.5 13.5 -20 22 q-12.5 8.5 -28.5 12.5 q-16 4 -34 4 q-6 0 -13.5 -0.5 q-7.5 -0.5 -14.5 -1.5 q-8 -1 -17 -2 l0 206 q-94 6 -169 39 q-92 41 -155 110.5 q-63 69.5 -95.5 160.5 q-32.5 91 -32.5 192 q0 121 41.5 221.5 q41.5 100.5 113 172.5 q71.5 72 167.5 111.5 q96 39.5 206 39.5 q81 0 146 -16.5 q65 -16.5 111.5 -46.5 q46.5 -30 71.5 -71.5 q25 -41.5 25 -90.5 q0 -35 -12.5 -63 q-12.5 -28 -32.5 -48.5 q-20 -20.5 -46 -31.5 q-26 -11 -54 -11 q-32 0 -53.5 4 q-21.5 4 -36.5 10.5 q-15 6.5 -26 14 q-11 7.5 -21 14.5 l0 230 q-13 0 -20.5 1 q-7.5 1 -18.5 1 q-47 0 -93.5 -24 q-46.5 -24 -83.5 -71.5 q-37 -47.5 -60 -119 q-23 -71.5 -23 -166.5 q0 -90 21.5 -162.5 q21.5 -72.5 61.5 -123.5 q40 -51 98 -78.5 q58 -27.5 130 -27.5 q47 0 94 13 q47 13 86.5 30 q39.5 17 68 33.5 q28.5 16.5 38.5 24.5 l0 -158 q-26 -12 -63.5 -31 q-37.5 -19 -87 -38 q-49.5 -19 -112.5 -32 q-38 -8 -82 -12 l0 -88 q3 -1 7 -1 q5 -1 22 -1 q35 0 66.5 -9 q31.5 -9 55 -28 q23.5 -19 37 -48.5 q13.5 -29.5 13.5 -69.5 ZM905 1395 q0 -10 -4.5 -22.5 q-4.5 -12.5 -11.5 -24.5 q-7 -12 -17 -22.5 q-10 -10.5 -20 -16.5 l-332 -181 l-143 0 l280 310 q18 19 32.5 31.5 q14.5 12.5 29 20 q14.5 7.5 30.5 10.5 q16 3 37 3 q33 0 55.5 -10 q22.5 -10 37 -25.5 q14.5 -15.5 20.5 -35 q6 -19.5 6 -37.5 Z"/><glyph glyph-name="uni04AB" unicode="" d="M965 90 q-26 -12 -63.5 -31 q-37.5 -19 -87 -38 q-49.5 -19 -112.5 -32 q-43 -9 -92 -13 q9 -7 18 -15 q29 -25 54.5 -57.5 q25.5 -32.5 42.5 -72.5 q17 -40 17 -85 q0 -41 -17.5 -72.5 q-17.5 -31.5 -48 -54 q-30.5 -22.5 -72 -34 q-41.5 -11.5 -89.5 -11.5 q-23 0 -56.5 10 q-33.5 10 -64.5 22 q-36 14 -74 32 l64 106 q4 -3 15 -11.5 q11 -8.5 24.5 -17 q13.5 -8.5 27 -15.5 q13.5 -7 23.5 -7 q51 0 76.5 30.5 q25.5 30.5 25.5 75.5 q0 60 -36 110 q-28 38 -67 72 q-67 10 -124 35 q-92 41 -155 110.5 q-63 69.5 -95.5 160.5 q-32.5 91 -32.5 192 q0 121 41.5 221.5 q41.5 100.5 113 172.5 q71.5 72 167.5 111.5 q96 39.5 206 39.5 q81 0 146 -16.5 q65 -16.5 111.5 -46.5 q46.5 -30 71.5 -71.5 q25 -41.5 25 -90.5 q0 -35 -12.5 -63 q-12.5 -28 -32.5 -48.5 q-20 -20.5 -46 -31.5 q-26 -11 -54 -11 q-32 0 -53.5 4 q-21.5 4 -36.5 10.5 q-15 6.5 -26 14 q-11 7.5 -21 14.5 l0 230 q-13 0 -20.5 1 q-7.5 1 -18.5 1 q-47 0 -93.5 -24 q-46.5 -24 -83.5 -71.5 q-37 -47.5 -60 -119 q-23 -71.5 -23 -166.5 q0 -90 21.5 -162.5 q21.5 -72.5 61.5 -123.5 q40 -51 98 -78.5 q58 -27.5 130 -27.5 q47 0 94 13 q47 13 86.5 30 q39.5 17 68 33.5 q28.5 16.5 38.5 24.5 l0 -158 Z"/><glyph glyph-name="uniA794" unicode="" d="M965 -215 q0 -68 -30.5 -116.5 q-30.5 -48.5 -76.5 -79 q-46 -30.5 -101 -44.5 q-55 -14 -103 -14 q-38 0 -82 8 q-44 8 -82.5 25.5 q-38.5 17.5 -64 44 q-25.5 26.5 -25.5 63.5 q0 40 9 69.5 q9 29.5 24.5 51.5 q15.5 22 37 38 q21.5 16 46.5 30 l196 -187 q30 0 53 4 q23 4 38.5 15.5 q15.5 11.5 23.5 32.5 q8 21 8 55 l0 248 l-22 -8 q-49 -19 -112 -32.5 q-63 -13.5 -141 -13.5 q-120 0 -212 41 q-92 41 -155 110.5 q-63 69.5 -95.5 160.5 q-32.5 91 -32.5 192 q0 121 41.5 221.5 q41.5 100.5 113 172.5 q71.5 72 167.5 111.5 q96 39.5 206 39.5 q81 0 146 -16.5 q65 -16.5 111.5 -46.5 q46.5 -30 71.5 -71.5 q25 -41.5 25 -90.5 q0 -35 -12.5 -63 q-12.5 -28 -32.5 -48.5 q-20 -20.5 -46 -31.5 q-26 -11 -54 -11 q-32 0 -53.5 4 q-21.5 4 -36.5 10.5 q-15 6.5 -26 14 q-11 7.5 -21 14.5 l0 230 q-13 0 -20.5 1 q-7.5 1 -18.5 1 q-47 0 -93.5 -24 q-46.5 -24 -83.5 -71.5 q-37 -47.5 -60 -119 q-23 -71.5 -23 -166.5 q0 -90 21.5 -162.5 q21.5 -72.5 61.5 -123.5 q40 -51 98 -78.5 q58 -27.5 130 -27.5 q47 0 94 13 q47 13 86.5 30 q39.5 17 68 33.5 q28.5 16.5 38.5 24.5 l0 -463 Z"/><glyph glyph-name="uniA793" unicode="" d="M562 444 l-168 0 q10 -69 35.5 -124.5 q25.5 -55.5 64.5 -93.5 q39 -38 90.5 -58.5 q51.5 -20.5 113.5 -20.5 q47 0 94 13 q47 13 86.5 30 q39.5 17 68 33.5 q28.5 16.5 38.5 24.5 l0 -158 q-26 -12 -63.5 -31 q-37.5 -19 -87 -38 q-49.5 -19 -112.5 -32.5 q-63 -13.5 -141 -13.5 q-114 0 -203.5 37.5 q-89.5 37.5 -152.5 102 q-63 64.5 -98 149.5 q-35 85 -40 180 l-87 0 l0 121 l92 0 q14 103 60 188 q46 85 115.5 145 q69.5 60 158 93 q88.5 33 188.5 33 q81 0 146 -16.5 q65 -16.5 111.5 -46.5 q46.5 -30 71.5 -71.5 q25 -41.5 25 -90.5 q0 -35 -12.5 -63 q-12.5 -28 -32.5 -48.5 q-20 -20.5 -46 -31.5 q-26 -11 -54 -11 q-32 0 -53.5 4 q-21.5 4 -36.5 10.5 q-15 6.5 -26 14 q-11 7.5 -21 14.5 l0 230 q-13 0 -20.5 1 q-7.5 1 -18.5 1 q-45 0 -90 -22.5 q-45 -22.5 -82 -66.5 q-37 -44 -61 -111 q-24 -67 -27 -155 l175 0 l0 -121 Z"/><glyph glyph-name="uni023C" unicode="" d="M208 -170 l-90 57 l113 203 q-20 17 -37 36 q-63 70 -95.5 161 q-32.5 91 -32.5 192 q0 121 41.5 221.5 q41.5 100.5 113 172.5 q71.5 72 167.5 111.5 q96 39.5 206 39.5 q81 0 146 -17 l4 -1 l95 170 l90 -52 l-88 -157 l10 -6 q47 -30 72 -71.5 q25 -41.5 25 -90.5 q0 -35 -12.5 -63 q-12.5 -28 -32.5 -48.5 q-20 -20.5 -46 -31.5 q-26 -11 -54 -11 q-32 0 -53.5 4 q-21.5 4 -36.5 10.5 q-15 6.5 -26 13.5 q-3 2 -7 4 l-234 -420 l4 -4 q40 -51 98 -78.5 q58 -27.5 130 -27.5 q47 0 94 13 q47 13 86.5 30 q39.5 17 68 33.5 q28.5 16.5 38.5 24.5 l0 -158 q-26 -12 -63.5 -31 q-37.5 -19 -87 -38 q-49.5 -19 -112.5 -32.5 q-63 -13.5 -141 -13.5 q-120 0 -212 41 q-15 6 -30 14 l-111 -200 ZM666 918 q-13 0 -20.5 1 q-7.5 1 -18.5 1 q-47 0 -93.5 -24 q-46.5 -24 -83.5 -71.5 q-37 -47.5 -60 -119 q-23 -71.5 -23 -166.5 q0 -90 21 -163 l1 -4 l277 495 l0 51 Z"/><glyph glyph-name="uni0297" unicode="" d="M965 -358 q-26 -12 -63.5 -31.5 q-37.5 -19.5 -88 -38 q-50.5 -18.5 -113.5 -32 q-63 -13.5 -141 -13.5 q-120 0 -212 41 q-92 41 -154.5 110.5 q-62.5 69.5 -94.5 161 q-32 91.5 -32 193.5 l0 487 q0 109 43.5 201.5 q43.5 92.5 116.5 159.5 q73 67 168 105 q95 38 198 38 q81 0 148 -16.5 q67 -16.5 115 -46.5 q48 -30 74.5 -71.5 q26.5 -41.5 26.5 -90.5 q0 -35 -12.5 -63 q-12.5 -28 -32.5 -48.5 q-20 -20.5 -46 -31.5 q-26 -11 -54 -11 q-32 0 -53.5 4 q-21.5 4 -36.5 10.5 q-15 6.5 -26 14 q-11 7.5 -21 14.5 l0 230 q-10 0 -19 1 q-8 0 -16.5 0.5 q-8.5 0.5 -13.5 0.5 q-47 0 -93.5 -24 q-46.5 -24 -83.5 -71.5 q-37 -47.5 -60 -119 q-23 -71.5 -23 -166.5 l0 -490 q0 -77 24 -141 q24 -64 65.5 -110.5 q41.5 -46.5 98.5 -72.5 q57 -26 123 -26 q47 0 94 12.5 q47 12.5 87 29 q40 16.5 69 32.5 q29 16 39 24 l0 -155 Z"/><glyph glyph-name="uni0188" unicode="" d="M1194 1071 q0 -44 -18.5 -68 q-18.5 -24 -41.5 -35 q-26 -13 -59 -16 l-82 183 q-36 0 -60.5 -13 q-24.5 -13 -39 -37 q-14.5 -24 -21 -58.5 q-6.5 -34.5 -6.5 -76.5 q41 -29 61.5 -67.5 q20.5 -38.5 20.5 -83.5 q0 -35 -12.5 -63 q-12.5 -28 -32.5 -48.5 q-20 -20.5 -46 -31.5 q-26 -11 -54 -11 q-32 0 -53.5 4 q-21.5 4 -36.5 10.5 q-15 6.5 -26 14 q-11 7.5 -21 14.5 l0 230 q-7 0 -14 1 q-6 0 -13 0.5 q-7 0.5 -12 0.5 q-47 0 -93.5 -24 q-46.5 -24 -83.5 -71.5 q-37 -47.5 -60 -119 q-23 -71.5 -23 -166.5 q0 -90 21.5 -162.5 q21.5 -72.5 61.5 -123.5 q40 -51 98 -78.5 q58 -27.5 130 -27.5 q47 0 94 13 q47 13 86.5 30 q39.5 17 68 33.5 q28.5 16.5 38.5 24.5 l0 -158 q-26 -12 -63.5 -31 q-37.5 -19 -87 -38 q-49.5 -19 -112.5 -32.5 q-63 -13.5 -141 -13.5 q-120 0 -212 41 q-92 41 -155 110.5 q-63 69.5 -95.5 160.5 q-32.5 91 -32.5 192 q0 121 41.5 221.5 q41.5 100.5 113 172.5 q71.5 72 167.5 111.5 q96 39.5 206 39.5 q31 0 59 -2.5 q28 -2.5 56 -7.5 q12 43 34.5 80 q22.5 37 54.5 64.5 q32 27.5 73 43 q41 15.5 90 15.5 q47 0 89.5 -10 q42.5 -10 74.5 -29 q32 -19 50.5 -46 q18.5 -27 18.5 -61 Z"/><glyph glyph-name="uni0255" unicode="" d="M979 254 q0 -65 -29 -116.5 q-29 -51.5 -77 -87.5 q-48 -36 -111.5 -55.5 q-63.5 -19.5 -132.5 -19.5 q-14 0 -32.5 3.5 q-18.5 3.5 -31.5 5.5 q-11 -62 -16.5 -124 q-5.5 -62 -5.5 -118 l-109 0 q0 57 6 125.5 q6 68.5 19 134.5 q-76 21 -147 63 q-71 42 -125.5 103 q-54.5 61 -87.5 139.5 q-33 78.5 -33 171.5 q0 121 41.5 221.5 q41.5 100.5 113 172.5 q71.5 72 167.5 111.5 q96 39.5 206 39.5 q81 0 146 -16.5 q65 -16.5 111.5 -46.5 q46.5 -30 71.5 -71.5 q25 -41.5 25 -90.5 q0 -35 -12.5 -63 q-12.5 -28 -32.5 -48.5 q-20 -20.5 -46 -31.5 q-26 -11 -54 -11 q-32 0 -53.5 4 q-21.5 4 -36.5 10.5 q-15 6.5 -26 14 q-11 7.5 -21 14.5 l0 230 q-7 0 -14 1 q-6 0 -13 0.5 q-7 0.5 -12 0.5 q-47 0 -93.5 -26 q-46.5 -26 -83.5 -76.5 q-37 -50.5 -60 -124.5 q-23 -74 -23 -169 q0 -60 4.5 -110.5 q4.5 -50.5 16.5 -93.5 q12 -43 34 -77.5 q22 -34.5 57 -62.5 q32 129 102 197.5 q70 68.5 193 68.5 q46 0 84 -15.5 q38 -15.5 65 -41.5 q27 -26 41.5 -61 q14.5 -35 14.5 -74 ZM807 258 q0 29 -19.5 40 q-19.5 11 -50.5 11 q-50 0 -82.5 -48.5 q-32.5 -48.5 -52.5 -127.5 q11 -2 19 -3.5 q8 -1.5 16.5 -2 q8.5 -0.5 17.5 -0.5 l21 0 q65 0 98 37 q33 37 33 94 Z"/><glyph glyph-name="uni1D9D" unicode="" d="M636 937 q0 -39 -18.5 -69.5 q-18.5 -30.5 -50 -52.5 q-31.5 -22 -72.5 -33.5 q-41 -11.5 -86 -11.5 q-9 0 -21 2 q-12 2 -21 3 q-7 -37 -10.5 -74 q-3.5 -37 -3.5 -71 l-71 0 q0 34 4 75.5 q4 41.5 12 80.5 q-49 13 -95 38 q-46 25 -81.5 61.5 q-35.5 36.5 -57 84 q-21.5 47.5 -21.5 102.5 q0 73 27 133.5 q27 60.5 73.5 103.5 q46.5 43 109 66.5 q62.5 23.5 133.5 23.5 q53 0 95 -9.5 q42 -9.5 72.5 -27.5 q30.5 -18 46.5 -43 q16 -25 16 -55 q0 -21 -8 -37.5 q-8 -16.5 -21 -29 q-13 -12.5 -30 -19 q-17 -6.5 -35 -6.5 q-21 0 -35 2.5 q-14 2.5 -23.5 6.5 q-9.5 4 -17 8.5 q-7.5 4.5 -13.5 8.5 l0 138 l-9 0 q-4 0 -8.5 0.5 q-4.5 0.5 -7.5 0.5 q-31 0 -61 -15.5 q-30 -15.5 -54.5 -46 q-24.5 -30.5 -39 -75 q-14.5 -44.5 -14.5 -101.5 q0 -36 2.5 -66 q2.5 -30 10.5 -56 q8 -26 22.5 -46.5 q14.5 -20.5 36.5 -37.5 q21 77 66.5 118.5 q45.5 41.5 125.5 41.5 q30 0 54.5 -9.5 q24.5 -9.5 42 -25 q17.5 -15.5 27 -36.5 q9.5 -21 9.5 -45 ZM525 940 q0 17 -13 23.5 q-13 6.5 -33 6.5 q-32 0 -53.5 -29 q-21.5 -29 -34.5 -76 q7 -1 12.5 -2 q5.5 -1 11 -1.5 q5.5 -0.5 11.5 -0.5 l13 0 q43 0 64.5 22.5 q21.5 22.5 21.5 56.5 Z"/><glyph glyph-name="uni0254" unicode="" d="M965 518 q0 -120 -41.5 -220 q-41.5 -100 -113.5 -172 q-72 -72 -168.5 -111.5 q-96.5 -39.5 -205.5 -39.5 q-81 0 -147 17 q-66 17 -112.5 47 q-46.5 30 -71.5 71.5 q-25 41.5 -25 90.5 q0 34 12.5 62 q12.5 28 33 48 q20.5 20 47 30.5 q26.5 10.5 54.5 10.5 q31 0 52.5 -4 q21.5 -4 36.5 -10 q15 -6 26 -13.5 q11 -7.5 23 -15.5 l0 -227 q12 -2 19 -2 l19 0 q47 0 93.5 24 q46.5 24 84 71.5 q37.5 47.5 60.5 119 q23 71.5 23 166.5 q0 90 -22 162 q-22 72 -62.5 123 q-40.5 51 -98 78.5 q-57.5 27.5 -129.5 27.5 q-48 0 -95 -13 q-47 -13 -86.5 -29.5 q-39.5 -16.5 -67.5 -33.5 q-28 -17 -37 -24 l0 155 q25 12 62 32 q37 20 86.5 39 q49.5 19 112.5 32.5 q63 13.5 140 13.5 q120 0 213 -41 q93 -41 156.5 -110.5 q63.5 -69.5 96 -161.5 q32.5 -92 32.5 -193 Z"/><glyph glyph-name="uni1D53" unicode="" d="M627 1096 q0 -72 -27 -132 q-27 -60 -73.5 -103.5 q-46.5 -43.5 -109.5 -67 q-63 -23.5 -134 -23.5 q-52 0 -95 10 q-43 10 -73.5 28 q-30.5 18 -46.5 43 q-16 25 -16 55 q0 20 8 37 q8 17 21.5 29 q13.5 12 30.5 18 q17 6 36 6 q20 0 34 -2.5 q14 -2.5 23.5 -6 q9.5 -3.5 16.5 -8 q7 -4.5 15 -9.5 l0 -136 q8 -1 12 -1 l13 0 q30 0 60.5 14.5 q30.5 14.5 55 43 q24.5 28.5 39.5 71.5 q15 43 15 100 q0 54 -14.5 97 q-14.5 43 -41 73.5 q-26.5 30.5 -63.5 47 q-37 16.5 -84 16.5 q-31 0 -62 -7.5 q-31 -7.5 -56.5 -17.5 q-25.5 -10 -43.5 -20.5 q-18 -10.5 -24 -14.5 l0 93 q16 7 40 19 q24 12 56.5 23.5 q32.5 11.5 73 19.5 q40.5 8 91.5 8 q78 0 138 -24.5 q60 -24.5 101.5 -66 q41.5 -41.5 62.5 -97 q21 -55.5 21 -115.5 Z"/><glyph glyph-name="uni1D97" unicode="" d="M965 518 q0 -120 -41.5 -220 q-41.5 -100 -113.5 -172 q-72 -72 -168.5 -111.5 q-96.5 -39.5 -205.5 -39.5 q-81 0 -147 17 q-45 11 -80 28 l0 -239 q0 -34 8 -55 q8 -21 23.5 -32.5 q15.5 -11.5 38.5 -15.5 q23 -4 53 -4 l197 187 q24 -14 45.5 -30 q21.5 -16 37 -38 q15.5 -22 24.5 -51.5 q9 -29.5 9 -69.5 q0 -37 -25.5 -63.5 q-25.5 -26.5 -63.5 -44 q-38 -17.5 -82.5 -25.5 q-44.5 -8 -81.5 -8 q-49 0 -103.5 14 q-54.5 14 -101 44.5 q-46.5 30.5 -77 79 q-30.5 48.5 -30.5 116.5 l0 416 q0 34 12.5 62 q12.5 28 33 48 q20.5 20 47 30.5 q26.5 10.5 54.5 10.5 q31 0 52.5 -4 q21.5 -4 36.5 -10 q15 -6 26 -13.5 q11 -7.5 23 -15.5 l0 -227 q12 -2 19 -2 l19 0 q47 0 93.5 24 q46.5 24 84 71.5 q37.5 47.5 60.5 119 q23 71.5 23 166.5 q0 90 -22 162 q-22 72 -62.5 123 q-40.5 51 -98 78.5 q-57.5 27.5 -129.5 27.5 q-48 0 -95 -13 q-47 -13 -86.5 -29.5 q-39.5 -16.5 -67.5 -33.5 q-28 -17 -37 -24 l0 155 q25 12 62 32 q37 20 86.5 39 q49.5 19 112.5 32.5 q63 13.5 140 13.5 q120 0 213 -41 q93 -41 156.5 -110.5 q63.5 -69.5 96 -161.5 q32.5 -92 32.5 -193 Z"/><glyph glyph-name="uni2C7A" unicode="" d="M729 236 q0 27 -10 50.5 q-10 23.5 -27.5 41.5 q-17.5 18 -41 28 q-23.5 10 -50.5 10 q-26 0 -49.5 -10 q-23.5 -10 -41 -28 q-17.5 -18 -28 -41.5 q-10.5 -23.5 -10.5 -50.5 q0 -27 10.5 -50.5 q10.5 -23.5 28 -41 q17.5 -17.5 41 -27.5 q23.5 -10 49.5 -10 q27 0 50.5 10 q23.5 10 41 27.5 q17.5 17.5 27.5 41 q10 23.5 10 50.5 ZM827 496 q0 43 -4 90.5 q-4 47.5 -13.5 93.5 q-9.5 46 -26.5 87 q-17 41 -42.5 72 q-25.5 31 -60.5 49.5 q-35 18.5 -82 18.5 q-69 0 -113 -38 q-44 -38 -68.5 -97.5 q-24.5 -59.5 -34 -130.5 q-9.5 -71 -9.5 -137 q0 -32 1.5 -65 q1.5 -33 6.5 -66 q35 55 92.5 88.5 q57.5 33.5 126.5 33.5 q69 0 127 -33 q58 -33 93 -88 q4 31 5.5 61.5 q1.5 30.5 1.5 60.5 ZM1133 494 q0 -115 -36.5 -210.5 q-36.5 -95.5 -106.5 -164 q-70 -68.5 -170.5 -106.5 q-100.5 -38 -227.5 -38 q-117 0 -213.5 36 q-96.5 36 -166 103 q-69.5 67 -108 163.5 q-38.5 96.5 -38.5 218.5 q0 126 40 224 q40 98 111.5 165.5 q71.5 67.5 170.5 103 q99 35.5 218 35.5 q127 0 225 -39 q98 -39 165 -109.5 q67 -70.5 102 -167.5 q35 -97 35 -214 Z"/><glyph glyph-name="uni2184" unicode="" d="M66 248 q10 -8 38.5 -24.5 q28.5 -16.5 68 -33.5 q39.5 -17 86.5 -30 q47 -13 94 -13 q72 0 130 27.5 q58 27.5 98 78.5 q40 51 61.5 123.5 q21.5 72.5 21.5 162.5 q0 95 -23 166.5 q-23 71.5 -60 119 q-37 47.5 -83.5 71.5 q-46.5 24 -93.5 24 q-11 0 -18.5 -1 q-7.5 -1 -20.5 -1 l0 -230 q-11 -7 -21.5 -14.5 q-10.5 -7.5 -25.5 -14 q-15 -6.5 -36.5 -10.5 q-21.5 -4 -53.5 -4 q-28 0 -54 11 q-26 11 -46.5 31.5 q-20.5 20.5 -32.5 48.5 q-12 28 -12 63 q0 49 25 90.5 q25 41.5 71.5 71.5 q46.5 30 111.5 46.5 q65 16.5 146 16.5 q110 0 206 -39.5 q96 -39.5 167.5 -111.5 q71.5 -72 113 -172.5 q41.5 -100.5 41.5 -221.5 q0 -101 -32.5 -192 q-32.5 -91 -95.5 -160.5 q-63 -69.5 -155 -110.5 q-92 -41 -212 -41 q-78 0 -141 13.5 q-63 13.5 -112.5 32.5 q-49.5 19 -87 38 q-37.5 19 -63.5 31 l0 158 Z"/><glyph glyph-name="uniA73F" unicode="" d="M66 248 q10 -8 38.5 -24.5 q28.5 -16.5 68 -33.5 q39.5 -17 86.5 -30 q47 -13 94 -13 q72 0 130 27.5 q58 27.5 98 78.5 q40 51 61.5 123.5 q21.5 72.5 21.5 162.5 q0 95 -23 166.5 q-23 71.5 -60 119 q-37 47.5 -83.5 71.5 q-46.5 24 -93.5 24 q-11 0 -18.5 -1 q-7.5 -1 -20.5 -1 l0 -230 q-11 -7 -21.5 -14.5 q-10.5 -7.5 -25.5 -14 q-15 -6.5 -36.5 -10.5 q-21.5 -4 -53.5 -4 q-28 0 -54 11 q-26 11 -46.5 31.5 q-20.5 20.5 -32.5 48.5 q-12 28 -12 63 q0 49 25 90.5 q25 41.5 71.5 71.5 q46.5 30 111.5 46.5 q65 16.5 146 16.5 q110 0 206 -39.5 q96 -39.5 167.5 -111.5 q71.5 -72 113 -172.5 q41.5 -100.5 41.5 -221.5 q0 -101 -32.5 -192 q-32.5 -91 -95.5 -160.5 q-63 -69.5 -155 -110.5 q-92 -41 -212 -41 q-78 0 -141 13.5 q-63 13.5 -112.5 32.5 q-49.5 19 -87 38 q-37.5 19 -63.5 31 l0 158 ZM553 506 q0 -25 -9.5 -47 q-9.5 -22 -25.5 -38.5 q-16 -16.5 -38 -26 q-22 -9.5 -47 -9.5 q-26 0 -48 9.5 q-22 9.5 -38 26 q-16 16.5 -25.5 38.5 q-9.5 22 -9.5 47 q0 25 9.5 47.5 q9.5 22.5 25.5 38.5 q16 16 38 25.5 q22 9.5 48 9.5 q25 0 47 -9.5 q22 -9.5 38 -25.5 q16 -16 25.5 -38.5 q9.5 -22.5 9.5 -47.5 Z"/><glyph glyph-name="uni1D12" unicode="" d="M572 979 q120 0 220 -41.5 q100 -41.5 172 -113.5 q72 -72 111.5 -168.5 q39.5 -96.5 39.5 -205.5 q0 -81 -17 -147 q-17 -66 -47 -112.5 q-30 -46.5 -71.5 -71.5 q-41.5 -25 -90.5 -25 q-35 0 -62.5 12.5 q-27.5 12.5 -47.5 33 q-20 20.5 -30.5 47 q-10.5 26.5 -10.5 54.5 q0 31 3.5 52.5 q3.5 21.5 9.5 36.5 q6 15 13.5 26.5 q7.5 11.5 16.5 22.5 l227 0 q2 12 2 19 l0 19 q0 47 -24 93.5 q-24 46.5 -71.5 84 q-47.5 37.5 -119 60.5 q-71.5 23 -166.5 23 q-90 0 -162 -22 q-72 -22 -123 -62.5 q-51 -40.5 -78.5 -98 q-27.5 -57.5 -27.5 -129.5 q0 -48 13 -95 q13 -47 29.5 -86.5 q16.5 -39.5 33 -67.5 q16.5 -28 24.5 -37 l-155 0 q-12 25 -32 62 q-20 37 -39 86.5 q-19 49.5 -32.5 112.5 q-13.5 63 -13.5 140 q0 120 41 213 q41 93 110.5 156.5 q69.5 63.5 161.5 96 q92 32.5 193 32.5 Z"/><glyph glyph-name="uni0454" unicode="" d="M952 35 q-49 -17 -104 -30 q-47 -11 -106 -20.5 q-59 -9.5 -121 -9.5 q-99 0 -178 21.5 q-79 21.5 -141 58.5 q-62 37 -106.5 87.5 q-44.5 50.5 -73 108.5 q-28.5 58 -42.5 121.5 q-14 63.5 -14 125.5 q0 108 35.5 203.5 q35.5 95.5 105 167.5 q69.5 72 173.5 113.5 q104 41.5 241 41.5 q42 0 81.5 -3.5 q39.5 -3.5 79.5 -11 q40 -7.5 82 -18 q42 -10.5 88 -24.5 l0 -244 l-145 0 l-23 131 q-2 12 -8 21 q-6 9 -12 12 q-8 4 -23.5 9 q-15.5 5 -35 10 q-19.5 5 -41 8.5 q-21.5 3.5 -41.5 3.5 q-52 0 -98.5 -20.5 q-46.5 -20.5 -82.5 -63.5 q-36 -43 -59 -110 q-23 -67 -29 -161 l379 0 l0 -117 l-379 0 q13 -190 84.5 -276 q71.5 -86 194.5 -86 q18 0 38 1.5 q20 1.5 37.5 3.5 q17.5 2 29.5 4 q12 2 14 3 q19 10 22 27 l37 162 l141 0 l0 -250 Z"/><glyph glyph-name="uni044D" unicode="" d="M952 498 q0 -63 -13.5 -126 q-13.5 -63 -42.5 -121 q-29 -58 -73.5 -108.5 q-44.5 -50.5 -106.5 -87.5 q-62 -37 -141.5 -58.5 q-79.5 -21.5 -177.5 -21.5 q-63 0 -122 9.5 q-59 9.5 -106 20.5 q-55 13 -103 30 l0 250 l143 0 l35 -162 q3 -17 22 -27 q1 -1 13.5 -3 q12.5 -2 30 -4 q17.5 -2 37.5 -3.5 q20 -1.5 38 -1.5 q123 0 194.5 86 q71.5 86 84.5 276 l-379 0 l0 117 l379 0 q-6 94 -29.5 161 q-23.5 67 -59.5 110 q-36 43 -82.5 63.5 q-46.5 20.5 -97.5 20.5 q-20 0 -41.5 -3.5 q-21.5 -3.5 -41 -8.5 q-19.5 -5 -35.5 -10 q-16 -5 -23 -9 q-6 -3 -12.5 -12 q-6.5 -9 -8.5 -21 l-22 -131 l-145 0 l0 244 q46 14 88 24.5 q42 10.5 82 18 q40 7.5 79.5 11 q39.5 3.5 81.5 3.5 q137 0 241 -41.5 q104 -41.5 173.5 -113.5 q69.5 -72 105 -167.5 q35.5 -95.5 35.5 -203.5 Z"/><glyph glyph-name="uni0421" unicode="" d="M1229 49 q-19 -8 -59.5 -21.5 q-40.5 -13.5 -97.5 -27 q-57 -13.5 -127.5 -23.5 q-70.5 -10 -149.5 -10 q-105 0 -199 24 q-94 24 -174 69 q-80 45 -144 109 q-64 64 -109 144.5 q-45 80.5 -69 175 q-24 94.5 -24 199.5 q0 160 55.5 292 q55.5 132 152.5 227 q97 95 229 147.5 q132 52.5 284 52.5 q58 0 106 -5 q48 -5 96.5 -15.5 q48.5 -10.5 103 -26.5 q54.5 -16 126.5 -39 l0 -348 l-160 0 l-45 229 q0 5 -8 16.5 q-8 11.5 -19 16.5 q-8 4 -24.5 9.5 q-16.5 5.5 -37 10.5 q-20.5 5 -42.5 9 q-22 4 -41 4 q-105 0 -189.5 -41.5 q-84.5 -41.5 -143.5 -118 q-59 -76.5 -90.5 -184 q-31.5 -107.5 -31.5 -240.5 q0 -72 11 -143 q11 -71 34.5 -136 q23.5 -65 61 -120.5 q37.5 -55.5 89.5 -96.5 q52 -41 120.5 -64.5 q68.5 -23.5 154.5 -23.5 q38 0 70 9.5 q32 9.5 49 17.5 q8 3 20 16.5 q12 13.5 15 22.5 l45 242 l162 0 l0 -359 Z"/><glyph glyph-name="uni1D04" unicode="" d="M987 39 q-18 -7 -51.5 -18 q-33.5 -11 -79 -21 q-45.5 -10 -101 -17.5 q-55.5 -7.5 -118.5 -7.5 q-125 0 -230 39 q-105 39 -181 108.5 q-76 69.5 -118 166 q-42 96.5 -42 211.5 q0 117 44 213.5 q44 96.5 121.5 165.5 q77.5 69 182 107 q104.5 38 225.5 38 q47 0 85 -3.5 q38 -3.5 77 -11.5 q39 -8 83 -20.5 q44 -12.5 103 -30.5 l0 -268 l-143 0 l-37 174 q-2 10 -20 17 q-18 7 -39.5 11.5 q-21.5 4.5 -41 6.5 q-19.5 2 -24.5 2 q-78 0 -141.5 -28 q-63.5 -28 -108 -80.5 q-44.5 -52.5 -68.5 -127 q-24 -74.5 -24 -167.5 q0 -75 19 -148 q19 -73 61 -130.5 q42 -57.5 109.5 -92.5 q67.5 -35 164.5 -35 q28 0 53 7 q25 7 37 12 q3 2 11 9.5 q8 7.5 10 10.5 l37 182 l145 0 l0 -274 Z"/><glyph glyph-name="uni1E08" unicode="" d="M996 -268 q0 -50 -19 -88 q-19 -38 -52.5 -64 q-33.5 -26 -80 -39.5 q-46.5 -13.5 -100.5 -13.5 q-32 0 -62 3 q-30 3 -53 8 q-27 4 -51 11 l0 103 q23 -5 46 -9 q20 -3 42 -5.5 q22 -2.5 41 -2.5 q20 0 41.5 3 q21.5 3 39 10.5 q17.5 7.5 29 21.5 q11.5 14 11.5 35 q0 18 -7.5 31.5 q-7.5 13.5 -20 22 q-12.5 8.5 -28.5 12.5 q-16 4 -34 4 q-6 0 -13.5 -0.5 q-7.5 -0.5 -14.5 -1.5 q-8 -1 -17 -2 l0 202 q-50 6 -97 18 q-94 24 -174 69 q-80 45 -144 109 q-64 64 -109 144.5 q-45 80.5 -69 175 q-24 94.5 -24 199.5 q0 160 55.5 292 q55.5 132 152.5 227 q97 95 229 147.5 q132 52.5 284 52.5 q58 0 106 -5 q48 -5 96.5 -15.5 q48.5 -10.5 103 -26.5 q54.5 -16 126.5 -39 l0 -348 l-160 0 l-45 229 q0 5 -8 16.5 q-8 11.5 -19 16.5 q-8 4 -24.5 9.5 q-16.5 5.5 -37 10.5 q-20.5 5 -42.5 9 q-22 4 -41 4 q-105 0 -189.5 -41.5 q-84.5 -41.5 -143.5 -118 q-59 -76.5 -90.5 -184 q-31.5 -107.5 -31.5 -240.5 q0 -72 11 -143 q11 -71 34.5 -136 q23.5 -65 61 -120.5 q37.5 -55.5 89.5 -96.5 q52 -41 120.5 -64.5 q68.5 -23.5 154.5 -23.5 q38 0 70 9.5 q32 9.5 49 17.5 q8 3 20 16.5 q12 13.5 15 22.5 l45 242 l162 0 l0 -359 q-19 -8 -59.5 -21.5 q-40.5 -13.5 -97.5 -27 q-57 -13.5 -127.5 -23.5 q-70.5 -10 -149.5 -10 l0 -78 q3 -1 7 -1 q5 -1 22 -1 q35 0 66.5 -9 q31.5 -9 55 -28 q23.5 -19 37 -48.5 q13.5 -29.5 13.5 -69.5 ZM1093 1795 q0 -10 -4.5 -22.5 q-4.5 -12.5 -11.5 -24.5 q-7 -12 -17 -22.5 q-10 -10.5 -20 -16.5 l-332 -181 l-143 0 l280 310 q18 19 32.5 31.5 q14.5 12.5 29 20 q14.5 7.5 30.5 10.5 q16 3 37 3 q33 0 55.5 -10 q22.5 -10 37 -25.5 q14.5 -15.5 20.5 -35 q6 -19.5 6 -37.5 Z"/><glyph glyph-name="uni04AA" unicode="" d="M1229 49 q-19 -8 -59.5 -21.5 q-40.5 -13.5 -97.5 -27 q-57 -13.5 -128 -23.5 q-59 -8 -123 -10 l7 -6 q29 -25 54.5 -57.5 q25.5 -32.5 42.5 -72.5 q17 -40 17 -85 q0 -41 -17.5 -72.5 q-17.5 -31.5 -48 -54 q-30.5 -22.5 -72 -34 q-41.5 -11.5 -89.5 -11.5 q-23 0 -56.5 10 q-33.5 10 -64.5 22 q-36 14 -74 32 l64 106 q4 -3 15 -11.5 q11 -8.5 24.5 -17 q13.5 -8.5 27 -15.5 q13.5 -7 23.5 -7 q51 0 76.5 30.5 q25.5 30.5 25.5 75.5 q0 60 -36 110 q-25 35 -59 66 q-44 6 -85 16 q-94 24 -174 69 q-80 45 -144 109 q-64 64 -109 144.5 q-45 80.5 -69 175 q-24 94.5 -24 199.5 q0 160 55.5 292 q55.5 132 152.5 227 q97 95 229 147.5 q132 52.5 284 52.5 q58 0 106 -5 q48 -5 96.5 -15.5 q48.5 -10.5 103 -26.5 q54.5 -16 126.5 -39 l0 -348 l-160 0 l-45 229 q0 5 -8 16.5 q-8 11.5 -19 16.5 q-8 4 -24.5 9.5 q-16.5 5.5 -37 10.5 q-20.5 5 -42.5 9 q-22 4 -41 4 q-105 0 -189.5 -41.5 q-84.5 -41.5 -143.5 -118 q-59 -76.5 -90.5 -184 q-31.5 -107.5 -31.5 -240.5 q0 -72 11 -143 q11 -71 34.5 -136 q23.5 -65 61 -120.5 q37.5 -55.5 89.5 -96.5 q52 -41 120.5 -64.5 q68.5 -23.5 154.5 -23.5 q38 0 70 9.5 q32 9.5 49 17.5 q8 3 20 16.5 q12 13.5 15 22.5 l45 242 l162 0 l0 -359 Z"/><glyph glyph-name="uniA792" unicode="" d="M0 786 l95 0 q17 139 78.5 253.5 q61.5 114.5 156.5 196.5 q95 82 218 126.5 q123 44.5 263 44.5 q58 0 106 -5 q48 -5 96.5 -15.5 q48.5 -10.5 103 -26.5 q54.5 -16 126.5 -39 l0 -348 l-160 0 l-45 229 q0 5 -8 16.5 q-8 11.5 -19 16.5 q-8 4 -24.5 9.5 q-16.5 5.5 -37 10.5 q-20.5 5 -42.5 9 q-22 4 -41 4 q-95 0 -173 -34 q-78 -34 -135.5 -96.5 q-57.5 -62.5 -94 -151.5 q-36.5 -89 -47.5 -200 l276 0 l0 -133 l-281 0 q2 -69 15 -137 q13 -68 37.5 -129.5 q24.5 -61.5 62 -114 q37.5 -52.5 89 -91 q51.5 -38.5 118 -60 q66.5 -21.5 149.5 -21.5 q38 0 70 9.5 q32 9.5 49 17.5 q8 3 20 16.5 q12 13.5 15 22.5 l45 242 l162 0 l0 -359 q-19 -8 -59.5 -21.5 q-40.5 -13.5 -97.5 -27 q-57 -13.5 -127.5 -23.5 q-70.5 -10 -149.5 -10 q-153 0 -282.5 50.5 q-129.5 50.5 -224.5 141 q-95 90.5 -150.5 216.5 q-55.5 126 -61.5 278 l-90 0 l0 133 Z"/><glyph glyph-name="uni023B" unicode="" d="M1229 49 q-19 -8 -59.5 -21.5 q-40.5 -13.5 -97.5 -27 q-57 -13.5 -127.5 -23.5 q-70.5 -10 -149.5 -10 q-105 0 -199 24 q-94 24 -174 69 q-22 12 -43 26 l-151 -264 l-104 61 l160 280 l-6 6 q-64 64 -109 144.5 q-45 80.5 -69 175 q-24 94.5 -24 199.5 q0 160 55.5 292 q55.5 132 152.5 227 q97 95 229 147.5 q132 52.5 284 52.5 q58 0 106 -5 q40 -4 81 -13 l82 143 l106 -59 l-65 -114 q53 -16 122 -38 l0 -348 l-160 0 l-45 229 q0 3 -3 7 l-524 -916 l6 -9 q38 -55 90 -96 q52 -41 120.5 -64.5 q68.5 -23.5 154.5 -23.5 q38 0 70 9.5 q32 9.5 49 17.5 q8 3 20 16.5 q12 13.5 15 22.5 l45 242 l162 0 l0 -359 ZM893 1264 q-22 4 -41 4 q-105 0 -189.5 -41.5 q-84.5 -41.5 -143.5 -118 q-59 -76.5 -90.5 -184 q-31.5 -107.5 -31.5 -240.5 q0 -72 11 -143 q9 -59 26 -114 l476 833 q-8 2 -17 4 Z"/><glyph glyph-name="uni0187" unicode="" d="M1642 1577 q0 -28 -8 -53 q-8 -25 -21.5 -46 q-13.5 -21 -31.5 -36 q-18 -15 -39 -23 l-215 199 q-20 -8 -37.5 -27 q-17.5 -19 -31 -47.5 q-13.5 -28.5 -21.5 -65 q-8 -36.5 -8 -79.5 l0 -426 l-160 0 l-45 229 q0 5 -8 16.5 q-8 11.5 -19 16.5 q-8 4 -24.5 9.5 q-16.5 5.5 -37 10.5 q-20.5 5 -42.5 9 q-22 4 -41 4 q-105 0 -189.5 -41.5 q-84.5 -41.5 -143.5 -118 q-59 -76.5 -90.5 -184 q-31.5 -107.5 -31.5 -240.5 q0 -72 11 -143 q11 -71 34.5 -136 q23.5 -65 61 -120.5 q37.5 -55.5 89.5 -96.5 q52 -41 120.5 -64.5 q68.5 -23.5 154.5 -23.5 q38 0 70 9.5 q32 9.5 49 17.5 q8 3 20 16.5 q12 13.5 15 22.5 l45 242 l162 0 l0 -359 q-19 -8 -59.5 -21.5 q-40.5 -13.5 -97.5 -27 q-57 -13.5 -127.5 -23.5 q-70.5 -10 -149.5 -10 q-105 0 -199 24 q-94 24 -174 69 q-80 45 -144 109 q-64 64 -109 144.5 q-45 80.5 -69 175 q-24 94.5 -24 199.5 q0 160 55.5 292 q55.5 132 152.5 227 q97 95 229 147.5 q132 52.5 284 52.5 q66 0 119 -6.5 q53 -6.5 110 -20.5 q0 87 33.5 154.5 q33.5 67.5 90 114 q56.5 46.5 131 70.5 q74.5 24 155.5 24 q30 0 66 -15.5 q36 -15.5 67 -39.5 q31 -24 52 -53.5 q21 -29.5 21 -57.5 Z"/><glyph glyph-name="Euro" unicode="" d="M435 517 q14 -84 43.5 -159.5 q29.5 -75.5 76.5 -133 q47 -57.5 113.5 -91 q66.5 -33.5 154.5 -33.5 q32 0 59.5 9.5 q27.5 9.5 41.5 17.5 q6 3 16.5 16.5 q10.5 13.5 13.5 22.5 l38 242 l138 0 l0 -359 q-17 -8 -51.5 -21.5 q-34.5 -13.5 -82.5 -27 q-48 -13.5 -108 -23.5 q-60 -10 -127 -10 q-114 0 -213 40 q-99 40 -176.5 112 q-77.5 72 -130.5 173.5 q-53 101.5 -76 224.5 l-175 0 l30 125 l131 0 q-1 13 -1 25 l0 55 l-160 0 l30 125 l142 0 q21 127 75 230.5 q54 103.5 133 177 q79 73.5 179 113 q100 39.5 213 39.5 q49 0 90 -5 q41 -5 82.5 -15.5 q41.5 -10.5 88 -26.5 q46.5 -16 107.5 -39 l0 -348 l-136 0 l-39 229 q0 5 -6.5 16.5 q-6.5 11.5 -16.5 16.5 q-7 4 -21 9.5 q-14 5.5 -31 10.5 q-17 5 -36 9 q-19 4 -35 4 q-75 0 -138 -29 q-63 -29 -111 -83.5 q-48 -54.5 -80.5 -132.5 q-32.5 -78 -46.5 -176 l393 0 l-30 -125 l-374 0 l0 -57 q0 -12 1 -23 l355 0 l-30 -125 l-313 0 Z"/><glyph glyph-name="colonmonetary" unicode="" d="M516 243 q29 -34 68 -60 l285 1036 q-17 6 -38 12.5 q-21 6.5 -42 8.5 l-273 -997 ZM383 684 q0 -82 13.5 -162.5 q13.5 -80.5 42.5 -151.5 l237 858 q-69 -19 -123 -65.5 q-54 -46.5 -92 -116.5 q-38 -70 -58 -161.5 q-20 -91.5 -20 -200.5 ZM1007 1320 q19 -6 40 -13.5 q21 -7.5 44 -15.5 l0 -332 l-136 0 l-19 104 l-253 -925 q46 -12 101 -12 q32 0 59.5 9.5 q27.5 9.5 41.5 16.5 q6 3 16.5 16 q10.5 13 13.5 21 l38 231 l138 0 l0 -342 q-17 -7 -51.5 -20 q-34.5 -13 -82.5 -26 q-48 -13 -108 -22.5 q-60 -9.5 -127 -9.5 q-20 0 -38.5 1 q-18.5 1 -36.5 3 l-58 -213 l-113 0 l65 236 q-20 6 -39 13 q-19 7 -37 16 l-72 -265 l-113 0 l89 323 q-121 90 -189.5 237 q-68.5 147 -68.5 336 q0 151 46.5 277 q46.5 126 128 216.5 q81.5 90.5 192 141 q110.5 50.5 238.5 52.5 l41 148 l109 0 l-42 -155 q20 -2 40.5 -6.5 q20.5 -4.5 41.5 -9.5 l47 171 l109 0 l-55 -202 Z"/><glyph glyph-name="uni20A0" unicode="" d="M428 0 l0 91 l81 8 q19 3 19 20 l0 311 q-102 3 -187.5 38.5 q-85.5 35.5 -147 97.5 q-61.5 62 -96 149 q-34.5 87 -34.5 194 q0 111 37.5 202.5 q37.5 91.5 103 157 q65.5 65.5 154.5 102 q89 36.5 192 36.5 q40 0 72.5 -3.5 q32.5 -3.5 65.5 -11 q33 -7.5 70.5 -19.5 q37.5 -12 87.5 -29 l0 -255 l-122 0 l-31 166 q-2 9 -17 16 q-15 7 -33.5 11 q-18.5 4 -35 6 q-16.5 2 -20.5 2 q-67 0 -120.5 -27 q-53.5 -27 -91.5 -76.5 q-38 -49.5 -58.5 -120.5 q-20.5 -71 -20.5 -159 q0 -64 12.5 -123.5 q12.5 -59.5 40.5 -107.5 q28 -48 72 -82 q44 -34 107 -47 l0 283 q0 17 -19 20 l-81 8 l0 91 l670 0 l0 -243 l-108 0 l-21 124 q-3 16 -15 16 l-228 0 l0 -302 l143 0 q7 0 12 17 q5 17 8 38 q3 21 4 40 q1 19 2 24 l95 0 l0 -346 l-95 0 q-1 3 -2 22 q-1 19 -4 40.5 q-3 21.5 -7.5 39 q-4.5 17.5 -12.5 17.5 l-143 0 l0 -332 l269 0 q2 0 7.5 6 q5.5 6 5.5 11 l21 154 l110 0 l0 -275 l-711 0 Z"/><glyph glyph-name="uni20A2" unicode="" d="M978 508 q-5 7 -12.5 17 q-7.5 10 -18.5 19 q-11 9 -26.5 15.5 q-15.5 6.5 -36.5 6.5 q-20 0 -37.5 -4 q-17.5 -4 -29.5 -9 q-15 -6 -26 -13 l0 -402 q0 -13 9 -23 q9 -10 23 -10 l2 0 q19 5 34 11 q15 6 25 11 q6 3 16.5 16.5 q10.5 13.5 13.5 22.5 l38 192 l138 0 l0 -309 q-17 -8 -51.5 -21.5 q-34.5 -13.5 -82.5 -27 q-48 -13.5 -108 -23.5 q-60 -10 -127 -10 q-134 0 -246 53.5 q-112 53.5 -193 149 q-81 95.5 -126.5 228 q-45.5 132.5 -45.5 290.5 q0 160 47 292 q47 132 129.5 227 q82.5 95 194.5 147.5 q112 52.5 241 52.5 q49 0 90 -5 q41 -5 82.5 -15.5 q41.5 -10.5 88 -26.5 q46.5 -16 107.5 -39 l0 -348 l-136 0 l-39 229 q0 5 -6.5 16.5 q-6.5 11.5 -16.5 16.5 q-7 4 -21 9.5 q-14 5.5 -31 10.5 q-17 5 -36 9 q-19 4 -35 4 q-90 0 -161.5 -41.5 q-71.5 -41.5 -121.5 -118 q-50 -76.5 -77 -184 q-27 -107.5 -27 -240.5 q0 -77 10.5 -153 q10.5 -76 33.5 -144.5 q23 -68.5 59.5 -125 q36.5 -56.5 88.5 -95.5 q25 7 25 32 l0 422 l-104 0 l0 59 l221 73 l75 0 l0 -152 q13 17 36 43 q23 26 49.5 50 q26.5 24 55 41.5 q28.5 17.5 52.5 17.5 q25 0 51.5 -8 q26.5 -8 39.5 -18 l0 -218 l-97 0 Z"/><glyph glyph-name="uni20B5" unicode="" d="M383 684 q0 -84 14 -167 q14 -83 45.5 -154.5 q31.5 -71.5 80.5 -127 q49 -55.5 120 -83.5 l0 1065 q-62 -24 -110 -72.5 q-48 -48.5 -81.5 -116.5 q-33.5 -68 -51 -155 q-17.5 -87 -17.5 -189 ZM643 -206 l0 210 q-118 15 -216 71 q-98 56 -168 145.5 q-70 89.5 -109 208 q-39 118.5 -39 258.5 q0 141 40 259.5 q40 118.5 111 207.5 q71 89 168.5 144.5 q97.5 55.5 212.5 70.5 l0 151 l124 0 l0 -147 q40 -2 75 -8 q35 -6 72.5 -16 q37.5 -10 80 -24.5 q42.5 -14.5 96.5 -33.5 l0 -332 l-136 0 l-39 219 q0 4 -6.5 15 q-6.5 11 -16.5 16 q-7 4 -21 9.5 q-14 5.5 -31 10.5 q-17 5 -36 8.5 q-19 3.5 -35 3.5 l-3 0 l0 -1115 l17 0 q32 0 59.5 9.5 q27.5 9.5 41.5 16.5 q6 3 16.5 16 q10.5 13 13.5 21 l38 231 l138 0 l0 -342 q-15 -7 -45.5 -18.5 q-30.5 -11.5 -72.5 -23.5 q-42 -12 -94.5 -22 q-52.5 -10 -111.5 -13 l0 -207 l-124 0 Z"/><glyph glyph-name="uni2185" unicode="" d="M1019 -469 l0 458 q-50 -9 -106 -15.5 q-56 -6.5 -118 -6.5 q-105 0 -199 24 q-94 24 -174 69 q-80 45 -144 109 q-64 64 -109 144.5 q-45 80.5 -69 175 q-24 94.5 -24 199.5 q0 160 55.5 292 q55.5 132 152.5 227 q97 95 229 147.5 q132 52.5 284 52.5 q58 0 106 -5 q48 -5 96.5 -15.5 q48.5 -10.5 103 -26.5 q54.5 -16 126.5 -39 l0 -348 l-160 0 l-45 229 q0 5 -8 16.5 q-8 11.5 -19 16.5 q-8 4 -24.5 9.5 q-16.5 5.5 -37 10.5 q-20.5 5 -42.5 9 q-22 4 -41 4 q-105 0 -189.5 -41.5 q-84.5 -41.5 -143.5 -118 q-59 -76.5 -90.5 -184 q-31.5 -107.5 -31.5 -240.5 q0 -72 11 -143 q11 -71 34.5 -136 q23.5 -65 61 -120.5 q37.5 -55.5 89.5 -96.5 q52 -41 120.5 -64.5 q68.5 -23.5 154.5 -23.5 q38 0 70 9.5 q32 9.5 49 17.5 q8 3 20 16.5 q12 13.5 15 22.5 l45 242 l162 0 l0 -807 l-210 -70 Z"/><glyph glyph-name="uni212D" unicode="" d="M595 368 q4 10 7.5 24 q3.5 14 4.5 30 q1 16 -2.5 34.5 q-3.5 18.5 -13.5 38.5 l-236 460 q-34 -37 -55 -64.5 q-21 -27.5 -33 -59 q-12 -31.5 -16 -73.5 q-4 -42 -4 -107 q0 -64 16.5 -125.5 q16.5 -61.5 52.5 -115.5 q36 -54 91.5 -96.5 q55.5 -42.5 133.5 -68.5 l54 123 ZM1249 283 l-169 -272 q-53 -11 -107 -19 q-46 -7 -99.5 -12.5 q-53.5 -5.5 -99.5 -5.5 q-134 0 -237 29.5 q-103 29.5 -180 78.5 q-77 49 -130 111 q-53 62 -85.5 127 q-32.5 65 -47 127 q-14.5 62 -14.5 111 q0 71 15 134 q15 63 42 118.5 q27 55.5 64.5 104.5 q37.5 49 82.5 91 l326 301 l586 0 l24 -61 l-162 -173 l-476 0 l190 -361 q18 -35 26.5 -60.5 q8.5 -25.5 8.5 -48 q0 -22.5 -7.5 -44.5 q-7.5 -22 -20.5 -50 l-128 -287 q46 -6 102 -6 q80 0 134.5 8.5 q54.5 8.5 95.5 24.5 q41 16 74.5 39.5 q33.5 23.5 72.5 54.5 l119 -60 Z"/><glyph glyph-name="uni2C88" unicode="" d="M1399 452 q-10 -92 -52.5 -178.5 q-42.5 -86.5 -120.5 -153 q-78 -66.5 -194 -106.5 q-116 -40 -274 -40 q-85 0 -168 18.5 q-83 18.5 -158.5 55 q-75.5 36.5 -139.5 91.5 q-64 55 -111.5 127.5 q-47.5 72.5 -74 163 q-26.5 90.5 -26.5 197.5 q0 138 33 243.5 q33 105.5 89 182.5 q56 77 128.5 129.5 q72.5 52.5 151.5 83.5 q79 31 159 44.5 q80 13.5 150 13.5 q65 0 133.5 -16 q68.5 -16 134 -44.5 q65.5 -28.5 124.5 -69 q59 -40.5 105 -88.5 q46 -48 75.5 -102.5 q29.5 -54.5 35.5 -112.5 l-287 0 q-4 29 -17 66 q-13 37 -32.5 75 q-19.5 38 -46.5 74.5 q-27 36.5 -59.5 65 q-32.5 28.5 -70 46 q-37.5 17.5 -79.5 17.5 q-61 0 -124 -26.5 q-63 -26.5 -115.5 -86 q-52.5 -59.5 -89 -154 q-36.5 -94.5 -43.5 -230.5 l638 0 q83 0 144 -10 q61 -10 101.5 -27 q40.5 -17 60.5 -39.5 q20 -22.5 20 -47.5 q0 -35 -17.5 -52 q-17.5 -17 -35.5 -17 l-97 0 q-31 0 -72 21 q-41 21 -98 46.5 q-57 25.5 -134.5 46.5 q-77.5 21 -182.5 21 l-329 0 l0 -2 q0 -164 28.5 -281 q28.5 -117 76.5 -191 q48 -74 111.5 -108.5 q63.5 -34.5 133.5 -34.5 q78 0 135 37 q57 37 96.5 94 q39.5 57 63 125.5 q23.5 68.5 34.5 130.5 l287 2 Z"/></font>
</defs>
</svg>
