<?xml version="1.0" encoding="UTF-8" standalone="no"?>
<!DOCTYPE svg PUBLIC "-//W3C//DTD SVG 1.1//EN" "http://www.w3.org/Graphics/SVG/1.1/DTD/svg11.dtd">
<svg xmlns="http://www.w3.org/2000/svg"><metadata/><defs><font id="SILInternational: Charis SIL: 2014" horiz-adv-x="6144"><font-face font-family="Charis SIL" font-weight="400" font-stretch="normal" units-per-em="2048" panose-1="2 0 5 0 6 0 0 2 0 4" ascent="2450" descent="-900" x-height="4" bbox="-1418 -1092 6144 2600" underline-thickness="120" underline-position="-290" unicode-range="U+0020-fffd"/><missing-glyph horiz-adv-x="1400" d="M150 50 l1100 0 l0 1700 l-1100 0 l0 -1700 ZM100 1800 l1200 0 l0 -1800 l-1200 0 l0 1800 Z"/><glyph glyph-name="space" unicode=" " d=""/><glyph glyph-name="exclam" unicode="!" d="M473 102 q0 -25 -10 -48 q-10 -23 -27.5 -40.5 q-17.5 -17.5 -40.5 -28 q-23 -10.5 -49 -10.5 q-26 0 -49 10.5 q-23 10.5 -40 28 q-17 17.5 -26.5 40.5 q-9.5 23 -9.5 48 q0 26 9.5 49 q9.5 23 26.5 40 q17 17 40 26.5 q23 9.5 49 9.5 q26 0 49 -9.5 q23 -9.5 40.5 -26.5 q17.5 -17 27.5 -40 q10 -23 10 -49 ZM471 1274 q0 -6 -3.5 -48.5 q-3.5 -42.5 -8.5 -107 q-5 -64.5 -11.5 -145 q-6.5 -80.5 -13.5 -163.5 q-17 -195 -37 -439 l-100 0 q-21 244 -38 439 q-7 83 -14 163.5 q-7 80.5 -12 145 q-5 64.5 -8.5 107 q-3.5 42.5 -3.5 48.5 q0 62 30 97.5 q30 35.5 95 35.5 q65 0 95 -35.5 q30 -35.5 30 -97.5 Z"/><glyph glyph-name="quotedbl" unicode="&quot;" d="M193 862 l-33 0 l-72 500 q0 48 23 74 q23 26 65 26 q43 0 64.5 -26 q21.5 -26 21.5 -74 l-69 -500 ZM522 862 l-33 0 l-69 500 q0 48 22 74 q22 26 64 26 q43 0 65.5 -26 q22.5 -26 22.5 -74 l-72 -500 Z"/><glyph glyph-name="numbersign" unicode="#" d="M664 862 l-101 -293 l297 0 l101 293 l-297 0 ZM1073 862 l-96 -293 l330 0 l0 -102 l-367 0 l-172 -514 l-102 33 l159 481 l-297 0 l-174 -514 l-100 35 l164 479 l-291 0 l0 102 l324 0 l100 293 l-332 0 l0 105 l367 0 l164 483 l104 -33 l-158 -450 l299 0 l162 483 l109 -33 l-156 -450 l287 0 l0 -105 l-324 0 Z"/><glyph glyph-name="dollar" unicode="$" d="M848 350 q0 56 -18 96 q-18 40 -49 68.5 q-31 28.5 -71 47 q-40 18.5 -83 32.5 l0 -485 q43 7 83 25 q40 18 71 47.5 q31 29.5 49 71.5 q18 42 18 97 ZM535 1266 q-41 -9 -76 -27.5 q-35 -18.5 -61 -47.5 q-26 -29 -41 -68.5 q-15 -39.5 -15 -90.5 q0 -50 18.5 -86 q18.5 -36 46.5 -61.5 q28 -25.5 62 -42.5 q34 -17 66 -29 l0 453 ZM1034 389 q0 -63 -21 -116 q-21 -53 -54.5 -95.5 q-33.5 -42.5 -77 -74.5 q-43.5 -32 -89 -54.5 q-45.5 -22.5 -88.5 -34.5 q-43 -12 -77 -14 l0 -211 l-95 0 l0 211 q-38 2 -88 5 q-50 3 -104.5 8.5 q-54.5 5.5 -111.5 15 q-57 9.5 -109 24.5 l0 348 l102 0 l37 -229 q14 -17 42.5 -30.5 q28.5 -13.5 66 -22.5 q37.5 -9 80.5 -14 q43 -5 85 -5 l0 518 q-67 15 -134.5 42.5 q-67.5 27.5 -122 71.5 q-54.5 44 -89 107.5 q-34.5 63.5 -34.5 151.5 q0 62 17 112.5 q17 50.5 46 90 q29 39.5 67.5 69.5 q38.5 30 81 51 q42.5 21 87 34.5 q44.5 13.5 84.5 19.5 l0 154 l94 0 l0 -148 q66 0 128.5 -7.5 q62.5 -7.5 111.5 -16.5 q57 -11 108 -23 l0 -323 l-107 0 l-30 217 q-48 53 -211 53 l0 -488 q44 -13 91.5 -28 q47.5 -15 92.5 -36 q45 -21 85 -49 q40 -28 70.5 -68 q30.5 -40 48 -93 q17.5 -53 17.5 -123 Z"/><glyph glyph-name="percent" unicode="%" d="M537 977 q0 81 -9 146 q-9 65 -27.5 110.5 q-18.5 45.5 -48 70.5 q-29.5 25 -71.5 25 q-42 0 -72.5 -25 q-30.5 -25 -50.5 -70.5 q-20 -45.5 -29.5 -110.5 q-9.5 -65 -9.5 -146 q0 -81 9.5 -146 q9.5 -65 29.5 -110.5 q20 -45.5 50.5 -70.5 q30.5 -25 72.5 -25 q42 0 71.5 25 q29.5 25 48 70.5 q18.5 45.5 27.5 110.5 q9 65 9 146 ZM1538 397 q0 81 -9 146 q-9 65 -27.5 111 q-18.5 46 -48 71 q-29.5 25 -71.5 25 q-41 0 -71.5 -25 q-30.5 -25 -50.5 -71 q-20 -46 -29.5 -111 q-9.5 -65 -9.5 -146 q0 -81 9.5 -146 q9.5 -65 29.5 -111.5 q20 -46.5 50.5 -71.5 q30.5 -25 71.5 -25 q42 0 71.5 25 q29.5 25 48 71.5 q18.5 46.5 27.5 111.5 q9 65 9 146 ZM694 977 q0 -92 -19 -170.5 q-19 -78.5 -58 -136 q-39 -57.5 -98 -90.5 q-59 -33 -138 -33 q-79 0 -138 33 q-59 33 -98.5 90.5 q-39.5 57.5 -59 136 q-19.5 78.5 -19.5 170.5 q0 91 19.5 170 q19.5 79 59 136.5 q39.5 57.5 98.5 90.5 q59 33 138 33 q79 0 138 -33 q59 -33 98 -90.5 q39 -57.5 58 -136.5 q19 -79 19 -170 ZM512 0 l-129 0 l870 1374 l127 0 l-868 -1374 ZM1696 397 q0 -91 -19.5 -169.5 q-19.5 -78.5 -58.5 -136.5 q-39 -58 -98 -91 q-59 -33 -138 -33 q-79 0 -138 33 q-59 33 -98.5 91 q-39.5 58 -59 136.5 q-19.5 78.5 -19.5 169.5 q0 91 19.5 170 q19.5 79 59 136.5 q39.5 57.5 98.5 90.5 q59 33 138 33 q79 0 138 -33 q59 -33 98 -90.5 q39 -57.5 58.5 -136.5 q19.5 -79 19.5 -170 Z"/><glyph glyph-name="ampersand" unicode="&amp;" d="M434 682 q-31 -21 -57.5 -46.5 q-26.5 -25.5 -46.5 -56 q-20 -30.5 -31.5 -68 q-11.5 -37.5 -11.5 -83.5 q0 -69 23 -127.5 q23 -58.5 63 -101 q40 -42.5 94.5 -66.5 q54.5 -24 116.5 -24 q47 0 85.5 9.5 q38.5 9.5 71 25.5 q32.5 16 61 36.5 q28.5 20.5 54.5 42.5 l-422 459 ZM743 1079 q0 44 -11.5 84 q-11.5 40 -35.5 70.5 q-24 30.5 -60 48.5 q-36 18 -85 18 q-42 0 -76 -15 q-34 -15 -58 -41 q-24 -26 -37 -61 q-13 -35 -13 -75 q0 -51 19.5 -95.5 q19.5 -44.5 48 -82 q28.5 -37.5 61.5 -69 q33 -31.5 61 -58.5 q45 22 79.5 48.5 q34.5 26.5 58 60 q23.5 33.5 36 75 q12.5 41.5 12.5 92.5 ZM1014 0 l0 49 l-92 103 q-40 -32 -83 -63.5 q-43 -31.5 -93 -56.5 q-50 -25 -109 -41 q-59 -16 -131 -16 q-88 0 -165.5 30.5 q-77.5 30.5 -135.5 84.5 q-58 54 -91.5 128.5 q-33.5 74.5 -33.5 162.5 q0 67 20 122.5 q20 55.5 56.5 100 q36.5 44.5 87 78.5 q50.5 34 110.5 59 q-17 17 -46 46.5 q-29 29.5 -57 69.5 q-28 40 -48.5 90 q-20.5 50 -20.5 108 q0 77 29.5 140.5 q29.5 63.5 82 109.5 q52.5 46 123.5 71 q71 25 154 25 q78 0 144 -23.5 q66 -23.5 114 -64.5 q48 -41 75.5 -97.5 q27.5 -56.5 27.5 -123.5 q0 -75 -26 -131 q-26 -56 -68.5 -98 q-42.5 -42 -96.5 -73.5 q-54 -31.5 -110 -56.5 l344 -371 q16 21 34.5 50 q18.5 29 35 61 q16.5 32 29 65.5 q12.5 33.5 16.5 63.5 q1 9 -10.5 23 q-11.5 14 -24.5 16 l-111 16 l0 86 l420 0 l0 -86 l-147 -22 q-15 -52 -35.5 -101 q-20.5 -49 -44 -93.5 q-23.5 -44.5 -48.5 -82.5 q-25 -38 -47 -69 l166 -191 l183 -10 l0 -88 l-377 0 Z"/><glyph glyph-name="quotesingle" unicode="'" d="M193 862 l-33 0 l-72 500 q0 48 22 74 q22 26 64 26 q43 0 65.5 -26 q22.5 -26 22.5 -74 l-69 -500 Z"/><glyph glyph-name="parenleft" unicode="(" d="M702 -291 q-107 12 -191.5 50.5 q-84.5 38.5 -149 99.5 q-64.5 61 -110.5 140.5 q-46 79.5 -74.5 173.5 q-28.5 94 -42 199.5 q-13.5 105.5 -13.5 217.5 q0 167 30.5 318.5 q30.5 151.5 99.5 270 q69 118.5 179.5 195 q110.5 76.5 271.5 94.5 l0 -90 q-108 -18 -182.5 -79.5 q-74.5 -61.5 -121 -162 q-46.5 -100.5 -67 -238.5 q-20.5 -138 -20.5 -308 q0 -171 20.5 -309 q20.5 -138 67 -239.5 q46.5 -101.5 121 -163 q74.5 -61.5 182.5 -79.5 l0 -90 Z"/><glyph glyph-name="parenright" unicode=")" d="M651 590 q0 -112 -13.5 -217.5 q-13.5 -105.5 -42 -199.5 q-28.5 -94 -74.5 -173.5 q-46 -79.5 -110.5 -140.5 q-64.5 -61 -149 -99.5 q-84.5 -38.5 -191.5 -50.5 l0 90 q108 18 182.5 79.5 q74.5 61.5 120 163 q45.5 101.5 66 239.5 q20.5 138 20.5 309 q0 170 -20.5 308 q-20.5 138 -66 238.5 q-45.5 100.5 -120 162 q-74.5 61.5 -182.5 79.5 l0 90 q160 -18 271 -94.5 q111 -76.5 180 -195 q69 -118.5 99.5 -270 q30.5 -151.5 30.5 -318.5 Z"/><glyph glyph-name="asterisk" unicode="*" d="M406 743 l-142 -53 l4 152 l207 166 l25 -19 l-94 -246 ZM467 1036 l-266 15 l-92 116 l145 43 l221 -145 l-8 -29 ZM618 743 l-94 246 l25 19 l207 -166 l4 -152 l-142 53 ZM526 1085 l-28 0 l-70 256 l84 125 l86 -125 l-72 -256 ZM823 1051 l-264 -15 l-10 29 l221 145 l145 -43 l-92 -116 Z"/><glyph glyph-name="plus" unicode="+" d="M1087 551 l0 -551 l-126 0 l0 551 l-551 0 l0 127 l551 0 l0 551 l126 0 l0 -551 l551 0 l0 -127 l-551 0 Z"/><glyph glyph-name="comma" unicode="," d="M422 20 q0 -77 -29.5 -141.5 q-29.5 -64.5 -79 -113 q-49.5 -48.5 -113.5 -78 q-64 -29.5 -134 -35.5 l0 74 q54 12 96.5 32.5 q42.5 20.5 71 54 q28.5 33.5 43.5 82.5 q15 49 14 119 l-129 0 q-2 2 -8 9.5 q-6 7.5 -12.5 19.5 q-6.5 12 -11.5 28.5 q-5 16.5 -5 37.5 q0 27 9.5 52 q9.5 25 26.5 45 q17 20 40 32 q23 12 51 12 q44 0 76 -17.5 q32 -17.5 53 -48 q21 -30.5 31 -73 q10 -42.5 10 -91.5 Z"/><glyph glyph-name="hyphen" unicode="-" d="M90 416 l0 153 l475 0 l0 -153 l-475 0 Z"/><glyph glyph-name="period" unicode="." d="M401 113 q0 -29 -11 -54 q-11 -25 -30 -43.5 q-19 -18.5 -44.5 -29.5 q-25.5 -11 -53.5 -11 q-29 0 -53.5 11 q-24.5 11 -43.5 29.5 q-19 18.5 -29.5 43.5 q-10.5 25 -10.5 54 q0 28 10.5 53 q10.5 25 29.5 43.5 q19 18.5 43.5 29.5 q24.5 11 53.5 11 q28 0 53.5 -11 q25.5 -11 44.5 -29.5 q19 -18.5 30 -43.5 q11 -25 11 -53 Z"/><glyph glyph-name="slash" unicode="/" d="M131 -190 l-131 0 l872 1564 l132 0 l-873 -1564 Z"/><glyph glyph-name="zero" unicode="0" d="M854 686 q0 77 -5.5 152.5 q-5.5 75.5 -18.5 144.5 q-13 69 -34 128 q-21 59 -52 102 q-31 43 -73 67.5 q-42 24.5 -96 24.5 q-54 0 -96 -24.5 q-42 -24.5 -72.5 -67.5 q-30.5 -43 -51.5 -102 q-21 -59 -34 -128 q-13 -69 -18.5 -144.5 q-5.5 -75.5 -5.5 -152.5 q0 -77 5.5 -152.5 q5.5 -75.5 18.5 -144 q13 -68.5 34 -127 q21 -58.5 51.5 -101 q30.5 -42.5 72.5 -67 q42 -24.5 96 -24.5 q54 0 96 24.5 q42 24.5 73 67 q31 42.5 52 101 q21 58.5 34 127 q13 68.5 18.5 144 q5.5 75.5 5.5 152.5 ZM1071 686 q0 -147 -30.5 -277.5 q-30.5 -130.5 -92 -228.5 q-61.5 -98 -155 -155.5 q-93.5 -57.5 -218.5 -57.5 q-125 0 -217.5 57.5 q-92.5 57.5 -154 155.5 q-61.5 98 -91.5 228.5 q-30 130.5 -30 277.5 q0 98 13.5 189.5 q13.5 91.5 40.5 171.5 q27 80 67.5 146 q40.5 66 95.5 113.5 q55 47.5 124 74 q69 26.5 152 26.5 q83 0 152.5 -26.5 q69.5 -26.5 124.5 -74 q55 -47.5 96 -113.5 q41 -66 68.5 -146 q27.5 -80 41 -171.5 q13.5 -91.5 13.5 -189.5 Z"/><glyph glyph-name="one" unicode="1" d="M221 0 l0 92 l207 8 q19 0 32 13.5 q13 13.5 13 31.5 l0 1088 l-317 -55 l0 92 l442 137 l78 0 l0 -1262 q0 -18 13 -31.5 q13 -13.5 32 -13.5 l192 -8 l0 -92 l-692 0 Z"/><glyph glyph-name="two" unicode="2" d="M96 0 l0 137 q156 129 287 237.5 q131 108.5 226.5 209 q95.5 100.5 148.5 198 q53 97.5 53 205.5 q0 74 -23.5 131.5 q-23.5 57.5 -63 97 q-39.5 39.5 -93 60 q-53.5 20.5 -113.5 20.5 q-36 0 -65.5 -8 q-29.5 -8 -51.5 -18 q-22 -10 -35.5 -18 q-13.5 -8 -17.5 -9 l0 -227 q-11 -10 -26 -18 q-13 -7 -32 -12 q-19 -5 -42 -5 q-24 0 -46 7.5 q-22 7.5 -39.5 22.5 q-17.5 15 -27.5 37.5 q-10 22.5 -10 53.5 q0 64 36.5 120 q36.5 56 98.5 97 q62 41 143.5 64.5 q81.5 23.5 171.5 23.5 q100 0 184 -29 q84 -29 144.5 -81.5 q60.5 -52.5 94.5 -126 q34 -73.5 34 -162.5 q0 -72 -27.5 -142 q-27.5 -70 -77 -138.5 q-49.5 -68.5 -117 -136.5 q-67.5 -68 -147 -137 q-79.5 -69 -169 -139 q-89.5 -70 -181.5 -143 l607 0 l36 176 l101 0 l0 -348 l-961 0 Z"/><glyph glyph-name="three" unicode="3" d="M1057 391 q0 -93 -42.5 -171 q-42.5 -78 -115.5 -134 q-73 -56 -170.5 -87.5 q-97.5 -31.5 -208.5 -31.5 q-104 0 -183 23.5 q-79 23.5 -132.5 59.5 q-53.5 36 -81 78.5 q-27.5 42.5 -27.5 80.5 q0 21 7.5 40.5 q7.5 19.5 22.5 35 q15 15.5 37.5 25 q22.5 9.5 53.5 9.5 q12 0 34.5 -2.5 q22.5 -2.5 35.5 -11.5 l61 -182 q40 -23 84.5 -38 q44.5 -15 93.5 -15 q72 0 131 27 q59 27 101 72 q42 45 65 102.5 q23 57.5 23 119.5 q0 75 -29 124.5 q-29 49.5 -74 79 q-45 29.5 -99 42 q-54 12.5 -105 12.5 q-27 0 -50 -1 q-23 -1 -40 -3 q-19 -2 -35 -4 l0 127 q3 0 20 -1 q17 -1 33 -1 q64 0 123.5 15.5 q59.5 15.5 105 47 q45.5 31.5 72.5 80.5 q27 49 27 117 q0 64 -22.5 114 q-22.5 50 -59.5 84.5 q-37 34.5 -86 52 q-49 17.5 -101 17.5 q-41 0 -75 -9 q-34 -9 -58 -20 q-29 -12 -51 -28 l0 -205 q-6 -3 -30 -14.5 q-24 -11.5 -62 -11.5 q-18 0 -39 5.5 q-21 5.5 -39 18.5 q-18 13 -29.5 35 q-11.5 22 -11.5 55 q0 58 36 110.5 q36 52.5 98 91.5 q62 39 144.5 62 q82.5 23 174.5 23 q89 0 165.5 -25 q76.5 -25 133 -71 q56.5 -46 89 -111.5 q32.5 -65.5 32.5 -146.5 q0 -116 -81.5 -201.5 q-81.5 -85.5 -234.5 -128.5 q64 -3 130 -23.5 q66 -20.5 119 -61 q53 -40.5 86.5 -102 q33.5 -61.5 33.5 -145.5 Z"/><glyph glyph-name="four" unicode="4" d="M705 1145 l-461 -598 l461 0 l0 598 ZM897 408 l0 -441 l-192 0 l0 441 l-623 0 l0 141 l672 858 l143 0 l0 -860 l174 0 l0 -139 l-174 0 Z"/><glyph glyph-name="five" unicode="5" d="M1059 444 q0 -104 -37.5 -191.5 q-37.5 -87.5 -110.5 -151 q-73 -63.5 -181 -99 q-108 -35.5 -249 -35.5 q-80 0 -150.5 23 q-70.5 23 -123.5 58 q-53 35 -84 78 q-31 43 -31 83 q0 56 36.5 85.5 q36.5 29.5 92.5 29.5 q17 0 33 -3.5 q16 -3.5 22 -5.5 l78 -188 q12 -12 32 -22.5 q20 -10.5 42 -18.5 q22 -8 44 -13 q22 -5 40 -5 q81 0 144 30.5 q63 30.5 106 78.5 q43 48 65.5 106 q22.5 58 22.5 112 q0 86 -27 149.5 q-27 63.5 -74 105.5 q-47 42 -111 62.5 q-64 20.5 -138 20.5 q-51 0 -107.5 -11 q-56.5 -11 -105.5 -24 q-57 -15 -113 -34 l0 710 l791 0 l0 -174 l-646 0 l0 -389 q2 0 26 8.5 q24 8.5 63 18 q39 9.5 88 18 q49 8.5 100 8.5 q107 0 192.5 -28.5 q85.5 -28.5 145.5 -82.5 q60 -54 92.5 -132 q32.5 -78 32.5 -177 Z"/><glyph glyph-name="six" unicode="6" d="M862 442 q0 75 -19.5 134.5 q-19.5 59.5 -57 101 q-37.5 41.5 -91 63 q-53.5 21.5 -121.5 21.5 q-33 0 -69 -7.5 q-36 -7.5 -72 -21 q-36 -13.5 -70.5 -32.5 q-34.5 -19 -64.5 -42 q-3 -32 -3.5 -60.5 q-0.5 -28.5 -0.5 -51.5 q0 -105 16 -192 q16 -87 50.5 -149.5 q34.5 -62.5 87 -97 q52.5 -34.5 126.5 -34.5 q74 0 128.5 29 q54.5 29 90 78.5 q35.5 49.5 53 116.5 q17.5 67 17.5 144 ZM1071 469 q0 -112 -39 -204.5 q-39 -92.5 -106.5 -158.5 q-67.5 -66 -158 -102.5 q-90.5 -36.5 -194.5 -36.5 q-104 0 -193.5 34 q-89.5 34 -155.5 108 q-66 74 -104 192.5 q-38 118.5 -38 286.5 q0 183 55 334 q55 151 159.5 259 q104.5 108 257 167 q152.5 59 347.5 59 l0 -127 l-70 2 q-98 3 -186.5 -31.5 q-88.5 -34.5 -159 -101.5 q-70.5 -67 -118.5 -164 q-48 -97 -64 -219 q85 73 170.5 101 q85.5 28 171.5 28 q97 0 175.5 -32.5 q78.5 -32.5 134 -89.5 q55.5 -57 86 -135 q30.5 -78 30.5 -169 Z"/><glyph glyph-name="seven" unicode="7" d="M395 35 l0 -68 l-217 0 l676 1233 l-631 0 l-33 -186 l-104 0 l0 360 l981 0 l0 -114 l-672 -1225 Z"/><glyph glyph-name="eight" unicode="8" d="M862 340 q0 64 -27 108.5 q-27 44.5 -79 80 q-52 35.5 -127 67 q-75 31.5 -172 70.5 q-39 -21 -72.5 -47 q-33.5 -26 -58.5 -59.5 q-25 -33.5 -39.5 -76.5 q-14.5 -43 -14.5 -98 q0 -66 19.5 -122 q19.5 -56 57.5 -97.5 q38 -41.5 95 -64.5 q57 -23 131 -23 q66 0 119.5 21.5 q53.5 21.5 90.5 58 q37 36.5 57 84 q20 47.5 20 98.5 ZM825 1036 q0 63 -20 112.5 q-20 49.5 -54 84 q-34 34.5 -79.5 52.5 q-45.5 18 -96.5 18 q-52 0 -95.5 -19.5 q-43.5 -19.5 -74.5 -51.5 q-31 -32 -48 -74.5 q-17 -42.5 -17 -88.5 q0 -54 23 -97.5 q23 -43.5 66 -80.5 q43 -37 105.5 -68.5 q62.5 -31.5 141.5 -60.5 q31 23 58.5 51 q27.5 28 47.5 62 q20 34 31.5 74 q11.5 40 11.5 87 ZM1069 373 q0 -88 -37.5 -162.5 q-37.5 -74.5 -103.5 -128.5 q-66 -54 -156.5 -84.5 q-90.5 -30.5 -196.5 -30.5 q-113 0 -204 30 q-91 30 -155.5 84 q-64.5 54 -99 127.5 q-34.5 73.5 -34.5 160.5 q0 70 24.5 124 q24.5 54 65 95 q40.5 41 93.5 71 q53 30 110 52 q-42 17 -84.5 45 q-42.5 28 -76.5 67 q-34 39 -55.5 88.5 q-21.5 49.5 -21.5 110.5 q0 88 31.5 159 q31.5 71 89 121.5 q57.5 50.5 138.5 77.5 q81 27 179 27 q94 0 174 -27 q80 -27 139 -74.5 q59 -47.5 92.5 -112 q33.5 -64.5 33.5 -138.5 q0 -65 -24.5 -118 q-24.5 -53 -61.5 -94 q-37 -41 -81 -71 q-44 -30 -83 -49 q49 -18 103 -45.5 q54 -27.5 99 -69.5 q45 -42 74 -99.5 q29 -57.5 29 -135.5 Z"/><glyph glyph-name="nine" unicode="9" d="M858 827 q0 105 -16 192 q-16 87 -50.5 149.5 q-34.5 62.5 -87.5 97 q-53 34.5 -126 34.5 q-74 0 -128.5 -28.5 q-54.5 -28.5 -90 -78.5 q-35.5 -50 -53 -117 q-17.5 -67 -17.5 -144 q0 -75 19.5 -134.5 q19.5 -59.5 57 -101 q37.5 -41.5 91 -63 q53.5 -21.5 121.5 -21.5 q33 0 69 7.5 q36 7.5 72 21 q36 13.5 70.5 32.5 q34.5 19 64.5 42 q3 32 3.5 60.5 q0.5 28.5 0.5 51.5 ZM1071 786 q0 -183 -55 -334 q-55 -151 -160.5 -259 q-105.5 -108 -258 -167 q-152.5 -59 -347.5 -59 l0 127 l69 -2 q98 -3 187 31.5 q89 34.5 160 101.5 q71 67 119.5 164 q48.5 97 64.5 219 q-42 -37 -85 -61.5 q-43 -24.5 -85.5 -39.5 q-42.5 -15 -85.5 -21.5 q-43 -6.5 -86 -6.5 q-97 0 -175.5 32 q-78.5 32 -134 88.5 q-55.5 56.5 -86 134 q-30.5 77.5 -30.5 169.5 q0 112 38.5 205 q38.5 93 105.5 159.5 q67 66.5 157.5 103 q90.5 36.5 194.5 36.5 q103 0 193 -34 q90 -34 157 -108 q67 -74 105 -192.5 q38 -118.5 38 -286.5 Z"/><glyph glyph-name="colon" unicode=":" d="M401 113 q0 -29 -11 -54 q-11 -25 -30 -43.5 q-19 -18.5 -44.5 -29.5 q-25.5 -11 -53.5 -11 q-29 0 -53.5 11 q-24.5 11 -43.5 29.5 q-19 18.5 -29.5 43.5 q-10.5 25 -10.5 54 q0 28 10.5 53 q10.5 25 29.5 43.5 q19 18.5 43.5 29.5 q24.5 11 53.5 11 q28 0 53.5 -11 q25.5 -11 44.5 -29.5 q19 -18.5 30 -43.5 q11 -25 11 -53 ZM401 874 q0 -28 -11 -53 q-11 -25 -30 -43.5 q-19 -18.5 -44.5 -29.5 q-25.5 -11 -53.5 -11 q-29 0 -53.5 11 q-24.5 11 -43.5 29.5 q-19 18.5 -29.5 43.5 q-10.5 25 -10.5 53 q0 28 10.5 53.5 q10.5 25.5 29.5 44 q19 18.5 43.5 29.5 q24.5 11 53.5 11 q28 0 53.5 -11 q25.5 -11 44.5 -29.5 q19 -18.5 30 -44 q11 -25.5 11 -53.5 Z"/><glyph glyph-name="semicolon" unicode=";" d="M422 20 q0 -77 -29.5 -141.5 q-29.5 -64.5 -79 -113 q-49.5 -48.5 -113.5 -78 q-64 -29.5 -134 -35.5 l0 74 q54 12 96.5 32.5 q42.5 20.5 71 54 q28.5 33.5 43.5 82.5 q15 49 14 119 l-129 0 q-2 2 -8 9.5 q-6 7.5 -12.5 19.5 q-6.5 12 -11.5 28.5 q-5 16.5 -5 37.5 q0 27 9.5 52 q9.5 25 26.5 45 q17 20 40 32 q23 12 51 12 q44 0 76 -17.5 q32 -17.5 53 -48 q21 -30.5 31 -73 q10 -42.5 10 -91.5 ZM399 874 q0 -28 -10.5 -53 q-10.5 -25 -29.5 -43.5 q-19 -18.5 -44 -29.5 q-25 -11 -53 -11 q-29 0 -53.5 11 q-24.5 11 -43.5 29.5 q-19 18.5 -29.5 43.5 q-10.5 25 -10.5 53 q0 28 11 53.5 q11 25.5 30 44 q19 18.5 44 29.5 q25 11 54 11 q28 0 53 -11 q25 -11 43 -29.5 q18 -18.5 28.5 -44 q10.5 -25.5 10.5 -53.5 Z"/><glyph glyph-name="less" unicode="&lt;" d="M410 551 l0 127 l1228 471 l0 -127 l-1097 -408 l1097 -407 l0 -127 l-1228 471 Z"/><glyph glyph-name="equal" unicode="=" d="M410 365 l0 127 l1228 0 l0 -127 l-1228 0 ZM410 737 l0 127 l1228 0 l0 -127 l-1228 0 Z"/><glyph glyph-name="greater" unicode="&gt;" d="M410 80 l0 127 l1097 407 l-1097 408 l0 127 l1228 -471 l0 -127 l-1228 -471 Z"/><glyph glyph-name="question" unicode="?" d="M854 1040 q0 -65 -18 -118.5 q-18 -53.5 -48 -97 q-30 -43.5 -69.5 -78 q-39.5 -34.5 -82.5 -62 q-43 -27.5 -87.5 -49.5 q-44.5 -22 -83.5 -39 l0 -227 l-115 0 l0 297 q48 16 100.5 45.5 q52.5 29.5 96 73.5 q43.5 44 72 103.5 q28.5 59.5 28.5 135.5 q0 143 -76 213 q-76 70 -217 70 l-84 -209 q-9 -1 -16 -1 q-6 -1 -11 -1 l-7 0 q-28 0 -52.5 6 q-24.5 6 -42.5 19.5 q-18 13.5 -28.5 34.5 q-10.5 21 -10.5 50 q0 36 19.5 72 q19.5 36 60 64.5 q40.5 28.5 101.5 46.5 q61 18 145 18 q91 0 169 -26 q78 -26 135 -73.5 q57 -47.5 89.5 -115.5 q32.5 -68 32.5 -152 ZM537 100 q0 -26 -10 -48.5 q-10 -22.5 -27.5 -39.5 q-17.5 -17 -40.5 -27 q-23 -10 -49 -10 q-26 0 -49 10 q-23 10 -40 27.5 q-17 17.5 -26.5 40.5 q-9.5 23 -9.5 49 q0 26 9.5 49 q9.5 23 26.5 40 q17 17 40 26.5 q23 9.5 49 9.5 q27 0 50 -10 q23 -10 40 -27.5 q17 -17.5 27 -40.5 q10 -23 10 -49 Z"/><glyph glyph-name="at" unicode="@" d="M1196 805 q3 13 -5 33 q-8 20 -24.5 38.5 q-16.5 18.5 -40 32 q-23.5 13.5 -51.5 13.5 q-76 0 -137 -35.5 q-61 -35.5 -104 -97 q-43 -61.5 -66 -144 q-23 -82.5 -23 -176.5 q0 -111 41.5 -166 q41.5 -55 118.5 -55 q34 0 65 13.5 q31 13.5 57.5 33.5 q26.5 20 48.5 43 q22 23 38 43 l82 424 ZM1769 764 q0 -104 -22.5 -192.5 q-22.5 -88.5 -61 -160.5 q-38.5 -72 -89 -127.5 q-50.5 -55.5 -106 -93 q-55.5 -37.5 -112.5 -56.5 q-57 -19 -108 -19 q-85 0 -122.5 42.5 q-37.5 42.5 -37.5 127.5 q-80 -81 -152.5 -124.5 q-72.5 -43.5 -144.5 -43.5 q-56 0 -103 23.5 q-47 23.5 -81 67 q-34 43.5 -53 105 q-19 61.5 -19 138.5 q0 117 43.5 219 q43.5 102 115 177 q71.5 75 163 118 q91.5 43 188.5 43 q22 0 48 -4 q26 -4 52.5 -11.5 q26.5 -7.5 52 -18 q25.5 -10.5 48.5 -22.5 l37 47 l114 0 q-2 -6 -9 -35.5 q-7 -29.5 -17 -73 q-10 -43.5 -22.5 -98 q-12.5 -54.5 -24.5 -109.5 q-30 -130 -66 -292 q-9 -35 -9 -64.5 q0 -29.5 9 -50.5 q9 -21 28 -33 q19 -12 48 -12 q45 0 100 37 q55 37 102 106 q47 69 79 167.5 q32 98.5 32 220.5 q0 144 -49 250 q-49 106 -129.5 175.5 q-80.5 69.5 -183.5 103.5 q-103 34 -211 34 q-117 0 -221.5 -27.5 q-104.5 -27.5 -193 -78 q-88.5 -50.5 -160 -122.5 q-71.5 -72 -121 -161 q-49.5 -89 -76.5 -192.5 q-27 -103.5 -27 -217.5 q0 -156 48.5 -291 q48.5 -135 140.5 -234 q92 -99 225 -155.5 q133 -56.5 303 -56.5 q90 0 168 14 q78 14 145 36 q67 22 123.5 49 q56.5 27 103.5 53 l29 -74 q-69 -37 -141 -69.5 q-72 -32.5 -148.5 -57 q-76.5 -24.5 -158 -39 q-81.5 -14.5 -170.5 -14.5 q-110 0 -213 25 q-103 25 -193.5 72.5 q-90.5 47.5 -165.5 117 q-75 69.5 -129 158.5 q-54 89 -84 197 q-30 108 -30 232 q0 152 36.5 279.5 q36.5 127.5 100.5 230.5 q64 103 151.5 181 q87.5 78 189.5 130 q102 52 214.5 78.5 q112.5 26.5 226.5 26.5 q152 0 280.5 -42.5 q128.5 -42.5 221.5 -125 q93 -82.5 145.5 -204 q52.5 -121.5 52.5 -279.5 Z"/><glyph glyph-name="A" unicode="a" d="M643 1143 l-199 -537 l400 0 l-201 537 ZM883 0 l0 88 l118 10 q10 0 17 13.5 q7 13.5 4 21.5 l-141 375 l-473 0 l-136 -369 q-2 -6 0 -13 q2 -7 7 -13.5 q5 -6.5 11 -10.5 q6 -4 11 -4 l121 -10 l0 -88 l-412 0 l0 88 l119 25 l477 1294 l154 0 l475 -1264 q7 -21 13.5 -28 q6.5 -7 29.5 -11 l92 -16 l0 -88 l-487 0 Z"/><glyph glyph-name="B" unicode="b" d="M1159 406 q0 -83 -23.5 -145.5 q-23.5 -62.5 -63.5 -107.5 q-40 -45 -92.5 -74.5 q-52.5 -29.5 -110 -47 q-57.5 -17.5 -117 -24.5 q-59.5 -7 -113.5 -7 l-573 0 l0 88 l108 8 q22 2 32.5 16 q10.5 14 10.5 29 l0 1092 q0 15 -10.5 29 q-10.5 14 -32.5 16 l-108 8 l0 88 l548 0 q122 0 209.5 -22.5 q87.5 -22.5 143.5 -65.5 q56 -43 82 -104 q26 -61 26 -138 q0 -77 -29 -131 q-29 -54 -73 -91 q-44 -37 -96 -59 q-52 -22 -97 -34 q69 0 136.5 -16.5 q67.5 -16.5 121.5 -54.5 q54 -38 87.5 -100 q33.5 -62 33.5 -152 ZM936 389 q0 140 -83 205 q-83 65 -247 65 q-25 0 -55.5 -2 q-30.5 -2 -57.5 -4 q-27 -2 -47 -4 q-20 -2 -24 -2 l0 -541 q25 -2 49 -3 q20 -2 41.5 -2.5 q21.5 -0.5 36.5 -0.5 q108 0 181.5 18 q73.5 18 119.5 54 q46 36 66 90 q20 54 20 127 ZM854 1030 q0 121 -78 185.5 q-78 64.5 -237 64.5 q-16 0 -34.5 -1 q-18.5 -1 -35 -2 q-16.5 -1 -29.5 -2 q-13 -1 -18 -1 l0 -518 q14 -1 28 -1 q12 -1 24 -1 l22 0 q100 0 168.5 18.5 q68.5 18.5 110.5 53.5 q42 35 60.5 86.5 q18.5 51.5 18.5 117.5 Z"/><glyph glyph-name="C" unicode="c" d="M1204 47 q-4 -2 -39 -14.5 q-35 -12.5 -91 -27 q-56 -14.5 -128.5 -26.5 q-72.5 -12 -150.5 -12 q-115 0 -212.5 27.5 q-97.5 27.5 -177 76.5 q-79.5 49 -140 117 q-60.5 68 -102 148 q-41.5 80 -62.5 170 q-21 90 -21 184 q0 159 52 291 q52 132 146 226.5 q94 94.5 226 147 q132 52.5 293 52.5 q50 0 96.5 -5.5 q46.5 -5.5 94.5 -15.5 q48 -10 101 -25 q53 -15 115 -34 l0 -321 l-123 0 l-30 186 q-2 14 -14 28 q-12 14 -21 19 q-12 5 -31.5 14 q-19.5 9 -46.5 17.5 q-27 8.5 -60 15 q-33 6.5 -71 6.5 q-105 0 -195 -39 q-90 -39 -156 -115 q-66 -76 -103.5 -188.5 q-37.5 -112.5 -37.5 -259.5 q0 -143 35.5 -256 q35.5 -113 102.5 -192 q67 -79 163 -120.5 q96 -41.5 218 -41.5 q36 0 65.5 5 q29.5 5 51.5 11.5 q22 6.5 34 12 q12 5.5 14 6.5 q16 6 26 17 q10 11 13 24 l47 223 l119 0 l0 -332 Z"/><glyph glyph-name="D" unicode="d" d="M1114 686 q0 161 -37.5 273.5 q-37.5 112.5 -107 183 q-69.5 70.5 -168 102 q-98.5 31.5 -219.5 31.5 l-156 0 l0 -1178 l166 2 q118 1 214.5 33.5 q96.5 32.5 164.5 102.5 q68 70 105.5 181 q37.5 111 37.5 269 ZM1346 690 q0 -90 -17 -175.5 q-17 -85.5 -53 -162.5 q-36 -77 -92.5 -141.5 q-56.5 -64.5 -135.5 -111.5 q-79 -47 -181.5 -73 q-102.5 -26 -231.5 -26 l-569 0 l0 88 l108 8 q22 2 33.5 16 q11.5 14 11.5 29 l0 1092 q0 15 -11.5 29 q-11.5 14 -33.5 16 l-108 8 l0 88 l528 0 q161 0 299 -40.5 q138 -40.5 238.5 -124.5 q100.5 -84 157.5 -213 q57 -129 57 -306 Z"/><glyph glyph-name="E" unicode="e" d="M66 0 l0 88 l106 8 q22 2 33.5 16 q11.5 14 11.5 29 l0 1092 q0 15 -11.5 29 q-11.5 14 -33.5 16 l-106 8 l0 88 l995 0 l0 -305 l-123 0 l-31 168 q-2 15 -12.5 27 q-10.5 12 -24.5 12 l-444 0 l0 -510 l307 0 q14 0 25.5 12 q11.5 12 11.5 23 l21 141 l104 0 l0 -457 l-104 0 l-21 142 q0 11 -12 24 q-12 13 -25 13 l-307 0 l0 -564 l518 0 q13 0 24 14 q11 14 13 25 l37 203 l110 0 l0 -342 l-1062 0 Z"/><glyph glyph-name="F" unicode="f" d="M926 1049 l-29 188 q-3 15 -12 26 q-9 11 -23 11 l-436 0 l0 -533 l313 0 q14 0 24.5 13 q10.5 13 12.5 24 l19 144 l102 0 l0 -461 l-102 0 l-19 143 q-2 11 -13 24 q-11 13 -24 13 l-313 0 l0 -500 q0 -15 10.5 -29 q10.5 -14 32.5 -16 l137 -8 l0 -88 l-538 0 l0 88 l108 8 q22 2 32.5 16 q10.5 14 10.5 29 l0 1092 q0 15 -10.5 29 q-10.5 14 -32.5 16 l-125 8 l0 88 l996 0 l0 -325 l-121 0 Z"/><glyph glyph-name="G" unicode="g" d="M1268 565 q-22 -2 -32.5 -14.5 q-10.5 -12.5 -10.5 -28.5 l0 -473 q-62 -23 -132 -41 q-60 -16 -137.5 -28.5 q-77.5 -12.5 -160.5 -12.5 q-114 0 -211.5 27 q-97.5 27 -177 76 q-79.5 49 -140.5 116.5 q-61 67.5 -102.5 147.5 q-41.5 80 -62.5 170.5 q-21 90.5 -21 185.5 q0 161 51 293.5 q51 132.5 147 226.5 q96 94 233.5 145.5 q137.5 51.5 309.5 51.5 q58 0 110.5 -6.5 q52.5 -6.5 101.5 -16.5 q49 -10 96 -22.5 q47 -12.5 94 -24.5 l0 -331 l-123 0 l-33 184 q-3 18 -15 30.5 q-12 12.5 -26 18.5 q-15 6 -36.5 15 q-21.5 9 -48.5 17.5 q-27 8.5 -59.5 14.5 q-32.5 6 -68.5 6 q-111 0 -203 -39 q-92 -39 -158 -114 q-66 -75 -102.5 -185.5 q-36.5 -110.5 -36.5 -253.5 q0 -147 37 -262 q37 -115 105.5 -194 q68.5 -79 165.5 -120.5 q97 -41.5 217 -41.5 q34 0 65 5 q31 5 55 10.5 q24 5.5 40 10.5 q16 5 20 5 l0 409 q0 16 -10.5 28.5 q-10.5 12.5 -32.5 14.5 l-137 10 l0 89 l534 0 l0 -89 l-104 -10 Z"/><glyph glyph-name="H" unicode="h" d="M938 0 l0 88 l117 8 q21 2 32 16 q11 14 11 29 l0 529 l-674 0 l0 -529 q0 -15 10.5 -29 q10.5 -14 32.5 -16 l117 -8 l0 -88 l-518 0 l0 88 l106 8 q22 2 33.5 16 q11.5 14 11.5 29 l0 1092 q0 15 -11.5 28 q-11.5 13 -33.5 15 l-106 8 l0 90 l518 0 l0 -90 l-117 -8 q-22 -2 -32.5 -15 q-10.5 -13 -10.5 -28 l0 -461 l674 0 l0 461 q0 15 -11 28 q-11 13 -32 15 l-117 8 l0 90 l518 0 l0 -90 l-106 -8 q-22 -2 -33.5 -15 q-11.5 -13 -11.5 -28 l0 -1092 q0 -15 11.5 -29 q11.5 -14 33.5 -16 l106 -8 l0 -88 l-518 0 Z"/><glyph glyph-name="I" unicode="i" d="M68 0 l0 88 l122 8 q22 2 32.5 16 q10.5 14 10.5 29 l0 1092 q0 15 -10.5 28 q-10.5 13 -32.5 15 l-122 8 l0 90 l540 0 l0 -90 l-125 -8 q-21 -2 -32 -15 q-11 -13 -11 -28 l0 -1092 q0 -15 11 -29 q11 -14 32 -16 l125 -8 l0 -88 l-540 0 Z"/><glyph glyph-name="J" unicode="j" d="M821 1278 q-21 -2 -32 -16 q-11 -14 -11 -29 l0 -715 q0 -128 -24 -230 q-24 -102 -77 -173 q-53 -71 -139 -109.5 q-86 -38.5 -210 -38.5 q-50 0 -98 8.5 q-48 8.5 -86 19 q-38 10.5 -63.5 19.5 q-25.5 9 -29.5 11 l0 350 l123 0 l45 -250 q3 -15 12.5 -25.5 q9.5 -10.5 22.5 -16.5 q13 -6 28.5 -8.5 q15.5 -2.5 30.5 -2.5 q70 0 119 27 q49 27 80 81 q31 54 45 135 q14 81 14 189 l0 729 q0 15 -10.5 29 q-10.5 14 -32.5 16 l-129 8 l0 88 l541 0 l0 -88 l-119 -8 Z"/><glyph glyph-name="K" unicode="k" d="M948 0 l0 63 l-381 547 l-143 0 l0 -469 q0 -15 11.5 -29 q11.5 -14 33.5 -16 l117 -8 l0 -88 l-520 0 l0 88 l108 8 q22 2 32.5 16 q10.5 14 10.5 29 l0 1092 q0 15 -10.5 29 q-10.5 14 -32.5 16 l-108 8 l0 88 l520 0 l0 -88 l-117 -8 q-22 -2 -33.5 -16 q-11.5 -14 -11.5 -29 l0 -537 l74 0 l446 545 q7 9 0.5 21 q-6.5 12 -16.5 14 l-105 10 l0 88 l434 0 l0 -88 q-36 -3 -65 -7 q-25 -3 -47 -5.5 q-22 -2.5 -27 -3.5 l-418 -500 l459 -672 l148 -10 l0 -88 l-359 0 Z"/><glyph glyph-name="L" unicode="l" d="M55 0 l0 88 l119 8 q22 2 32.5 16 q10.5 14 10.5 29 l0 1092 q0 15 -10.5 29 q-10.5 14 -32.5 16 l-119 8 l0 88 l523 0 l0 -88 l-109 -8 q-22 -2 -33.5 -16 q-11.5 -14 -11.5 -29 l0 -1133 l430 0 q14 0 28.5 10.5 q14.5 10.5 16.5 24.5 l33 246 l119 0 l0 -381 l-996 0 Z"/><glyph glyph-name="M" unicode="m" d="M1214 0 l0 88 l109 8 q22 2 33.5 16 q11.5 14 11.5 29 l0 1129 l-471 -1270 l-102 0 l-455 1251 l0 -1110 q0 -15 11.5 -29 q11.5 -14 33.5 -16 l117 -8 l0 -88 l-443 0 l0 88 l117 8 q22 2 32.5 16 q10.5 14 10.5 29 l0 1092 q0 15 -10.5 29 q-10.5 14 -32.5 16 l-117 8 l0 88 l459 0 l0 -55 l371 -1006 l371 1000 l0 61 l471 0 l0 -88 l-111 -8 q-22 -2 -33.5 -16 q-11.5 -14 -11.5 -29 l0 -1092 q0 -15 11.5 -29 q11.5 -14 33.5 -16 l111 -8 l0 -88 l-517 0 Z"/><glyph glyph-name="N" unicode="n" d="M1303 1278 q-22 -2 -32.5 -16 q-10.5 -14 -10.5 -29 l0 -1233 l-160 0 l-762 1147 l0 -1006 q0 -15 10.5 -29 q10.5 -14 32.5 -16 l117 -8 l0 -88 l-443 0 l0 88 l117 8 q22 2 33.5 16 q11.5 14 11.5 29 l0 1092 q0 15 -11.5 29 q-11.5 14 -33.5 16 l-121 8 l0 88 l406 0 l0 -51 l682 -1030 l0 940 q0 15 -11 29 q-11 14 -32 16 l-117 8 l0 88 l438 0 l0 -88 l-114 -8 Z"/><glyph glyph-name="O" unicode="o" d="M1180 684 q0 125 -27 235.5 q-27 110.5 -81 193 q-54 82.5 -134.5 130 q-80.5 47.5 -187.5 47.5 q-111 0 -193 -48 q-82 -48 -136 -130.5 q-54 -82.5 -80 -192 q-26 -109.5 -26 -231.5 q0 -123 26.5 -233.5 q26.5 -110.5 80 -193.5 q53.5 -83 134 -132 q80.5 -49 189.5 -49 q111 0 192.5 49 q81.5 49 135.5 131.5 q54 82.5 80.5 192 q26.5 109.5 26.5 231.5 ZM1417 686 q0 -149 -48 -280 q-48 -131 -135.5 -228.5 q-87.5 -97.5 -210.5 -154 q-123 -56.5 -273 -56.5 q-151 0 -274.5 54.5 q-123.5 54.5 -211.5 151.5 q-88 97 -136 228.5 q-48 131.5 -48 286.5 q0 150 47 281 q47 131 134 228.5 q87 97.5 210.5 153.5 q123.5 56 276.5 56 q152 0 275.5 -57 q123.5 -57 211 -155 q87.5 -98 135 -229 q47.5 -131 47.5 -280 Z"/><glyph glyph-name="P" unicode="p" d="M893 958 q0 75 -20 133.5 q-20 58.5 -63.5 99 q-43.5 40.5 -112.5 62 q-69 21.5 -167 21.5 q-14 0 -32 -0.5 q-18 -0.5 -34 -0.5 q-18 -1 -38 -1 l0 -645 q2 0 15 -1.5 q13 -1.5 30 -4 q17 -2.5 36 -4 q19 -1.5 34 -1.5 q81 -1 146 19 q65 20 110.5 62 q45.5 42 70.5 107 q25 65 25 154 ZM1106 961 q0 -113 -42 -197.5 q-42 -84.5 -114.5 -140 q-72.5 -55.5 -170 -83 q-97.5 -27.5 -208.5 -26.5 q-20 0 -43.5 1 q-23.5 1 -45 2.5 q-21.5 1.5 -37 2.5 q-15.5 1 -19.5 2 l0 -381 q0 -15 10.5 -29 q10.5 -14 32.5 -16 l135 -8 l0 -88 l-538 0 l0 88 l108 8 q22 2 33.5 16 q11.5 14 11.5 29 l0 1092 q0 15 -11.5 29 q-11.5 14 -33.5 16 l-123 8 l0 88 l490 0 q145 0 251.5 -22 q106.5 -22 176 -71 q69.5 -49 103.5 -127.5 q34 -78.5 34 -192.5 Z"/><glyph glyph-name="Q" unicode="q" d="M1192 686 q0 121 -26 230.5 q-26 109.5 -79.5 193 q-53.5 83.5 -135.5 133 q-82 49.5 -195 49.5 q-112 0 -194.5 -48 q-82.5 -48 -136.5 -130.5 q-54 -82.5 -80 -192 q-26 -109.5 -26 -231.5 q0 -120 27 -230.5 q27 -110.5 81.5 -195 q54.5 -84.5 136.5 -134.5 q82 -50 192 -50 q111 0 193 49.5 q82 49.5 136 133 q54 83.5 80.5 193.5 q26.5 110 26.5 230 ZM1434 686 q0 -138 -38.5 -258 q-38.5 -120 -111.5 -213 q-73 -93 -178 -154.5 q-105 -61.5 -238 -83.5 q2 -115 71.5 -181 q69.5 -66 211.5 -66 q37 0 70 3 q33 3 59 6.5 q26 3.5 43.5 7 q17.5 3.5 24.5 5.5 l0 -88 q-11 -2 -39.5 -8 q-28.5 -6 -69.5 -12 q-41 -6 -91 -10.5 q-50 -4.5 -104 -4.5 q-108 0 -183 24 q-75 24 -122.5 69 q-47.5 45 -68.5 108.5 q-21 63.5 -21 142.5 q-123 18 -227 75 q-104 57 -180 148.5 q-76 91.5 -119 215.5 q-43 124 -43 274 q0 100 21.5 192.5 q21.5 92.5 62 172.5 q40.5 80 99.5 145.5 q59 65.5 134 112.5 q75 47 165 72.5 q90 25.5 192 25.5 q156 0 281.5 -56 q125.5 -56 214 -153 q88.5 -97 136.5 -229 q48 -132 48 -283 Z"/><glyph glyph-name="R" unicode="r" d="M879 1001 q0 66 -20 116.5 q-20 50.5 -63.5 85.5 q-43.5 35 -112 53 q-68.5 18 -165.5 18 l-94 0 l0 -561 q2 0 14 -0.5 q12 -0.5 27.5 -0.5 q15.5 0 32 -0.5 q16.5 -0.5 28.5 -0.5 q85 0 151 14.5 q66 14.5 111 48.5 q45 34 68 89.5 q23 55.5 23 137.5 ZM1329 -6 q-7 -1 -20 -5 q-13 -4 -31 -9 q-18 -5 -39.5 -9 q-21.5 -4 -44.5 -4 q-92 0 -149 27.5 q-57 27.5 -92.5 73 q-35.5 45.5 -55.5 103.5 q-20 58 -37 118.5 q-17 60.5 -37.5 118.5 q-20.5 58 -57.5 103.5 q-37 45.5 -96 73 q-59 27.5 -153 27.5 q-16 0 -32 -0.5 q-16 -0.5 -28.5 -1.5 q-12.5 -1 -21.5 -1.5 q-9 -0.5 -10 -0.5 l0 -467 q0 -15 10.5 -29 q10.5 -14 32.5 -16 l108 -8 l0 -88 l-509 0 l0 88 l106 8 q22 2 33.5 16 q11.5 14 11.5 29 l0 1092 q0 15 -11.5 29 q-11.5 14 -33.5 16 l-106 8 l0 88 l534 0 q117 0 210 -19 q93 -19 158 -62 q65 -43 99.5 -112.5 q34.5 -69.5 34.5 -170.5 q0 -81 -28 -139 q-28 -58 -74.5 -98 q-46.5 -40 -107.5 -65 q-61 -25 -126 -40 q83 -20 133 -55.5 q50 -35.5 79 -80.5 q29 -45 43 -95.5 q14 -50.5 25 -100 q11 -49.5 25 -94.5 q14 -45 43.5 -80 q29.5 -35 80 -55.5 q50.5 -20.5 134.5 -20.5 l0 -92 Z"/><glyph glyph-name="S" unicode="s" d="M987 385 q0 -78 -30.5 -153 q-30.5 -75 -96.5 -134 q-66 -59 -169 -95 q-103 -36 -247 -36 q-84 0 -150.5 12 q-66.5 12 -114.5 26 q-55 17 -99 38 l0 363 l129 0 l27 -232 q2 -12 12.5 -26 q10.5 -14 21.5 -19 l17 -9 q15 -7 41 -15.5 q26 -8.5 63.5 -15.5 q37.5 -7 85.5 -7 q65 0 120.5 16.5 q55.5 16.5 95.5 47.5 q40 31 62.5 76 q22.5 45 22.5 102 q0 62 -35.5 108.5 q-35.5 46.5 -89 83 q-53.5 36.5 -116.5 65.5 q-63 29 -119 56 q-63 30 -120.5 62 q-57.5 32 -101 74 q-43.5 42 -69 98.5 q-25.5 56.5 -25.5 134.5 q0 91 36 165 q36 74 99.5 126.5 q63.5 52.5 150 81 q86.5 28.5 187.5 28.5 q58 0 109.5 -7 q51.5 -7 96 -17.5 q44.5 -10.5 83 -22.5 q38.5 -12 72.5 -23 l0 -319 l-117 0 l-31 196 q-2 10 -11.5 20 q-9.5 10 -18.5 15 q-2 1 -13 9 q-11 8 -32.5 16 q-21.5 8 -55 15 q-33.5 7 -79.5 7 q-62 0 -111 -18 q-49 -18 -83 -50.5 q-34 -32.5 -52.5 -76.5 q-18.5 -44 -18.5 -96 q0 -47 18.5 -85.5 q18.5 -38.5 55 -71 q36.5 -32.5 89.5 -60.5 q53 -28 122 -54 q93 -35 165.5 -73 q72.5 -38 122 -85 q49.5 -47 75.5 -105.5 q26 -58.5 26 -135.5 Z"/><glyph glyph-name="T" unicode="t" d="M1073 1047 l-29 192 q-3 16 -11.5 25.5 q-8.5 9.5 -22.5 9.5 l-293 0 l0 -1133 q0 -15 10.5 -29 q10.5 -14 32.5 -16 l131 -8 l0 -88 l-555 0 l0 88 l131 8 q22 2 32.5 16 q10.5 14 10.5 29 l0 1133 l-295 0 q-14 0 -23.5 -9.5 q-9.5 -9.5 -11.5 -25.5 l-28 -192 l-119 0 l0 327 l1161 0 l0 -327 l-121 0 Z"/><glyph glyph-name="U" unicode="u" d="M1284 1278 q-22 -2 -32.5 -16 q-10.5 -14 -10.5 -29 l0 -778 q0 -126 -34 -218 q-34 -92 -100.5 -152 q-66.5 -60 -165 -89 q-98.5 -29 -226.5 -29 q-254 0 -377 123 q-123 123 -123 365 l0 778 q0 15 -10.5 29 q-10.5 14 -32.5 16 l-109 8 l0 88 l521 0 l0 -88 l-117 -8 q-22 -2 -32.5 -16 q-10.5 -14 -10.5 -29 l0 -725 q0 -90 14 -164.5 q14 -74.5 52 -127.5 q38 -53 105.5 -82.5 q67.5 -29.5 174.5 -29.5 q106 0 174 31 q68 31 107 85.5 q39 54.5 54 128.5 q15 74 15 159 l0 725 q0 15 -11.5 29 q-11.5 14 -33.5 16 l-117 8 l0 88 l445 0 l0 -88 l-119 -8 Z"/><glyph glyph-name="V" unicode="v" d="M1225 1264 l-459 -1297 l-156 0 l-469 1299 l-121 20 l0 88 l490 0 l0 -88 l-121 -10 q-11 -2 -16 -15 q-5 -13 -2 -22 l360 -1012 l346 1008 q4 12 -5.5 25.5 q-9.5 13.5 -22.5 15.5 l-113 10 l0 88 l407 0 l0 -88 l-118 -22 Z"/><glyph glyph-name="W" unicode="w" d="M1761 1262 l-313 -1295 l-150 0 l-342 1135 l-335 -1135 l-148 0 l-334 1295 l-119 24 l0 88 l469 0 l0 -88 l-122 -12 q-14 -2 -19 -14.5 q-5 -12.5 -2 -26.5 l244 -924 l321 1065 l158 0 l330 -1098 l227 957 q3 14 -5 26.5 q-8 12.5 -24 14.5 l-129 12 l0 88 l418 0 l0 -88 l-125 -24 Z"/><glyph glyph-name="X" unicode="x" d="M752 0 l0 88 l118 12 q16 2 25 15 q9 13 0 28 l-272 428 l-316 -434 q-8 -11 -4 -24 q4 -13 29 -15 l123 -10 l0 -88 l-435 0 l0 88 l123 25 l412 565 l-373 584 l-135 24 l0 88 l514 0 l0 -88 l-104 -10 q-25 -2 -29 -15.5 q-4 -13.5 4 -25.5 l250 -385 l276 379 q11 15 2 28 q-9 13 -24 15 l-105 14 l0 88 l429 0 l0 -88 l-132 -20 l-380 -523 l403 -630 l127 -25 l0 -88 l-526 0 Z"/><glyph glyph-name="Y" unicode="y" d="M1151 1266 l-412 -682 l0 -443 q0 -15 11 -29 q11 -14 32 -16 l131 -8 l0 -88 l-553 0 l0 88 l127 8 q22 2 33.5 16 q11.5 14 11.5 29 l0 412 l-393 709 l-119 24 l0 88 l486 0 l0 -88 l-103 -10 q-24 -3 -27 -16 q-3 -13 3 -25 l289 -535 l317 529 q9 15 0 28 q-9 13 -24 15 l-115 14 l0 88 l416 0 l0 -88 l-111 -20 Z"/><glyph glyph-name="Z" unicode="z" d="M80 0 l0 90 l762 1182 l-533 0 q-14 0 -22.5 -10 q-8.5 -10 -12.5 -25 l-30 -190 l-121 0 l0 327 l964 0 l0 -94 l-763 -1176 l583 0 q14 0 23 11 q9 11 12 26 l35 238 l121 0 l0 -379 l-1018 0 Z"/><glyph glyph-name="bracketleft" unicode="[" d="M279 -270 l0 1720 l497 0 l0 -92 l-319 0 l0 -1534 l319 0 l0 -94 l-497 0 Z"/><glyph glyph-name="backslash" unicode="\" d="M870 -190 l-870 1564 l131 0 l870 -1564 l-131 0 Z"/><glyph glyph-name="bracketright" unicode="]" d="M90 -270 l0 94 l322 0 l0 1534 l-322 0 l0 92 l500 0 l0 -1720 l-500 0 Z"/><glyph glyph-name="underscore" unicode="_" d="M0 -305 l0 130 l686 0 l0 -130 l-686 0 Z"/><glyph glyph-name="a" unicode="a" d="M678 547 q-138 -35 -219 -69 q-81 -34 -122.5 -68.5 q-41.5 -34.5 -53 -70 q-11.5 -35.5 -11.5 -73.5 q0 -32 10.5 -62.5 q10.5 -30.5 30 -54.5 q19.5 -24 48 -38.5 q28.5 -14.5 65.5 -14.5 q41 0 85.5 15 q44.5 15 81.5 33 q43 21 85 49 l0 354 ZM705 0 l-27 121 q-54 -41 -111 -73 q-25 -14 -53 -27 q-28 -13 -57.5 -23.5 q-29.5 -10.5 -60 -16.5 q-30.5 -6 -60.5 -6 q-56 0 -104.5 19 q-48.5 19 -84.5 55 q-36 36 -56.5 87 q-20.5 51 -20.5 116 q0 38 7.5 72 q7.5 34 30.5 66 q23 32 64.5 61.5 q41.5 29.5 109 58.5 q67.5 29 165 57.5 q97.5 28.5 231.5 57.5 l0 88 q0 103 -46 152.5 q-46 49.5 -145 49.5 q-54 0 -92 -10 q-38 -10 -53 -16 l0 -178 l-149 0 q-14 0 -27.5 2 q-13.5 2 -24.5 8.5 q-11 6.5 -17.5 18 q-6.5 11.5 -6.5 30.5 q0 63 38 108.5 q38 45.5 99 75.5 q61 30 137 44 q76 14 152 14 q95 0 157.5 -23 q62.5 -23 99 -64 q36.5 -41 51.5 -97 q15 -56 15 -123 l0 -574 q0 -19 12.5 -31 q12.5 -12 30.5 -14 l99 -6 l0 -80 l-303 0 Z"/><glyph glyph-name="b" unicode="b" d="M1067 541 q0 -116 -34 -214.5 q-34 -98.5 -105.5 -171.5 q-71.5 -73 -183 -114 q-111.5 -41 -265.5 -41 l-295 0 l0 1362 l-155 0 l0 68 l264 79 l82 0 l0 -573 q18 8 47 21 q29 13 66.5 25 q37.5 12 80.5 21 q43 9 88 9 q101 0 177.5 -38 q76.5 -38 128.5 -103 q52 -65 78 -150.5 q26 -85.5 26 -179.5 ZM858 500 q0 193 -82.5 292 q-82.5 99 -230.5 99 q-17 0 -40 -3 q-23 -3 -46.5 -8 q-23.5 -5 -46 -11 q-22.5 -6 -37.5 -11 l0 -760 q17 -1 35 -1 q15 -1 32 -1 l33 0 q91 0 162 21 q71 21 120 69 q49 48 75 125 q26 77 26 189 Z"/><glyph glyph-name="c" unicode="c" d="M885 76 q-35 -18 -73.5 -36.5 q-38.5 -18.5 -82 -32.5 q-43.5 -14 -91 -23 q-47.5 -9 -99.5 -9 q-108 0 -194.5 38.5 q-86.5 38.5 -147.5 107 q-61 68.5 -94 162.5 q-33 94 -33 204 q0 129 40 227 q40 98 108 164.5 q68 66.5 157.5 100 q89.5 33.5 187.5 33.5 q67 0 125.5 -13.5 q58.5 -13.5 101 -39.5 q42.5 -26 67 -64 q24.5 -38 24.5 -88 q0 -30 -10.5 -52.5 q-10.5 -22.5 -27.5 -38 q-17 -15.5 -38.5 -23 q-21.5 -7.5 -44.5 -7.5 q-34 0 -59 11.5 q-25 11.5 -44 23.5 l0 178 q-21 12 -43.5 19.5 q-22.5 7.5 -42.5 7.5 q-68 0 -122.5 -31 q-54.5 -31 -92 -86 q-37.5 -55 -57.5 -130.5 q-20 -75.5 -20 -164.5 q0 -85 21.5 -160 q21.5 -75 64 -130.5 q42.5 -55.5 106 -87.5 q63.5 -32 147.5 -32 q72 0 136.5 22.5 q64.5 22.5 130.5 66.5 l0 -117 Z"/><glyph glyph-name="d" unicode="d" d="M780 883 q-13 4 -33.5 9.5 q-20.5 5.5 -44 10 q-23.5 4.5 -49 7.5 q-25.5 3 -47.5 3 q-76 0 -138 -29.5 q-62 -29.5 -105.5 -83 q-43.5 -53.5 -67 -129.5 q-23.5 -76 -23.5 -169 q0 -84 20 -154.5 q20 -70.5 58 -122.5 q38 -52 93 -81 q55 -29 126 -29 q31 0 60 6.5 q29 6.5 56 17 q27 10.5 51 23 q24 12.5 44 24.5 l0 697 ZM780 0 l0 109 q-35 -27 -72.5 -51.5 q-37.5 -24.5 -77 -42.5 q-39.5 -18 -81 -29 q-41.5 -11 -86.5 -11 q-103 0 -177.5 44.5 q-74.5 44.5 -122.5 115 q-48 70.5 -70.5 158 q-22.5 87.5 -22.5 174.5 q0 104 32 202.5 q32 98.5 97 174.5 q65 76 163 122 q98 46 230 46 q24 0 52 -3 q28 -3 54.5 -6.5 q26.5 -3.5 48 -8 q21.5 -4.5 33.5 -7.5 l0 375 l-155 0 l0 68 l264 79 l82 0 l0 -1378 q0 -19 12 -31 q12 -12 31 -14 l88 -6 l0 -80 l-322 0 Z"/><glyph glyph-name="e" unicode="e" d="M934 102 q-43 -27 -89.5 -50 q-46.5 -23 -96 -40 q-49.5 -17 -100.5 -27 q-51 -10 -103 -10 q-93 0 -179 31.5 q-86 31.5 -151.5 94.5 q-65.5 63 -105 158.5 q-39.5 95.5 -39.5 223.5 q0 120 36 217.5 q36 97.5 100 167 q64 69.5 152 107 q88 37.5 193 37.5 q95 0 167 -31.5 q72 -31.5 120 -87 q48 -55.5 72 -133 q24 -77.5 24 -168.5 l0 -27 q0 -16 -2 -30 l-664 0 q0 -78 16.5 -156 q16.5 -78 55.5 -140 q39 -62 105 -100.5 q66 -38.5 165 -38.5 q44 0 87 11.5 q43 11.5 84.5 29.5 q41.5 18 79.5 40.5 q38 22.5 73 45.5 l0 -125 ZM729 672 q0 51 -12 94.5 q-12 43.5 -36.5 75.5 q-24.5 32 -62 50.5 q-37.5 18.5 -88.5 18.5 q-51 0 -95 -19.5 q-44 -19.5 -77.5 -56.5 q-33.5 -37 -54 -89.5 q-20.5 -52.5 -24.5 -118.5 l450 0 l0 45 Z"/><glyph glyph-name="f" unicode="f" d="M797 1386 q0 -31 -12.5 -51.5 q-12.5 -20.5 -29 -33 q-16.5 -12.5 -32 -18.5 q-15.5 -6 -21.5 -7 q-2 2 -16.5 12.5 q-14.5 10.5 -35 25 q-20.5 14.5 -44 30.5 q-23.5 16 -43.5 30.5 q-20 14.5 -34 24 q-14 9.5 -15 10.5 q-22 -12 -43.5 -34 q-21.5 -22 -39 -59 q-17.5 -37 -28 -89.5 q-10.5 -52.5 -10.5 -124.5 l0 -131 l254 0 l0 -105 l-254 0 l0 -735 q0 -19 12.5 -31 q12.5 -12 30.5 -14 l121 -6 l0 -80 l-498 0 l0 80 l101 6 q18 2 30.5 14 q12.5 12 12.5 31 l0 735 l-131 0 l0 72 l131 37 q0 51 3.5 91.5 q3.5 40.5 12 76 q8.5 35.5 21.5 69 q13 33.5 32 70.5 q30 58 69.5 100.5 q39.5 42.5 85 70.5 q45.5 28 95 42 q49.5 14 99.5 14 q43 0 76 -10 q33 -10 55.5 -27 q22.5 -17 33.5 -39 q11 -22 11 -47 Z"/><glyph glyph-name="g" unicode="g" d="M811 -137 q0 42 -21 71.5 q-21 29.5 -55.5 48.5 q-34.5 19 -78 30.5 q-43.5 11.5 -88 19 q-44.5 7.5 -86.5 12 q-42 4.5 -72 10.5 q-45 -16 -75 -38.5 q-30 -22.5 -48 -48.5 q-18 -26 -25.5 -53 q-7.5 -27 -7.5 -52 q0 -37 16 -79 q16 -42 49 -77 q33 -35 83.5 -58.5 q50.5 -23.5 119.5 -23.5 q73 0 127.5 23.5 q54.5 23.5 90.5 58.5 q36 35 53.5 77 q17.5 42 17.5 79 ZM696 678 q0 48 -12.5 93.5 q-12.5 45.5 -36.5 80 q-24 34.5 -59.5 55.5 q-35.5 21 -81.5 21 q-43 0 -79 -17 q-36 -17 -61.5 -49.5 q-25.5 -32.5 -40 -79.5 q-14.5 -47 -14.5 -106 q0 -51 12.5 -96.5 q12.5 -45.5 37 -79.5 q24.5 -34 61 -54 q36.5 -20 84.5 -20 q46 0 81.5 20 q35.5 20 59.5 54 q24 34 36.5 80 q12.5 46 12.5 98 ZM836 850 q23 -37 39 -80.5 q16 -43.5 16 -103.5 q0 -81 -37 -144 q-37 -63 -98.5 -105 q-61.5 -42 -141 -61.5 q-79.5 -19.5 -165.5 -13.5 q-12 -20 -16.5 -43 q-4.5 -23 -5 -43 q-0.5 -20 1.5 -34.5 q2 -14.5 3 -16.5 q46 -5 105 -11 q59 -6 120.5 -17.5 q61.5 -11.5 121 -30.5 q59.5 -19 105.5 -49.5 q46 -30.5 74.5 -74 q28.5 -43.5 28.5 -104.5 q0 -73 -41.5 -142.5 q-41.5 -69.5 -113.5 -124 q-72 -54.5 -169 -87.5 q-97 -33 -208 -33 q-92 0 -163.5 22 q-71.5 22 -120.5 61 q-49 39 -75 92.5 q-26 53.5 -26 115.5 q0 45 13 85.5 q13 40.5 40 73 q27 32.5 67.5 56 q40.5 23.5 96.5 33.5 q-6 16 -10 26.5 q-4 10.5 -6.5 20 q-2.5 9.5 -3.5 20 q-1 10.5 -1 27.5 q0 40 24.5 88.5 q24.5 48.5 78.5 103.5 q-51 12 -97 38 q-46 26 -81 65.5 q-35 39.5 -55.5 91 q-20.5 51.5 -20.5 113.5 q0 81 30 145.5 q30 64.5 84 109.5 q54 45 129.5 69 q75.5 24 167.5 24 q36 0 70.5 -6 q34.5 -6 65 -15.5 q30.5 -9.5 56.5 -20.5 q26 -11 46 -20 l276 0 l0 -100 l-204 0 Z"/><glyph glyph-name="h" unicode="h" d="M672 0 l0 80 l84 6 q18 2 31.5 14 q13.5 12 13.5 31 l0 528 q0 44 -9.5 81 q-9.5 37 -33 64 q-23.5 27 -62.5 42.5 q-39 15.5 -98 15.5 q-27 0 -57 -4.5 q-30 -4.5 -59.5 -12.5 q-29.5 -8 -57 -19 q-27.5 -11 -49.5 -23 l0 -672 q0 -19 11 -31 q11 -12 30 -14 l88 -6 l0 -80 l-461 0 l0 80 l98 6 q19 2 31 14 q12 12 12 31 l0 1231 l-153 0 l0 68 l262 79 l82 0 l0 -624 q28 17 69 39 q41 22 87.5 41.5 q46.5 19.5 94 33 q47.5 13.5 87.5 13.5 q59 0 109.5 -19 q50.5 -19 88 -57 q37.5 -38 59 -96.5 q21.5 -58.5 21.5 -137.5 l0 -571 q0 -19 13.5 -31 q13.5 -12 31.5 -14 l92 -6 l0 -80 l-456 0 Z"/><glyph glyph-name="i" unicode="i" d="M70 0 l0 80 l100 6 q19 2 31 14 q12 12 12 31 l0 731 l-141 0 l0 72 l250 78 l81 0 l0 -881 q0 -19 12.5 -31 q12.5 -12 30.5 -14 l105 -6 l0 -80 l-481 0 ZM446 1325 q0 -26 -9.5 -49.5 q-9.5 -23.5 -26.5 -40.5 q-17 -17 -39.5 -27 q-22.5 -10 -48.5 -10 q-26 0 -49.5 10 q-23.5 10 -40.5 27 q-17 17 -27 40.5 q-10 23.5 -10 49.5 q0 26 10 49 q10 23 27 40 q17 17 40.5 26.5 q23.5 9.5 49.5 9.5 q26 0 48.5 -9.5 q22.5 -9.5 39.5 -26.5 q17 -17 26.5 -40 q9.5 -23 9.5 -49 Z"/><glyph glyph-name="j" unicode="j" d="M414 131 q0 -46 -3 -100.5 q-3 -54.5 -11.5 -109.5 q-8.5 -55 -24 -107 q-15.5 -52 -41.5 -93 q-63 -97 -153 -143.5 q-90 -46.5 -187 -46.5 q-32 0 -60 6.5 q-28 6.5 -49.5 20.5 q-21.5 14 -34 35.5 q-12.5 21.5 -12.5 50.5 q0 26 8 45.5 q8 19.5 20.5 34 q12.5 14.5 28.5 24 q16 9.5 31 14.5 l199 -137 q28 16 47 47.5 q19 31.5 30.5 75 q11.5 43.5 16 97 q4.5 53.5 4.5 112.5 l0 909 l-145 0 l0 68 l252 78 l84 0 l0 -881 ZM436 1325 q0 -26 -9.5 -49.5 q-9.5 -23.5 -26.5 -40.5 q-17 -17 -40 -27 q-23 -10 -49 -10 q-26 0 -49 10 q-23 10 -40.5 27 q-17.5 17 -27.5 40.5 q-10 23.5 -10 49.5 q0 26 10 49 q10 23 27.5 40 q17.5 17 40.5 26.5 q23 9.5 49 9.5 q26 0 49 -9.5 q23 -9.5 40 -26.5 q17 -17 26.5 -40 q9.5 -23 9.5 -49 Z"/><glyph glyph-name="k" unicode="k" d="M745 0 l0 80 l-256 385 l-114 0 l0 -334 q0 -19 12 -31 q12 -12 31 -14 l88 -6 l0 -80 l-465 0 l0 80 l100 6 q19 2 31 14 q12 12 12 31 l0 1231 l-155 0 l0 68 l262 79 l84 0 l0 -985 l41 0 l301 340 q8 10 2.5 21.5 q-5.5 11.5 -19.5 13.5 l-84 8 l0 80 l398 0 l0 -80 l-131 -14 l-271 -289 l353 -512 l108 -12 l0 -80 l-328 0 Z"/><glyph glyph-name="l" unicode="l" d="M55 0 l0 80 l109 6 q14 0 29.5 14.5 q15.5 14.5 15.5 28.5 l0 1233 l-156 0 l0 68 l262 79 l84 0 l0 -1380 q0 -14 14.5 -28.5 q14.5 -14.5 28.5 -14.5 l111 -6 l0 -80 l-498 0 Z"/><glyph glyph-name="m" unicode="m" d="M1237 0 l0 80 l86 6 q19 2 31 14 q12 12 12 31 l0 522 q0 48 -9 86.5 q-9 38.5 -30.5 65.5 q-21.5 27 -56.5 42 q-35 15 -86 15 q-26 0 -54.5 -4.5 q-28.5 -4.5 -57 -12 q-28.5 -7.5 -56 -18 q-27.5 -10.5 -51.5 -22.5 l0 -674 q0 -19 12 -31 q12 -12 31 -14 l86 -6 l0 -80 l-449 0 l0 80 l86 6 q19 2 31 14 q12 12 12 31 l0 535 q0 43 -9.5 79.5 q-9.5 36.5 -31 62 q-21.5 25.5 -56 40 q-34.5 14.5 -83.5 14.5 q-29 0 -60.5 -5.5 q-31.5 -5.5 -60.5 -14 q-29 -8.5 -54.5 -19 q-25.5 -10.5 -43.5 -20.5 l0 -672 q0 -19 12 -31 q12 -12 31 -14 l86 -6 l0 -80 l-463 0 l0 80 l100 6 q19 2 31 14 q12 12 12 31 l0 711 l-141 0 l0 67 l248 78 l84 0 l0 -102 q34 21 75.5 43 q41.5 22 85.5 41 q44 19 88.5 31 q44.5 12 84.5 12 q44 0 80 -12.5 q36 -12.5 63.5 -33 q27.5 -20.5 48 -46 q20.5 -25.5 33.5 -50.5 q31 19 75 44 q44 25 93 46.5 q49 21.5 98 36.5 q49 15 90 15 q81 0 132 -29.5 q51 -29.5 80.5 -75 q29.5 -45.5 40.5 -101.5 q11 -56 11 -108 l0 -567 q0 -19 12.5 -31 q12.5 -12 30.5 -14 l99 -6 l0 -80 l-459 0 Z"/><glyph glyph-name="n" unicode="n" d="M668 0 l0 80 l86 6 q18 2 30.5 14 q12.5 12 12.5 31 l0 533 q0 97 -45 147.5 q-45 50.5 -152 50.5 q-59 0 -116 -16.5 q-57 -16.5 -109 -42.5 l0 -672 q0 -19 12 -31 q12 -12 31 -14 l86 -6 l0 -80 l-463 0 l0 80 l100 6 q19 2 31 14 q12 12 12 31 l0 711 l-143 0 l0 67 l250 78 l84 0 l0 -102 q43 24 87.5 47 q44.5 23 88.5 41 q44 18 85 28.5 q41 10.5 77 10.5 q134 0 204 -83 q70 -83 70 -233 l0 -565 q0 -19 12.5 -31 q12.5 -12 30.5 -14 l90 -6 l0 -80 l-452 0 Z"/><glyph glyph-name="o" unicode="o" d="M831 494 q0 84 -16.5 161 q-16.5 77 -50.5 136 q-34 59 -85 94 q-51 35 -120 35 q-71 0 -123 -35 q-52 -35 -85.5 -94 q-33.5 -59 -49.5 -136 q-16 -77 -16 -161 q0 -83 16.5 -160 q16.5 -77 50.5 -136 q34 -59 85 -94.5 q51 -35.5 120 -35.5 q70 0 122 35 q52 35 85.5 94 q33.5 59 50 136 q16.5 77 16.5 161 ZM1044 492 q0 -109 -34.5 -203.5 q-34.5 -94.5 -98 -164 q-63.5 -69.5 -154 -109.5 q-90.5 -40 -202.5 -40 q-112 0 -202 39.5 q-90 39.5 -153 108.5 q-63 69 -96.5 163.5 q-33.5 94.5 -33.5 205.5 q0 109 34 204 q34 95 98 165.5 q64 70.5 154.5 110.5 q90.5 40 204.5 40 q114 0 204 -41 q90 -41 152 -111.5 q62 -70.5 94.5 -165 q32.5 -94.5 32.5 -202.5 Z"/><glyph glyph-name="p" unicode="p" d="M870 479 q0 79 -18.5 149.5 q-18.5 70.5 -54.5 124 q-36 53.5 -89.5 84.5 q-53.5 31 -123.5 31 q-39 0 -76.5 -10 q-37.5 -10 -66.5 -21 q-34 -13 -66 -30 l0 -705 q24 -9 51 -16 q23 -6 53 -11 q30 -5 62 -5 q84 0 146 34 q62 34 102.5 90.5 q40.5 56.5 60.5 130.5 q20 74 20 154 ZM1075 508 q0 -121 -35.5 -219.5 q-35.5 -98.5 -102 -168 q-66.5 -69.5 -163 -107.5 q-96.5 -38 -217.5 -38 q-28 0 -60 2.5 q-32 2.5 -59 6.5 q-32 4 -63 10 l0 -305 q0 -19 13 -30 q13 -11 32 -13 l121 -13 l0 -79 l-498 0 l0 79 l98 13 q19 2 31 13 q12 11 12 30 l0 1153 l-141 0 l0 67 l252 78 l80 0 l0 -102 q44 35 94 63 q43 24 99 44 q56 20 116 20 q79 0 150 -36 q71 -36 124.5 -102 q53.5 -66 85 -159 q31.5 -93 31.5 -207 Z"/><glyph glyph-name="q" unicode="q" d="M762 895 q-28 6 -63.5 14.5 q-35.5 8.5 -77.5 8.5 q-84 0 -148.5 -30 q-64.5 -30 -108 -84.5 q-43.5 -54.5 -66 -131 q-22.5 -76.5 -22.5 -170.5 q0 -79 17.5 -152.5 q17.5 -73.5 55 -129.5 q37.5 -56 96 -90 q58.5 -34 141.5 -34 q19 0 42.5 2.5 q23.5 2.5 47.5 6.5 q24 4 46.5 9.5 q22.5 5.5 39.5 10.5 l0 770 ZM598 -446 l0 77 l121 11 q18 2 30.5 13 q12.5 11 12.5 30 l0 370 q-29 -14 -64 -28 q-35 -14 -73.5 -25.5 q-38.5 -11.5 -77 -19 q-38.5 -7.5 -72.5 -7.5 q-95 0 -170 39 q-75 39 -127 106 q-52 67 -80 157 q-28 90 -28 192 q0 125 40 225.5 q40 100.5 116 171 q76 70.5 186 108.5 q110 38 250 38 q28 0 65 -2.5 q37 -2.5 76 -6.5 q39 -4 78 -10.5 q39 -6.5 71 -13.5 l0 -1294 q0 -19 12.5 -29.5 q12.5 -10.5 30.5 -13.5 l99 -11 l0 -77 l-496 0 Z"/><glyph glyph-name="r" unicode="r" d="M700 778 q-20 23 -46 39.5 q-26 16.5 -64 16.5 q-50 0 -101 -33.5 q-51 -33.5 -104 -93.5 l0 -576 q0 -19 12 -31 q12 -12 31 -14 l135 -6 l0 -80 l-512 0 l0 78 l101 8 q18 2 30.5 14 q12.5 12 12.5 31 l0 711 l-148 0 l0 67 l254 78 l84 0 l0 -182 q22 24 53.5 59.5 q31.5 35.5 67.5 68.5 q36 33 74.5 56 q38.5 23 74.5 23 q16 0 34 -3 q18 -3 35 -7.5 q17 -4.5 31.5 -10 q14.5 -5.5 24.5 -10.5 l0 -203 l-80 0 Z"/><glyph glyph-name="s" unicode="s" d="M745 297 q0 -75 -27 -135 q-27 -60 -77 -101.5 q-50 -41.5 -123 -63.5 q-73 -22 -164 -22 q-47 0 -91.5 5.5 q-44.5 5.5 -82 14 q-37.5 8.5 -66.5 17.5 q-29 9 -44 15 l0 272 l104 0 l25 -174 q31 -20 76.5 -38.5 q45.5 -18.5 105.5 -18.5 q44 0 78 13.5 q34 13.5 57.5 35.5 q23.5 22 36 50.5 q12.5 28.5 12.5 59.5 q0 43 -17 73.5 q-17 30.5 -49 55 q-32 24.5 -78.5 47.5 q-46.5 23 -105.5 52 q-56 27 -99 53.5 q-43 26.5 -72.5 57 q-29.5 30.5 -44.5 67 q-15 36.5 -15 82.5 q0 68 24.5 123 q24.5 55 71.5 93.5 q47 38.5 115.5 59.5 q68.5 21 157.5 21 q45 0 86 -5 q41 -5 75 -12 q34 -7 60 -15 q26 -8 41 -15 l0 -242 l-107 0 l-16 143 q-22 17 -65 32 q-43 15 -91 15 q-85 0 -125.5 -38.5 q-40.5 -38.5 -40.5 -98.5 q0 -35 11.5 -61 q11.5 -26 38 -49 q26.5 -23 70 -47 q43.5 -24 108.5 -54 q54 -24 99 -50 q45 -26 78 -58 q33 -32 51.5 -71 q18.5 -39 18.5 -89 Z"/><glyph glyph-name="t" unicode="t" d="M682 43 q-38 -19 -83 -34 q-38 -13 -88 -23.5 q-50 -10.5 -105 -10.5 q-116 0 -168 54 q-52 54 -52 176 l0 680 l-131 0 l0 67 l140 66 l92 217 l90 0 l0 -248 l289 0 l0 -102 l-289 0 l0 -572 q0 -61 10.5 -103.5 q10.5 -42.5 31 -69 q20.5 -26.5 51 -38.5 q30.5 -12 71.5 -12 q30 0 55.5 5 q25.5 5 44.5 12 q22 8 41 18 l0 -82 Z"/><glyph glyph-name="u" unicode="u" d="M795 0 l0 117 q-26 -20 -63.5 -45 q-37.5 -25 -81 -46.5 q-43.5 -21.5 -91 -36 q-47.5 -14.5 -92.5 -14.5 q-66 0 -118.5 19.5 q-52.5 19.5 -89 60 q-36.5 40.5 -56 103 q-19.5 62.5 -19.5 149.5 l0 555 l-143 0 l0 70 l252 80 l82 0 l0 -666 q0 -54 10.5 -97 q10.5 -43 34 -73 q23.5 -30 61.5 -45.5 q38 -15.5 92 -15.5 q31 0 63 6 q32 6 61 15.5 q29 9.5 54.5 20 q25.5 10.5 43.5 19.5 l0 686 l-144 0 l0 70 l250 80 l84 0 l0 -881 q0 -19 13.5 -31 q13.5 -12 31.5 -14 l90 -6 l0 -80 l-325 0 Z"/><glyph glyph-name="v" unicode="v" d="M954 895 l-358 -895 l-133 0 l-330 895 l-113 12 l0 80 l453 0 l0 -80 l-98 -6 q-17 -2 -27 -15 q-10 -13 -4 -30 l229 -641 l252 641 q7 16 -2 29.5 q-9 13.5 -26 15.5 l-92 6 l0 80 l358 0 l0 -80 l-109 -12 Z"/><glyph glyph-name="w" unicode="w" d="M1479 895 l-281 -895 l-145 0 l-242 766 l-270 -766 l-146 0 l-262 895 l-113 12 l0 80 l449 0 l0 -80 l-96 -6 q-17 -2 -26.5 -15 q-9.5 -13 -4.5 -30 l170 -637 l264 768 l146 0 l237 -768 l189 637 q5 16 -3.5 29.5 q-8.5 13.5 -25.5 15.5 l-94 6 l0 80 l358 0 l0 -80 l-104 -12 Z"/><glyph glyph-name="x" unicode="x" d="M584 0 l0 80 l69 8 q14 2 19.5 14 q5.5 12 -0.5 23 l-176 262 l-201 -262 q-8 -9 -5 -22 q3 -13 17 -15 l103 -8 l0 -80 l-390 0 l0 80 l117 16 l293 381 l-278 412 l-121 18 l0 80 l450 0 l0 -80 l-71 -10 q-14 -2 -20.5 -14 q-6.5 -12 -0.5 -23 l162 -229 l178 229 q8 9 4 22 q-4 13 -18 15 l-88 10 l0 80 l368 0 l0 -80 l-110 -18 l-275 -350 l303 -443 l111 -16 l0 -80 l-440 0 Z"/><glyph glyph-name="y" unicode="y" d="M958 895 l-393 -958 q-10 -25 -28 -67 q-18 -42 -42.5 -89.5 q-24.5 -47.5 -54 -93.5 q-29.5 -46 -61.5 -78 q-37 -37 -81.5 -57.5 q-44.5 -20.5 -96.5 -20.5 q-36 0 -64 9.5 q-28 9.5 -47 25.5 q-19 16 -29 37.5 q-10 21.5 -10 44.5 q0 35 15.5 64.5 q15.5 29.5 50.5 58.5 l192 -88 q25 25 51 65.5 q26 40.5 49 85.5 q23 45 42 89.5 q19 44.5 30 78.5 l-348 893 l-113 12 l0 80 l453 0 l0 -80 l-98 -6 q-17 -2 -27 -15 q-10 -13 -4 -30 l238 -604 l243 604 q7 16 -2 29.5 q-9 13.5 -26 15.5 l-97 6 l0 80 l365 0 l0 -80 l-107 -12 Z"/><glyph glyph-name="z" unicode="z" d="M70 0 l0 109 l542 782 l-356 0 q-15 0 -26.5 -14.5 q-11.5 -14.5 -14.5 -28.5 l-20 -152 l-105 0 l0 291 l758 0 l0 -84 l-561 -805 l413 0 q7 0 14.5 5 q7.5 5 14 12 q6.5 7 11 15.5 q4.5 8.5 5.5 16.5 l21 162 l111 0 l0 -309 l-807 0 Z"/><glyph glyph-name="braceleft" unicode="{" d="M858 -252 q-54 0 -107 4 q-53 4 -100 14.5 q-47 10.5 -85.5 27.5 q-38.5 17 -63.5 44 q-35 36 -52 78.5 q-17 42.5 -24.5 89.5 q-7.5 47 -7.5 96 l0 176 q0 41 -5 81 q-5 40 -17 76 q-12 36 -36 59 q-18 18 -41 28.5 q-23 10.5 -51.5 16.5 q-28.5 6 -64 8 q-35.5 2 -80.5 2 l0 92 q45 0 80.5 2 q35.5 2 64 8 q28.5 6 51.5 16.5 q23 10.5 41 28.5 q24 23 36 59 q12 36 17 76 q5 40 5 81 l0 175 q0 50 7.5 96.5 q7.5 46.5 24.5 89.5 q17 43 52 79 q25 27 63.5 44 q38.5 17 85.5 27.5 q47 10.5 100 14.5 q53 4 107 4 l0 -84 q-13 0 -40 -2 q-27 -2 -58.5 -8 q-31.5 -6 -61.5 -18.5 q-30 -12.5 -49 -33.5 q-21 -23 -31.5 -57 q-10.5 -34 -14.5 -74.5 q-4 -40.5 -3.5 -84.5 q0.5 -44 0.5 -87 q0 -35 -1.5 -73.5 q-1.5 -38.5 -7.5 -76 q-6 -37.5 -17.5 -71 q-11.5 -33.5 -32.5 -59.5 q-41 -53 -97.5 -78 q-56.5 -25 -119.5 -39 q63 -14 119.5 -40 q56.5 -26 97.5 -79 q21 -26 32.5 -59.5 q11.5 -33.5 17.5 -71 q6 -37.5 7.5 -76 q1.5 -38.5 1.5 -73.5 q0 -43 -0.5 -87 q-0.5 -44 3.5 -84.5 q4 -40.5 14.5 -74.5 q10.5 -34 31.5 -57 q19 -21 49 -33.5 q30 -12.5 61.5 -18.5 q31.5 -6 58.5 -8 q27 -2 40 -2 l0 -84 Z"/><glyph glyph-name="bar" unicode="|" d="M300 -528 l0 2158 l124 0 l0 -2158 l-124 0 Z"/><glyph glyph-name="braceright" unicode="}" d="M877 549 q-89 0 -145 -10 q-56 -10 -93 -45 q-24 -23 -36 -59 q-12 -36 -16.5 -76 q-4.5 -40 -4.5 -81 l0 -176 q0 -49 -7.5 -96 q-7.5 -47 -25 -89.5 q-17.5 -42.5 -51.5 -78.5 q-26 -27 -64 -44 q-38 -17 -85 -27.5 q-47 -10.5 -100 -14.5 q-53 -4 -108 -4 l0 84 q13 0 40 2 q27 2 58.5 8 q31.5 6 61.5 18.5 q30 12.5 49 33.5 q22 23 32 57 q10 34 14 74.5 q4 40.5 3.5 84.5 q-0.5 44 -0.5 87 q0 35 1.5 73.5 q1.5 38.5 7.5 76 q6 37.5 18 71 q12 33.5 33 59.5 q40 53 97 79 q57 26 120 40 q-32 7 -62 16 q-30 9 -58 23 q-28 14 -52.5 33 q-24.5 19 -44.5 45 q-21 26 -33 59.5 q-12 33.5 -18 71 q-6 37.5 -7.5 76 q-1.5 38.5 -1.5 73.5 q0 43 0.5 87 q0.5 44 -3.5 84.5 q-4 40.5 -14 74.5 q-10 34 -32 57 q-19 21 -49 33.5 q-30 12.5 -61.5 18.5 q-31.5 6 -58.5 8 q-27 2 -40 2 l0 84 q55 0 108 -4 q53 -4 100 -14.5 q47 -10.5 85 -27.5 q38 -17 64 -44 q34 -36 51.5 -79 q17.5 -43 25 -89.5 q7.5 -46.5 7.5 -96.5 l0 -175 q0 -41 4.5 -81 q4.5 -40 16.5 -76 q12 -36 36 -59 q37 -35 93 -45 q56 -10 145 -10 l0 -92 Z"/><glyph glyph-name="Ccedilla" unicode="" d="M966 -266 q0 -48 -18 -84 q-18 -36 -49.5 -61 q-31.5 -25 -75 -37.5 q-43.5 -12.5 -95.5 -12.5 q-27 0 -53.5 3 q-26.5 3 -48.5 7 q-26 4 -49 11 l0 80 q21 -5 43 -9 q19 -3 40.5 -5.5 q21.5 -2.5 41.5 -2.5 q24 0 47.5 4.5 q23.5 4.5 42 14 q18.5 9.5 30 25.5 q11.5 16 11.5 40 q0 38 -27 57 q-27 19 -69 19 q-8 0 -16 -2 q-8 -2 -15 -4 l-16 -6 l0 202 q-56 7 -108 22 q-97 27 -176.5 76 q-79.5 49 -140 117 q-60.5 68 -102 148 q-41.5 80 -62.5 170 q-21 90 -21 184 q0 159 52 291 q52 132 146 226.5 q94 94.5 226 147 q132 52.5 293 52.5 q50 0 96.5 -5.5 q46.5 -5.5 94.5 -15.5 q48 -10 101 -25 q53 -15 115 -34 l0 -321 l-123 0 l-30 186 q-2 14 -14 28 q-12 14 -21 19 q-12 5 -31.5 14 q-19.5 9 -46.5 17.5 q-27 8.5 -60 15 q-33 6.5 -71 6.5 q-105 0 -195 -39 q-90 -39 -156 -115 q-66 -76 -103.5 -188.5 q-37.5 -112.5 -37.5 -259.5 q0 -143 35.5 -256 q35.5 -113 102.5 -192 q67 -79 163 -120.5 q96 -41.5 218 -41.5 q36 0 65.5 5 q29.5 5 51.5 11.5 q22 6.5 34 12 q12 5.5 14 6.5 q16 6 26 17 q10 11 13 24 l47 223 l119 0 l0 -332 q-4 -2 -39 -14.5 q-35 -12.5 -91 -27 q-56 -14.5 -128.5 -26.5 q-72.5 -12 -150.5 -12 l-24 0 l0 -96 q11 2 21 5 q10 3 27 3 q31 0 57.5 -8 q26.5 -8 46.5 -25.5 q20 -17.5 31.5 -45 q11.5 -27.5 11.5 -66.5 Z"/><glyph glyph-name="ccedilla" unicode="" d="M761 -266 q0 -48 -18 -84 q-18 -36 -49.5 -61 q-31.5 -25 -75 -37.5 q-43.5 -12.5 -95.5 -12.5 q-27 0 -53.5 3 q-26.5 3 -48.5 7 q-26 4 -49 11 l0 80 q21 -5 43 -9 q19 -3 40.5 -5.5 q21.5 -2.5 41.5 -2.5 q24 0 47.5 4.5 q23.5 4.5 42 14 q18.5 9.5 30 25.5 q11.5 16 11.5 40 q0 38 -27 57 q-27 19 -69 19 q-8 0 -16 -2 q-8 -2 -15 -4 l-16 -6 l0 207 q-76 7 -141 35 q-86 39 -147 107.5 q-61 68.5 -94 162.5 q-33 94 -33 204 q0 129 40 227 q40 98 108 164.5 q68 66.5 157.5 100 q89.5 33.5 187.5 33.5 q67 0 125.5 -13.5 q58.5 -13.5 101 -39.5 q42.5 -26 67 -64 q24.5 -38 24.5 -88 q0 -30 -10.5 -52.5 q-10.5 -22.5 -27.5 -38 q-17 -15.5 -38.5 -23 q-21.5 -7.5 -44.5 -7.5 q-34 0 -59 11.5 q-25 11.5 -44 23.5 l0 178 q-21 12 -43.5 19.5 q-22.5 7.5 -42.5 7.5 q-68 0 -122.5 -31 q-54.5 -31 -92 -86 q-37.5 -55 -57.5 -130.5 q-20 -75.5 -20 -164.5 q0 -85 21.5 -160 q21.5 -75 64 -130.5 q42.5 -55.5 106 -87.5 q63.5 -32 147.5 -32 q72 0 136.5 22.5 q64.5 22.5 130.5 66.5 l0 -117 q-35 -18 -73.5 -36.5 q-38.5 -18.5 -82 -32.5 q-43.5 -14 -91.5 -23 q-35 -6 -72 -8 l0 -105 q11 2 21 5 q10 3 27 3 q31 0 57.5 -8 q26.5 -8 46.5 -25.5 q20 -17.5 31.5 -45 q11.5 -27.5 11.5 -66.5 Z"/><glyph glyph-name="dagger" unicode="" d="M526 -264 l-28 0 l-90 866 l90 340 l28 0 l90 -340 l-90 -866 ZM182 891 l-153 94 l153 96 l289 -82 l0 -28 l-289 -80 ZM842 891 l-287 80 l0 28 l287 82 l153 -96 l-153 -94 ZM526 1028 l-28 0 l-82 287 l96 155 l96 -155 l-82 -287 Z"/><glyph glyph-name="degree" unicode="" d="M471 1249 q0 30 -11 56 q-11 26 -30.5 45.5 q-19.5 19.5 -45.5 31 q-26 11.5 -56 11.5 q-30 0 -56.5 -11.5 q-26.5 -11.5 -46 -31 q-19.5 -19.5 -30.5 -45.5 q-11 -26 -11 -56 q0 -30 11 -56 q11 -26 30.5 -45.5 q19.5 -19.5 46 -30.5 q26.5 -11 56.5 -11 q30 0 56 11 q26 11 45.5 30.5 q19.5 19.5 30.5 45.5 q11 26 11 56 ZM553 1249 q0 -47 -17.5 -88 q-17.5 -41 -48 -71.5 q-30.5 -30.5 -71.5 -48 q-41 -17.5 -88 -17.5 q-47 0 -88 17.5 q-41 17.5 -72 48 q-31 30.5 -48.5 71.5 q-17.5 41 -17.5 88 q0 47 17.5 88 q17.5 41 48.5 72 q31 31 72 48.5 q41 17.5 88 17.5 q47 0 88 -17.5 q41 -17.5 71.5 -48.5 q30.5 -31 48 -72 q17.5 -41 17.5 -88 Z"/><glyph glyph-name="cent" unicode="" d="M604 930 q-40 -9 -84 -38 q-44 -29 -81.5 -79 q-37.5 -50 -62 -122 q-24.5 -72 -24.5 -169 q0 -91 20 -163 q20 -72 54.5 -124.5 q34.5 -52.5 80.5 -85.5 q46 -33 97 -45 l0 826 ZM997 47 q-2 -2 -21.5 -10 q-19.5 -8 -56 -16 q-36.5 -8 -91 -14.5 q-54.5 -6.5 -126.5 -6.5 l0 -203 l-98 0 l0 207 q-104 12 -187 54 q-83 42 -141 109 q-58 67 -89 156 q-31 89 -31 193 q0 102 32.5 189.5 q32.5 87.5 91 154.5 q58.5 67 141 110.5 q82.5 43.5 183.5 57.5 l0 209 l98 0 l0 -201 q39 0 75 -3 q36 -3 71.5 -9.5 q35.5 -6.5 72 -16 q36.5 -9.5 76.5 -22.5 l0 -301 l-98 0 l-29 178 q-3 13 -7.5 25.5 q-4.5 12.5 -16.5 17.5 q-11 6 -23 11.5 q-12 5.5 -28.5 9.5 q-16.5 4 -39 6.5 q-22.5 2.5 -53.5 3.5 l0 -838 q32 1 58.5 5.5 q26.5 4.5 45.5 9.5 q22 6 40 14 q9 5 15 15 q6 10 9 18 l27 196 l100 0 l0 -309 Z"/><glyph glyph-name="sterling" unicode="" d="M1065 1292 q0 -25 -10.5 -46.5 q-10.5 -21.5 -28 -37 q-17.5 -15.5 -40.5 -24 q-23 -8.5 -48 -8.5 q-23 0 -48 5 q-13 2 -26 5 l0 205 q-15 4 -31 8 q-14 3 -30 5.5 q-16 2.5 -31 2.5 q-59 0 -102.5 -17 q-43.5 -17 -74 -46.5 q-30.5 -29.5 -49.5 -69.5 q-19 -40 -29.5 -85 q-10.5 -45 -14.5 -93 q-4 -48 -4 -95 q0 -34 0.5 -73.5 q0.5 -39.5 1.5 -73.5 l2 -80 l381 0 l0 -100 l-381 0 q0 -98 -8.5 -175 q-8.5 -77 -32.5 -138.5 q-24 -61.5 -66.5 -111.5 q-42.5 -50 -109.5 -93 q37 3 70 6 l56 4 q28 2 44 2 l606 0 l0 -168 l-973 0 l0 125 q63 16 106 49.5 q43 33.5 69 84 q26 50.5 37.5 117 q11.5 66.5 10.5 148.5 q2 3 1.5 26.5 q-0.5 23.5 -1.5 51.5 l-2 72 l-143 0 l0 100 l141 0 q-1 47 -1 90 q-1 37 -1 74 l0 61 q0 106 26 199 q26 93 80 162 q54 69 136 109 q82 40 194 40 q48 0 104.5 -11.5 q56.5 -11.5 105 -37.5 q48.5 -26 81.5 -67.5 q33 -41.5 33 -100.5 Z"/><glyph glyph-name="section" unicode="" d="M743 614 q0 93 -74 163 q-74 70 -208 126 q-47 -16 -81.5 -41.5 q-34.5 -25.5 -57.5 -56.5 q-23 -31 -34.5 -65 q-11.5 -34 -11.5 -68 q0 -47 18 -86 q18 -39 54.5 -74 q36.5 -35 92 -68.5 q55.5 -33.5 130.5 -68.5 q22 12 52 35.5 q30 23.5 56.5 55.5 q26.5 32 45 70 q18.5 38 18.5 78 ZM903 666 q0 -60 -21 -112.5 q-21 -52.5 -56 -95 q-35 -42.5 -79.5 -74.5 q-44.5 -32 -91.5 -50 q45 -21 83.5 -47 q38.5 -26 67 -59.5 q28.5 -33.5 44.5 -74.5 q16 -41 16 -90 q0 -69 -28.5 -126.5 q-28.5 -57.5 -79 -99 q-50.5 -41.5 -120.5 -64.5 q-70 -23 -153 -23 q-53 0 -101.5 7 q-48.5 7 -89.5 17.5 q-41 10.5 -73 21.5 q-32 11 -51 20 l0 268 l102 0 q3 -19 5 -30 q2 -11 3.5 -19.5 q1.5 -8.5 3 -17.5 q1.5 -9 4 -23 q2.5 -14 5.5 -36 q3 -22 8 -58 q18 -12 42 -22 q24 -10 50 -17 q26 -7 52 -11 q26 -4 49 -4 q45 0 83.5 11.5 q38.5 11.5 67 33 q28.5 21.5 44.5 52.5 q16 31 16 69 q0 45 -25 79.5 q-25 34.5 -66 63.5 q-41 29 -93.5 55.5 q-52.5 26.5 -107.5 54.5 q-55 28 -107.5 61 q-52.5 33 -93.5 75.5 q-41 42.5 -66 97 q-25 54.5 -25 126.5 q0 68 19 118 q19 50 51.5 87.5 q32.5 37.5 76.5 65 q44 27.5 94 50.5 q-46 23 -83.5 50 q-37.5 27 -64.5 59 q-27 32 -41.5 70 q-14.5 38 -14.5 83 q0 70 24.5 126 q24.5 56 74 95 q49.5 39 124 59.5 q74.5 20.5 174.5 20.5 q45 0 89 -5 q44 -5 82.5 -12.5 q38.5 -7.5 68.5 -16 q30 -8.5 45 -15.5 l0 -266 l-97 0 l-20 166 q-17 9 -37.5 19.5 q-20.5 10.5 -45 19 q-24.5 8.5 -52 14.5 q-27.5 6 -58.5 6 q-46 0 -83.5 -13 q-37.5 -13 -64.5 -36 q-27 -23 -41.5 -54.5 q-14.5 -31.5 -14.5 -68.5 q0 -39 25 -70 q25 -31 65.5 -58 q40.5 -27 92 -53 q51.5 -26 106 -54 q54.5 -28 106 -60.5 q51.5 -32.5 92 -73.5 q40.5 -41 65.5 -93 q25 -52 25 -119 Z"/><glyph glyph-name="bullet" unicode="" d="M543 696 q0 -49 -18.5 -92 q-18.5 -43 -50.5 -74.5 q-32 -31.5 -75 -50 q-43 -18.5 -92 -18.5 q-49 0 -92 18.5 q-43 18.5 -74.5 50 q-31.5 31.5 -50 74.5 q-18.5 43 -18.5 92 q0 49 18.5 92 q18.5 43 50 75 q31.5 32 74.5 50.5 q43 18.5 92 18.5 q49 0 92 -18.5 q43 -18.5 75 -50.5 q32 -32 50.5 -75 q18.5 -43 18.5 -92 Z"/><glyph glyph-name="paragraph" unicode="" d="M813 1280 l0 -1442 l-100 0 l0 1452 l-156 0 l0 -715 q-111 0 -203 17.5 q-92 17.5 -158.5 62.5 q-66.5 45 -103.5 122 q-37 77 -37 196 q0 113 32 189.5 q32 76.5 93.5 123.5 q61.5 47 150.5 67.5 q89 20.5 204 20.5 l405 0 l0 -74 l-127 -20 Z"/><glyph glyph-name="germandbls" unicode="" d="M1217 305 q0 -75 -28.5 -136 q-28.5 -61 -77 -104 q-48.5 -43 -113.5 -66.5 q-65 -23.5 -138 -23.5 q-35 0 -77 8 q-42 8 -79 18 q-43 11 -86 26 l0 274 l111 0 l19 -178 q17 -16 48 -33.5 q31 -17.5 74 -17.5 q39 0 70.5 14.5 q31.5 14.5 54 38.5 q22.5 24 35 55.5 q12.5 31.5 12.5 65.5 q0 57 -32.5 97.5 q-32.5 40.5 -81 73.5 q-48.5 33 -105.5 63.5 q-57 30.5 -105.5 66.5 q-48.5 36 -81 82 q-32.5 46 -32.5 112 q0 55 19 101.5 q19 46.5 52 82.5 q33 36 78.5 60.5 q45.5 24.5 98.5 36.5 q5 27 9 53 q3 23 6 48 q3 25 3 46 q0 46 -12.5 89 q-12.5 43 -38 76 q-25.5 33 -64 53 q-38.5 20 -91.5 20 q-64 0 -110 -24 q-46 -24 -78 -62.5 q-32 -38.5 -52 -88 q-20 -49.5 -30.5 -100.5 q-10.5 -51 -14.5 -99.5 q-4 -48.5 -4 -84.5 l0 -813 q0 -23 10 -35 q10 -12 21 -14 l104 -8 l0 -78 l-465 0 l0 78 l98 10 q19 2 30 17.5 q11 15.5 11 29.5 l0 793 q0 70 13 140.5 q13 70.5 40.5 135.5 q27.5 65 69.5 120.5 q42 55.5 99.5 96.5 q57.5 41 130.5 64.5 q73 23.5 163 23.5 q88 0 155.5 -24 q67.5 -24 112.5 -68.5 q45 -44.5 68 -107 q23 -62.5 23 -140.5 q0 -38 -5 -74 q-5 -36 -11.5 -65.5 q-6.5 -29.5 -12 -49.5 q-5.5 -20 -6.5 -24 q-3 0 -13 2.5 q-10 2.5 -32 2.5 q-52 0 -88.5 -13 q-36.5 -13 -59 -34.5 q-22.5 -21.5 -33 -49.5 q-10.5 -28 -10.5 -59 q0 -38 18.5 -67.5 q18.5 -29.5 48.5 -54 q30 -24.5 68.5 -47 q38.5 -22.5 79 -46 q40.5 -23.5 79 -50.5 q38.5 -27 68.5 -60.5 q30 -33.5 48.5 -76.5 q18.5 -43 18.5 -98 Z"/><glyph glyph-name="registered" unicode="" d="M1022 944 q0 42 -14 75.5 q-14 33.5 -45 57 q-31 23.5 -79.5 35.5 q-48.5 12 -117.5 12 l-70 0 l0 -368 q1 0 10 -0.5 q9 -0.5 21 -0.5 q12 0 24.5 -0.5 q12.5 -0.5 20.5 -0.5 q61 0 107.5 9.5 q46.5 9.5 78 32 q31.5 22.5 48 58.5 q16.5 36 16.5 90 ZM1366 291 q-5 -1 -18 -2.5 q-13 -1.5 -30 -3 q-17 -1.5 -36 -3 q-19 -1.5 -35 -1.5 q-68 0 -110 17.5 q-42 17.5 -67.5 46.5 q-25.5 29 -39 65.5 q-13.5 36.5 -25 75 q-11.5 38.5 -25 75 q-13.5 36.5 -39 65.5 q-25.5 29 -67.5 46.5 q-42 17.5 -110 17.5 q-23 0 -44 -1 q-21 -1 -24 -1 l0 -305 q0 -9 8 -18 q8 -9 23 -11 l78 -6 l0 -57 l-363 0 l0 57 l78 6 q16 2 23.5 11 q7.5 9 7.5 18 l0 713 q0 9 -7.5 17.5 q-7.5 8.5 -23.5 10.5 l-78 6 l0 58 l381 0 q84 0 150.5 -12.5 q66.5 -12.5 113 -40.5 q46.5 -28 71 -73.5 q24.5 -45.5 24.5 -111.5 q0 -52 -20 -89.5 q-20 -37.5 -53 -64 q-33 -26.5 -76.5 -43 q-43.5 -16.5 -90.5 -26.5 q61 -14 97 -37.5 q36 -23.5 56.5 -52.5 q20.5 -29 29.5 -62 q9 -33 17 -65.5 q8 -32.5 18.5 -62 q10.5 -29.5 34 -52 q23.5 -22.5 64 -36 q40.5 -13.5 107.5 -13.5 l0 -55 ZM1556 717 q0 98 -25 188 q-25 90 -70.5 168.5 q-45.5 78.5 -109 143 q-63.5 64.5 -141 110.5 q-77.5 46 -167 71 q-89.5 25 -185.5 25 q-96 0 -185 -25 q-89 -25 -166.5 -70.5 q-77.5 -45.5 -142 -110 q-64.5 -64.5 -110 -143 q-45.5 -78.5 -71 -170 q-25.5 -91.5 -25.5 -191.5 q0 -96 25 -185 q25 -89 70 -167 q45 -78 108.5 -142 q63.5 -64 141.5 -110 q78 -46 167 -71.5 q89 -25.5 186 -25.5 q97 0 186.5 25.5 q89.5 25.5 167 71.5 q77.5 46 141.5 111 q64 65 109.5 143 q45.5 78 70.5 168 q25 90 25 186 ZM1645 717 q0 -109 -28 -210 q-28 -101 -79.5 -189 q-51.5 -88 -123.5 -160 q-72 -72 -160 -123.5 q-88 -51.5 -189.5 -80 q-101.5 -28.5 -210.5 -28.5 q-108 0 -207.5 28.5 q-99.5 28.5 -186.5 80 q-87 51.5 -159 123.5 q-72 72 -123.5 160 q-51.5 88 -79.5 189 q-28 101 -28 210 q0 109 28 210 q28 101 79.5 189 q51.5 88 123 160.5 q71.5 72.5 159 124 q87.5 51.5 188.5 80 q101 28.5 210 28.5 q107 0 207.5 -28.5 q100.5 -28.5 188 -79.5 q87.5 -51 159.5 -123.5 q72 -72.5 123.5 -160.5 q51.5 -88 80 -189.5 q28.5 -101.5 28.5 -210.5 Z"/><glyph glyph-name="copyright" unicode="" d="M1180 283 q-2 -1 -26.5 -9 q-24.5 -8 -64.5 -17 q-40 -9 -91.5 -16.5 q-51.5 -7.5 -108.5 -7.5 q-121 0 -214.5 39.5 q-93.5 39.5 -157.5 106 q-64 66.5 -97 154 q-33 87.5 -33 184.5 q0 106 36 194 q36 88 102 152 q66 64 159 99.5 q93 35.5 207 35.5 q80 0 150.5 -15.5 q70.5 -15.5 138.5 -35.5 l0 -244 l-93 0 l-30 156 q-23 15 -62.5 29 q-39.5 14 -83.5 14 q-65 0 -126 -25.5 q-61 -25.5 -107.5 -74.5 q-46.5 -49 -74.5 -119.5 q-28 -70.5 -28 -161.5 q0 -94 27 -167 q27 -73 71 -123.5 q44 -50.5 101 -76.5 q57 -26 117 -26 q25 0 50 3.5 q25 3.5 47 9.5 q22 6 41 13 q19 7 32 13 l29 174 l90 0 l0 -258 ZM1556 717 q0 97 -25 187 q-25 90 -70 168 q-45 78 -108.5 143 q-63.5 65 -141.5 111 q-78 46 -167 71.5 q-89 25.5 -186 25.5 q-97 0 -186.5 -25.5 q-89.5 -25.5 -167 -71.5 q-77.5 -46 -141.5 -110.5 q-64 -64.5 -109.5 -143 q-45.5 -78.5 -70.5 -168.5 q-25 -90 -25 -187 q0 -97 25 -186.5 q25 -89.5 70.5 -168 q45.5 -78.5 109 -143 q63.5 -64.5 141 -110.5 q77.5 -46 167 -71.5 q89.5 -25.5 185.5 -25.5 q96 0 185.5 25.5 q89.5 25.5 167 71.5 q77.5 46 141.5 110.5 q64 64.5 110 143 q46 78.5 71 168 q25 89.5 25 186.5 ZM1645 719 q0 -109 -28 -210 q-28 -101 -79.5 -189 q-51.5 -88 -123.5 -161 q-72 -73 -159.5 -124.5 q-87.5 -51.5 -188.5 -80 q-101 -28.5 -210 -28.5 q-108 0 -208 28.5 q-100 28.5 -187.5 80 q-87.5 51.5 -159.5 124 q-72 72.5 -123.5 160.5 q-51.5 88 -79.5 189 q-28 101 -28 209 q0 109 28 210 q28 101 79.5 189 q51.5 88 123 160.5 q71.5 72.5 159 124 q87.5 51.5 188.5 80 q101 28.5 210 28.5 q110 0 211 -29 q101 -29 188.5 -81 q87.5 -52 159 -124.5 q71.5 -72.5 122.5 -160.5 q51 -88 78.5 -188 q27.5 -100 27.5 -207 Z"/><glyph glyph-name="trademark" unicode="" d="M1071 817 l0 45 l62 10 l0 428 l-185 -483 l-49 0 l-174 483 l0 -428 l61 -10 l0 -45 l-186 0 l0 45 l64 10 l0 424 l-64 13 l0 47 l213 0 l0 -27 l135 -360 l135 360 l0 27 l211 0 l0 -47 l-65 -13 l0 -424 l65 -10 l0 -45 l-223 0 ZM485 1212 l-14 86 q0 11 -8 11 l-107 0 l0 -437 q15 -2 29 -4 q12 -2 25 -3.5 q13 -1.5 22 -2.5 l0 -45 l-252 0 l0 45 l22 2 q14 2 26 4 q14 2 30 4 l0 437 l-108 0 q-9 0 -9 -11 l-12 -86 l-59 0 l0 144 l471 0 l0 -144 l-56 0 Z"/><glyph glyph-name="notequal" unicode="" d="M856 365 l-225 -226 l-82 82 l143 144 l-282 0 l0 127 l409 0 l246 245 l-655 0 l0 127 l782 0 l225 226 l82 -82 l-143 -144 l282 0 l0 -127 l-409 0 l-246 -245 l655 0 l0 -127 l-782 0 Z"/><glyph glyph-name="AE" unicode="" d="M985 1280 l-416 -668 l416 0 l0 668 ZM831 0 l0 88 l101 8 q22 2 37.5 16.5 q15.5 14.5 15.5 28.5 l0 371 l-473 0 l-229 -371 q-11 -17 -5.5 -29 q5.5 -12 19.5 -14 l117 -10 l0 -88 l-404 0 l0 88 l109 16 l696 1131 q9 15 -3 28 q-12 13 -26 15 l-100 10 l0 86 l1086 0 l0 -305 l-119 0 l-29 168 q-3 15 -12 27 q-9 12 -23 12 l-397 0 l0 -510 l258 -2 q14 0 24.5 13 q10.5 13 12.5 24 l18 141 l101 0 l0 -457 l-101 0 l-18 144 q-2 11 -13.5 23 q-11.5 12 -23.5 12 l-258 0 l0 -564 l469 0 q6 0 12 4 q6 4 11.5 10 q5.5 6 9 13 q3.5 7 4.5 12 l31 203 l116 0 l0 -342 l-1014 0 Z"/><glyph glyph-name="Oslash" unicode="" d="M981 1212 q-46 38 -104 58 q-58 20 -127 20 q-111 0 -193 -48 q-82 -48 -136 -130.5 q-54 -82.5 -80 -192 q-26 -109.5 -26 -231.5 q0 -122 26 -230 q26 -108 79 -192 l561 946 ZM1180 684 q0 133 -29 247 q-29 114 -88 197 q-124 -208 -269.5 -452 q-145.5 -244 -297.5 -502 q49 -45 110.5 -69.5 q61.5 -24.5 138.5 -24.5 q111 0 192.5 49 q81.5 49 135.5 131.5 q54 82.5 80.5 192 q26.5 109.5 26.5 231.5 ZM1417 686 q0 -149 -48 -280 q-48 -131 -135.5 -228.5 q-87.5 -97.5 -210.5 -154 q-123 -56.5 -273 -56.5 q-93 0 -176 21 q-83 21 -154 61 q-32 -54 -63.5 -106 q-31.5 -52 -63.5 -105 l-94 58 l129 217 q-59 48 -105 110.5 q-46 62.5 -77.5 136 q-31.5 73.5 -48.5 156 q-17 82.5 -17 172.5 q0 150 47 281 q47 131 134 228.5 q87 97.5 210.5 153.5 q123.5 56 276.5 56 q86 0 163.5 -19 q77.5 -19 143.5 -53 l116 197 l97 -57 q-26 -45 -56.5 -95 q-30.5 -50 -62.5 -104 q64 -49 113.5 -113 q49.5 -64 84 -139.5 q34.5 -75.5 52.5 -161 q18 -85.5 18 -176.5 Z"/><glyph glyph-name="infinity" unicode="" d="M954 614 q-32 27 -69.5 58.5 q-37.5 31.5 -78.5 59 q-41 27.5 -84.5 45.5 q-43.5 18 -88.5 18 q-39 0 -73 -15.5 q-34 -15.5 -58.5 -42 q-24.5 -26.5 -38.5 -61 q-14 -34.5 -14 -72.5 q0 -38 16.5 -70.5 q16.5 -32.5 43.5 -56.5 q27 -24 61.5 -37.5 q34.5 -13.5 70.5 -13.5 q50 0 92.5 17.5 q42.5 17.5 80.5 44.5 q38 27 72.5 60.5 q34.5 33.5 67.5 65.5 ZM1597 604 q0 38 -14 72.5 q-14 34.5 -38.5 61 q-24.5 26.5 -58.5 42 q-34 15.5 -73 15.5 q-45 0 -88.5 -18 q-43.5 -18 -84.5 -45.5 q-41 -27.5 -78.5 -59 q-37.5 -31.5 -69.5 -58.5 q33 -32 67.5 -65.5 q34.5 -33.5 72.5 -60.5 q38 -27 81 -44.5 q43 -17.5 94 -17.5 q36 0 70 13.5 q34 13.5 61 37.5 q27 24 43 56.5 q16 32.5 16 70.5 ZM1704 618 q0 -56 -21.5 -108 q-21.5 -52 -59 -92 q-37.5 -40 -88 -64 q-50.5 -24 -108.5 -24 q-68 0 -122.5 18.5 q-54.5 18.5 -101.5 49 q-47 30.5 -90 69.5 q-43 39 -89 80 q-47 -41 -90 -80 q-43 -39 -90 -69.5 q-47 -30.5 -101 -49 q-54 -18.5 -122 -18.5 q-58 0 -108.5 24 q-50.5 24 -88 64 q-37.5 40 -59 92 q-21.5 52 -21.5 108 q0 58 24 110 q24 52 64 90 q40 38 92.5 60.5 q52.5 22.5 110.5 22.5 q57 0 110 -20.5 q53 -20.5 101.5 -53 q48.5 -32.5 93 -71 q44.5 -38.5 84.5 -74.5 q39 36 83 74.5 q44 38.5 93 71 q49 32.5 102.5 53 q53.5 20.5 110.5 20.5 q58 0 110.5 -22.5 q52.5 -22.5 92.5 -60.5 q40 -38 64 -90 q24 -52 24 -110 Z"/><glyph glyph-name="plusminus" unicode="" d="M410 0 l0 127 l1228 0 l0 -127 l-1228 0 ZM1087 733 l0 -368 l-126 0 l0 368 l-551 0 l0 127 l551 0 l0 369 l126 0 l0 -369 l551 0 l0 -127 l-551 0 Z"/><glyph glyph-name="lessequal" unicode="" d="M410 0 l0 113 l1228 0 l0 -113 l-1228 0 ZM410 629 l0 127 l1228 389 l0 -127 l-1097 -326 l1097 -325 l0 -127 l-1228 389 Z"/><glyph glyph-name="greaterequal" unicode="" d="M410 0 l0 113 l1228 0 l0 -113 l-1228 0 ZM410 240 l0 127 l1097 325 l-1097 326 l0 127 l1228 -389 l0 -127 l-1228 -389 Z"/><glyph glyph-name="yen" unicode="" d="M1085 1262 l-219 -388 l289 0 l0 -90 l-340 0 l-119 -209 l459 0 l0 -90 l-457 0 l0 -344 q0 -11 13 -27 q13 -16 41 -18 l118 -10 l0 -86 l-534 0 l0 86 l121 10 q28 2 39.5 18 q11.5 16 11.5 27 l0 344 l-442 0 l0 90 l438 0 l-111 209 l-327 0 l0 90 l278 0 l-203 390 l-121 24 l0 86 l459 0 l0 -86 l-88 -14 q-17 -3 -24.5 -16.5 q-7.5 -13.5 0.5 -28.5 l270 -529 l297 527 q3 4 4.5 11 q1.5 7 -1 13.5 q-2.5 6.5 -9.5 12.5 q-7 6 -21 8 l-98 16 l0 86 l391 0 l0 -86 l-115 -26 Z"/><glyph glyph-name="mu" unicode="" d="M1133 221 q-5 -66 -23 -112.5 q-18 -46.5 -45.5 -76.5 q-27.5 -30 -63 -43.5 q-35.5 -13.5 -75.5 -13.5 q-31 0 -60 9.5 q-29 9.5 -53.5 32.5 q-24.5 23 -42 61 q-17.5 38 -25.5 96 q-44 -51 -81.5 -88 q-37.5 -37 -73.5 -62 q-36 -25 -72.5 -37 q-36.5 -12 -77.5 -12 q-11 0 -34 2 q-23 2 -49.5 11 q-26.5 9 -53 27.5 q-26.5 18.5 -45.5 50.5 l0 -50 q0 -49 7.5 -98.5 q7.5 -49.5 17 -96 q9.5 -46.5 17 -87.5 q7.5 -41 7.5 -72 q0 -26 -8 -47 q-8 -21 -21.5 -37 q-13.5 -16 -31.5 -24.5 q-18 -8.5 -37 -8.5 q-18 0 -34 8.5 q-16 8.5 -28.5 23.5 q-12.5 15 -20 35.5 q-7.5 20.5 -7.5 45.5 q0 32 5 58 q5 26 12 54.5 q7 28.5 15.5 63 q8.5 34.5 15.5 85 q7 50.5 12 120.5 q5 70 5 168 l0 780 l191 0 l0 -584 q0 -77 4.5 -125.5 q4.5 -48.5 13.5 -76.5 q6 -19 18 -36.5 q12 -17.5 28.5 -31 q16.5 -13.5 37.5 -21.5 q21 -8 45 -8 q60 0 111 36.5 q51 36.5 112 105.5 l0 741 l191 0 l0 -706 q0 -69 5.5 -107.5 q5.5 -38.5 15 -56.5 q9.5 -18 22 -21.5 q12.5 -3.5 27.5 -3.5 q16 0 28.5 6 q12.5 6 22.5 21 q10 15 18.5 39.5 q8.5 24.5 16.5 62.5 l41 0 Z"/><glyph glyph-name="partialdiff" unicode="" d="M784 639 q-17 18 -37 42 q-20 24 -47 45 q-27 21 -63.5 35.5 q-36.5 14.5 -85.5 14.5 q-53 0 -96.5 -21 q-43.5 -21 -78 -57 q-34.5 -36 -60 -82.5 q-25.5 -46.5 -42.5 -98 q-17 -51.5 -25.5 -103.5 q-8.5 -52 -8.5 -99 q0 -21 2 -51 q2 -30 8.5 -63 q6.5 -33 20 -66 q13.5 -33 36 -59 q22.5 -26 55.5 -42 q33 -16 80 -16 q53 0 97 26 q44 26 79 70.5 q35 44.5 62 105 q27 60.5 47.5 129.5 q20.5 69 34 143 q13.5 74 22.5 147 ZM987 840 q0 -34 -3.5 -90 q-3.5 -56 -13 -124.5 q-9.5 -68.5 -26.5 -145 q-17 -76.5 -44 -151 q-27 -74.5 -66 -142.5 q-39 -68 -92 -119.5 q-53 -51.5 -122 -82 q-69 -30.5 -157 -30.5 q-94 0 -169 35 q-75 35 -127.5 90 q-52.5 55 -81 122 q-28.5 67 -28.5 132 q0 108 22.5 189.5 q22.5 81.5 58.5 140 q36 58.5 82 96.5 q46 38 93 60 q47 22 90.5 31 q43.5 9 75.5 9 q47 0 83 -7 q36 -7 71 -24 q35 -17 74.5 -45 q39.5 -28 93.5 -69 q14 66 17 126 q3 60 5 122 q1 78 -23.5 147 q-24.5 69 -66.5 121 q-42 52 -96.5 82 q-54.5 30 -112.5 30 q-40 0 -67 -4 q-27 -4 -52 -12.5 q-25 -8.5 -52.5 -21.5 q-27.5 -13 -67.5 -31 l-84 106 q23 10 53 21 q30 11 65 20 q35 9 73.5 15 q38.5 6 78.5 6 q109 0 190 -36 q81 -36 138.5 -92 q57.5 -56 94 -125.5 q36.5 -69.5 57 -136 q20.5 -66.5 28.5 -123.5 q8 -57 8 -89 Z"/><glyph glyph-name="pi" unicode="" d="M1176 311 q0 -84 -18.5 -147 q-18.5 -63 -50 -105 q-31.5 -42 -73.5 -63 q-42 -21 -90 -21 q-75 0 -118.5 25.5 q-43.5 25.5 -66.5 64.5 q-23 39 -29.5 86 q-6.5 47 -6.5 91 l0 579 l-279 0 l0 -469 q0 -80 -17 -149 q-17 -69 -50 -119.5 q-33 -50.5 -81 -79.5 q-48 -29 -110 -29 q-44 0 -72.5 25 q-28.5 25 -44.5 65.5 q-16 40.5 -22 92 q-6 51.5 -6 104.5 l68 0 q0 -60 21.5 -97.5 q21.5 -37.5 55.5 -37.5 q15 0 33.5 5.5 q18.5 5.5 37 22 q18.5 16.5 35.5 46.5 q17 30 30.5 78.5 q13.5 48.5 21.5 118 q8 69.5 8 165.5 l0 258 l-86 0 q-51 0 -80 -13 q-29 -13 -44 -31.5 q-15 -18.5 -21 -38.5 q-6 -20 -10 -33 l-60 0 q0 34 13 77 q13 43 41.5 81 q28.5 38 73.5 63.5 q45 25.5 110 25.5 l737 0 q34 0 63 16 q29 16 35 38 l52 0 q0 -38 -8 -71.5 q-8 -33.5 -26 -59 q-18 -25.5 -47.5 -40 q-29.5 -14.5 -72.5 -14.5 l-125 0 l0 -545 q0 -51 -0.5 -92 q-0.5 -41 5.5 -69 q6 -28 22 -43 q16 -15 49 -15 q23 0 45.5 15 q22.5 15 40 46.5 q17.5 31.5 28.5 79.5 q11 48 11 113 l78 0 Z"/><glyph glyph-name="integral" unicode="" d="M889 1360 q-6 -13 -22 -26.5 q-16 -13.5 -37.5 -20 q-21.5 -6.5 -46 -3.5 q-24.5 3 -46.5 23 q-43 37 -70.5 47 q-27.5 10 -43.5 4 q-16 -6 -23 -22 q-7 -16 -8 -31 q-2 -28 -4 -98 q-2 -70 -4 -164 q-2 -94 -4.5 -202 q-2.5 -108 -6.5 -212 l-10 -274 q-6 -162 -18 -280 q-12 -118 -30 -201.5 q-18 -83.5 -42.5 -137.5 q-24.5 -54 -56 -87 q-31.5 -33 -70 -49.5 q-38.5 -16.5 -84.5 -26.5 q-24 -6 -48.5 -7 q-24.5 -1 -46 1 q-21.5 2 -38.5 8.5 q-17 6.5 -27 15.5 q-62 62 -30 137 q6 14 22.5 28 q16.5 14 38 21.5 q21.5 7.5 46.5 4.5 q25 -3 48 -23 q42 -37 69.5 -47 q27.5 -10 43.5 -4.5 q16 5.5 23.5 21 q7.5 15.5 9.5 30.5 q1 28 5 99 q4 71 9 170 q5 99 10 218.5 q5 119.5 9 245.5 l8 230 q7 215 24 356.5 q17 141.5 49.5 228 q32.5 86.5 83.5 128.5 q51 42 127 57 q24 4 48 5.5 q24 1.5 45.5 -1 q21.5 -2.5 39 -8.5 q17.5 -6 27.5 -15 q34 -32 40 -66.5 q6 -34.5 -9 -72.5 Z"/><glyph glyph-name="ordfeminine" unicode="" d="M63 623 l0 61 l596 0 l0 -61 l-596 0 ZM451 1112 q-90 -21 -142.5 -41 q-52.5 -20 -80 -41 q-27.5 -21 -35 -42.5 q-7.5 -21.5 -7.5 -43.5 q0 -19 7 -37.5 q7 -18.5 19.5 -32.5 q12.5 -14 31.5 -23 q19 -9 43 -9 q26 0 55.5 8.5 q29.5 8.5 53.5 19.5 q28 12 55 29 l0 213 ZM469 784 l-18 72 q-35 -25 -73 -43 q-32 -17 -72 -30 q-40 -13 -79 -13 q-35 0 -66.5 11 q-31.5 11 -55 32.5 q-23.5 21.5 -37 52.5 q-13.5 31 -13.5 70 q0 34 12.5 63 q12.5 29 54 56 q41.5 27 119.5 52.5 q78 25.5 210 51.5 l0 53 q0 62 -30 91.5 q-30 29.5 -93 29.5 q-35 0 -60.5 -6.5 q-25.5 -6.5 -36.5 -9.5 l0 -107 l-96 0 q-18 0 -33.5 6 q-15.5 6 -15.5 29 q0 39 24.5 66.5 q24.5 27.5 64 45 q39.5 17.5 89 26 q49.5 8.5 98.5 8.5 q62 0 103 -13.5 q41 -13.5 65 -38 q24 -24.5 33.5 -58.5 q9.5 -34 9.5 -75 l0 -344 q0 -11 8 -17.5 q8 -6.5 19 -8.5 l66 -5 l0 -47 l-197 0 Z"/><glyph glyph-name="ordmasculine" unicode="" d="M547 1079 q0 51 -11 97 q-11 46 -33 81.5 q-22 35.5 -55.5 56.5 q-33.5 21 -78.5 21 q-46 0 -80 -21 q-34 -21 -56 -56.5 q-22 -35.5 -32.5 -81.5 q-10.5 -46 -10.5 -97 q0 -49 11 -95 q11 -46 33 -81 q22 -35 55 -56.5 q33 -21.5 78 -21.5 q46 0 79.5 21 q33.5 21 56 56 q22.5 35 33.5 81 q11 46 11 96 ZM55 623 l0 61 l625 0 l0 -61 l-625 0 ZM684 1079 q0 -65 -22.5 -121.5 q-22.5 -56.5 -63.5 -98 q-41 -41.5 -99.5 -65.5 q-58.5 -24 -131.5 -24 q-73 0 -132 23 q-59 23 -100 64.5 q-41 41.5 -63.5 98 q-22.5 56.5 -22.5 123.5 q0 66 22.5 123 q22.5 57 64 99 q41.5 42 101 66 q59.5 24 134.5 24 q74 0 132.5 -24.5 q58.5 -24.5 98.5 -67 q40 -42.5 61 -99.5 q21 -57 21 -121 Z"/><glyph glyph-name="ae" unicode="" d="M1204 674 q0 46 -10 89.5 q-10 43.5 -31.5 77 q-21.5 33.5 -54.5 54 q-33 20.5 -78 20.5 q-57 0 -94 -26.5 q-37 -26.5 -59.5 -69.5 q-22.5 -43 -31.5 -97.5 q-9 -54.5 -9 -109.5 l368 0 l0 62 ZM645 547 q-113 -31 -186.5 -60.5 q-73.5 -29.5 -116 -61.5 q-42.5 -32 -59.5 -69.5 q-17 -37.5 -17 -83.5 q0 -35 9.5 -66.5 q9.5 -31.5 28.5 -55.5 q19 -24 48.5 -38 q29.5 -14 69.5 -14 q36 0 75 14.5 q39 14.5 72 32.5 q39 21 76 48 l0 354 ZM1407 102 q-22 -16 -55 -38 q-33 -22 -75.5 -41.5 q-42.5 -19.5 -95.5 -33.5 q-53 -14 -114 -14 q-45 0 -84.5 6.5 q-39.5 6.5 -74.5 17.5 q-35 11 -64 25 q-29 14 -53 29 q-56 34 -97 78 q-54 -44 -113 -78 q-26 -15 -55 -29 q-29 -14 -60.5 -25 q-31.5 -11 -64.5 -17.5 q-33 -6.5 -67 -6.5 q-65 0 -114 20.5 q-49 20.5 -82.5 57 q-33.5 36.5 -50.5 85.5 q-17 49 -17 106 q0 81 31.5 136 q31.5 55 100 96 q68.5 41 178 75 q109.5 34 265.5 74 l0 84 q0 51 -8.5 89.5 q-8.5 38.5 -29 64.5 q-20.5 26 -55 39 q-34.5 13 -85.5 13 q-50 0 -82 -10 q-32 -10 -47 -16 l0 -178 l-143 0 q-41 0 -59.5 12 q-18.5 12 -18.5 47 q0 42 17 76.5 q17 34.5 46 61 q29 26.5 68 46.5 q39 20 83.5 32.5 q44.5 12.5 92.5 19 q48 6.5 94 6.5 q72 0 119.5 -12.5 q47.5 -12.5 77.5 -31 q30 -18.5 47 -39.5 q17 -21 29 -38 q12 15 34.5 35.5 q22.5 20.5 56.5 39.5 q34 19 80 32.5 q46 13.5 105 13.5 q91 0 156 -34 q65 -34 105.5 -91.5 q40.5 -57.5 59.5 -133 q19 -75.5 19 -157.5 q0 -9 -0.5 -21.5 q-0.5 -12.5 -1.5 -23.5 q-1 -13 -2 -27 l-567 0 l0 -272 q22 -22 50.5 -46.5 q28.5 -24.5 65 -45 q36.5 -20.5 81.5 -34 q45 -13.5 100 -13.5 q46 0 84 9 q38 9 71 24 q33 15 62 35.5 q29 20.5 57 43.5 l0 -123 Z"/><glyph glyph-name="oslash" unicode="" d="M831 494 q0 86 -17 164.5 q-17 78.5 -52 138.5 l-373 -652 q32 -35 73.5 -56 q41.5 -21 94.5 -21 q70 0 122 35 q52 35 85.5 94 q33.5 59 50 136 q16.5 77 16.5 161 ZM705 866 q-29 25 -66 39.5 q-37 14.5 -80 14.5 q-71 0 -123 -35 q-52 -35 -85.5 -94 q-33.5 -59 -49.5 -136 q-16 -77 -16 -161 q0 -75 13.5 -143.5 q13.5 -68.5 39.5 -125.5 l367 641 ZM1044 492 q0 -109 -34.5 -203.5 q-34.5 -94.5 -98 -164 q-63.5 -69.5 -154 -109.5 q-90.5 -40 -202.5 -40 q-66 0 -124 15 q-58 15 -109 41 l-113 -199 l-72 43 l115 201 q-88 69 -135 176.5 q-47 107.5 -47 239.5 q0 109 34 204 q34 95 98 165.5 q64 70.5 154.5 110.5 q90.5 40 204.5 40 q57 0 107.5 -10.5 q50.5 -10.5 95.5 -30.5 l102 178 l74 -41 l-102 -178 q50 -35 88.5 -81.5 q38.5 -46.5 64.5 -102.5 q26 -56 39.5 -120 q13.5 -64 13.5 -134 Z"/><glyph glyph-name="questiondown" unicode="" d="M893 -219 q0 -36 -19.5 -72 q-19.5 -36 -59.5 -64.5 q-40 -28.5 -101.5 -46.5 q-61.5 -18 -145.5 -18 q-90 0 -168 26 q-78 26 -135.5 74 q-57.5 48 -90 115.5 q-32.5 67.5 -32.5 151.5 q0 97 38.5 169 q38.5 72 97 124.5 q58.5 52.5 126.5 88.5 q68 36 127 62 l0 230 l115 0 l0 -297 q-48 -16 -100.5 -46 q-52.5 -30 -96 -74.5 q-43.5 -44.5 -72 -104.5 q-28.5 -60 -28.5 -136 q0 -143 76.5 -211.5 q76.5 -68.5 216.5 -68.5 l84 207 l16 2 q6 1 11.5 1.5 q5.5 0.5 7.5 0.5 q28 0 52 -6.5 q24 -6.5 42 -20.5 q18 -14 28.5 -35.5 q10.5 -21.5 10.5 -50.5 ZM711 885 q0 -26 -10 -49 q-10 -23 -27 -40 q-17 -17 -39.5 -26.5 q-22.5 -9.5 -48.5 -9.5 q-27 0 -50 10 q-23 10 -40.5 27 q-17.5 17 -27 40.5 q-9.5 23.5 -9.5 49.5 q0 26 10 49 q10 23 27 40 q17 17 40.5 26.5 q23.5 9.5 49.5 9.5 q26 0 48.5 -10 q22.5 -10 39.5 -27.5 q17 -17.5 27 -40.5 q10 -23 10 -49 Z"/><glyph glyph-name="exclamdown" unicode="" d="M469 -262 q4 -44 -3.5 -74 q-7.5 -30 -24 -49 q-16.5 -19 -41 -27 q-24.5 -8 -54.5 -8 q-30 0 -54.5 8 q-24.5 8 -41.5 27 q-17 19 -25 49 q-8 30 -4 74 l76 879 l98 0 l74 -879 ZM471 885 q0 -26 -9.5 -49 q-9.5 -23 -26.5 -40 q-17 -17 -40 -26.5 q-23 -9.5 -49 -9.5 q-26 0 -49.5 9.5 q-23.5 9.5 -40.5 26.5 q-17 17 -27 40 q-10 23 -10 49 q0 26 10 49 q10 23 27 40.5 q17 17.5 40.5 27.5 q23.5 10 49.5 10 q26 0 49 -10 q23 -10 40 -27.5 q17 -17.5 26.5 -40.5 q9.5 -23 9.5 -49 Z"/><glyph glyph-name="logicalnot" unicode="" d="M1065 387 l0 350 l-983 0 l0 123 l1106 0 l0 -473 l-123 0 Z"/><glyph glyph-name="radical" unicode="" d="M1075 1372 l-370 -1372 l-62 0 l-442 872 l-127 -63 l-33 61 l240 121 l399 -780 l334 1223 l164 0 l0 -62 l-103 0 Z"/><glyph glyph-name="florin" unicode="" d="M797 1386 q0 -31 -12.5 -51.5 q-12.5 -20.5 -29 -33 q-16.5 -12.5 -32 -18.5 q-15.5 -6 -21.5 -7 q-2 2 -16.5 12.5 q-14.5 10.5 -35 25 q-20.5 14.5 -44 30.5 q-23.5 16 -43.5 30.5 q-20 14.5 -34 24 q-14 9.5 -15 10.5 q-22 -12 -43 -34 q-21 -22 -37.5 -59 q-16.5 -37 -27 -89.5 q-10.5 -52.5 -11.5 -124.5 l-2 -131 l254 0 l0 -105 l-254 0 l0 -778 q0 -101 -14.5 -180.5 q-14.5 -79.5 -52.5 -153.5 q-30 -57 -69.5 -99 q-39.5 -42 -85 -69.5 q-45.5 -27.5 -95 -41 q-49.5 -13.5 -99.5 -13.5 q-44 0 -76.5 10 q-32.5 10 -55 27 q-22.5 17 -33.5 39 q-11 22 -11 47 q0 32 14.5 52 q14.5 20 31.5 33 q20 14 47 23 q1 -2 10 -8.5 q9 -6.5 22.5 -16 q13.5 -9.5 30.5 -22 q17 -12.5 35 -24.5 q40 -29 92 -64 q22 12 43.5 34.5 q21.5 22.5 38 59.5 q16.5 37 27 90.5 q10.5 53.5 10.5 125.5 l0 929 l-131 0 l0 72 l131 37 q0 51 3.5 91.5 q3.5 40.5 12 76 q8.5 35.5 21.5 69 q13 33.5 32 70.5 q30 58 69.5 100.5 q39.5 42.5 85 70.5 q45.5 28 95 42 q49.5 14 99.5 14 q43 0 76 -10 q33 -10 55.5 -27 q22.5 -17 33.5 -39 q11 -22 11 -47 Z"/><glyph glyph-name="approxequal" unicode="" d="M1638 453 q-21 -20 -51.5 -42 q-30.5 -22 -68.5 -41.5 q-38 -19.5 -81 -33.5 q-43 -14 -89 -17 q-61 -4 -103 -0.5 q-42 3.5 -78.5 12.5 q-36.5 9 -73.5 22.5 q-37 13.5 -87 31.5 q-84 30 -150 45 q-66 15 -119.5 17 q-53.5 2 -97 -8.5 q-43.5 -10.5 -81.5 -30.5 q-38 -20 -74 -50 q-36 -30 -74 -67 l0 141 q19 19 43 41 q24 22 59.5 41.5 q35.5 19.5 86.5 34.5 q51 15 124 20 q57 5 112 -4.5 q55 -9.5 107 -25.5 q52 -16 100.5 -34.5 q48.5 -18.5 90.5 -31.5 q93 -29 163.5 -31 q70.5 -2 129 16 q58.5 18 109 53.5 q50.5 35.5 103.5 82.5 l0 -141 ZM1638 801 q-21 -19 -51.5 -41 q-30.5 -22 -68.5 -41.5 q-38 -19.5 -81 -33.5 q-43 -14 -89 -17 q-61 -4 -103 -1 q-42 3 -78.5 12 q-36.5 9 -73.5 22.5 q-37 13.5 -87 31.5 q-84 30 -150 45 q-66 15 -119.5 17 q-53.5 2 -97 -8.5 q-43.5 -10.5 -81.5 -30.5 q-38 -20 -74 -50 q-36 -30 -74 -67 l0 141 q19 19 43 41 q24 22 59.5 41.5 q35.5 19.5 86.5 34.5 q51 15 124 21 q57 4 112 -5.5 q55 -9.5 107 -25.5 q52 -16 100.5 -34.5 q48.5 -18.5 90.5 -31.5 q93 -29 163.5 -31 q70.5 -2 129 16 q58.5 18 109 53.5 q50.5 35.5 103.5 82.5 l0 -141 Z"/><glyph glyph-name="guillemotleft" unicode="" d="M435 441 l0 103 l330 443 l100 0 l-255 -494 l255 -493 l-100 0 l-330 441 ZM55 441 l0 103 l330 443 l100 0 l-255 -494 l255 -493 l-100 0 l-330 441 Z"/><glyph glyph-name="guillemotright" unicode="" d="M470 546 l0 -103 l-330 -443 l-100 0 l255 494 l-255 493 l100 0 l330 -441 ZM850 546 l0 -103 l-330 -443 l-100 0 l255 494 l-255 493 l100 0 l330 -441 Z"/><glyph glyph-name="ellipsis" unicode="" d="M479 113 q0 -29 -10.5 -54 q-10.5 -25 -29.5 -43.5 q-19 -18.5 -44 -29.5 q-25 -11 -53 -11 q-29 0 -53.5 11 q-24.5 11 -43.5 29.5 q-19 18.5 -29.5 43.5 q-10.5 25 -10.5 54 q0 28 10.5 53 q10.5 25 29.5 43.5 q19 18.5 43.5 29.5 q24.5 11 53.5 11 q28 0 53 -11 q25 -11 44 -29.5 q19 -18.5 29.5 -43.5 q10.5 -25 10.5 -53 ZM1161 113 q0 -29 -10.5 -54.5 q-10.5 -25.5 -29.5 -44 q-19 -18.5 -44 -29 q-25 -10.5 -53 -10.5 q-29 0 -54 11 q-25 11 -43.5 29.5 q-18.5 18.5 -29 43.5 q-10.5 25 -10.5 54 q0 28 10.5 53 q10.5 25 29.5 43.5 q19 18.5 43.5 29.5 q24.5 11 53.5 11 q28 0 53 -11 q25 -11 44 -29.5 q19 -18.5 29.5 -43.5 q10.5 -25 10.5 -53 ZM1843 113 q0 -29 -10.5 -54 q-10.5 -25 -29 -43.5 q-18.5 -18.5 -43.5 -29.5 q-25 -11 -54 -11 q-29 0 -53.5 11 q-24.5 11 -43.5 29.5 q-19 18.5 -29.5 43.5 q-10.5 25 -10.5 54 q0 28 10.5 53 q10.5 25 28.5 43.5 q18 18.5 42.5 29.5 q24.5 11 53.5 11 q28 0 53.5 -11 q25.5 -11 44.5 -30 q19 -19 30 -44 q11 -25 11 -52 Z"/><glyph glyph-name="uni00A0" unicode="" d=""/><glyph glyph-name="OE" unicode="" d="M1040 684 q0 125 -16 235.5 q-16 110.5 -56.5 193 q-40.5 82.5 -110 130 q-69.5 47.5 -177.5 47.5 q-111 0 -182 -48 q-71 -48 -111.5 -130.5 q-40.5 -82.5 -56 -192 q-15.5 -109.5 -15.5 -231.5 q0 -123 15.5 -233.5 q15.5 -110.5 56 -193.5 q40.5 -83 110.5 -132 q70 -49 179 -49 q111 0 181.5 49 q70.5 49 111 131.5 q40.5 82.5 56 192 q15.5 109.5 15.5 231.5 ZM1069 0 l0 113 q-71 -70 -168 -108 q-97 -38 -221 -38 q-150 0 -262.5 54.5 q-112.5 54.5 -187.5 151.5 q-75 97 -112.5 228.5 q-37.5 131.5 -37.5 286.5 q0 150 36 281 q36 131 110 228.5 q74 97.5 186.5 153.5 q112.5 56 265.5 56 q125 0 222.5 -38 q97.5 -38 168.5 -107 l0 112 l844 0 l0 -305 l-123 0 l-31 168 q-2 15 -12.5 27 q-10.5 12 -24.5 12 l-444 0 l0 -510 l307 0 q14 0 25.5 12 q11.5 12 11.5 23 l20 141 l105 0 l0 -457 l-105 0 l-20 142 q0 11 -12 24 q-12 13 -25 13 l-307 0 l0 -564 l518 0 q12 0 24 14 q12 14 15 25 l35 203 l110 0 l0 -342 l-911 0 Z"/><glyph glyph-name="oe" unicode="" d="M1610 592 l0 -27 q0 -16 -2 -30 l-617 0 q0 -77 17 -152.5 q17 -75.5 56 -135.5 q39 -60 103 -97 q64 -37 158 -37 q42 0 81.5 10.5 q39.5 10.5 75.5 27 q36 16.5 67.5 36.5 q31.5 20 58.5 40 l0 -125 q-32 -23 -70 -45.5 q-38 -22.5 -82 -40.5 q-44 -18 -94 -29.5 q-50 -11.5 -105 -11.5 q-69 0 -124.5 18 q-55.5 18 -100 47 q-44.5 29 -78.5 65 q-34 36 -59 73 q-29 -38 -63.5 -74 q-34.5 -36 -78 -65 q-43.5 -29 -97.5 -46.5 q-54 -17.5 -121 -17.5 q-111 0 -197.5 41.5 q-86.5 41.5 -146 112.5 q-59.5 71 -90.5 165.5 q-31 94.5 -31 199.5 q0 106 31.5 200.5 q31.5 94.5 91.5 165 q60 70.5 147.5 111.5 q87.5 41 198.5 41 q71 0 130.5 -17.5 q59.5 -17.5 106 -45 q46.5 -27.5 79.5 -62.5 q33 -35 52 -70 q27 45 64.5 81 q37.5 36 81.5 61.5 q44 25.5 94 39 q50 13.5 102 13.5 q89 0 156.5 -31 q67.5 -31 113 -86.5 q45.5 -55.5 68.5 -133 q23 -77.5 23 -169.5 ZM797 489 q0 88 -15.5 165 q-15.5 77 -47 134.5 q-31.5 57.5 -79.5 91 q-48 33.5 -114 33.5 q-67 0 -116 -34 q-49 -34 -80.5 -91 q-31.5 -57 -46.5 -132 q-15 -75 -15 -156 q0 -86 16 -163.5 q16 -77.5 48.5 -137 q32.5 -59.5 80.5 -94.5 q48 -35 113 -35 q65 0 113.5 34.5 q48.5 34.5 80 92.5 q31.5 58 47 134 q15.5 76 15.5 158 ZM1403 672 q0 50 -11 94 q-11 44 -33 76.5 q-22 32.5 -54.5 51.5 q-32.5 19 -75.5 19 q-49 0 -88.5 -22.5 q-39.5 -22.5 -69 -61 q-29.5 -38.5 -47 -90.5 q-17.5 -52 -23.5 -112 l402 0 l0 45 Z"/><glyph glyph-name="endash" unicode="" d="M0 422 l0 141 l1024 0 l0 -141 l-1024 0 Z"/><glyph glyph-name="emdash" unicode="" d="M0 422 l0 141 l2048 0 l0 -141 l-2048 0 Z"/><glyph glyph-name="quotedblleft" unicode="" d="M381 1438 q-31 -31 -61.5 -65.5 q-30.5 -34.5 -54.5 -73.5 q-24 -39 -39 -82 q-15 -43 -15 -91 q0 -11 1 -21 q1 -10 1 -18 l129 0 q8 -9 15 -21 q6 -11 11 -26 q5 -15 5 -34 q0 -26 -9 -49 q-9 -23 -25 -40 q-16 -17 -38.5 -26.5 q-22.5 -9.5 -50.5 -9.5 q-79 0 -124.5 51 q-45.5 51 -45.5 139 q0 75 27.5 137.5 q27.5 62.5 65 110.5 q37.5 48 75 81.5 q37.5 33.5 57.5 51.5 l76 -14 ZM803 1438 q-22 -26 -51 -58 q-29 -32 -55.5 -71 q-26.5 -39 -45 -84 q-18.5 -45 -18.5 -97 q0 -11 1 -22 q1 -11 1 -19 l129 0 q8 -11 15 -23 q6 -11 11 -25 q5 -14 5 -31 q0 -26 -9 -49.5 q-9 -23.5 -25 -40.5 q-16 -17 -39 -27 q-23 -10 -50 -10 q-81 0 -125.5 53 q-44.5 53 -44.5 141 q0 74 27.5 135.5 q27.5 61.5 65 109.5 q37.5 48 75 81 q37.5 33 57.5 51 l76 -14 Z"/><glyph glyph-name="quotedblright" unicode="" d="M426 1260 q0 -74 -27.5 -136 q-27.5 -62 -65 -110 q-37.5 -48 -75 -81.5 q-37.5 -33.5 -57.5 -51.5 l-76 16 q21 25 50.5 57 q29.5 32 56 70.5 q26.5 38.5 45 83.5 q18.5 45 18.5 96 q0 11 -1 22 q-1 11 -1 19 l-129 0 q-9 11 -16 24 q-6 11 -10.5 26 q-4.5 15 -4.5 32 q0 26 9 49 q9 23 25.5 40 q16.5 17 39.5 26.5 q23 9.5 51 9.5 q81 0 124.5 -52 q43.5 -52 43.5 -140 ZM848 1262 q0 -75 -27.5 -137.5 q-27.5 -62.5 -65 -110.5 q-37.5 -48 -75 -81.5 q-37.5 -33.5 -57.5 -51.5 l-76 16 q31 31 61.5 65.5 q30.5 34.5 55 73 q24.5 38.5 40 81.5 q15.5 43 15.5 91 q0 11 -2 20 q-2 9 -2 17 l-129 0 q-9 10 -16 23 q-6 11 -10.5 26 q-4.5 15 -4.5 35 q0 53 33.5 88 q33.5 35 89.5 35 q78 0 124 -51.5 q46 -51.5 46 -138.5 Z"/><glyph glyph-name="quoteleft" unicode="" d="M381 1438 q-25 -28 -54.5 -61 q-29.5 -33 -55 -72 q-25.5 -39 -43 -83.5 q-17.5 -44.5 -17.5 -95.5 q0 -9 1 -20 q1 -11 1 -19 l129 0 q8 -11 15 -23 q6 -11 11 -26 q5 -15 5 -32 q0 -26 -9 -49 q-9 -23 -25 -40 q-16 -17 -38.5 -26.5 q-22.5 -9.5 -50.5 -9.5 q-79 0 -124.5 50 q-45.5 50 -45.5 140 q0 75 27.5 137 q27.5 62 65 110.5 q37.5 48.5 75 82 q37.5 33.5 57.5 51.5 l76 -14 Z"/><glyph glyph-name="quoteright" unicode="" d="M426 1262 q0 -75 -27.5 -137.5 q-27.5 -62.5 -65 -110.5 q-37.5 -48 -75 -81.5 q-37.5 -33.5 -57.5 -51.5 l-76 16 q34 34 65.5 70 q31.5 36 55 75 q23.5 39 37 80.5 q13.5 41.5 12.5 85.5 q0 8 -1 18.5 q-1 10.5 -1 18.5 l-129 0 q-9 10 -16 23 q-6 11 -10.5 26 q-4.5 15 -4.5 33 q0 53 32 89 q32 36 91 36 q77 0 123.5 -50.5 q46.5 -50.5 46.5 -139.5 Z"/><glyph glyph-name="divide" unicode="" d="M1147 285 q0 -26 -9.5 -48 q-9.5 -22 -26.5 -38 q-17 -16 -39.5 -25.5 q-22.5 -9.5 -47.5 -9.5 q-26 0 -48 9.5 q-22 9.5 -39 25.5 q-17 16 -26.5 38 q-9.5 22 -9.5 48 q0 26 9.5 48.5 q9.5 22.5 26.5 39 q17 16.5 39 26 q22 9.5 48 9.5 q25 0 47.5 -9.5 q22.5 -9.5 39.5 -26 q17 -16.5 26.5 -39 q9.5 -22.5 9.5 -48.5 ZM410 551 l0 127 l1228 0 l0 -127 l-1228 0 ZM1147 944 q0 -26 -9.5 -48.5 q-9.5 -22.5 -26.5 -39 q-17 -16.5 -39.5 -26 q-22.5 -9.5 -47.5 -9.5 q-26 0 -48 9.5 q-22 9.5 -39 26 q-17 16.5 -26.5 39 q-9.5 22.5 -9.5 48.5 q0 25 9.5 47.5 q9.5 22.5 26.5 39.5 q17 17 39 26.5 q22 9.5 48 9.5 q25 0 47.5 -9.5 q22.5 -9.5 39.5 -26.5 q17 -17 26.5 -39.5 q9.5 -22.5 9.5 -47.5 Z"/><glyph glyph-name="lozenge" unicode="" d="M901 803 l-350 -688 l-352 688 l352 670 l350 -670 ZM1028 803 l-414 786 l-129 0 l-413 -786 l413 -803 l129 0 l414 803 Z"/><glyph glyph-name="fraction" unicode="" d="M131 -190 l-131 0 l872 1564 l132 0 l-873 -1564 Z"/><glyph glyph-name="currency" unicode="" d="M950 877 q0 64 -24.5 121 q-24.5 57 -66.5 100 q-42 43 -99 68.5 q-57 25.5 -121 25.5 q-67 0 -125 -24.5 q-58 -24.5 -101.5 -67.5 q-43.5 -43 -68.5 -101 q-25 -58 -25 -125 q0 -66 25 -123.5 q25 -57.5 68.5 -100 q43.5 -42.5 102 -67 q58.5 -24.5 124.5 -24.5 q65 0 122 25.5 q57 25.5 99 69 q42 43.5 66 101 q24 57.5 24 122.5 ZM1114 328 l-211 211 q-56 -48 -124.5 -72.5 q-68.5 -24.5 -139.5 -24.5 q-77 0 -146 23.5 q-69 23.5 -126 73.5 l-211 -211 l-74 73 l211 211 q-45 56 -67.5 123 q-22.5 67 -22.5 139 q0 36 5.5 72.5 q5.5 36.5 17 71.5 q11.5 35 29 67.5 q17.5 32.5 42.5 59.5 l-215 215 l74 74 l215 -215 q55 45 125.5 67.5 q70.5 22.5 142.5 22.5 q71 0 138 -23.5 q67 -23.5 120 -68.5 l217 217 l74 -74 l-213 -213 q43 -54 67.5 -126 q24.5 -72 24.5 -144 q0 -73 -22 -141 q-22 -68 -68 -124 l211 -211 l-74 -73 Z"/><glyph glyph-name="guilsinglleft" unicode="" d="M40 441 l0 103 l330 443 l100 0 l-255 -494 l255 -493 l-100 0 l-330 441 Z"/><glyph glyph-name="guilsinglright" unicode="" d="M460 546 l0 -103 l-330 -443 l-100 0 l255 494 l-255 493 l100 0 l330 -441 Z"/><glyph glyph-name="fi" unicode="" d="M739 0 l0 80 l101 6 q18 2 30.5 14 q12.5 12 12.5 31 l0 735 l-490 0 l0 -735 q0 -19 12.5 -31 q12.5 -12 30.5 -14 l121 -6 l0 -80 l-498 0 l0 80 l101 6 q18 2 30.5 14 q12.5 12 12.5 31 l0 735 l-131 0 l0 72 l131 37 q0 51 3.5 91.5 q3.5 40.5 12 76 q8.5 35.5 21.5 69 q13 33.5 32 70.5 q30 58 69.5 100.5 q39.5 42.5 85 70.5 q45.5 28 95 42 q49.5 14 99.5 14 q43 0 76 -10 q33 -10 55.5 -27 q22.5 -17 33.5 -39 q11 -22 11 -47 q0 -31 -12.5 -51.5 q-12.5 -20.5 -29 -33 q-16.5 -12.5 -32 -18.5 q-15.5 -6 -21.5 -7 q-2 2 -16.5 12.5 q-14.5 10.5 -35 25 q-20.5 14.5 -44 30.5 q-23.5 16 -43.5 30.5 q-20 14.5 -34 24 q-14 9.5 -15 10.5 q-22 -12 -43 -34 q-21 -22 -37.5 -59 q-16.5 -37 -27 -89.5 q-10.5 -52.5 -11.5 -124.5 l-2 -131 l443 0 l153 39 l84 0 l0 -879 q0 -19 12.5 -31 q12.5 -12 30.5 -14 l103 -6 l0 -80 l-480 0 ZM1116 1325 q0 -26 -10 -49.5 q-10 -23.5 -27.5 -40.5 q-17.5 -17 -40.5 -27 q-23 -10 -49 -10 q-26 0 -48.5 10 q-22.5 10 -39.5 27 q-17 17 -27 40.5 q-10 23.5 -10 49.5 q0 26 10 49 q10 23 27 40 q17 17 39.5 26.5 q22.5 9.5 48.5 9.5 q26 0 49 -9.5 q23 -9.5 40.5 -26.5 q17.5 -17 27.5 -40 q10 -23 10 -49 Z"/><glyph glyph-name="fl" unicode="" d="M725 0 l0 80 l109 6 q14 0 29.5 14.5 q15.5 14.5 15.5 28.5 l0 1219 l-88 0 q-7 -20 -20.5 -33.5 q-13.5 -13.5 -27 -21.5 q-13.5 -8 -25.5 -12 q-12 -4 -16 -5 q-2 2 -16.5 12.5 q-14.5 10.5 -35 25 q-20.5 14.5 -44 30.5 q-23.5 16 -43.5 30.5 q-20 14.5 -34 24 q-14 9.5 -15 10.5 q-22 -12 -43 -34 q-21 -22 -37.5 -59 q-16.5 -37 -27 -89.5 q-10.5 -52.5 -11.5 -124.5 l-2 -131 l254 0 l0 -105 l-254 0 l0 -735 q0 -19 12.5 -31 q12.5 -12 30.5 -14 l121 -6 l0 -80 l-498 0 l0 80 l101 6 q18 2 30.5 14 q12.5 12 12.5 31 l0 735 l-131 0 l0 72 l131 37 q0 51 3.5 91.5 q3.5 40.5 12 76 q8.5 35.5 21.5 69 q13 33.5 32 70.5 q30 58 69.5 100.5 q39.5 42.5 85 70.5 q45.5 28 95 42 q49.5 14 99.5 14 q65 0 105.5 -20.5 q40.5 -20.5 57.5 -52.5 l201 73 l84 0 l0 -1380 q0 -14 14.5 -28.5 q14.5 -14.5 28.5 -14.5 l109 -6 l0 -80 l-496 0 Z"/><glyph glyph-name="daggerdbl" unicode="" d="M512 -268 l-94 155 l80 287 l28 0 l82 -287 l-96 -155 ZM182 121 l-153 96 l153 94 l289 -80 l0 -30 l-289 -80 ZM842 121 l-287 80 l0 30 l287 80 l153 -94 l-153 -96 ZM526 260 l-28 0 l-109 342 l109 340 l28 0 l107 -342 l-107 -340 ZM182 891 l-153 94 l153 96 l289 -82 l0 -28 l-289 -80 ZM842 891 l-287 80 l0 28 l287 82 l153 -96 l-153 -94 ZM526 1028 l-28 0 l-80 287 l94 155 l96 -155 l-82 -287 Z"/><glyph glyph-name="periodcentered" unicode="" d="M313 696 q0 -25 -9.5 -47 q-9.5 -22 -25.5 -38.5 q-16 -16.5 -38 -26 q-22 -9.5 -47 -9.5 q-26 0 -48 9.5 q-22 9.5 -38 26 q-16 16.5 -25.5 38.5 q-9.5 22 -9.5 47 q0 25 9.5 47.5 q9.5 22.5 25.5 38.5 q16 16 38 25.5 q22 9.5 48 9.5 q25 0 47 -9.5 q22 -9.5 38 -25.5 q16 -16 25.5 -38.5 q9.5 -22.5 9.5 -47.5 Z"/><glyph glyph-name="quotesinglbase" unicode="" d="M426 39 q0 -75 -27.5 -137.5 q-27.5 -62.5 -65 -110.5 q-37.5 -48 -75 -81.5 q-37.5 -33.5 -57.5 -51.5 l-76 16 q34 34 65.5 70 q31.5 36 55 75 q23.5 39 37 80.5 q13.5 41.5 12.5 86.5 q0 8 -1 18.5 q-1 10.5 -1 18.5 l-129 0 q-9 11 -16 23 q-6 11 -10.5 25.5 q-4.5 14.5 -4.5 32.5 q0 53 32 89 q32 36 91 36 q77 0 123.5 -50 q46.5 -50 46.5 -140 Z"/><glyph glyph-name="quotedblbase" unicode="" d="M426 37 q0 -74 -27.5 -136 q-27.5 -62 -65 -110 q-37.5 -48 -75 -81.5 q-37.5 -33.5 -57.5 -51.5 l-76 16 q21 25 50.5 57 q29.5 32 56 70.5 q26.5 38.5 45 83.5 q18.5 45 18.5 97 q0 11 -1 22 q-1 11 -1 19 l-129 0 q-9 11 -16 24 q-6 11 -10.5 25.5 q-4.5 14.5 -4.5 31.5 q0 26 9 49 q9 23 25.5 40 q16.5 17 39.5 26.5 q23 9.5 51 9.5 q81 0 124.5 -52 q43.5 -52 43.5 -140 ZM848 39 q0 -75 -27.5 -137.5 q-27.5 -62.5 -65 -110.5 q-37.5 -48 -75 -81.5 q-37.5 -33.5 -57.5 -51.5 l-76 16 q31 31 61.5 65.5 q30.5 34.5 55 73.5 q24.5 39 40 82 q15.5 43 15.5 91 q0 11 -2 20 q-2 9 -2 17 l-129 0 q-9 10 -16 22 q-6 11 -10.5 26 q-4.5 15 -4.5 35 q0 53 33.5 88 q33.5 35 89.5 35 q78 0 124 -51 q46 -51 46 -139 Z"/><glyph glyph-name="perthousand" unicode="" d="M537 977 q0 81 -9 146 q-9 65 -27.5 110.5 q-18.5 45.5 -48 70.5 q-29.5 25 -71.5 25 q-42 0 -72.5 -25 q-30.5 -25 -50.5 -70.5 q-20 -45.5 -29.5 -110.5 q-9.5 -65 -9.5 -146 q0 -81 9.5 -146 q9.5 -65 29.5 -110.5 q20 -45.5 50.5 -70.5 q30.5 -25 72.5 -25 q42 0 71.5 25 q29.5 25 48 70.5 q18.5 45.5 27.5 110.5 q9 65 9 146 ZM1378 397 q0 81 -9 146 q-9 65 -27.5 111 q-18.5 46 -48 71 q-29.5 25 -70.5 25 q-42 0 -72.5 -25 q-30.5 -25 -50.5 -71 q-20 -46 -29.5 -111 q-9.5 -65 -9.5 -146 q0 -81 9.5 -146 q9.5 -65 29.5 -111.5 q20 -46.5 50.5 -71.5 q30.5 -25 72.5 -25 q41 0 70.5 25 q29.5 25 48 71.5 q18.5 46.5 27.5 111.5 q9 65 9 146 ZM2101 397 q0 81 -9 146 q-9 65 -27.5 111 q-18.5 46 -48 71 q-29.5 25 -70.5 25 q-42 0 -72.5 -25 q-30.5 -25 -50.5 -71 q-20 -46 -29.5 -111 q-9.5 -65 -9.5 -146 q0 -81 9.5 -146 q9.5 -65 29.5 -111.5 q20 -46.5 50.5 -71.5 q30.5 -25 72.5 -25 q41 0 70.5 25 q29.5 25 48 71.5 q18.5 46.5 27.5 111.5 q9 65 9 146 ZM694 977 q0 -92 -19 -170.5 q-19 -78.5 -58 -136 q-39 -57.5 -98 -90.5 q-59 -33 -138 -33 q-79 0 -138 33 q-59 33 -98.5 90.5 q-39.5 57.5 -59 136 q-19.5 78.5 -19.5 170.5 q0 91 19.5 170 q19.5 79 59 136.5 q39.5 57.5 98.5 90.5 q59 33 138 33 q79 0 138 -33 q59 -33 98 -90.5 q39 -57.5 58 -136.5 q19 -79 19 -170 ZM432 0 l-129 0 l871 1374 l126 0 l-868 -1374 ZM1536 397 q0 -91 -19 -169.5 q-19 -78.5 -58 -136.5 q-39 -58 -98 -91 q-59 -33 -138 -33 q-79 0 -138.5 33 q-59.5 33 -99 91 q-39.5 58 -59 136.5 q-19.5 78.5 -19.5 169.5 q0 91 19.5 170 q19.5 79 59 136.5 q39.5 57.5 99 90.5 q59.5 33 138.5 33 q79 0 138 -33 q59 -33 98 -90.5 q39 -57.5 58 -136.5 q19 -79 19 -170 ZM2259 397 q0 -91 -19 -169.5 q-19 -78.5 -58 -136.5 q-39 -58 -98 -91 q-59 -33 -138 -33 q-79 0 -138.5 33 q-59.5 33 -99 91 q-39.5 58 -59 136.5 q-19.5 78.5 -19.5 169.5 q0 91 19.5 170 q19.5 79 59 136.5 q39.5 57.5 99 90.5 q59.5 33 138.5 33 q79 0 138 -33 q59 -33 98 -90.5 q39 -57.5 58 -136.5 q19 -79 19 -170 Z"/><glyph glyph-name="uni25CC" unicode="" d="M486 868 q0 20 13.5 34 q13.5 14 33.5 14 q20 0 34 -14 q14 -14 14 -34 q0 -20 -14 -33.5 q-14 -13.5 -34 -13.5 q-20 0 -33.5 13.5 q-13.5 13.5 -13.5 33.5 ZM486 47 q0 20 13.5 34 q13.5 14 33.5 14 q20 0 34 -14 q14 -14 14 -34 q0 -20 -14 -33.5 q-14 -13.5 -34 -13.5 q-20 0 -33.5 13.5 q-13.5 13.5 -13.5 33.5 ZM646 855 q6 14 18 22 q12 8 26 8 q20 0 34 -15 q14 -15 14 -34 q0 -20 -15 -33.5 q-15 -13.5 -33 -13.5 q-20 0 -33.5 15.5 q-13.5 15.5 -13.5 33.5 q0 8 3 17 ZM332 96 q6 14 19.5 22 q13.5 8 25.5 8 q20 0 33.5 -15 q13.5 -15 13.5 -33 q0 -20 -15 -33.5 q-15 -13.5 -33 -13.5 q-20 0 -34 15 q-14 15 -14 32 q0 5 1 9 q1 4 3 9 ZM789 782 q16 14 34 14 q20 0 33.5 -14 q13.5 -14 13.5 -34 q0 -20 -13.5 -34 q-13.5 -14 -33.5 -14 q-20 0 -33.5 15 q-13.5 15 -13.5 33 q0 19 13 34 ZM209 200 q15 15 32 15 q21 0 35 -13.5 q14 -13.5 14 -33.5 q0 -19 -13.5 -33.5 q-13.5 -14.5 -33.5 -14.5 q-19 0 -33.5 14.5 q-14.5 14.5 -14.5 33.5 q0 18 14 32 ZM894 659 q5 2 9 3 q4 1 9 1 q18 0 33 -14 q15 -14 15 -34 q0 -18 -14 -33 q-14 -15 -35 -15 q-18 0 -32 13.5 q-14 13.5 -14 33.5 q0 14 7.5 26.5 q7.5 12.5 21.5 18.5 ZM135 344 q8 4 19 4 q20 0 34 -13 q14 -13 14 -33 q0 -19 -14 -34 q-14 -15 -34 -15 q-19 0 -33.5 14.5 q-14.5 14.5 -14.5 34.5 q0 14 7.5 25.5 q7.5 11.5 21.5 16.5 ZM943 506 q20 0 34 -14 q14 -14 14 -34 q0 -19 -13.5 -33 q-13.5 -14 -33.5 -14 l-4 0 q-18 0 -31.5 14 q-13.5 14 -13.5 32 q0 20 15 33.5 q15 13.5 33 15.5 ZM122 505 q19 0 34 -13.5 q15 -13.5 15 -32.5 q0 -20 -15 -34.5 q-15 -14.5 -33 -14.5 l-2 0 q-20 0 -33 14.5 q-13 14.5 -13 33.5 q0 20 13.5 33.5 q13.5 13.5 33.5 13.5 ZM930 345 q14 -6 22 -18 q8 -12 8 -26 q0 -20 -14.5 -33.5 q-14.5 -13.5 -33.5 -13.5 q-23 0 -35.5 14.5 q-12.5 14.5 -12.5 32.5 q0 23 15.5 35 q15.5 12 33.5 12 q9 0 17 -3 ZM171 659 q14 -6 22.5 -19 q8.5 -13 8.5 -27 q0 -20 -15.5 -33 q-15.5 -13 -33.5 -13 q-21 0 -34 15 q-13 15 -13 33 q0 20 14.5 34 q14.5 14 32.5 14 q5 0 9 -1 q4 -1 9 -3 ZM857 202 q14 -14 14 -34 q0 -19 -13.5 -33 q-13.5 -14 -34.5 -14 q-20 0 -34 14 q-14 14 -14 33 q0 20 13 33.5 q13 13.5 33 13.5 q20 0 36 -13 ZM275 782 q15 -13 15 -33 q0 -22 -13 -35 q-13 -13 -34 -13 q-20 0 -34 13.5 q-14 13.5 -14 32.5 q0 20 14 34.5 q14 14.5 33 14.5 q19 0 33 -14 ZM734 97 q2 -5 3 -9 q1 -4 1 -9 q0 -18 -14 -33 q-14 -15 -34 -15 q-18 0 -33 14 q-15 14 -15 35 q0 17 13 32 q13 15 32 15 q14 0 27 -8 q13 -8 20 -22 ZM419 856 q4 -8 4 -19 q0 -19 -12.5 -33.5 q-12.5 -14.5 -32.5 -14.5 q-20 0 -35 13.5 q-15 13.5 -15 34.5 q0 18 14.5 33 q14.5 15 34.5 15 q14 0 25 -7.5 q11 -7.5 17 -21.5 Z"/><glyph glyph-name="dotlessi" unicode="" d="M70 0 l0 80 l100 6 q19 2 31 14 q12 12 12 31 l0 731 l-141 0 l0 72 l250 78 l81 0 l0 -881 q0 -19 12.5 -31 q12.5 -12 30.5 -14 l105 -6 l0 -80 l-481 0 Z"/><glyph glyph-name="tilde" unicode="" d="M711 1423 q-12 -45 -32 -86 q-20 -41 -49 -71.5 q-29 -30.5 -68 -49 q-39 -18.5 -89 -18.5 q-27 0 -49.5 7.5 q-22.5 7.5 -43 18 q-20.5 10.5 -40.5 23.5 q-20 13 -42.5 23.5 q-22.5 10.5 -49.5 18 q-27 7.5 -60 7.5 q-21 0 -39 -8.5 q-18 -8.5 -32.5 -22 q-14.5 -13.5 -23.5 -31.5 q-9 -18 -11 -36 l-82 0 q12 45 31.5 86 q19.5 41 49 72 q29.5 31 68.5 49 q39 18 89 18 q27 0 49 -7.5 q22 -7.5 42.5 -18 q20.5 -10.5 40 -23.5 q19.5 -13 42 -23.5 q22.5 -10.5 49 -18 q26.5 -7.5 59.5 -7.5 q21 0 39.5 8.5 q18.5 8.5 33.5 22 q15 13.5 24.5 31.5 q9.5 18 11.5 36 l82 0 Z"/><glyph glyph-name="dotaccent" unicode="" d="M229 1313 q0 -24 -9 -45 q-9 -21 -24.5 -36.5 q-15.5 -15.5 -36 -24.5 q-20.5 -9 -44.5 -9 q-24 0 -45 9 q-21 9 -36.5 24.5 q-15.5 15.5 -24.5 36.5 q-9 21 -9 45 q0 24 9 45.5 q9 21.5 24.5 37.5 q15.5 16 36.5 25 q21 9 45 9 q24 0 44.5 -9 q20.5 -9 36 -25 q15.5 -16 24.5 -37.5 q9 -21.5 9 -45.5 Z"/><glyph glyph-name="ring" unicode="" d="M387 1370 q0 30 -11 56.5 q-11 26.5 -30.5 46.5 q-19.5 20 -45.5 31.5 q-26 11.5 -56 11.5 q-30 0 -56.5 -11.5 q-26.5 -11.5 -46 -31.5 q-19.5 -20 -30.5 -46.5 q-11 -26.5 -11 -56.5 q0 -29 11 -55 q11 -26 30.5 -45.5 q19.5 -19.5 46 -31 q26.5 -11.5 56.5 -11.5 q30 0 56 11.5 q26 11.5 45.5 31 q19.5 19.5 30.5 45.5 q11 26 11 55 ZM487 1370 q0 -50 -19 -94 q-19 -44 -52 -77 q-33 -33 -77 -52 q-44 -19 -95 -19 q-51 0 -95.5 19 q-44.5 19 -77.5 52 q-33 33 -52 77 q-19 44 -19 94 q0 51 19 95.5 q19 44.5 52 78 q33 33.5 77.5 53 q44.5 19.5 95.5 19.5 q51 0 95 -19.5 q44 -19.5 77 -53 q33 -33.5 52 -78 q19 -44.5 19 -95.5 Z"/><glyph glyph-name="hungarumlaut" unicode="" d="M475 1409 q0 -28 -13.5 -48 q-13.5 -20 -35.5 -34 l-309 -199 l-117 0 l272 318 q12 13 22.5 23.5 q10.5 10.5 22.5 17.5 q12 7 27.5 10.5 q15.5 3.5 36.5 3.5 q26 0 44 -8.5 q18 -8.5 29 -21.5 q11 -13 16 -29.5 q5 -16.5 5 -32.5 ZM874 1409 q0 -28 -13.5 -48 q-13.5 -20 -33.5 -34 l-311 -199 l-117 0 l275 318 q21 26 43 40.5 q22 14.5 63 14.5 q27 0 45 -8.5 q18 -8.5 29 -21.5 q11 -13 15.5 -29.5 q4.5 -16.5 4.5 -32.5 Z"/><glyph glyph-name="uni0430" unicode="" d="M680 547 q-92 -23 -157.5 -45.5 q-65.5 -22.5 -110.5 -45.5 q-45 -23 -71 -46 q-26 -23 -40 -46.5 q-14 -23.5 -18 -48 q-4 -24.5 -4 -49.5 q0 -32 10 -61 q10 -29 29.5 -51.5 q19.5 -22.5 48 -36 q28.5 -13.5 65.5 -13.5 q41 0 85 13.5 q44 13.5 80 30.5 q42 19 83 45 l0 354 ZM707 0 l-27 121 q-53 -39 -109 -69 q-24 -13 -52 -25 q-28 -12 -57 -21.5 q-29 -9.5 -59.5 -15.5 q-30.5 -6 -60.5 -6 q-55 0 -103.5 17.5 q-48.5 17.5 -84.5 52 q-36 34.5 -57 84 q-21 49.5 -21 114.5 q0 38 7.5 72 q7.5 34 30 66 q22.5 32 63.5 61.5 q41 29.5 108 58.5 q67 29 164 57.5 q97 28.5 231 57.5 l0 88 q0 103 -43.5 152.5 q-43.5 49.5 -142.5 49.5 q-54 0 -92 -10 q-38 -10 -54 -16 l0 -178 l-149 0 q-14 0 -27.5 2 q-13.5 2 -24.5 8.5 q-11 6.5 -17.5 18 q-6.5 11.5 -6.5 30.5 q0 63 38 108.5 q38 45.5 99 74.5 q61 29 137 43 q76 14 152 14 q95 0 157.5 -22.5 q62.5 -22.5 99 -63 q36.5 -40.5 51.5 -96.5 q15 -56 15 -123 l0 -574 q0 -19 12.5 -31 q12.5 -12 30.5 -14 l99 -6 l0 -80 l-307 0 Z"/><glyph glyph-name="uni2090" unicode="" d="M446 -132 q-90 -21 -142.5 -41.5 q-52.5 -20.5 -79.5 -41 q-27 -20.5 -34.5 -42 q-7.5 -21.5 -7.5 -43.5 q0 -20 6.5 -38 q6.5 -18 19.5 -32.5 q13 -14.5 31.5 -23 q18.5 -8.5 42.5 -8.5 q27 0 55.5 9 q28.5 9 52.5 19 q28 13 56 30 l0 212 ZM463 -460 l-17 73 q-35 -25 -72 -44 q-17 -9 -35 -16.5 q-18 -7.5 -37 -14 q-19 -6.5 -39 -10 q-20 -3.5 -40 -3.5 q-36 0 -67.5 11.5 q-31.5 11.5 -55 33 q-23.5 21.5 -37 52 q-13.5 30.5 -13.5 69.5 q0 23 5 43.5 q5 20.5 20 39.5 q15 19 42 37 q27 18 71 35 q44 17 107.5 34.5 q63.5 17.5 150.5 34.5 l0 53 q0 62 -30 91.5 q-30 29.5 -94 29.5 q-36 0 -60.5 -6 q-24.5 -6 -34.5 -10 l0 -106 l-97 0 q-9 0 -17.5 1 q-8.5 1 -16 5 q-7.5 4 -11.5 11 q-4 7 -4 18 q0 38 24.5 65 q24.5 27 64.5 45 q40 18 89.5 26.5 q49.5 8.5 98.5 8.5 q62 0 102.5 -13.5 q40.5 -13.5 64 -38.5 q23.5 -25 33.5 -58.5 q10 -33.5 10 -73.5 l0 -344 q0 -12 8 -19 q8 -7 20 -8 l64 -4 l0 -48 l-197 0 Z"/><glyph glyph-name="uni1D43" unicode="" d="M451 1112 q-90 -21 -142.5 -41 q-52.5 -20 -80 -41 q-27.5 -21 -35 -42.5 q-7.5 -21.5 -7.5 -43.5 q0 -19 7 -37.5 q7 -18.5 19.5 -32.5 q12.5 -14 31.5 -23 q19 -9 43 -9 q26 0 55.5 8.5 q29.5 8.5 53.5 19.5 q28 12 55 29 l0 213 ZM469 784 l-18 72 q-35 -25 -73 -43 q-32 -17 -72 -30 q-40 -13 -79 -13 q-35 0 -66.5 11 q-31.5 11 -55 32.5 q-23.5 21.5 -37 52.5 q-13.5 31 -13.5 70 q0 34 12.5 63 q12.5 29 54 56 q41.5 27 119.5 52.5 q78 25.5 210 51.5 l0 53 q0 62 -30 91.5 q-30 29.5 -93 29.5 q-35 0 -60.5 -6.5 q-25.5 -6.5 -36.5 -9.5 l0 -107 l-96 0 q-18 0 -33.5 6 q-15.5 6 -15.5 29 q0 39 24.5 66.5 q24.5 27.5 64 45 q39.5 17.5 89 26 q49.5 8.5 98.5 8.5 q62 0 103 -13.5 q41 -13.5 65 -38 q24 -24.5 33.5 -58.5 q9.5 -34 9.5 -75 l0 -344 q0 -11 8 -17.5 q8 -6.5 19 -8.5 l66 -5 l0 -47 l-197 0 Z"/><glyph glyph-name="aogonek" unicode="" d="M948 -334 q-33 -17 -65 -29 q-27 -11 -57.5 -19.5 q-30.5 -8.5 -53.5 -8.5 q-96 0 -150.5 37.5 q-54.5 37.5 -54.5 111.5 q0 43 14.5 81 q14.5 38 36 69.5 q21.5 31.5 46.5 55.5 q23 22 43 36 l-2 0 l-27 121 q-54 -41 -111 -73 q-25 -14 -53 -27 q-28 -13 -57.5 -23.5 q-29.5 -10.5 -60 -16.5 q-30.5 -6 -60.5 -6 q-56 0 -104.5 19 q-48.5 19 -84.5 55 q-36 36 -56.5 87 q-20.5 51 -20.5 116 q0 38 7.5 72 q7.5 34 30.5 66 q23 32 64.5 61.5 q41.5 29.5 109 58.5 q67.5 29 165 57.5 q97.5 28.5 231.5 57.5 l0 88 q0 103 -46 152.5 q-46 49.5 -145 49.5 q-54 0 -92 -10 q-38 -10 -53 -16 l0 -178 l-149 0 q-14 0 -27.5 2 q-13.5 2 -24.5 8.5 q-11 6.5 -17.5 18 q-6.5 11.5 -6.5 30.5 q0 63 38 108.5 q38 45.5 99 75.5 q61 30 137 44 q76 14 152 14 q95 0 157.5 -23 q62.5 -23 99 -64 q36.5 -41 51.5 -97 q15 -56 15 -123 l0 -574 q0 -19 12.5 -31 q12.5 -12 30.5 -14 l99 -6 l0 -80 l-204 0 q-17 -12 -35 -30 q-19 -20 -35.5 -44 q-16.5 -24 -27 -53 q-10.5 -29 -10.5 -61 q0 -51 31.5 -76 q31.5 -25 87.5 -25 q11 0 26 5.5 q15 5.5 28 12.5 q15 8 30 19 l49 -82 ZM678 547 q-138 -35 -219 -69 q-81 -34 -122.5 -68.5 q-41.5 -34.5 -53 -70 q-11.5 -35.5 -11.5 -73.5 q0 -32 10.5 -62.5 q10.5 -30.5 30 -54.5 q19.5 -24 48 -38.5 q28.5 -14.5 65.5 -14.5 q41 0 85.5 15 q44.5 15 81.5 33 q43 21 85 49 l0 354 Z"/><glyph glyph-name="uni1D8F" unicode="" d="M705 0 l-27 121 q-54 -41 -111 -73 q-25 -14 -53 -27 q-28 -13 -57.5 -23.5 q-29.5 -10.5 -60 -16.5 q-30.5 -6 -60.5 -6 q-56 0 -104.5 19 q-48.5 19 -84.5 55 q-36 36 -56.5 87 q-20.5 51 -20.5 116 q0 38 7.5 72 q7.5 34 30.5 66 q23 32 64.5 61.5 q41.5 29.5 109 58.5 q67.5 29 165 57.5 q97.5 28.5 231.5 57.5 l0 88 q0 103 -46 152.5 q-46 49.5 -145 49.5 q-54 0 -92 -10 q-38 -10 -53 -16 l0 -178 l-149 0 q-14 0 -27.5 2 q-13.5 2 -24.5 8.5 q-11 6.5 -17.5 18 q-6.5 11.5 -6.5 30.5 q0 63 38 108.5 q38 45.5 99 75.5 q61 30 137 44 q76 14 152 14 q95 0 157.5 -23 q62.5 -23 99 -64 q36.5 -41 51.5 -97 q15 -56 15 -123 l0 -574 q0 -19 12.5 -31 q12.5 -12 30.5 -14 l99 -6 l0 -320 q0 -66 30.5 -93 q30.5 -27 86.5 -27 l164 143 q4 -2 19 -8.5 q15 -6.5 30.5 -20 q15.5 -13.5 28 -36 q12.5 -22.5 12.5 -56.5 q0 -22 -16 -45 q-16 -23 -44 -41.5 q-28 -18.5 -67 -30.5 q-39 -12 -84 -12 q-133 0 -197.5 60 q-64.5 60 -64.5 178 l0 229 l-201 0 ZM678 547 q-138 -35 -219 -69 q-81 -34 -122.5 -68.5 q-41.5 -34.5 -53 -70 q-11.5 -35.5 -11.5 -73.5 q0 -32 10.5 -62.5 q10.5 -30.5 30 -54.5 q19.5 -24 48 -38.5 q28.5 -14.5 65.5 -14.5 q41 0 85.5 15 q44.5 15 81.5 33 q43 21 85 49 l0 354 Z"/><glyph glyph-name="uni2C65" unicode="" d="M272 266 q0 -56 29 -102 l196 329 q-75 -27 -120 -54.5 q-45 -27.5 -68 -56 q-23 -28.5 -30 -57.5 q-7 -29 -7 -59 ZM678 547 l-34 -9 l-261 -436 q19 -6 43 -6 q41 0 85.5 15 q44.5 15 81.5 33 q43 21 85 49 l0 354 ZM207 5 q-62 32 -99.5 95 q-37.5 63 -37.5 152 q0 52 16 97.5 q16 45.5 67.5 87.5 q51.5 42 148 81 q96.5 39 257.5 79 l112 188 q-28 130 -184 130 q-54 0 -92 -10 q-38 -10 -53 -16 l0 -178 l-149 0 q-14 0 -27.5 2 q-13.5 2 -24.5 8.5 q-11 6.5 -17.5 18 q-6.5 11.5 -6.5 30.5 q0 63 38 108.5 q38 45.5 99 75.5 q61 30 137 44 q76 14 152 14 q78 0 133.5 -15.5 q55.5 -15.5 93.5 -44.5 l114 190 l87 -57 l-133 -222 q15 -34 21.5 -73.5 q6.5 -39.5 6.5 -84.5 l0 -574 q0 -19 12.5 -31 q12.5 -12 30.5 -14 l99 -6 l0 -80 l-303 0 l-27 121 q-54 -41 -111 -73 q-25 -14 -53 -27 q-28 -13 -57.5 -23.5 q-29.5 -10.5 -60 -16.5 q-30.5 -6 -60.5 -6 q-7 0 -14 0.5 q-7 0.5 -14 1.5 l-82 -139 l-84 58 l65 109 Z"/><glyph glyph-name="uniA733" unicode="" d="M1272 713 q0 103 -46 152.5 q-46 49.5 -145 49.5 q-37 0 -72.5 -6 q-35.5 -6 -64.5 -14 q-29 -8 -50 -15.5 q-21 -7.5 -28 -10.5 l0 -365 q66 30 165 60 q99 30 241 61 l0 88 ZM1272 547 q-138 -35 -219 -69 q-81 -34 -122.5 -68.5 q-41.5 -34.5 -53 -70 q-11.5 -35.5 -11.5 -73.5 q0 -33 10.5 -64 q10.5 -31 30.5 -54.5 q20 -23.5 48.5 -37.5 q28.5 -14 64.5 -14 q41 0 85.5 15 q44.5 15 81.5 33 q43 21 85 49 l0 354 ZM678 547 q-138 -35 -219 -69 q-81 -34 -122.5 -68.5 q-41.5 -34.5 -53 -70 q-11.5 -35.5 -11.5 -73.5 q0 -32 10.5 -62.5 q10.5 -30.5 30 -54.5 q19.5 -24 48 -38.5 q28.5 -14.5 65.5 -14.5 q41 0 85.5 15 q44.5 15 81.5 33 q43 21 85 49 l0 354 ZM1299 0 l-27 121 q-54 -41 -111 -73 q-25 -14 -53 -27 q-28 -13 -57.5 -23.5 q-29.5 -10.5 -60 -16.5 q-30.5 -6 -60.5 -6 q-84 0 -145 41.5 q-61 41.5 -88 117.5 q-22 -17 -61.5 -43.5 q-39.5 -26.5 -88.5 -52.5 q-49 -26 -104 -44.5 q-55 -18.5 -107 -18.5 q-56 0 -104.5 19 q-48.5 19 -84.5 55 q-36 36 -56.5 87 q-20.5 51 -20.5 116 q0 38 7.5 72 q7.5 34 30.5 66 q23 32 64.5 61.5 q41.5 29.5 109 58.5 q67.5 29 165 57.5 q97.5 28.5 231.5 57.5 l0 88 q0 103 -46 152.5 q-46 49.5 -145 49.5 q-54 0 -92 -10 q-38 -10 -53 -16 l0 -178 l-149 0 q-14 0 -27.5 2 q-13.5 2 -24.5 8.5 q-11 6.5 -17.5 18 q-6.5 11.5 -6.5 30.5 q0 63 38 108.5 q38 45.5 99 75.5 q61 30 137 44 q76 14 152 14 q91 0 151 -20.5 q60 -20.5 98 -58.5 q34 20 76 35 q42 15 87 24.5 q45 9.5 91.5 14.5 q46.5 5 90.5 5 q95 0 157.5 -23 q62.5 -23 99 -64 q36.5 -41 51.5 -97 q15 -56 15 -123 l0 -574 q0 -19 12.5 -31 q12.5 -12 30.5 -14 l99 -6 l0 -80 l-303 0 Z"/><glyph glyph-name="uniA735" unicode="" d="M678 547 q-138 -35 -219 -69 q-81 -34 -122.5 -68.5 q-41.5 -34.5 -53 -70 q-11.5 -35.5 -11.5 -73.5 q0 -32 10.5 -62.5 q10.5 -30.5 30 -54.5 q19.5 -24 48 -38.5 q28.5 -14.5 65.5 -14.5 q41 0 85.5 15 q44.5 15 81.5 33 q43 21 85 49 l0 354 ZM1389 494 q0 84 -13.5 161 q-13.5 77 -43.5 136 q-30 59 -78 94 q-48 35 -117 35 q-71 0 -119.5 -35 q-48.5 -35 -78.5 -94 q-30 -59 -43 -136 q-13 -77 -13 -161 q0 -83 13.5 -160 q13.5 -77 43.5 -136 q30 -59 78 -94.5 q48 -35.5 117 -35.5 q70 0 118.5 35 q48.5 35 78.5 94 q30 59 43.5 136 q13.5 77 13.5 161 ZM1602 492 q0 -109 -31 -203.5 q-31 -94.5 -91 -164 q-60 -69.5 -147.5 -109.5 q-87.5 -40 -199.5 -40 q-128 0 -220 49.5 q-92 49.5 -149 137.5 q-13 -9 -40 -26.5 q-27 -17.5 -63 -38 q-36 -20.5 -78 -42.5 q-42 -22 -85 -39.5 q-43 -17.5 -85 -29 q-42 -11.5 -77 -11.5 q-56 0 -104.5 19 q-48.5 19 -84.5 55 q-36 36 -56.5 87 q-20.5 51 -20.5 116 q0 38 7.5 72 q7.5 34 30.5 66 q23 32 64.5 61.5 q41.5 29.5 109 58.5 q67.5 29 165 57.5 q97.5 28.5 231.5 57.5 l0 88 q0 103 -46 152.5 q-46 49.5 -145 49.5 q-54 0 -92 -10 q-38 -10 -53 -16 l0 -178 l-149 0 q-14 0 -27.5 2 q-13.5 2 -24.5 8.5 q-11 6.5 -17.5 18 q-6.5 11.5 -6.5 30.5 q0 63 38 108.5 q38 45.5 99 75.5 q61 30 137 44 q76 14 152 14 q113 0 179.5 -31.5 q66.5 -31.5 100.5 -87.5 q57 56 136 87.5 q79 31.5 180 31.5 q114 0 201 -41 q87 -41 145 -111.5 q58 -70.5 87.5 -165 q29.5 -94.5 29.5 -202.5 Z"/><glyph glyph-name="uniA737" unicode="" d="M426 96 q30 0 64.5 9 q34.5 9 69 24 q34.5 15 67.5 33.5 q33 18.5 60 36.5 q-9 48 -9 108 l0 240 q-138 -35 -219 -69 q-81 -34 -122.5 -68.5 q-41.5 -34.5 -53 -70 q-11.5 -35.5 -11.5 -73.5 q0 -32 10.5 -62.5 q10.5 -30.5 30 -54.5 q19.5 -24 48 -38.5 q28.5 -14.5 65.5 -14.5 ZM1269 0 l0 117 q-26 -20 -62 -45 q-36 -25 -78 -46.5 q-42 -21.5 -87.5 -36 q-45.5 -14.5 -90.5 -14.5 q-94 0 -155 39.5 q-61 39.5 -92 124.5 l-26 -18 q-54 -41 -111 -73 q-25 -14 -53 -27 q-28 -13 -57.5 -23.5 q-29.5 -10.5 -60 -16.5 q-30.5 -6 -60.5 -6 q-56 0 -104.5 19 q-48.5 19 -84.5 55 q-36 36 -56.5 87 q-20.5 51 -20.5 116 q0 38 7.5 72 q7.5 34 30.5 66 q23 32 64.5 61.5 q41.5 29.5 109 58.5 q67.5 29 165 57.5 q97.5 28.5 231.5 57.5 l0 88 q0 103 -46 152.5 q-46 49.5 -145 49.5 q-54 0 -92 -10 q-38 -10 -53 -16 l0 -178 l-149 0 q-14 0 -27.5 2 q-13.5 2 -24.5 8.5 q-11 6.5 -17.5 18 q-6.5 11.5 -6.5 30.5 q0 63 38 108.5 q38 45.5 99 75.5 q61 30 137 44 q76 14 152 14 q95 0 157.5 -23 q62.5 -23 99 -64 q36.5 -41 51.5 -97 q15 -56 15 -123 l0 -359 q0 -54 9.5 -97 q9.5 -43 31.5 -73 q22 -30 59 -45.5 q37 -15.5 91 -15.5 q31 0 61.5 6 q30.5 6 57.5 15.5 q27 9.5 51 20 q24 10.5 42 19.5 l0 686 l-144 0 l0 70 l250 80 l84 0 l0 -881 q0 -19 13.5 -31 q13.5 -12 31.5 -14 l90 -6 l0 -80 l-325 0 Z"/><glyph glyph-name="uniA739" unicode="" d="M678 547 q-138 -35 -219 -69 q-81 -34 -122.5 -68.5 q-41.5 -34.5 -53 -70 q-11.5 -35.5 -11.5 -73.5 q0 -32 10.5 -62.5 q10.5 -30.5 30 -54.5 q19.5 -24 48 -38.5 q28.5 -14.5 65.5 -14.5 q41 0 85.5 15 q44.5 15 81.5 33 q43 21 85 49 l0 354 ZM1296 895 l-358 -895 l-233 0 l-27 121 q-54 -41 -111 -73 q-25 -14 -53 -27 q-28 -13 -57.5 -23.5 q-29.5 -10.5 -60 -16.5 q-30.5 -6 -60.5 -6 q-56 0 -104.5 19 q-48.5 19 -84.5 55 q-36 36 -56.5 87 q-20.5 51 -20.5 116 q0 38 7.5 72 q7.5 34 30.5 66 q23 32 64.5 61.5 q41.5 29.5 109 58.5 q67.5 29 165 57.5 q97.5 28.5 231.5 57.5 l0 88 q0 103 -46 152.5 q-46 49.5 -145 49.5 q-54 0 -92 -10 q-38 -10 -53 -16 l0 -178 l-149 0 q-14 0 -27.5 2 q-13.5 2 -24.5 8.5 q-11 6.5 -17.5 18 q-6.5 11.5 -6.5 30.5 q0 63 38 108.5 q38 45.5 99 75.5 q61 30 137 44 q76 14 152 14 q95 0 157.5 -23 q62.5 -23 99 -64 q36.5 -41 51.5 -97 q15 -56 15 -123 l0 -614 l301 765 q7 16 -2 29.5 q-9 13.5 -26 15.5 l-92 6 l0 80 l358 0 l0 -80 l-109 -12 Z"/><glyph glyph-name="uniA73B" unicode="" d="M866 91 l170 432 l-170 0 l0 -432 ZM678 547 q-138 -35 -219 -69 q-81 -34 -122.5 -68.5 q-41.5 -34.5 -53 -70 q-11.5 -35.5 -11.5 -73.5 q0 -32 10.5 -62.5 q10.5 -30.5 30 -54.5 q19.5 -24 48 -38.5 q28.5 -14.5 65.5 -14.5 q41 0 85.5 15 q44.5 15 81.5 33 q43 21 85 49 l0 354 ZM1147 523 l-209 -523 l-233 0 l-27 121 q-54 -41 -111 -73 q-25 -14 -53 -27 q-28 -13 -57.5 -23.5 q-29.5 -10.5 -60 -16.5 q-30.5 -6 -60.5 -6 q-56 0 -104.5 19 q-48.5 19 -84.5 55 q-36 36 -56.5 87 q-20.5 51 -20.5 116 q0 38 7.5 72 q7.5 34 30.5 66 q23 32 64.5 61.5 q41.5 29.5 109 58.5 q67.5 29 165 57.5 q97.5 28.5 231.5 57.5 l0 88 q0 103 -46 152.5 q-46 49.5 -145 49.5 q-54 0 -92 -10 q-38 -10 -53 -16 l0 -178 l-149 0 q-14 0 -27.5 2 q-13.5 2 -24.5 8.5 q-11 6.5 -17.5 18 q-6.5 11.5 -6.5 30.5 q0 63 38 108.5 q38 45.5 99 75.5 q61 30 137 44 q76 14 152 14 q95 0 157.5 -23 q62.5 -23 99 -64 q36.5 -41 51.5 -97 q15 -56 15 -123 l0 -80 l210 0 l91 231 q7 16 -2 29.5 q-9 13.5 -26 15.5 l-92 6 l0 80 l358 0 l0 -80 l-109 -12 l-108 -270 l197 0 l0 -102 l-238 0 Z"/><glyph glyph-name="uniA73D" unicode="" d="M678 547 q-138 -35 -219 -69 q-81 -34 -122.5 -68.5 q-41.5 -34.5 -53 -70 q-11.5 -35.5 -11.5 -73.5 q0 -32 10.5 -62.5 q10.5 -30.5 30 -54.5 q19.5 -24 48 -38.5 q28.5 -14.5 65.5 -14.5 q41 0 85.5 15 q44.5 15 81.5 33 q43 21 85 49 l0 354 ZM1420 895 l-393 -958 q-10 -25 -28 -67 q-18 -42 -42.5 -89.5 q-24.5 -47.5 -54 -93.5 q-29.5 -46 -61.5 -78 q-37 -37 -81.5 -57.5 q-44.5 -20.5 -96.5 -20.5 q-36 0 -64 9.5 q-28 9.5 -47 25.5 q-19 16 -29 37.5 q-10 21.5 -10 44.5 q0 35 15.5 64.5 q15.5 29.5 50.5 58.5 l192 -88 q25 25 50.5 65 q25.5 40 48.5 85 q23 45 42 89 q19 44 30 78 l-237 0 l-27 121 q-54 -41 -111 -73 q-25 -14 -53 -27 q-28 -13 -57.5 -23.5 q-29.5 -10.5 -60 -16.5 q-30.5 -6 -60.5 -6 q-56 0 -104.5 19 q-48.5 19 -84.5 55 q-36 36 -56.5 87 q-20.5 51 -20.5 116 q0 38 7.5 72 q7.5 34 30.5 66 q23 32 64.5 61.5 q41.5 29.5 109 58.5 q67.5 29 165 57.5 q97.5 28.5 231.5 57.5 l0 88 q0 103 -46 152.5 q-46 49.5 -145 49.5 q-54 0 -92 -10 q-38 -10 -53 -16 l0 -178 l-149 0 q-14 0 -27.5 2 q-13.5 2 -24.5 8.5 q-11 6.5 -17.5 18 q-6.5 11.5 -6.5 30.5 q0 63 38 108.5 q38 45.5 99 75.5 q61 30 137 44 q76 14 152 14 q95 0 157.5 -23 q62.5 -23 99 -64 q36.5 -41 51.5 -97 q15 -56 15 -123 l0 -574 q0 -19 12.5 -31 q12.5 -12 30.5 -14 l66 -4 l312 774 q7 16 -2 29.5 q-9 13.5 -26 15.5 l-97 6 l0 80 l365 0 l0 -80 l-107 -12 Z"/><glyph glyph-name="uni0250" unicode="" d="M770 721 q0 31 -10 61.5 q-10 30.5 -29.5 54.5 q-19.5 24 -48.5 39 q-29 15 -66 15 q-41 0 -84.5 -15 q-43.5 -15 -80.5 -33 q-43 -21 -84 -48 l0 -355 q92 23 157.5 46 q65.5 23 110.5 45.5 q45 22.5 71.5 46 q26.5 23.5 40.5 47 q14 23.5 18.5 47.5 q4.5 24 4.5 49 ZM973 735 q0 -38 -7.5 -72 q-7.5 -34 -30.5 -66 q-23 -32 -64 -61.5 q-41 -29.5 -108.5 -58.5 q-67.5 -29 -164.5 -57.5 q-97 -28.5 -231 -57.5 l0 -88 q0 -103 44.5 -152.5 q44.5 -49.5 143.5 -49.5 q54 0 92 10 q38 10 53 16 l0 178 l150 0 q14 0 27.5 -2 q13.5 -2 24.5 -8.5 q11 -6.5 17.5 -18 q6.5 -11.5 6.5 -30.5 q0 -63 -38 -108.5 q-38 -45.5 -99 -75.5 q-61 -30 -137 -44 q-76 -14 -152 -14 q-95 0 -157.5 23 q-62.5 23 -99.5 64 q-37 41 -52 97.5 q-15 56.5 -15 123.5 l0 573 q0 19 -12 31 q-12 12 -31 14 l-98 6 l0 80 l305 0 l27 -121 q53 40 110 73 q24 13 52 26.5 q28 13.5 57.5 23.5 q29.5 10 60 16.5 q30.5 6.5 60.5 6.5 q55 0 103.5 -19 q48.5 -19 84.5 -55 q36 -36 57 -87.5 q21 -51.5 21 -115.5 Z"/><glyph glyph-name="uni1D44" unicode="" d="M505 1218 q0 18 -6.5 36.5 q-6.5 18.5 -19 33 q-12.5 14.5 -31.5 23.5 q-19 9 -43 9 q-26 0 -54.5 -9 q-28.5 -9 -52.5 -20 q-28 -13 -54 -29 l0 -213 q59 14 101.5 27.5 q42.5 13.5 72 27 q29.5 13.5 46.5 28 q17 14.5 26.5 28.5 q9.5 14 12 28.5 q2.5 14.5 2.5 29.5 ZM637 1226 q0 -23 -4.5 -43.5 q-4.5 -20.5 -19.5 -39.5 q-15 -19 -42 -36.5 q-27 -17.5 -70.5 -35 q-43.5 -17.5 -106.5 -34.5 q-63 -17 -150 -35 l0 -53 q0 -61 28.5 -91 q28.5 -30 93.5 -30 q35 0 59.5 6 q24.5 6 34.5 10 l0 107 l97 0 q10 0 18.5 -1.5 q8.5 -1.5 15.5 -5.5 q7 -4 11.5 -10.5 q4.5 -6.5 4.5 -18.5 q0 -38 -25 -65 q-25 -27 -64.5 -45 q-39.5 -18 -89 -26.5 q-49.5 -8.5 -98.5 -8.5 q-62 0 -102.5 14 q-40.5 14 -64.5 38.5 q-24 24.5 -34 58.5 q-10 34 -10 74 l0 344 q0 11 -7.5 18 q-7.5 7 -20.5 9 l-63 3 l0 48 l198 0 l18 -72 q34 24 71 43 q16 8 34 16 q18 8 37 14 q19 6 39 10 q20 4 40 4 q35 0 66.5 -11.5 q31.5 -11.5 55 -33 q23.5 -21.5 37 -52.5 q13.5 -31 13.5 -69 Z"/><glyph glyph-name="uni0251" unicode="" d="M782 827 q-15 16 -37.5 32 q-22.5 16 -47 28.5 q-24.5 12.5 -50 20 q-25.5 7.5 -47.5 7.5 q-76 0 -137 -30.5 q-61 -30.5 -103.5 -85.5 q-42.5 -55 -65 -131.5 q-22.5 -76.5 -22.5 -169.5 q0 -84 20.5 -153.5 q20.5 -69.5 58.5 -120 q38 -50.5 93.5 -78 q55.5 -27.5 126.5 -27.5 q62 0 116.5 21.5 q54.5 21.5 94.5 45.5 l0 641 ZM782 0 l0 109 q-35 -27 -72.5 -51.5 q-37.5 -24.5 -77 -42.5 q-39.5 -18 -81 -29 q-41.5 -11 -86.5 -11 q-103 0 -177.5 43.5 q-74.5 43.5 -123 113.5 q-48.5 70 -71.5 157 q-23 87 -23 174 q0 104 32 203 q32 99 96.5 176 q64.5 77 161.5 123.5 q97 46.5 228 46.5 q49 0 103.5 -22 q54.5 -22 94.5 -56 l125 78 l62 0 l0 -883 q0 -14 15.5 -27.5 q15.5 -13.5 29.5 -15.5 l86 -8 l0 -78 l-322 0 Z"/><glyph glyph-name="uni1D45" unicode="" d="M513 1281 q-9 10 -24 19.5 q-15 9.5 -31 17 q-16 7.5 -32.5 12 q-16.5 4.5 -30.5 4.5 q-49 0 -89 -18.5 q-40 -18.5 -67.5 -51.5 q-27.5 -33 -42 -78.5 q-14.5 -45.5 -14.5 -101.5 q0 -51 13 -92.5 q13 -41.5 38 -72 q25 -30.5 61 -47 q36 -16.5 82 -16.5 q40 0 75.5 13 q35.5 13 61.5 28 l0 384 ZM513 785 l0 65 q-22 -16 -46.5 -30.5 q-24.5 -14.5 -50.5 -25.5 q-26 -11 -53 -17.5 q-27 -6.5 -56 -6.5 q-67 0 -115.5 26 q-48.5 26 -80 68 q-31.5 42 -46.5 94.5 q-15 52.5 -15 104.5 q0 62 21 121.5 q21 59.5 63 105.5 q42 46 105 74 q63 28 148 28 q32 0 67.5 -13 q35.5 -13 61.5 -34 l81 47 l40 0 l0 -530 q0 -8 10.5 -16 q10.5 -8 19.5 -9 l56 -5 l0 -47 l-210 0 Z"/><glyph glyph-name="uni1D90" unicode="" d="M782 0 l0 109 q-35 -27 -72.5 -51.5 q-37.5 -24.5 -77 -42.5 q-39.5 -18 -81 -29 q-41.5 -11 -86.5 -11 q-103 0 -177.5 43.5 q-74.5 43.5 -123 113.5 q-48.5 70 -71.5 157 q-23 87 -23 174 q0 104 32 203 q32 99 96.5 176 q64.5 77 161.5 123.5 q97 46.5 228 46.5 q49 0 103.5 -22 q54.5 -22 94.5 -56 l125 78 l62 0 l0 -883 q0 -14 15.5 -27.5 q15.5 -13.5 29.5 -15.5 l86 -8 l0 -318 q0 -66 30.5 -93 q30.5 -27 86.5 -27 l164 143 q4 -2 19 -8.5 q15 -6.5 30.5 -20 q15.5 -13.5 28 -36 q12.5 -22.5 12.5 -56.5 q0 -22 -16 -45 q-16 -23 -44 -41.5 q-28 -18.5 -67 -30.5 q-39 -12 -84 -12 q-133 0 -197.5 60 q-64.5 60 -64.5 178 l0 229 l-220 0 ZM782 827 q-15 16 -37.5 32 q-22.5 16 -47 28.5 q-24.5 12.5 -50 20 q-25.5 7.5 -47.5 7.5 q-76 0 -137 -30.5 q-61 -30.5 -103.5 -85.5 q-42.5 -55 -65 -131.5 q-22.5 -76.5 -22.5 -169.5 q0 -84 20.5 -153.5 q20.5 -69.5 58.5 -120 q38 -50.5 93.5 -78 q55.5 -27.5 126.5 -27.5 q62 0 116.5 21.5 q54.5 21.5 94.5 45.5 l0 641 Z"/><glyph glyph-name="uniAB64" unicode="" d="M782 801 q-40 24 -94.5 45.5 q-54.5 21.5 -116.5 21.5 q-71 0 -126.5 -27.5 q-55.5 -27.5 -93.5 -78 q-38 -50.5 -58.5 -120 q-20.5 -69.5 -20.5 -153.5 q0 -93 22.5 -169.5 q22.5 -76.5 65 -131.5 q42.5 -55 103.5 -85.5 q61 -30.5 137 -30.5 q22 0 47.5 7.5 q25.5 7.5 50 20 q24.5 12.5 47 28.5 q22.5 16 37.5 32 l0 641 ZM1104 987 l0 -78 l-86 -8 q-14 -2 -29.5 -15.5 q-15.5 -13.5 -15.5 -27.5 l0 -883 l-62 0 l-125 78 q-40 -34 -94.5 -56 q-54.5 -22 -103.5 -22 q-131 0 -228 46.5 q-97 46.5 -161.5 123.5 q-64.5 77 -96.5 176 q-32 99 -32 203 q0 87 23 174 q23 87 71.5 157 q48.5 70 123 113.5 q74.5 43.5 177.5 43.5 q45 0 86.5 -11 q41.5 -11 81 -29 q39.5 -18 77 -42.5 q37.5 -24.5 72.5 -51.5 l0 109 l322 0 Z"/><glyph glyph-name="uni0252" unicode="" d="M883 489 q0 84 -20.5 153.5 q-20.5 69.5 -58.5 120 q-38 50.5 -94 78 q-56 27.5 -126 27.5 q-62 0 -116.5 -21 q-54.5 -21 -94.5 -46 l0 -641 q15 -16 37 -32 q22 -16 47 -28.5 q25 -12.5 50.5 -20 q25.5 -7.5 47.5 -7.5 q76 0 137 30.5 q61 30.5 103.5 85.5 q42.5 55 65 131.5 q22.5 76.5 22.5 169.5 ZM1085 524 q0 -104 -32 -203 q-32 -99 -96.5 -176 q-64.5 -77 -162 -123.5 q-97.5 -46.5 -227.5 -46.5 q-49 0 -103.5 22 q-54.5 22 -94.5 56 l-125 -78 l-62 0 l0 883 q0 7 -4.5 14.5 q-4.5 7.5 -11 13.5 q-6.5 6 -14.5 10 q-8 4 -15 5 l-86 8 l0 78 l322 0 l0 -108 q35 27 72.5 51 q37.5 24 77 42 q39.5 18 81 29 q41.5 11 86.5 11 q103 0 177.5 -43.5 q74.5 -43.5 123 -113.5 q48.5 -70 71.5 -157 q23 -87 23 -174 Z"/><glyph glyph-name="uni1D9B" unicode="" d="M579 1078 q0 51 -13.5 92.5 q-13.5 41.5 -38 72 q-24.5 30.5 -61 47 q-36.5 16.5 -81.5 16.5 q-41 0 -76.5 -12.5 q-35.5 -12.5 -61.5 -27.5 l0 -385 q10 -10 24.5 -19.5 q14.5 -9.5 30.5 -17 q16 -7.5 32.5 -12 q16.5 -4.5 31.5 -4.5 q49 0 88.5 18.5 q39.5 18.5 67.5 51.5 q28 33 42.5 79 q14.5 46 14.5 101 ZM710 1099 q0 -62 -20.5 -121.5 q-20.5 -59.5 -62.5 -105.5 q-42 -46 -105.5 -74 q-63.5 -28 -147.5 -28 q-32 0 -67.5 13 q-35.5 13 -61.5 34 l-81 -47 l-41 0 l0 530 q0 4 -3 8.5 q-3 4.5 -7 8 q-4 3.5 -9 6 q-5 2.5 -10 3.5 l-56 4 l0 47 l209 0 l0 -65 q23 17 47.5 31 q24.5 14 50 25 q25.5 11 52.5 17.5 q27 6.5 56 6.5 q67 0 115.5 -26 q48.5 -26 80 -68 q31.5 -42 46.5 -94 q15 -52 15 -105 Z"/><glyph glyph-name="uniF1A1" unicode="" d="M788 1189 q0 28 -6.5 54 q-6.5 26 -20.5 46 q-14 20 -35.5 32.5 q-21.5 12.5 -51.5 12.5 q-37 0 -61 -16 q-24 -16 -38.5 -41.5 q-14.5 -25.5 -20.5 -58.5 q-6 -33 -6 -66 l240 0 l0 37 ZM424 1113 q-73 -18 -121 -36 q-48 -18 -75.5 -37 q-27.5 -19 -38.5 -41.5 q-11 -22.5 -11 -50.5 q0 -21 6 -40 q6 -19 18.5 -33 q12.5 -14 31.5 -22.5 q19 -8.5 45 -8.5 q24 0 49 8.5 q25 8.5 47 19.5 q25 13 49 29 l0 212 ZM920 846 q-15 -9 -36.5 -22.5 q-21.5 -13.5 -49 -25 q-27.5 -11.5 -62 -20 q-34.5 -8.5 -73.5 -8.5 q-30 0 -55.5 4 q-25.5 4 -48.5 10.5 q-23 6.5 -41.5 15 q-18.5 8.5 -34.5 17.5 q-36 20 -63 47 q-35 -27 -73 -47 q-17 -9 -36 -17.5 q-19 -8.5 -39.5 -15 q-20.5 -6.5 -42 -10.5 q-21.5 -4 -43.5 -4 q-42 0 -74 12.5 q-32 12.5 -53.5 34 q-21.5 21.5 -33 51 q-11.5 29.5 -11.5 63.5 q0 49 20.5 82 q20.5 33 65 57.5 q44.5 24.5 116 45 q71.5 20.5 172.5 44.5 l0 50 q0 31 -5.5 54 q-5.5 23 -18.5 38.5 q-13 15.5 -35.5 23.5 q-22.5 8 -55.5 8 q-33 0 -54 -6 q-21 -6 -30 -10 l0 -106 l-93 0 q-27 0 -39 7 q-12 7 -12 28 q0 25 11 46 q11 21 30 36.5 q19 15.5 44.5 27.5 q25.5 12 54 19.5 q28.5 7.5 60 11.5 q31.5 4 61.5 4 q46 0 77 -7.5 q31 -7.5 50.5 -18.5 q19.5 -11 30.5 -23.5 q11 -12.5 19 -22.5 q8 9 22.5 21 q14.5 12 36.5 23.5 q22 11.5 52 19.5 q30 8 69 8 q59 0 101 -20.5 q42 -20.5 68.5 -55 q26.5 -34.5 39 -79.5 q12.5 -45 12.5 -94 q0 -6 -0.5 -13.5 q-0.5 -7.5 -1.5 -13.5 q0 -8 -1 -17 l-369 0 l0 -163 q15 -13 33.5 -27.5 q18.5 -14.5 42 -27 q23.5 -12.5 53 -20.5 q29.5 -8 64.5 -8 q30 0 55 5.5 q25 5.5 46.5 14.5 q21.5 9 40 21 q18.5 12 37.5 26 l0 -74 Z"/><glyph glyph-name="uni1D02" unicode="" d="M273 313 q0 -46 10 -89.5 q10 -43.5 31.5 -77 q21.5 -33.5 54.5 -54 q33 -20.5 78 -20.5 q57 0 94 26.5 q37 26.5 59.5 69.5 q22.5 43 31.5 97 q9 54 9 110 l-368 0 l0 -62 ZM832 440 q113 31 186.5 60.5 q73.5 29.5 116 61.5 q42.5 32 59.5 69.5 q17 37.5 17 83.5 q0 34 -9.5 65.5 q-9.5 31.5 -28.5 55.5 q-19 24 -48.5 38.5 q-29.5 14.5 -69.5 14.5 q-36 0 -75.5 -15 q-39.5 -15 -72.5 -33 q-39 -21 -75 -47 l0 -354 ZM70 885 q22 16 55 38 q33 22 75.5 41.5 q42.5 19.5 95 33.5 q52.5 14 114.5 14 q89 0 158.5 -24.5 q69.5 -24.5 117.5 -53.5 q55 -34 97 -78 q52 44 112 78 q25 15 54.5 29 q29.5 14 61 25 q31.5 11 65 17.5 q33.5 6.5 67.5 6.5 q64 0 113.5 -20.5 q49.5 -20.5 83 -57 q33.5 -36.5 50.5 -85.5 q17 -49 17 -106 q0 -81 -31.5 -136 q-31.5 -55 -100 -96 q-68.5 -41 -178 -75 q-109.5 -34 -265.5 -74 l0 -84 q0 -51 8.5 -89.5 q8.5 -38.5 29 -64.5 q20.5 -26 55 -39 q34.5 -13 85.5 -13 q50 0 82 10 q32 10 47 16 l0 178 l143 0 q41 0 59.5 -12 q18.5 -12 18.5 -47 q0 -63 -36.5 -108.5 q-36.5 -45.5 -94.5 -75.5 q-58 -30 -129 -44 q-71 -14 -141 -14 q-72 0 -119.5 12.5 q-47.5 12.5 -77.5 31 q-30 18.5 -47 39.5 q-17 21 -29 38 q-12 -15 -34.5 -35.5 q-22.5 -20.5 -56.5 -39.5 q-34 -19 -80 -32.5 q-46 -13.5 -105 -13.5 q-92 0 -156.5 34 q-64.5 34 -105 91.5 q-40.5 57.5 -59.5 133 q-19 75.5 -19 157.5 q0 8 0.5 21 q0.5 13 1.5 24 q1 13 2 27 l567 0 l0 272 q-22 22 -50.5 46.5 q-28.5 24.5 -65 45 q-36.5 20.5 -81.5 34 q-45 13.5 -100 13.5 q-46 0 -84 -9 q-38 -9 -71 -24 q-33 -15 -62 -35.5 q-29 -20.5 -57 -43.5 l0 123 Z"/><glyph glyph-name="uni1D46" unicode="" d="M182 973 q0 -28 6.5 -54 q6.5 -26 20.5 -46 q14 -20 35.5 -32.5 q21.5 -12.5 51.5 -12.5 q37 0 61 16 q24 16 38.5 42 q14.5 26 20.5 58 q6 32 6 66 l-240 0 l0 -37 ZM546 1049 q73 19 121 36.5 q48 17.5 75.5 36.5 q27.5 19 38.5 41.5 q11 22.5 11 50.5 q0 20 -6 39 q-6 19 -18.5 33.5 q-12.5 14.5 -31.5 23 q-19 8.5 -45 8.5 q-24 0 -49.5 -9 q-25.5 -9 -46.5 -19 q-26 -13 -49 -29 l0 -212 ZM50 1316 q15 10 36.5 23 q21.5 13 49 24.5 q27.5 11.5 61.5 20 q34 8.5 74 8.5 q58 0 103.5 -14.5 q45.5 -14.5 76.5 -32.5 q36 -20 63 -46 q34 26 73 46 q16 9 35 17.5 q19 8.5 39.5 15 q20.5 6.5 42.5 10.5 q22 4 44 4 q42 0 74 -12 q32 -12 53.5 -34 q21.5 -22 33 -51.5 q11.5 -29.5 11.5 -63.5 q0 -49 -20.5 -82 q-20.5 -33 -65 -57.5 q-44.5 -24.5 -116 -45 q-71.5 -20.5 -172.5 -44.5 l0 -50 q0 -31 5.5 -54 q5.5 -23 18.5 -38.5 q13 -15.5 35.5 -23.5 q22.5 -8 55.5 -8 q33 0 54 6 q21 6 30 10 l0 107 l93 0 q27 0 39 -7.5 q12 -7.5 12 -28.5 q0 -38 -23.5 -65 q-23.5 -27 -61.5 -45 q-38 -18 -84 -26.5 q-46 -8.5 -92 -8.5 q-46 0 -77 7.5 q-31 7.5 -50.5 18.5 q-19.5 11 -30.5 23.5 q-11 12.5 -19 23.5 q-8 -9 -22.5 -21.5 q-14.5 -12.5 -36.5 -24 q-22 -11.5 -52 -19.5 q-30 -8 -69 -8 q-59 0 -101 20.5 q-42 20.5 -68.5 55 q-26.5 34.5 -39 79.5 q-12.5 45 -12.5 95 q0 4 0.5 12 q0.5 8 1.5 15 q0 7 1 16 l369 0 l0 163 q-15 13 -33.5 28 q-18.5 15 -42 27 q-23.5 12 -53 20 q-29.5 8 -64.5 8 q-30 0 -55 -5 q-25 -5 -46.5 -14 q-21.5 -9 -40 -21.5 q-18.5 -12.5 -37.5 -26.5 l0 74 Z"/><glyph glyph-name="alpha" unicode="" d="M885 420 q-6 61 -13 121 q-7 60 -19.5 115 q-12.5 55 -32 102 q-19.5 47 -49.5 81.5 q-30 34.5 -72.5 54 q-42.5 19.5 -100.5 19.5 q-76 0 -136.5 -29.5 q-60.5 -29.5 -102.5 -83 q-42 -53.5 -64.5 -129.5 q-22.5 -76 -22.5 -169 q0 -84 20 -154.5 q20 -70.5 58 -121.5 q38 -51 93 -80 q55 -29 126 -29 q60 0 108 24.5 q48 24.5 86.5 65.5 q38.5 41 68.5 96 q30 55 53 117 ZM1290 227 q-17 -71 -43 -126 q-11 -24 -25 -46.5 q-14 -22.5 -31 -40 q-17 -17.5 -37.5 -28.5 q-20.5 -11 -43.5 -11 q-47 0 -80 16 q-33 16 -56 45 q-23 29 -38 70.5 q-15 41.5 -25 92.5 q-41 -49 -89 -90 q-48 -41 -103.5 -71 q-55.5 -30 -119.5 -46.5 q-64 -16.5 -136 -16.5 q-103 0 -177.5 44.5 q-74.5 44.5 -122.5 115 q-48 70.5 -70.5 158 q-22.5 87.5 -22.5 174.5 q0 104 31.5 202.5 q31.5 98.5 96 174.5 q64.5 76 161 122 q96.5 46 227.5 46 q78 0 137.5 -24.5 q59.5 -24.5 104.5 -66.5 q45 -42 78 -97.5 q33 -55.5 57 -118.5 q15 74 27.5 138 q12.5 64 25.5 113 l188 0 q-3 -18 -7.5 -40 q-4.5 -22 -10 -46.5 q-5.5 -24.5 -12 -49.5 q-6.5 -25 -12.5 -48 q-15 -55 -32 -113 q-15 -66 -38 -129 q-23 -63 -52 -124 q12 -56 22 -105.5 q10 -49.5 21 -86.5 q11 -37 25 -58 q14 -21 33 -21 q17 0 33 14.5 q16 14.5 28 31.5 q14 20 27 46 l61 0 Z"/><glyph glyph-name="uni0410" unicode="" d="M643 1143 l-199 -537 l400 0 l-201 537 ZM883 0 l0 88 l118 10 q10 0 17 13.5 q7 13.5 4 21.5 l-141 375 l-473 0 l-136 -369 q-2 -6 0 -13 q2 -7 7 -13.5 q5 -6.5 11 -10.5 q6 -4 11 -4 l121 -10 l0 -88 l-412 0 l0 88 l119 25 l477 1294 l154 0 l475 -1264 q7 -21 13.5 -28 q6.5 -7 29.5 -11 l92 -16 l0 -88 l-487 0 Z"/><glyph glyph-name="uni1D2C" unicode="" d="M423 1471 l-129 -322 l260 0 l-131 322 ZM579 785 l0 53 l77 6 q6 0 10.5 8 q4.5 8 2.5 13 l-91 225 l-308 0 l-88 -222 q-2 -3 -0.5 -7.5 q1.5 -4.5 5 -8 q3.5 -3.5 7 -6 q3.5 -2.5 7.5 -2.5 l78 -6 l0 -53 l-268 0 l0 53 l78 15 l310 776 l100 0 l309 -758 q4 -13 8.5 -17 q4.5 -4 19.5 -7 l59 -9 l0 -53 l-316 0 Z"/><glyph glyph-name="uni1D00" unicode="" d="M522 793 l-143 -347 l291 0 l-148 347 ZM707 0 l0 80 l102 8 q3 0 6.5 5 q3.5 5 1.5 7 l-108 258 l-367 0 l-106 -254 q0 -3 4 -9.5 q4 -6.5 12 -6.5 l104 -8 l0 -80 l-348 0 l0 80 l96 16 l383 916 l136 0 l383 -897 q6 -14 8.5 -17.5 q2.5 -3.5 17.5 -5.5 l82 -12 l0 -80 l-407 0 Z"/><glyph glyph-name="Aogonek" unicode="" d="M1311 -334 q-33 -17 -65 -29 q-27 -11 -57.5 -19.5 q-30.5 -8.5 -53.5 -8.5 q-96 0 -150.5 37.5 q-54.5 37.5 -54.5 111.5 q0 43 14.5 81 q14.5 38 36 69.5 q21.5 31.5 46.5 55.5 q23 22 43 36 l-187 0 l0 88 l118 10 q10 0 17 13.5 q7 13.5 4 21.5 l-141 375 l-473 0 l-136 -369 q-2 -6 0 -13 q2 -7 7 -13.5 q5 -6.5 11 -10.5 q6 -4 11 -4 l121 -10 l0 -88 l-412 0 l0 88 l119 25 l477 1294 l154 0 l475 -1264 q7 -21 13.5 -28 q6.5 -7 29.5 -11 l92 -16 l0 -88 l-203 0 q-17 -12 -35 -30 q-19 -20 -35.5 -44 q-16.5 -24 -27 -53 q-10.5 -29 -10.5 -61 q0 -51 31.5 -76 q31.5 -25 87.5 -25 q11 0 26 5.5 q15 5.5 28 12.5 q15 8 30 19 l49 -82 ZM643 1143 l-199 -537 l400 0 l-201 537 Z"/><glyph glyph-name="uni023A" unicode="" d="M883 0 l0 88 l118 10 q10 0 17 13.5 q7 13.5 4 21.5 l-141 375 l-227 0 l-249 -419 l17 -1 l0 -88 l-70 0 l-96 -162 l-94 58 l62 104 l-214 0 l0 88 l119 25 l477 1294 l154 0 l116 -309 l258 434 l97 -57 l-305 -511 l309 -821 q7 -21 13.5 -28 q6.5 -7 29.5 -11 l92 -16 l0 -88 l-487 0 ZM643 1143 l-199 -537 l139 0 l160 269 l-100 268 ZM272 139 q-2 -6 0 -13 q2 -7 7 -14 q3 -4 7 -8 l239 404 l-117 0 l-136 -369 ZM844 606 l-51 135 l-80 -135 l131 0 Z"/><glyph glyph-name="uni2C6F" unicode="" d="M737 231 l199 537 l-400 0 l201 -537 ZM497 1374 l0 -88 l-118 -10 q-10 0 -17 -13.5 q-7 -13.5 -4 -21.5 l141 -375 l473 0 l136 369 q2 6 0 13 q-2 7 -7 13.5 q-5 6.5 -11 10.5 q-6 4 -11 4 l-121 10 l0 88 l412 0 l0 -88 l-119 -25 l-477 -1294 l-154 0 l-475 1264 q-4 10 -6.5 17 q-2.5 7 -7 11 q-4.5 4 -11 6.5 q-6.5 2.5 -18.5 4.5 l-92 16 l0 88 l487 0 Z"/><glyph glyph-name="uniA734" unicode="" d="M643 1143 l-199 -537 l400 0 l-201 537 ZM1913 684 q0 125 -22 235.5 q-22 110.5 -70 193 q-48 82.5 -124 130 q-76 47.5 -183 47.5 q-111 0 -188.5 -48 q-77.5 -48 -125.5 -130.5 q-48 -82.5 -69.5 -192 q-21.5 -109.5 -21.5 -231.5 q0 -123 21.5 -233.5 q21.5 -110.5 69.5 -193.5 q48 -83 124 -132 q76 -49 185 -49 q74 0 132.5 22 q58.5 22 103.5 62.5 q45 40.5 77 96 q32 55.5 52 123 q20 67.5 29.5 143.5 q9.5 76 9.5 157 ZM2150 686 q0 -149 -43 -280 q-43 -131 -124.5 -228.5 q-81.5 -97.5 -200 -154 q-118.5 -56.5 -268.5 -56.5 q-111 0 -204 25.5 q-93 25.5 -170.5 88 q-77.5 62.5 -141.5 166.5 q-64 104 -117 261 l-473 0 l-136 -369 q-2 -6 0 -13 q2 -7 7 -13.5 q5 -6.5 11 -10.5 q6 -4 11 -4 l121 -10 l0 -88 l-412 0 l0 88 l119 25 l477 1294 l154 0 l163 -434 q35 96 88.5 176 q53.5 80 127 137 q73.5 57 166.5 89 q93 32 207 32 q152 0 270.5 -57 q118.5 -57 200.5 -155 q82 -98 124.5 -229 q42.5 -131 42.5 -280 Z"/><glyph glyph-name="uniA732" unicode="" d="M643 1143 l-199 -537 l400 0 l-201 537 ZM1543 1143 l-199 -537 l400 0 l-201 537 ZM1783 0 l0 88 l118 10 q10 0 17 13.5 q7 13.5 4 21.5 l-141 375 l-473 0 l-104 -282 l31 -83 q7 -21 13.5 -28 q6.5 -7 29.5 -11 l92 -16 l0 -88 l-487 0 l0 88 l118 10 q10 0 17 13.5 q7 13.5 4 21.5 l-141 375 l-473 0 l-136 -369 q-2 -6 0 -13 q2 -7 7 -13.5 q5 -6.5 11 -10.5 q6 -4 11 -4 l121 -10 l0 -88 l-412 0 l0 88 l119 25 l477 1294 l154 0 l377 -1003 l369 1003 l154 0 l475 -1264 q7 -21 13.5 -28 q6.5 -7 29.5 -11 l92 -16 l0 -88 l-487 0 Z"/><glyph glyph-name="uniA736" unicode="" d="M643 1143 l-199 -537 l400 0 l-201 537 ZM1874 1278 q-22 -2 -32.5 -16 q-10.5 -14 -10.5 -29 l0 -778 q0 -126 -33 -218 q-33 -92 -94 -152 q-61 -60 -147 -89 q-86 -29 -192 -29 q-135 0 -224.5 57 q-89.5 57 -140.5 172 q-11 24 -15.5 34.5 q-4.5 10.5 -8 18.5 q-3.5 8 -8 19.5 q-4.5 11.5 -14 38 q-9.5 26.5 -27 74 q-17.5 47.5 -46.5 127.5 l-473 0 l-136 -369 q-2 -6 0 -13 q2 -7 7 -13.5 q5 -6.5 11 -10.5 q6 -4 11 -4 l121 -10 l0 -88 l-412 0 l0 88 l119 25 l477 1294 l154 0 l416 -1114 q22 -58 46 -94.5 q24 -36.5 53 -57.5 q29 -21 64.5 -29 q35.5 -8 80.5 -8 q84 0 139.5 31 q55.5 31 89 85.5 q33.5 54.5 47.5 128.5 q14 74 14 159 l0 725 q0 15 -11.5 29 q-11.5 14 -33.5 16 l-117 8 l0 88 l445 0 l0 -88 l-119 -8 Z"/><glyph glyph-name="uniA738" unicode="" d="M643 1143 l-199 -537 l400 0 l-201 537 ZM1722 1264 l-479 -1297 l-156 0 l-206 541 l-473 0 l-136 -369 q-2 -6 0 -13 q2 -7 7 -13.5 q5 -6.5 11 -10.5 q6 -4 11 -4 l121 -10 l0 -88 l-412 0 l0 88 l119 25 l477 1294 l154 0 l447 -1180 l367 1008 q4 12 -5.5 25.5 q-9.5 13.5 -22.5 15.5 l-113 10 l0 88 l407 0 l0 -88 l-118 -22 Z"/><glyph glyph-name="uniA73A" unicode="" d="M1207 227 l102 281 l-209 0 l107 -281 ZM643 1143 l-199 -537 l400 0 l-201 537 ZM1443 508 l-200 -541 l-156 0 l-206 541 l-473 0 l-136 -369 q-2 -6 0 -13 q2 -7 7 -13.5 q5 -6.5 11 -10.5 q6 -4 11 -4 l121 -10 l0 -88 l-412 0 l0 88 l119 25 l477 1294 l154 0 l303 -801 l282 0 l229 629 q4 12 -5.5 25.5 q-9.5 13.5 -22.5 15.5 l-113 10 l0 88 l407 0 l0 -88 l-118 -22 l-243 -658 l281 0 l0 -98 l-317 0 Z"/><glyph glyph-name="uniA73C" unicode="" d="M643 1143 l-199 -537 l400 0 l-201 537 ZM1574 1235 q4 12 -5.5 25.5 q-9.5 13.5 -22.5 15.5 l-113 10 l0 88 l407 0 l0 -88 l-118 -22 l-494 -1327 q-21 -57 -40.5 -103 q-19.5 -46 -41 -85.5 q-21.5 -39.5 -47 -73.5 q-25.5 -34 -57.5 -66 q-37 -37 -87 -57.5 q-50 -20.5 -127 -20.5 q-44 0 -80.5 9.5 q-36.5 9.5 -63 25.5 q-26.5 16 -41.5 37.5 q-15 21.5 -15 44.5 q0 21 8 40.5 q8 19.5 21.5 37.5 q13.5 18 31 34 q17.5 16 35.5 31 l230 -90 q26 26 65 87 q39 61 75 155 l-213 565 l-473 0 l-136 -369 q-2 -6 0 -13 q2 -7 7 -13.5 q5 -6.5 11 -10.5 q6 -4 11 -4 l121 -10 l0 -88 l-412 0 l0 88 l119 25 l477 1294 l154 0 l443 -1171 l371 999 Z"/><glyph glyph-name="uni20B3" unicode="" d="M361 507 l379 0 l-35 115 l-310 0 l-34 -115 ZM425 722 l250 0 l-126 421 l-124 -421 ZM943 407 l80 -264 q6 -21 11 -28 q5 -7 23 -11 l74 -16 l0 -88 l-390 0 l0 88 l95 10 q8 0 13.5 13.5 q5.5 13.5 3.5 21.5 l-83 274 l-438 0 l-79 -268 q-2 -6 0 -13 q2 -7 5.5 -13.5 q3.5 -6.5 8.5 -10.5 q5 -4 9 -4 l97 -10 l0 -88 l-330 0 l0 88 l95 25 l87 294 l-115 0 l0 100 l144 0 l34 115 l-178 0 l0 100 l208 0 l202 685 l123 0 l206 -685 l208 0 l0 -100 l-178 0 l34 -115 l144 0 l0 -100 l-114 0 Z"/><glyph glyph-name="uni2C6D" unicode="" d="M1004 1150 q-26 24 -58.5 47.5 q-32.5 23.5 -67 42.5 q-34.5 19 -70.5 30.5 q-36 11.5 -69 11.5 q-100 0 -178.5 -49 q-78.5 -49 -132.5 -133.5 q-54 -84.5 -82.5 -197.5 q-28.5 -113 -28.5 -240 q0 -75 14.5 -143.5 q14.5 -68.5 39.5 -127.5 q25 -59 59.5 -107 q34.5 -48 74.5 -82 q40 -34 83.5 -52.5 q43.5 -18.5 87.5 -18.5 q45 0 91 13 q46 13 89 34 q43 21 81 48.5 q38 27.5 67 57.5 l0 866 ZM1004 0 l0 180 q-44 -45 -92 -83.5 q-48 -38.5 -100.5 -67.5 q-52.5 -29 -111.5 -45.5 q-59 -16.5 -126 -16.5 q-101 0 -190.5 55.5 q-89.5 55.5 -157 150.5 q-67.5 95 -107 221 q-39.5 126 -39.5 268 q0 95 17.5 187 q17.5 92 52 175 q34.5 83 86 153 q51.5 70 121 121 q69.5 51 156 80 q86.5 29 190.5 29 q43 0 84 -10 q41 -10 78.5 -26.5 q37.5 -16.5 72 -38 q34.5 -21.5 66.5 -44.5 l136 119 l70 0 l0 -1231 q0 -28 17.5 -42.5 q17.5 -14.5 34.5 -16.5 l100 -11 l0 -106 l-358 0 Z"/><glyph glyph-name="uni2C70" unicode="" d="M423 224 q26 -24 61.5 -47.5 q35.5 -23.5 74 -42.5 q38.5 -19 77.5 -30.5 q39 -11.5 72 -11.5 q100 0 175 49 q75 49 125.5 133.5 q50.5 84.5 76 197.5 q25.5 113 25.5 240 q0 112 -31.5 209.5 q-31.5 97.5 -82 168.5 q-50.5 71 -115 112 q-64.5 41 -130.5 41 q-45 0 -91 -13 q-46 -13 -89 -34 q-43 -21 -81 -48.5 q-38 -27.5 -67 -57.5 l0 -866 ZM423 1374 l0 -180 q44 45 92 83.5 q48 38.5 100.5 67.5 q52.5 29 111.5 45.5 q59 16.5 126 16.5 q67 0 129.5 -25 q62.5 -25 117.5 -71 q55 -46 100.5 -110 q45.5 -64 78 -141 q32.5 -77 50.5 -165.5 q18 -88.5 18 -182.5 q0 -95 -16 -187 q-16 -92 -48 -175 q-32 -83 -81.5 -153 q-49.5 -70 -116.5 -121 q-67 -51 -152 -80 q-85 -29 -189 -29 q-44 0 -87.5 10 q-43.5 10 -84.5 26.5 q-41 16.5 -79 38 q-38 21.5 -70 44.5 l-136 -119 l-70 0 l0 1231 q0 28 -17.5 42.5 q-17.5 14.5 -34.5 16.5 l-100 11 l0 106 l358 0 Z"/><glyph glyph-name="uni1D2D" unicode="" d="M645 1553 l-270 -401 l270 0 l0 401 ZM545 785 l0 53 l66 5 q14 1 24 9.5 q10 8.5 10 17.5 l0 222 l-307 0 l-149 -222 q-7 -11 -3.5 -18 q3.5 -7 12.5 -8 l76 -6 l0 -53 l-263 0 l0 53 l71 9 l453 679 q6 9 -2 17 q-8 8 -17 9 l-65 6 l0 51 l706 0 l0 -183 l-78 0 l-18 101 q-2 9 -8 16.5 q-6 7.5 -15 7.5 l-258 0 l0 -306 l167 -2 q10 0 16.5 8 q6.5 8 8.5 15 l11 84 l66 0 l0 -274 l-66 0 l-11 86 q-2 7 -9.5 14 q-7.5 7 -15.5 7 l-167 0 l0 -338 l305 0 q4 0 7.5 2.5 q3.5 2.5 7 6 q3.5 3.5 6 7.5 q2.5 4 3.5 7 l20 122 l75 0 l0 -205 l-659 0 Z"/><glyph glyph-name="uni1D01" unicode="" d="M475 446 l306 0 l0 457 l-306 -457 ZM627 870 q7 10 4.5 20 q-2.5 10 -11.5 11 l-92 6 l0 80 l927 0 l0 -233 l-116 0 l-27 127 q-3 18 -16 18 l-331 0 l0 -340 l220 0 q12 0 18.5 15.5 q6.5 15.5 10 36.5 q3.5 21 5 42 q1.5 21 3.5 31 l100 0 l0 -342 l-100 0 q-2 11 -3.5 32 q-1.5 21 -5 42 q-3.5 21 -10 37 q-6.5 16 -18.5 16 l-220 0 l0 -379 l390 0 q5 0 10.5 7 q5.5 7 7.5 14 l29 151 l109 0 l0 -262 l-853 0 l0 80 l92 6 q17 2 24 11 q7 9 7 20 l0 241 l-365 0 l-170 -254 q0 -3 4 -9.5 q4 -6.5 12 -6.5 l104 -8 l0 -80 l-358 0 l0 80 l106 16 l513 774 Z"/><glyph glyph-name="u1D504" unicode="" d="M1331 244 l-226 -252 q-41 0 -80.5 9.5 q-39.5 9.5 -70.5 35 q-31 25.5 -50 70 q-19 44.5 -19 113.5 l0 113 l-404 -366 l-380 258 l0 50 q102 48 169.5 101.5 q67.5 53.5 108.5 112 q41 58.5 58 122.5 q17 64 17 133 q0 69 -22 127.5 q-22 58.5 -56 100.5 q-34 42 -74 66 q-40 24 -76 24 q-23 0 -43.5 -2 q-20.5 -2 -37.5 -4 q-19 -3 -37 -6 l-28 62 l244 212 q84 -1 153.5 -38 q69.5 -37 119.5 -97 q50 -60 78 -137.5 q28 -77.5 28 -158.5 q0 -81 -25 -152 q-25 -71 -65.5 -134 q-40.5 -63 -92 -118.5 q-51.5 -55.5 -105.5 -105.5 q4 -3 16 -11 q12 -8 28 -19.5 q16 -11.5 35 -25 q19 -13.5 39 -26.5 q46 -32 101 -71 l251 224 l0 458 q0 55 -10 91.5 q-10 36.5 -24.5 59 q-14.5 22.5 -31 33 q-16.5 10.5 -30.5 14.5 l0 63 q60 10 119.5 28 q59.5 18 114 39 q54.5 21 102.5 43 q48 22 85 41 l43 -59 q-30 -30 -54 -64 q-20 -29 -36.5 -66.5 q-16.5 -37.5 -16.5 -78.5 l0 -697 q0 -42 20.5 -58 q20.5 -16 46 -17.5 q25.5 -1.5 48 5 q22.5 6.5 27.5 9.5 l43 -54 Z"/><glyph glyph-name="uni1D47" unicode="" d="M709 1110 q0 -69 -22 -128.5 q-22 -59.5 -68 -103.5 q-46 -44 -118.5 -69 q-72.5 -25 -172.5 -25 l-193 0 l0 818 l-100 0 l0 40 l172 48 l53 0 l0 -344 q12 4 31 12 q19 8 43 15 q24 7 52 12.5 q28 5.5 58 5.5 q65 0 114.5 -23 q49.5 -23 83 -61.5 q33.5 -38.5 50.5 -89.5 q17 -51 17 -107 ZM573 1083 q0 118 -52.5 177 q-52.5 59 -149.5 59 q-12 0 -27 -2 q-15 -2 -30 -5 q-15 -3 -29.5 -7 q-14.5 -4 -24.5 -7 l0 -454 q12 -1 23 -1 q10 -1 21 -1 l22 0 q58 0 104 12.5 q46 12.5 77.5 41 q31.5 28.5 48.5 74.5 q17 46 17 113 Z"/><glyph glyph-name="uni1D80" unicode="" d="M1067 541 q0 -116 -34 -215 q-25 -73 -71 -132 l0 -423 q0 -118 -64.5 -178 q-64.5 -60 -197.5 -60 q-45 0 -84 12 q-39 12 -67 30.5 q-28 18.5 -44 41.5 q-16 23 -16 45 q0 34 12 56.5 q12 22.5 27.5 36 q15.5 13.5 30.5 20 q15 6.5 20 8.5 l164 -143 q54 0 84.5 27 q30.5 27 30.5 93 l0 337 q-51 -33 -114 -56 q-111 -41 -265 -41 l-295 0 l0 1362 l-155 0 l0 68 l264 79 l82 0 l0 -573 q18 8 47 21 q29 13 66.5 25 q37.5 12 80.5 21 q43 9 88 9 q101 0 177.5 -38 q76.5 -38 128.5 -103 q52 -65 78 -150.5 q26 -85.5 26 -179.5 ZM858 500 q0 193 -82.5 292 q-82.5 99 -230.5 99 q-17 0 -40 -3 q-23 -3 -46.5 -8 q-23.5 -5 -46 -11 q-22.5 -6 -37.5 -11 l0 -760 q17 -1 35 -1 q15 -1 32 -1 l33 0 q91 0 162 21 q71 21 120 69 q49 48 75 125 q26 77 26 189 Z"/><glyph glyph-name="uni0180" unicode="" d="M1067 539 q0 -116 -34 -214.5 q-34 -98.5 -105.5 -170.5 q-71.5 -72 -183 -113 q-111.5 -41 -265.5 -41 l-295 0 l0 1104 l-170 0 l0 104 l170 0 l0 154 l-155 0 l0 68 l266 79 l80 0 l0 -301 l248 0 l0 -104 l-248 0 l0 -170 q18 8 47.5 21 q29.5 13 67 25 q37.5 12 81 21 q43.5 9 88.5 9 q101 0 177.5 -38 q76.5 -38 127.5 -103 q51 -65 77 -150.5 q26 -85.5 26 -179.5 ZM858 498 q0 97 -21.5 170 q-21.5 73 -62 122 q-40.5 49 -99 74 q-58.5 25 -132.5 25 q-17 0 -39.5 -3 q-22.5 -3 -46 -7.5 q-23.5 -4.5 -45.5 -10 q-22 -5.5 -37 -10.5 l0 -760 q17 -1 35 -1 q15 -1 32 -1 l33 0 q91 0 162 21 q71 21 120 68 q49 47 75 124 q26 77 26 189 Z"/><glyph glyph-name="uni1D6C" unicode="" d="M681 1283 q-12 -45 -32 -86 q-20 -41 -49 -71.5 q-29 -30.5 -68 -49 q-39 -18.5 -89 -18.5 q-11 0 -21 1 l0 -123 q18 8 47 21 q29 13 66.5 25 q37.5 12 80.5 21 q43 9 88 9 q101 0 177.5 -38 q76.5 -38 128.5 -103 q52 -65 78 -150.5 q26 -85.5 26 -179.5 q0 -116 -34 -214.5 q-34 -98.5 -105.5 -171.5 q-71.5 -73 -183 -114 q-111.5 -41 -265.5 -41 l-295 0 l0 1145 q-7 1 -13 3 q-27 8 -60 8 q-21 0 -39 -8.5 q-18 -8.5 -32.5 -22 q-14.5 -13.5 -23.5 -31.5 q-9 -18 -11 -36 l-82 0 q12 45 31.5 86 q19.5 41 49 72 q29.5 31 68.5 49 q39 18 89 18 q12 0 23 -2 l0 81 l-155 0 l0 68 l264 79 l82 0 l0 -315 l8 -2 q27 -7 60 -7 q21 0 39.5 8.5 q18.5 8.5 33.5 22 q15 13.5 24.5 31.5 q9.5 18 11.5 36 l82 0 ZM905 500 q0 193 -82.5 292 q-82.5 99 -230.5 99 q-17 0 -40 -3 q-23 -3 -46.5 -8 q-23.5 -5 -46 -11 q-22.5 -6 -37.5 -11 l0 -760 q17 -1 35 -1 q15 -1 32 -1 l33 0 q91 0 162 21 q71 21 120 69 q49 48 75 125 q26 77 26 189 Z"/><glyph glyph-name="uni0253" unicode="" d="M834 498 q0 193 -83.5 291 q-83.5 98 -232.5 98 q-17 0 -39.5 -2.5 q-22.5 -2.5 -46 -6.5 q-23.5 -4 -45.5 -9.5 q-22 -5.5 -37 -10.5 l0 -760 l105 0 q91 0 161.5 22 q70.5 22 119 70 q48.5 48 73.5 124 q25 76 25 184 ZM1040 539 q0 -116 -33.5 -215 q-33.5 -99 -105 -171 q-71.5 -72 -183.5 -112.5 q-112 -40.5 -269 -40.5 l-289 0 l0 944 q0 61 2.5 109.5 q2.5 48.5 10.5 90.5 q8 42 23 81.5 q15 39.5 40 81.5 q31 54 73.5 92 q42.5 38 92 62.5 q49.5 24.5 104 36 q54.5 11.5 110.5 11.5 q52 0 90.5 -10.5 q38.5 -10.5 64 -28.5 q25.5 -18 38 -41.5 q12.5 -23.5 12.5 -48.5 q0 -36 -17 -59 q-17 -23 -37 -36 q-24 -16 -54 -23 l-135 145 q-48 0 -90 -21 q-42 -21 -72.5 -61.5 q-30.5 -40.5 -48 -100 q-17.5 -59.5 -17.5 -137.5 l0 -155 q18 8 47.5 21.5 q29.5 13.5 67 26 q37.5 12.5 81.5 21.5 q44 9 89 9 q100 0 176 -38 q76 -38 127 -103 q51 -65 76.5 -150.5 q25.5 -85.5 25.5 -179.5 Z"/><glyph glyph-name="uniF26D" unicode="" d="M911 498 q0 195 -83 292 q-83 97 -232 97 q-17 0 -39.5 -2.5 q-22.5 -2.5 -46 -6.5 q-23.5 -4 -45.5 -9.5 q-22 -5.5 -37 -10.5 l0 -760 l104 0 q91 0 162 22 q71 22 119 70 q48 48 73 124 q25 76 25 184 ZM1118 539 q0 -116 -33.5 -215 q-33.5 -99 -105.5 -171 q-72 -72 -184 -112.5 q-112 -40.5 -269 -40.5 l-288 0 l0 1087 q0 78 -2 137.5 q-2 59.5 -14 100 q-12 40.5 -37.5 61.5 q-25.5 21 -73.5 21 l-138 -145 q-30 7 -53 23 q-20 13 -36.5 36 q-16.5 23 -16.5 59 q0 25 12.5 48 q12.5 23 38 41 q25.5 18 64 29 q38.5 11 90.5 11 q114 0 183.5 -38 q69.5 -38 108 -101.5 q38.5 -63.5 51.5 -148 q13 -84.5 13 -177.5 l0 -112 q18 8 47.5 21.5 q29.5 13.5 67 26 q37.5 12.5 81.5 21.5 q44 9 89 9 q100 0 176 -38 q76 -38 127 -102.5 q51 -64.5 76.5 -150 q25.5 -85.5 25.5 -180.5 Z"/><glyph glyph-name="uniA797" unicode="" d="M1232 541 q0 -116 -34 -214.5 q-34 -98.5 -105.5 -171.5 q-71.5 -73 -183 -114 q-111.5 -41 -265.5 -41 l-295 0 l0 753 q-48 -48 -83.5 -109.5 q-35.5 -61.5 -58 -129 q-22.5 -67.5 -33.5 -138 q-11 -70.5 -11 -137.5 q0 -103 28.5 -198 q28.5 -95 85.5 -168.5 q57 -73.5 143 -117.5 q86 -44 202 -44 q45 0 89.5 8.5 q44.5 8.5 87.5 25.5 l0 -107 q-60 -21 -126.5 -33 q-66.5 -12 -137.5 -12 q-144 0 -250.5 46 q-106.5 46 -176.5 124 q-70 78 -104 180 q-34 102 -34 214 q0 96 20 192 q20 96 65 186 q45 90 117.5 170 q72.5 80 176.5 145 l0 512 l-155 0 l0 68 l264 79 l82 0 l0 -573 q18 8 47 21 q29 13 66.5 25 q37.5 12 80.5 21 q43 9 88 9 q101 0 177.5 -38 q76.5 -38 128.5 -103 q52 -65 78 -150.5 q26 -85.5 26 -179.5 ZM1023 500 q0 193 -82.5 292 q-82.5 99 -230.5 99 q-17 0 -40 -3 q-23 -3 -46.5 -8 q-23.5 -5 -46 -11 q-22.5 -6 -37.5 -11 l0 -760 q17 -1 35 -1 q15 -1 32 -1 l33 0 q91 0 162 21 q71 21 120 69 q49 48 75 125 q26 77 26 189 Z"/><glyph glyph-name="uni0185" unicode="" d="M1067 541 q0 -116 -34 -214.5 q-34 -98.5 -105.5 -171.5 q-71.5 -73 -183 -114 q-111.5 -41 -265.5 -41 l-295 0 l0 1062 l-155 138 l346 349 l0 -613 q18 8 47 21 q29 13 66.5 25 q37.5 12 80.5 21 q43 9 88 9 q101 0 177.5 -38 q76.5 -38 128.5 -103 q52 -65 78 -150.5 q26 -85.5 26 -179.5 ZM858 500 q0 193 -82.5 292 q-82.5 99 -230.5 99 q-17 0 -40 -3 q-23 -3 -46.5 -8 q-23.5 -5 -46 -11 q-22.5 -6 -37.5 -11 l0 -760 q17 -1 35 -1 q15 -1 32 -1 l33 0 q91 0 162 21 q71 21 120 69 q49 48 75 125 q26 77 26 189 Z"/><glyph glyph-name="uni0183" unicode="" d="M955 1509 l0 -319 l-113 0 l-26 184 q-2 16 -11.5 27.5 q-9.5 11.5 -23.5 11.5 l-363 0 q-22 0 -32.5 -15.5 q-10.5 -15.5 -10.5 -27.5 l0 -434 q18 8 47 21 q29 13 66.5 25 q37.5 12 80.5 21 q43 9 88 9 q101 0 177.5 -38 q76.5 -38 128.5 -103 q52 -65 78 -150.5 q26 -85.5 26 -179.5 q0 -116 -34 -214.5 q-34 -98.5 -105.5 -171.5 q-71.5 -73 -183 -114 q-111.5 -41 -265.5 -41 l-295 0 l0 1509 l771 0 ZM858 500 q0 193 -82.5 292 q-82.5 99 -230.5 99 q-17 0 -40 -3 q-23 -3 -46.5 -8 q-23.5 -5 -46 -11 q-22.5 -6 -37.5 -11 l0 -760 q17 -1 35 -1 q15 -1 32 -1 l33 0 q91 0 162 21 q71 21 120 69 q49 48 75 125 q26 77 26 189 Z"/><glyph glyph-name="uni0431" unicode="" d="M831 494 q0 87 -19 165.5 q-19 78.5 -55 137 q-36 58.5 -89 93 q-53 34.5 -121 34.5 q-72 0 -125.5 -34.5 q-53.5 -34.5 -89 -93 q-35.5 -58.5 -53 -137 q-17.5 -78.5 -17.5 -165.5 q0 -89 19 -167 q19 -78 55.5 -137 q36.5 -59 89.5 -93 q53 -34 121 -34 q71 0 124.5 34 q53.5 34 89 93 q35.5 59 53 137 q17.5 78 17.5 167 ZM1024 494 q0 -108 -34 -203 q-34 -95 -96.5 -165 q-62.5 -70 -150.5 -110.5 q-88 -40.5 -196 -40.5 q-111 0 -199 44 q-88 44 -150 117 q-62 73 -95 166 q-33 93 -33 192 l0 157 q0 147 21.5 258.5 q21.5 111.5 61.5 192.5 q40 81 97 135 q57 54 127 86 q70 32 151.5 45.5 q81.5 13.5 171.5 13.5 q85 0 134.5 10 q49.5 10 75.5 22 q30 14 40 32 l31 0 q-9 -44 -25.5 -87.5 q-16.5 -43.5 -53.5 -78.5 q-37 -35 -100.5 -56.5 q-63.5 -21.5 -166.5 -21.5 q-102 0 -175.5 -17 q-73.5 -17 -124.5 -46.5 q-51 -29.5 -83 -69.5 q-32 -40 -51.5 -86 q-19.5 -46 -29.5 -96.5 q-10 -50.5 -17 -100.5 q21 39 55.5 79.5 q34.5 40.5 84 73 q49.5 32.5 112.5 53 q63 20.5 141 20.5 q111 0 199.5 -41.5 q88.5 -41.5 150 -112 q61.5 -70.5 94.5 -164.5 q33 -94 33 -200 Z"/><glyph glyph-name="uni044C" unicode="" d="M711 297 q0 51 -11 93 q-11 42 -38 72 q-27 30 -71.5 47 q-44.5 17 -111.5 17 q-13 0 -30 -1 q-17 -1 -34 -3 q-19 -2 -40 -4 l0 -428 q13 -1 27 -2 q12 -1 26.5 -1.5 q14.5 -0.5 30.5 -0.5 q86 0 136 17.5 q50 17.5 76 47 q26 29.5 33 67.5 q7 38 7 79 ZM911 297 q0 -78 -22.5 -134 q-22.5 -56 -75 -92 q-52.5 -36 -137.5 -53.5 q-85 -17.5 -209 -17.5 l-416 0 l0 80 l101 6 q17 2 24.5 11.5 q7.5 9.5 7.5 19.5 l0 753 q0 10 -7.5 19.5 q-7.5 9.5 -24.5 11.5 l-89 6 l0 80 l457 0 l0 -80 l-110 -6 q-17 -2 -26 -11.5 q-9 -9.5 -9 -19.5 l0 -262 q22 2 43 4 q18 2 38.5 3 q20.5 1 37.5 1 q91 0 167.5 -20.5 q76.5 -20.5 132 -60.5 q55.5 -40 86.5 -100 q31 -60 31 -138 Z"/><glyph glyph-name="uni048D" unicode="" d="M711 297 q0 51 -11 93 q-11 42 -38 72 q-27 30 -71.5 47 q-44.5 17 -111.5 17 q-13 0 -30 -1 q-17 -1 -34 -3 q-19 -2 -40 -4 l0 -428 q13 -1 27 -2 q12 -1 26.5 -1.5 q14.5 -0.5 30.5 -0.5 q86 0 136 17.5 q50 17.5 76 47 q26 29.5 33 67.5 q7 38 7 79 ZM11 994 l173 0 l0 156 l191 0 l0 -156 l173 0 l0 -102 l-173 0 l0 -284 q22 2 43 4 q18 2 38.5 3 q20.5 1 37.5 1 q91 0 167.5 -20.5 q76.5 -20.5 132 -60.5 q55.5 -40 86.5 -100 q31 -60 31 -138 q0 -78 -22.5 -134 q-22.5 -56 -75 -92 q-52.5 -36 -137.5 -53.5 q-85 -17.5 -209 -17.5 l-416 0 l0 80 l101 6 q17 2 24.5 11.5 q7.5 9.5 7.5 19.5 l0 775 l-173 0 l0 102 Z"/><glyph glyph-name="uni044A" unicode="" d="M1077 297 q0 -78 -22.5 -134 q-22.5 -56 -75 -92 q-52.5 -36 -137.5 -53.5 q-85 -17.5 -209 -17.5 l-418 0 l0 80 l100 6 q19 2 27 11.5 q8 9.5 8 19.5 l0 760 q0 9 -8 19.5 q-8 10.5 -27 10.5 l-151 0 q-11 0 -19 -7.5 q-8 -7.5 -10 -18.5 l-22 -131 l-90 0 l0 237 l661 0 l0 -80 l-109 -6 q-18 -2 -26 -11.5 q-8 -9.5 -8 -19.5 l0 -262 q20 2 41 4 q18 2 38.5 3 q20.5 1 38.5 1 q91 0 168 -20.5 q77 -20.5 132.5 -60.5 q55.5 -40 86.5 -100 q31 -60 31 -138 ZM874 297 q0 51 -11 93 q-11 42 -37 72 q-26 30 -70 47 q-44 17 -111 17 q-14 0 -31 -1 q-17 -1 -34 -3 q-19 -2 -39 -4 l0 -428 l26 -2 q11 -1 25.5 -1.5 q14.5 -0.5 30.5 -0.5 q87 0 137 17.5 q50 17.5 75.5 47 q25.5 29.5 32 67.5 q6.5 38 6.5 79 Z"/><glyph glyph-name="uni0463" unicode="" d="M995 297 q0 -78 -22.5 -134 q-22.5 -56 -75 -92 q-52.5 -36 -137.5 -53.5 q-85 -17.5 -209 -17.5 l-416 0 l0 80 l101 6 q17 2 24.5 11.5 q7.5 9.5 7.5 19.5 l0 641 l-102 0 q-11 0 -19 -8.5 q-8 -8.5 -10 -20.5 l-20 -100 l-92 0 l0 196 l243 0 l0 70 q0 9 -7.5 19 q-7.5 10 -24.5 12 l-89 6 l0 80 l457 0 l0 -80 l-110 -6 q-17 -2 -26 -12 q-9 -10 -9 -19 l0 -70 l243 0 l0 -196 l-90 0 l-20 100 q-3 12 -10.5 20.5 q-7.5 8.5 -20.5 8.5 l-102 0 l0 -191 l42 4 q18 2 39 3 q21 1 38 1 q91 0 167.5 -19 q76.5 -19 132 -55 q55.5 -36 86.5 -87.5 q31 -51.5 31 -116.5 ZM795 297 q0 33 -11 66.5 q-11 33.5 -37.5 60.5 q-26.5 27 -71.5 44 q-45 17 -112 17 q-13 0 -30 -1 q-17 -1 -34 -3 q-19 -2 -40 -4 l0 -387 q13 -1 27 -2 q12 -1 26.5 -1.5 q14.5 -0.5 30.5 -0.5 q86 0 136 17.5 q50 17.5 76 47 q26 29.5 33 67.5 q7 38 7 79 Z"/><glyph glyph-name="uni044B" unicode="" d="M911 297 q0 -78 -22.5 -134 q-22.5 -56 -75 -92 q-52.5 -36 -137.5 -53.5 q-85 -17.5 -209 -17.5 l-418 0 l0 80 l101 6 q18 2 26 11.5 q8 9.5 8 19.5 l0 753 q0 10 -8.5 19.5 q-8.5 9.5 -25.5 11.5 l-87 6 l0 80 l455 0 l0 -80 l-108 -6 q-19 -2 -27 -11.5 q-8 -9.5 -8 -19.5 l0 -262 q20 2 41 4 q18 2 39 3 q21 1 39 1 q91 0 167.5 -20.5 q76.5 -20.5 132 -60.5 q55.5 -40 86.5 -100 q31 -60 31 -138 ZM901 0 l0 80 l98 6 q19 2 27 11.5 q8 9.5 8 19.5 l0 753 q0 10 -8 19.5 q-8 9.5 -27 11.5 l-98 6 l0 80 l455 0 l0 -80 l-99 -6 q-17 -2 -24.5 -11.5 q-7.5 -9.5 -7.5 -19.5 l0 -753 q0 -10 7.5 -19.5 q7.5 -9.5 24.5 -11.5 l99 -6 l0 -80 l-455 0 ZM709 297 q0 51 -11 93 q-11 42 -37.5 72 q-26.5 30 -70.5 47 q-44 17 -111 17 q-14 0 -31 -1 q-17 -1 -34 -3 q-19 -2 -39 -4 l0 -428 l26 -2 q11 -1 25.5 -1.5 q14.5 -0.5 30.5 -0.5 q87 0 137 17.5 q50 17.5 75.5 47 q25.5 29.5 32.5 67.5 q7 38 7 79 Z"/><glyph glyph-name="uni0432" unicode="" d="M694 735 q0 79 -58.5 122.5 q-58.5 43.5 -182.5 43.5 q-22 0 -43 -1 q-21 -1 -35 -3 l0 -346 l43 0 q79 0 132 12.5 q53 12.5 85 36 q32 23.5 45.5 57.5 q13.5 34 13.5 78 ZM760 283 q0 93 -62 137.5 q-62 44.5 -192 44.5 q-17 0 -36 -1 q-19 -1 -37 -2.5 q-18 -1.5 -33 -2.5 q-15 -1 -25 -2 l0 -365 q15 0 41 -2 q26 -2 45 -2 q85 0 142.5 12.5 q57.5 12.5 92 37 q34.5 24.5 49.5 61 q15 36.5 15 84.5 ZM958 297 q0 -61 -19.5 -106.5 q-19.5 -45.5 -53 -78.5 q-33.5 -33 -77 -55 q-43.5 -22 -90.5 -34.5 q-47 -12.5 -95.5 -17.5 q-48.5 -5 -90.5 -5 l-469 0 l0 80 l97 6 q14 2 19 8.5 q5 6.5 5 14.5 l0 770 q0 6 -5 13 q-5 7 -19 9 l-97 6 l0 80 l449 0 q196 0 287.5 -64 q91.5 -64 91.5 -178 q0 -47 -16.5 -82 q-16.5 -35 -43.5 -61 q-27 -26 -60 -43.5 q-33 -17.5 -66 -28.5 q48 -5 94 -20.5 q46 -15.5 81 -43.5 q35 -28 56.5 -69.5 q21.5 -41.5 21.5 -99.5 Z"/><glyph glyph-name="uni0412" unicode="" d="M1159 406 q0 -83 -23.5 -145.5 q-23.5 -62.5 -63.5 -107.5 q-40 -45 -92.5 -74.5 q-52.5 -29.5 -110 -47 q-57.5 -17.5 -117 -24.5 q-59.5 -7 -113.5 -7 l-573 0 l0 88 l108 8 q22 2 32.5 16 q10.5 14 10.5 29 l0 1092 q0 15 -10.5 29 q-10.5 14 -32.5 16 l-108 8 l0 88 l548 0 q122 0 209.5 -22.5 q87.5 -22.5 143.5 -65.5 q56 -43 82 -104 q26 -61 26 -138 q0 -77 -29 -131 q-29 -54 -73 -91 q-44 -37 -96 -59 q-52 -22 -97 -34 q69 0 136.5 -16.5 q67.5 -16.5 121.5 -54.5 q54 -38 87.5 -100 q33.5 -62 33.5 -152 ZM936 389 q0 140 -83 205 q-83 65 -247 65 q-25 0 -55.5 -2 q-30.5 -2 -57.5 -4 q-27 -2 -47 -4 q-20 -2 -24 -2 l0 -541 q25 -2 49 -3 q20 -2 41.5 -2.5 q21.5 -0.5 36.5 -0.5 q108 0 181.5 18 q73.5 18 119.5 54 q46 36 66 90 q20 54 20 127 ZM854 1030 q0 121 -78 185.5 q-78 64.5 -237 64.5 q-16 0 -34.5 -1 q-18.5 -1 -35 -2 q-16.5 -1 -29.5 -2 q-13 -1 -18 -1 l0 -518 q14 -1 28 -1 q12 -1 24 -1 l22 0 q100 0 168.5 18.5 q68.5 18.5 110.5 53.5 q42 35 60.5 86.5 q18.5 51.5 18.5 117.5 Z"/><glyph glyph-name="uni1D2E" unicode="" d="M758 1029 q0 -50 -15 -87.5 q-15 -37.5 -41 -64.5 q-26 -27 -60 -45 q-34 -18 -71.5 -28.5 q-37.5 -10.5 -76.5 -14.5 q-39 -4 -74 -4 l-372 0 l0 53 l70 5 q14 1 21 9.5 q7 8.5 7 17.5 l0 655 q0 9 -7 17.5 q-7 8.5 -21 9.5 l-70 5 l0 52 l356 0 q79 0 136 -13.5 q57 -13.5 93.5 -39 q36.5 -25.5 53.5 -62 q17 -36.5 17 -83.5 q0 -46 -19 -78.5 q-19 -32.5 -47.5 -54.5 q-28.5 -22 -62.5 -35 q-34 -13 -63 -21 q45 0 89 -9.5 q44 -9.5 79 -32.5 q35 -23 56.5 -60 q21.5 -37 21.5 -91 ZM613 1018 q0 84 -54 123 q-54 39 -160 39 q-16 0 -36 -1 q-20 -1 -37.5 -2 q-17.5 -1 -30.5 -2.5 q-13 -1.5 -16 -1.5 l0 -324 q17 -2 32 -2 q13 -1 27 -1.5 q14 -0.5 24 -0.5 q70 0 118 11 q48 11 77.5 32.5 q29.5 21.5 42.5 54 q13 32.5 13 75.5 ZM560 1403 q0 73 -50.5 111.5 q-50.5 38.5 -154.5 38.5 q-10 0 -22 -0.5 q-12 -0.5 -23 -1 q-11 -0.5 -19 -1.5 q-8 -1 -12 -1 l0 -310 q9 -1 18 -1 q8 -1 16 -1 l14 0 q65 0 109.5 11.5 q44.5 11.5 72 32.5 q27.5 21 39.5 51.5 q12 30.5 12 70.5 Z"/><glyph glyph-name="uni0299" unicode="" d="M762 285 q0 93 -64 135.5 q-64 42.5 -192 42.5 q-18 0 -38 -0.5 q-20 -0.5 -39 -1.5 q-19 -1 -35 -1.5 q-16 -0.5 -25 -0.5 l0 -367 q7 0 18.5 -0.5 q11.5 -0.5 24 -1.5 q12.5 -1 25.5 -1.5 q13 -0.5 22 -0.5 q84 0 142 12.5 q58 12.5 94 37.5 q36 25 51.5 62 q15.5 37 15.5 85 ZM694 733 q0 81 -59 124.5 q-59 43.5 -184 43.5 q-22 0 -45 -1 q-23 -1 -37 -1 l0 -348 l47 0 q78 0 131.5 12.5 q53.5 12.5 86 35.5 q32.5 23 46.5 57 q14 34 14 77 ZM958 295 q0 -61 -19.5 -106.5 q-19.5 -45.5 -52.5 -78.5 q-33 -33 -76 -54 q-43 -21 -90.5 -33.5 q-47.5 -12.5 -96 -17.5 q-48.5 -5 -91.5 -5 l-471 0 l0 80 l93 6 q17 2 23.5 11 q6.5 9 6.5 20 l0 753 q0 11 -6.5 20 q-6.5 9 -23.5 11 l-93 6 l0 80 l451 0 q195 0 287 -64 q92 -64 92 -178 q0 -47 -17 -82 q-17 -35 -44 -61.5 q-27 -26.5 -61 -44 q-34 -17.5 -67 -29.5 q48 -5 94 -20.5 q46 -15.5 82 -43 q36 -27.5 58 -69.5 q22 -42 22 -100 Z"/><glyph glyph-name="uni0243" unicode="" d="M1159 406 q0 -83 -23.5 -145.5 q-23.5 -62.5 -63.5 -107.5 q-40 -45 -92.5 -74.5 q-52.5 -29.5 -110 -47 q-57.5 -17.5 -117 -24.5 q-59.5 -7 -113.5 -7 l-573 0 l0 88 l108 8 q22 2 32.5 16 q10.5 14 10.5 29 l0 224 l-182 0 l0 104 l182 0 l0 764 q0 15 -10.5 28 q-10.5 13 -32.5 15 l-108 10 l0 88 l548 0 q122 0 209.5 -22.5 q87.5 -22.5 144 -65.5 q56.5 -43 83 -104 q26.5 -61 26.5 -138 q0 -77 -29.5 -131 q-29.5 -54 -73.5 -91 q-44 -37 -96.5 -59 q-52.5 -22 -97.5 -34 q69 0 136.5 -16.5 q67.5 -16.5 121.5 -54.5 q54 -38 87.5 -100 q33.5 -62 33.5 -152 ZM936 389 q0 140 -83 205 q-83 65 -247 65 q-25 0 -55.5 -2 q-30.5 -2 -57.5 -4 q-27 -2 -47 -4 q-20 -2 -24 -2 l0 -178 l305 0 l0 -104 l-305 0 l0 -259 q25 -2 48 -3 q20 -2 41 -2.5 q21 -0.5 36 -0.5 q108 -1 182 17 q74 18 120 54 q46 36 66.5 90.5 q20.5 54.5 20.5 127.5 ZM854 1032 q0 120 -78.5 184.5 q-78.5 64.5 -236.5 63.5 q-16 0 -34.5 -1 q-18.5 -1 -35 -2 q-16.5 -1 -29.5 -2 q-13 -1 -18 -1 l0 -518 q14 -1 28 -1 q12 -1 24 -1 l22 0 q100 -1 168.5 17.5 q68.5 18.5 110.5 54.5 q42 36 60.5 88 q18.5 52 18.5 118 Z"/><glyph glyph-name="uni1D2F" unicode="" d="M558 1397 q0 33 -10.5 62 q-10.5 29 -35.5 50 q-25 21 -65.5 33 q-40.5 12 -101.5 12 q-17 0 -35 -0.5 q-18 -0.5 -29 -0.5 l0 -312 l51 0 q68 1 111.5 12.5 q43.5 11.5 69 31.5 q25.5 20 35.5 48.5 q10 28.5 10 63.5 ZM611 1015 q0 74 -44.5 116 q-44.5 42 -150.5 44 l-135 0 l0 -328 q11 0 33.5 -2 q22.5 -2 37.5 -2 q78 0 128.5 13 q50.5 13 79.5 35.5 q29 22.5 40 54 q11 31.5 11 69.5 ZM633 1175 q54 -23 90 -59.5 q36 -36.5 36 -92.5 q0 -73 -33 -119.5 q-33 -46.5 -82.5 -72.5 q-49.5 -26 -108.5 -36 q-59 -10 -110 -10 l-374 0 l0 52 l74 5 q13 1 18 8.5 q5 7.5 5 17.5 l0 307 l-105 0 l0 66 l105 0 l0 285 q0 10 -5 17.5 q-5 7.5 -18 8.5 l-74 5 l0 52 l358 0 q154 0 225 -53.5 q71 -53.5 71 -148.5 q0 -53 -34 -96.5 q-34 -43.5 -93 -69.5 l192 0 l0 -66 l-137 0 Z"/><glyph glyph-name="uni1D03" unicode="" d="M694 733 q0 81 -59 124.5 q-59 43.5 -184 43.5 q-22 0 -45 -1 q-23 -1 -37 -1 l0 -341 l62 0 q74 1 124.5 13 q50.5 12 81 34 q30.5 22 44 54 q13.5 32 13.5 74 ZM762 275 q0 91 -61 134.5 q-61 43.5 -183 45.5 l-149 0 l0 -363 q7 0 18.5 -0.5 q11.5 -0.5 24 -1.5 q12.5 -1 25.5 -1.5 q13 -0.5 22 -0.5 q84 0 142 12.5 q58 12.5 94 36.5 q36 24 51.5 58.5 q15.5 34.5 15.5 79.5 ZM825 455 q59 -27 96 -68.5 q37 -41.5 37 -101.5 q0 -59 -19.5 -102.5 q-19.5 -43.5 -52.5 -75.5 q-33 -32 -76 -52.5 q-43 -20.5 -90.5 -32.5 q-47.5 -12 -96 -17 q-48.5 -5 -91.5 -5 l-471 0 l0 80 l93 6 q17 2 23.5 11 q6.5 9 6.5 20 l0 338 l-133 0 l0 103 l133 0 l0 312 q0 11 -6.5 20 q-6.5 9 -23.5 11 l-93 6 l0 80 l451 0 q195 0 287 -64 q92 -64 92 -178 q0 -58 -37 -106.5 q-37 -48.5 -101 -80.5 l215 0 l0 -103 l-143 0 Z"/><glyph glyph-name="uni0181" unicode="" d="M1307 406 q0 -83 -23.5 -145.5 q-23.5 -62.5 -63.5 -107.5 q-40 -45 -92.5 -74.5 q-52.5 -29.5 -110.5 -47 q-58 -17.5 -117.5 -24.5 q-59.5 -7 -113.5 -7 l-573 0 l0 88 l102 8 q22 2 37 16 q15 14 15 29 l0 1094 q0 20 -11.5 31.5 q-11.5 11.5 -31.5 11.5 l-78 0 q-54 0 -79.5 -12 q-25.5 -12 -41.5 -37 l86 -146 q-29 -32 -61.5 -46.5 q-32.5 -14.5 -69.5 -14.5 q-23 0 -43 11 q-20 11 -36 29.5 q-16 18.5 -25 42 q-9 23.5 -9 48.5 q0 114 86.5 167.5 q86.5 53.5 247.5 53.5 l461 0 q122 0 209.5 -22.5 q87.5 -22.5 144 -65.5 q56.5 -43 83 -104 q26.5 -61 26.5 -138 q0 -77 -29.5 -131 q-29.5 -54 -73.5 -91 q-44 -37 -96.5 -59 q-52.5 -22 -97.5 -34 q68 0 136 -16.5 q68 -16.5 122 -54.5 q54 -38 87.5 -100 q33.5 -62 33.5 -152 ZM1085 389 q0 140 -83.5 205 q-83.5 65 -247.5 65 q-26 0 -56 -2 q-30 -2 -57 -4 q-27 -2 -47 -4 q-20 -2 -25 -2 l0 -541 q25 -2 49 -3 q20 -2 41.5 -2.5 q21.5 -0.5 36.5 -0.5 q108 0 182 18 q74 18 120 54 q46 36 66.5 90 q20.5 54 20.5 127 ZM1001 1032 q0 60 -19.5 107.5 q-19.5 47.5 -59 80 q-39.5 32.5 -98.5 48.5 q-59 16 -138 12 q-29 -2 -53 -3 q-20 -2 -39.5 -2.5 q-19.5 -0.5 -24.5 -0.5 l0 -518 q15 -1 29 -1 q12 -1 24 -1 l21 0 q100 0 168.5 18.5 q68.5 18.5 110.5 54.5 q42 36 60.5 87.5 q18.5 51.5 18.5 117.5 Z"/><glyph glyph-name="uniA796" unicode="" d="M1004 1030 q0 121 -78 185.5 q-78 64.5 -237 64.5 q-16 0 -34.5 -1 q-18.5 -1 -35 -2 q-16.5 -1 -29.5 -2 q-13 -1 -18 -1 l0 -520 l74 0 q100 0 168.5 18.5 q68.5 18.5 110.5 53.5 q42 35 60.5 86.5 q18.5 51.5 18.5 117.5 ZM1086 389 q0 140 -83 205 q-83 65 -247 65 l-184 0 l0 -553 q25 -2 49 -3 q20 -2 41.5 -2.5 q21.5 -0.5 36.5 -0.5 q108 0 181.5 18 q73.5 18 119.5 54 q46 36 66 90 q20 54 20 127 ZM1309 406 q0 -83 -23.5 -145.5 q-23.5 -62.5 -63.5 -107.5 q-40 -45 -92.5 -74.5 q-52.5 -29.5 -110 -47 q-57.5 -17.5 -117 -24.5 q-59.5 -7 -113.5 -7 l-573 0 l0 88 l108 8 q22 2 32.5 16 q10.5 14 10.5 29 l0 518 l-47 0 q-41 0 -75.5 -9 q-34.5 -9 -60 -29.5 q-25.5 -20.5 -40 -52.5 q-14.5 -32 -14.5 -77 l158 -123 q-3 -23 -15.5 -41 q-12.5 -18 -32 -31.5 q-19.5 -13.5 -43.5 -20.5 q-24 -7 -48 -7 q-37 0 -64.5 14 q-27.5 14 -46.5 39 q-19 25 -28 59 q-9 34 -9 73 q1 59 20.5 113.5 q19.5 54.5 60.5 96 q41 41.5 104.5 66.5 q63.5 25 152.5 25 l28 0 l0 479 q0 15 -10.5 29 q-10.5 14 -32.5 16 l-108 8 l0 88 l548 0 q122 0 209.5 -22.5 q87.5 -22.5 143.5 -65.5 q56 -43 82 -104 q26 -61 26 -138 q0 -77 -29 -131 q-29 -54 -73 -91 q-44 -37 -96 -59 q-52 -22 -97 -34 q69 0 136.5 -16.5 q67.5 -16.5 121.5 -54.5 q54 -38 87.5 -100 q33.5 -62 33.5 -152 Z"/><glyph glyph-name="uni0184" unicode="" d="M936 389 q0 90 -28 143.5 q-28 53.5 -78.5 82 q-50.5 28.5 -120.5 37 q-70 8.5 -154 8.5 q-17 0 -39.5 -1.5 q-22.5 -1.5 -42.5 -3.5 q-24 -3 -49 -5 l0 -552 q15 -1 33 -2 q15 -1 33 -1.5 q18 -0.5 38 -0.5 q108 0 185.5 18 q77.5 18 127 54.5 q49.5 36.5 72.5 92 q23 55.5 23 130.5 ZM1159 395 q0 -108 -38.5 -183 q-38.5 -75 -116 -122 q-77.5 -47 -193.5 -68.5 q-116 -21.5 -272 -21.5 l-490 0 l0 88 l125 8 q22 2 32.5 16.5 q10.5 14.5 10.5 26.5 l0 729 l-151 189 l358 350 l0 -659 q27 2 53 5 q23 2 48.5 3.5 q25.5 1.5 47.5 1.5 q114 0 220 -16 q106 -16 187 -56.5 q81 -40.5 130 -111 q49 -70.5 49 -179.5 Z"/><glyph glyph-name="uni0182" unicode="" d="M936 389 q0 90 -28 143.5 q-28 53.5 -78.5 82 q-50.5 28.5 -120.5 37 q-70 8.5 -154 8.5 q-17 0 -39.5 -1.5 q-22.5 -1.5 -42.5 -3.5 q-24 -3 -49 -5 l0 -552 q15 -1 33 -2 q15 -1 33 -1.5 q18 -0.5 38 -0.5 q108 0 185.5 18 q77.5 18 127 54.5 q49.5 36.5 72.5 92 q23 55.5 23 130.5 ZM1159 395 q0 -108 -38.5 -183 q-38.5 -75 -116 -122 q-77.5 -47 -193.5 -68.5 q-116 -21.5 -272 -21.5 l-490 0 l0 88 l125 8 q22 2 32.5 16.5 q10.5 14.5 10.5 26.5 l0 1096 q0 12 -10.5 26 q-10.5 14 -32.5 17 l-108 8 l0 88 l919 0 l0 -319 l-113 0 l-26 184 q-2 16 -11.5 27.5 q-9.5 11.5 -23.5 11.5 l-344 0 q-22 0 -32.5 -15.5 q-10.5 -15.5 -10.5 -27.5 l0 -487 q27 2 53 5 q23 2 48.5 3.5 q25.5 1.5 47.5 1.5 q114 0 220 -16 q106 -16 187 -56.5 q81 -40.5 130 -111 q49 -70.5 49 -179.5 Z"/><glyph glyph-name="uni0411" unicode="" d="M897 414 q0 179 -87.5 262.5 q-87.5 83.5 -254.5 83.5 q-17 0 -39.5 -1.5 q-22.5 -1.5 -42.5 -3.5 q-24 -3 -49 -5 l0 -652 q15 -1 33 -2 q15 -1 33 -1.5 q18 -0.5 38 -0.5 q108 0 179.5 21.5 q71.5 21.5 113.5 63 q42 41.5 59 101 q17 59.5 17 134.5 ZM1108 414 q0 -108 -30.5 -186 q-30.5 -78 -98.5 -128.5 q-68 -50.5 -176 -75 q-108 -24.5 -264 -24.5 l-490 0 l0 88 l125 8 q22 2 32.5 16.5 q10.5 14.5 10.5 26.5 l0 1096 q0 12 -10.5 26 q-10.5 14 -32.5 17 l-108 8 l0 88 l919 0 l0 -319 l-113 0 l-26 184 q-2 16 -11.5 27.5 q-9.5 11.5 -23.5 11.5 l-344 0 q-22 0 -32.5 -15.5 q-10.5 -15.5 -10.5 -27.5 l0 -387 q27 2 53 5 q23 2 48.5 3.5 q25.5 1.5 47.5 1.5 q114 0 212 -28.5 q98 -28.5 169.5 -84.5 q71.5 -56 112.5 -139 q41 -83 41 -192 Z"/><glyph glyph-name="uni042C" unicode="" d="M881 414 q0 179 -78.5 262.5 q-78.5 83.5 -245.5 83.5 q-17 0 -39.5 -1.5 q-22.5 -1.5 -42.5 -3.5 q-24 -3 -49 -5 l0 -648 q15 -1 33 -2 q15 -1 33 -1.5 q18 -0.5 38 -0.5 q108 0 176.5 21 q68.5 21 107.5 61.5 q39 40.5 53 99.5 q14 59 14 134 ZM1110 414 q0 -108 -30.5 -186 q-30.5 -78 -98.5 -128.5 q-68 -50.5 -176 -75 q-108 -24.5 -264 -24.5 l-490 0 l0 88 l125 8 q22 2 32.5 16.5 q10.5 14.5 10.5 26.5 l0 1096 q0 12 -10.5 26 q-10.5 14 -32.5 17 l-108 8 l0 88 l538 0 l0 -88 l-137 -8 q-22 -2 -32.5 -16.5 q-10.5 -14.5 -10.5 -26.5 l0 -387 q27 2 53 5 q23 2 48.5 3.5 q25.5 1.5 47.5 1.5 q114 0 212 -28.5 q98 -28.5 169.5 -84.5 q71.5 -56 112.5 -139 q41 -83 41 -192 Z"/><glyph glyph-name="uni048C" unicode="" d="M881 414 q0 179 -78.5 262.5 q-78.5 83.5 -245.5 83.5 q-17 0 -39.5 -1.5 q-22.5 -1.5 -42.5 -3.5 q-24 -3 -49 -5 l0 -648 q15 -1 33 -2 q15 -1 33 -1.5 q18 -0.5 38 -0.5 q108 0 176.5 21 q68.5 21 107.5 61.5 q39 40.5 53 99.5 q14 59 14 134 ZM19 1374 l200 0 l0 131 l207 0 l0 -131 l200 0 l0 -103 l-200 0 l0 -423 q27 2 53 5 q23 2 48.5 3.5 q25.5 1.5 47.5 1.5 q114 0 212 -28.5 q98 -28.5 169.5 -84.5 q71.5 -56 112.5 -139 q41 -83 41 -192 q0 -108 -30.5 -186 q-30.5 -78 -98.5 -128.5 q-68 -50.5 -176 -75 q-108 -24.5 -264 -24.5 l-490 0 l0 88 l125 8 q22 2 32.5 16.5 q10.5 14.5 10.5 26.5 l0 1132 l-200 0 l0 103 Z"/><glyph glyph-name="uni042A" unicode="" d="M1061 414 q0 90 -16 155 q-16 65 -52 107.5 q-36 42.5 -93.5 63 q-57.5 20.5 -141.5 20.5 q-17 0 -39.5 -1.5 q-22.5 -1.5 -42.5 -3.5 q-24 -3 -49 -5 l0 -648 q15 -1 33 -2 q15 -1 33 -1.5 q18 -0.5 38 -0.5 q108 0 173.5 21 q65.5 21 100 61.5 q34.5 40.5 45.5 99.5 q11 59 11 134 ZM1290 414 q0 -108 -27.5 -186 q-27.5 -78 -91 -128.5 q-63.5 -50.5 -169 -75 q-105.5 -24.5 -261.5 -24.5 l-489 0 l0 88 l125 8 q22 2 32.5 16.5 q10.5 14.5 10.5 26.5 l0 1088 q0 14 -10.5 28.5 q-10.5 14.5 -32.5 14.5 l-191 0 q-14 0 -23.5 -11 q-9.5 -11 -12.5 -26 l-27 -184 l-113 0 l0 325 l799 0 l0 -88 l-139 -8 q-22 -2 -32.5 -16.5 q-10.5 -14.5 -10.5 -26.5 l0 -387 q27 2 53 5 q23 2 48.5 3.5 q25.5 1.5 47.5 1.5 q114 0 209 -28.5 q95 -28.5 162.5 -84.5 q67.5 -56 105 -139 q37.5 -83 37.5 -192 Z"/><glyph glyph-name="uni0462" unicode="" d="M1079 414 q0 90 -19 152 q-19 62 -58 100.5 q-39 38.5 -99.5 55.5 q-60.5 17 -144.5 17 q-17 0 -39.5 -1.5 q-22.5 -1.5 -42.5 -3.5 q-24 -3 -49 -5 l0 -627 q16 -1 33 -2 q14 -1 32 -1.5 q18 -0.5 37 -0.5 q108 0 176.5 21 q68.5 21 107 61.5 q38.5 40.5 52.5 99.5 q14 59 14 134 ZM1311 414 q0 -108 -31 -186 q-31 -78 -99 -128.5 q-68 -50.5 -176.5 -75 q-108.5 -24.5 -263.5 -24.5 l-489 0 l0 88 l125 8 q22 2 32.5 16.5 q10.5 14.5 10.5 26.5 l0 940 l-211 0 q-14 0 -24 -10.5 q-10 -10.5 -13 -26.5 l-27 -143 l-112 0 l0 275 l387 0 l0 94 q0 12 -10.5 26 q-10.5 14 -32.5 17 l-109 8 l0 88 l539 0 l0 -88 l-137 -8 q-22 -2 -32.5 -16.5 q-10.5 -14.5 -10.5 -26.5 l0 -94 l385 0 l0 -275 l-113 0 l-27 143 q-3 16 -12.5 26.5 q-9.5 10.5 -23.5 10.5 l-209 0 l0 -252 q26 2 52 5 q23 2 48 4 q25 2 47 2 q114 0 212.5 -25.5 q98.5 -25.5 170.5 -77.5 q72 -52 113 -132 q41 -80 41 -189 Z"/><glyph glyph-name="uni042B" unicode="" d="M860 414 q0 90 -16 155 q-16 65 -52 107.5 q-36 42.5 -93.5 63 q-57.5 20.5 -141.5 20.5 q-17 0 -39.5 -1.5 q-22.5 -1.5 -42.5 -3.5 q-24 -3 -49 -5 l0 -648 q15 -1 33 -2 q15 -1 33 -1.5 q18 -0.5 38 -0.5 q108 0 173.5 21 q65.5 21 100 61.5 q34.5 40.5 45.5 99.5 q11 59 11 134 ZM1090 414 q0 -108 -27.5 -186 q-27.5 -78 -91.5 -128.5 q-64 -50.5 -169 -75 q-105 -24.5 -261 -24.5 l-490 0 l0 88 l125 8 q22 2 32.5 16.5 q10.5 14.5 10.5 26.5 l0 1096 q0 12 -10.5 26 q-10.5 14 -32.5 17 l-108 8 l0 88 l538 0 l0 -88 l-137 -8 q-22 -2 -32.5 -16.5 q-10.5 -14.5 -10.5 -26.5 l0 -387 q27 2 53 5 q23 2 48.5 3.5 q25.5 1.5 47.5 1.5 q114 0 208.5 -28.5 q94.5 -28.5 163 -84.5 q68.5 -56 106 -139 q37.5 -83 37.5 -192 ZM1120 0 l0 88 l121 8 q22 2 32.5 16 q10.5 14 10.5 29 l0 1092 q0 15 -10.5 28 q-10.5 13 -32.5 15 l-121 8 l0 90 l541 0 l0 -90 l-125 -8 q-22 -2 -32.5 -15 q-10.5 -13 -10.5 -28 l0 -1092 q0 -15 10.5 -29 q10.5 -14 32.5 -16 l125 -8 l0 -88 l-541 0 Z"/><glyph glyph-name="u1D505" unicode="" d="M1086 403 q0 75 -32.5 125.5 q-32.5 50.5 -83 81 q-50.5 30.5 -112 43.5 q-61.5 13 -118.5 13 q-16 0 -35.5 -2 q-19.5 -2 -39.5 -5 q-20 -3 -40 -6.5 q-20 -3.5 -37 -7.5 q-41 -65 -91 -112.5 q-50 -47.5 -92 -76.5 l482 -253 q50 -1 87.5 19.5 q37.5 20.5 62 51 q24.5 30.5 37 65.5 q12.5 35 12.5 64 ZM1004 965 q0 39 -14 63 q-14 24 -37.5 37.5 q-23.5 13.5 -55 18.5 q-31.5 5 -65.5 5 q-13 0 -33 -4 q-20 -4 -40 -10.5 q-20 -6.5 -38 -14.5 q-18 -8 -27 -17 l-45 -43 q6 -29 7.5 -59.5 q1.5 -30.5 1.5 -61.5 q0 -43 -7.5 -81 q-7.5 -38 -20.5 -73 l84 13 q13 2 40 9.5 q27 7.5 59 19.5 q32 12 66 30.5 q34 18.5 62 42.5 q28 24 45.5 55.5 q17.5 31.5 17.5 69.5 ZM1354 491 q0 -52 -15.5 -96 q-15.5 -44 -41.5 -80 q-26 -36 -59.5 -64 q-33.5 -28 -68.5 -49 q-35 -21 -69.5 -34.5 q-34.5 -13.5 -62.5 -19.5 q-37 -8 -82 -25 q-45 -17 -105 -49 l-192 -103 l-559 306 l0 99 q88 33 148.5 71 q60.5 38 98 84 q37.5 46 54.5 102 q17 56 17 125 q0 69 -19 125 q-19 56 -48.5 96.5 q-29.5 40.5 -66.5 62.5 q-37 22 -73 22 q-23 0 -41.5 -3 q-18.5 -3 -32.5 -7 q-16 -4 -28 -9 l-28 62 l244 210 q61 -9 109 -30 q48 -21 85 -51 q37 -30 62.5 -67.5 q25.5 -37.5 42.5 -80.5 l279 239 q62 6 126 -8 q64 -14 115.5 -46 q51.5 -32 84.5 -81 q33 -49 33 -112 q0 -48 -9 -86 q-9 -38 -28 -67.5 q-19 -29.5 -47 -53 q-28 -23.5 -65 -43.5 q59 -20 104.5 -55 q45.5 -35 76 -80 q30.5 -45 46 -97.5 q15.5 -52.5 15.5 -106.5 Z"/><glyph glyph-name="beta" unicode="" d="M1122 453 q1 -92 -16.5 -163.5 q-17.5 -71.5 -49 -124.5 q-31.5 -53 -75 -89.5 q-43.5 -36.5 -94 -58.5 q-50.5 -22 -106 -32 q-55.5 -10 -111.5 -10 q-48 0 -103 10.5 q-55 10.5 -97 30.5 l0 116 q50 -26 93.5 -38 q43.5 -12 86.5 -12 q50 0 99.5 12.5 q49.5 12.5 89 48 q39.5 35.5 64 98 q24.5 62.5 24.5 162.5 q0 88 -25 158.5 q-25 70.5 -78.5 119 q-53.5 48.5 -136 73.5 q-82.5 25 -197.5 22 q0 21 0.5 44 q0.5 23 2.5 49 q77 -1 133 19.5 q56 20.5 92.5 59.5 q36.5 39 54 95 q17.5 56 17.5 126 q0 46 -12.5 89.5 q-12.5 43.5 -38 77 q-25.5 33.5 -64 53.5 q-38.5 20 -91.5 20 q-64 0 -104 -24 q-40 -24 -63 -63 q-23 -39 -32.5 -88.5 q-9.5 -49.5 -11.5 -101 q-2 -51.5 0 -100 q2 -48.5 2 -84.5 l0 -1255 q0 -23 10 -36 q10 -13 21 -13 l116 -11 l0 -79 l-477 0 l0 79 l100 11 q19 1 29 18 q10 17 10 31 l0 1235 q0 70 7.5 140.5 q7.5 70.5 25.5 135.5 q18 65 50 120.5 q32 55.5 80 96.5 q48 41 115.5 64.5 q67.5 23.5 157.5 23.5 q88 0 155.5 -24 q67.5 -24 112.5 -68.5 q45 -44.5 68 -107 q23 -62.5 23 -140.5 q0 -70 -19.5 -126.5 q-19.5 -56.5 -52.5 -98.5 q-33 -42 -77 -69.5 q-44 -27.5 -93 -39.5 q75 -12 144 -35.5 q69 -23.5 122.5 -67 q53.5 -43.5 85.5 -111.5 q32 -68 33 -168 Z"/><glyph glyph-name="uni1D66" unicode="" d="M734 -188 q1 -55 -10.5 -98 q-11.5 -43 -32 -75 q-20.5 -32 -48.5 -54 q-28 -22 -61 -35 q-33 -13 -69 -19 q-36 -6 -73 -6 q-31 0 -66.5 6.5 q-35.5 6.5 -63.5 18.5 l0 69 q33 -15 61.5 -22.5 q28.5 -7.5 55.5 -7.5 q33 0 65 7.5 q32 7.5 58 29 q26 21.5 42 59 q16 37.5 16 97.5 q0 53 -16.5 95 q-16.5 42 -51.5 71 q-35 29 -88.5 44 q-53.5 15 -128.5 14 q0 12 0.5 26 q0.5 14 1.5 29 q50 0 86.5 12 q36.5 12 60.5 35.5 q24 23.5 35 57 q11 33.5 11 75.5 q0 28 -8 54 q-8 26 -24.5 46 q-16.5 20 -41.5 32 q-25 12 -59 12 q-42 0 -68 -14 q-26 -14 -41 -37.5 q-15 -23.5 -21 -53.5 q-6 -30 -7.5 -60.5 q-1.5 -30.5 0 -60 q1.5 -29.5 1.5 -50.5 l0 -753 q0 -14 6.5 -22 q6.5 -8 13.5 -8 l75 -6 l0 -48 l-310 0 l0 48 l65 6 q13 1 19.5 11 q6.5 10 6.5 19 l0 741 q0 42 4.5 84 q4.5 42 16.5 81 q12 39 32.5 72.5 q20.5 33.5 52 58 q31.5 24.5 75 38.5 q43.5 14 102.5 14 q57 0 101 -14 q44 -14 73 -41 q29 -27 44 -64.5 q15 -37.5 15 -84.5 q0 -42 -12.5 -75.5 q-12.5 -33.5 -34 -59 q-21.5 -25.5 -50 -42 q-28.5 -16.5 -60.5 -23.5 q49 -7 93.5 -21 q44.5 -14 79.5 -40.5 q35 -26.5 56 -67 q21 -40.5 21 -100.5 Z"/><glyph glyph-name="uni1D5D" unicode="" d="M734 1057 q1 -55 -10.5 -98 q-11.5 -43 -32 -75 q-20.5 -32 -48.5 -54 q-28 -22 -61 -35 q-33 -13 -69 -19 q-36 -6 -73 -6 q-31 0 -66.5 6.5 q-35.5 6.5 -63.5 18.5 l0 69 q33 -15 61.5 -22.5 q28.5 -7.5 55.5 -7.5 q33 0 65 7.5 q32 7.5 58 29 q26 21.5 42 59 q16 37.5 16 97.5 q0 53 -16.5 95 q-16.5 42 -51.5 71 q-35 29 -88.5 44 q-53.5 15 -128.5 14 q0 12 0.5 26 q0.5 14 1.5 29 q50 0 86.5 12 q36.5 12 60.5 35.5 q24 23.5 35 57 q11 33.5 11 75.5 q0 28 -8 54 q-8 26 -24.5 46 q-16.5 20 -41.5 32 q-25 12 -59 12 q-42 0 -68 -14 q-26 -14 -41 -37.5 q-15 -23.5 -21 -53.5 q-6 -30 -7.5 -60.5 q-1.5 -30.5 0 -60 q1.5 -29.5 1.5 -50.5 l0 -753 q0 -14 6.5 -22 q6.5 -8 13.5 -8 l75 -6 l0 -48 l-310 0 l0 48 l65 6 q13 1 19.5 11 q6.5 10 6.5 19 l0 741 q0 42 4.5 84 q4.5 42 16.5 81 q12 39 32.5 72.5 q20.5 33.5 52 58 q31.5 24.5 75 38.5 q43.5 14 102.5 14 q57 0 101 -14 q44 -14 73 -41 q29 -27 44 -64.5 q15 -37.5 15 -84.5 q0 -42 -12.5 -75.5 q-12.5 -33.5 -34 -59 q-21.5 -25.5 -50 -42 q-28.5 -16.5 -60.5 -23.5 q49 -7 93.5 -21 q44.5 -14 79.5 -40.5 q35 -26.5 56 -67 q21 -40.5 21 -100.5 Z"/><glyph glyph-name="uni1E9E" unicode="" d="M217 720 q0 180 43.5 309.5 q43.5 129.5 124.5 213.5 q81 84 197 124 q116 40 262 40 q125 0 247 -28.5 q122 -28.5 233 -78.5 l-381 -487 q133 -48 225 -92 q92 -44 149.5 -93.5 q57.5 -49.5 83.5 -108 q26 -58.5 26 -134.5 q0 -78 -27 -153 q-27 -75 -86.5 -134 q-59.5 -59 -153 -95 q-93.5 -36 -226.5 -36 q-65 0 -124.5 12 q-59.5 12 -106.5 26 q-55 17 -103 38 l0 303 l129 0 l27 -172 q2 -12 12.5 -24.5 q10.5 -12.5 21.5 -20.5 q25 -19 72 -33 q47 -14 105 -14 q54 0 100 16.5 q46 16.5 79.5 47.5 q33.5 31 52.5 76 q19 45 19 102 q0 31 -6.5 61 q-6.5 30 -25.5 60 q-19 30 -55 60 q-36 30 -94.5 61.5 q-58.5 31.5 -143.5 65.5 q-85 34 -203 72 l392 495 q-19 17 -46 34 q-27 17 -59.5 30 q-32.5 13 -69 21 q-36.5 8 -73.5 8 q-80 0 -154 -28 q-74 -28 -131 -95.5 q-57 -67.5 -91 -182 q-34 -114.5 -34 -286.5 l0 -559 q0 -15 10.5 -29 q10.5 -14 32.5 -16 l77 -8 l0 -88 l-478 0 l0 88 l106 8 q22 2 33.5 16 q11.5 14 11.5 29 l0 579 Z"/><glyph glyph-name="uni0441" unicode="" d="M891 76 q-35 -18 -73.5 -36.5 q-38.5 -18.5 -82 -32.5 q-43.5 -14 -91 -23 q-47.5 -9 -99.5 -9 q-108 0 -194.5 38.5 q-86.5 38.5 -147.5 107 q-61 68.5 -94 162.5 q-33 94 -33 204 q0 129 40 227 q40 98 108 164.5 q68 66.5 157.5 100 q89.5 33.5 187.5 33.5 q68 0 126 -13.5 q58 -13.5 101 -39.5 q43 -26 67 -64 q24 -38 24 -88 q0 -30 -10.5 -52.5 q-10.5 -22.5 -27.5 -38 q-17 -15.5 -38.5 -23 q-21.5 -7.5 -44.5 -7.5 q-34 0 -59 11.5 q-25 11.5 -43 23.5 l0 178 q-22 12 -44 19.5 q-22 7.5 -42 7.5 q-69 0 -123 -31 q-54 -31 -92 -86 q-38 -55 -58 -130.5 q-20 -75.5 -20 -164.5 q0 -85 21.5 -160 q21.5 -75 64 -130.5 q42.5 -55.5 106 -87.5 q63.5 -32 148.5 -32 q71 0 135.5 22.5 q64.5 22.5 130.5 66.5 l0 -117 Z"/><glyph glyph-name="uni1D9C" unicode="" d="M580 829 q-45 -21 -101 -40 q-56 -19 -125 -19 q-70 0 -126.5 23 q-56.5 23 -96 63.5 q-39.5 40.5 -61 96.5 q-21.5 56 -21.5 122 q0 78 26.5 137 q26.5 59 71 98.5 q44.5 39.5 102.5 60 q58 20.5 122 20.5 q43 0 81 -8 q38 -8 66 -23.5 q28 -15.5 44 -38.5 q16 -23 16 -53 q0 -35 -24.5 -53.5 q-24.5 -18.5 -53.5 -18.5 q-23 0 -39 6.5 q-16 6.5 -29 14.5 l0 106 q-29 16 -55 16 q-45 0 -80 -18.5 q-35 -18.5 -60 -51.5 q-25 -33 -38 -78 q-13 -45 -13 -99 q0 -51 14 -95.5 q14 -44.5 41.5 -77.5 q27.5 -33 69 -52 q41.5 -19 97.5 -19 q46 0 87 13 q41 13 85 38 l0 -70 Z"/><glyph glyph-name="uni1E09" unicode="" d="M761 -266 q0 -48 -18 -84 q-18 -36 -49.5 -61 q-31.5 -25 -75 -37.5 q-43.5 -12.5 -95.5 -12.5 q-27 0 -53.5 3 q-26.5 3 -48.5 7 q-26 4 -49 11 l0 80 q21 -5 43 -9 q19 -3 40.5 -5.5 q21.5 -2.5 41.5 -2.5 q24 0 47.5 4.5 q23.5 4.5 42 14 q18.5 9.5 30 25.5 q11.5 16 11.5 40 q0 38 -27 57 q-27 19 -69 19 q-8 0 -16 -2 q-8 -2 -15 -4 l-16 -6 l0 207 q-76 7 -141 35 q-86 39 -147 107.5 q-61 68.5 -94 162.5 q-33 94 -33 204 q0 129 40 227 q40 98 108 164.5 q68 66.5 157.5 100 q89.5 33.5 187.5 33.5 q67 0 125.5 -13.5 q58.5 -13.5 101 -39.5 q42.5 -26 67 -64 q24.5 -38 24.5 -88 q0 -30 -10.5 -52.5 q-10.5 -22.5 -27.5 -38 q-17 -15.5 -38.5 -23 q-21.5 -7.5 -44.5 -7.5 q-34 0 -59 11.5 q-25 11.5 -44 23.5 l0 178 q-21 12 -43.5 19.5 q-22.5 7.5 -42.5 7.5 q-68 0 -122.5 -31 q-54.5 -31 -92 -86 q-37.5 -55 -57.5 -130.5 q-20 -75.5 -20 -164.5 q0 -85 21.5 -160 q21.5 -75 64 -130.5 q42.5 -55.5 106 -87.5 q63.5 -32 147.5 -32 q72 0 136.5 22.5 q64.5 22.5 130.5 66.5 l0 -117 q-35 -18 -73.5 -36.5 q-38.5 -18.5 -82 -32.5 q-43.5 -14 -91.5 -23 q-35 -6 -72 -8 l0 -105 q11 2 21 5 q10 3 27 3 q31 0 57.5 -8 q26.5 -8 46.5 -25.5 q20 -17.5 31.5 -45 q11.5 -27.5 11.5 -66.5 ZM846 1409 q0 -28 -13.5 -48 q-13.5 -20 -33.5 -34 l-312 -199 l-116 0 l272 318 q12 13 22 23.5 q10 10.5 22 17.5 q12 7 27.5 10.5 q15.5 3.5 37.5 3.5 q27 0 45 -8.5 q18 -8.5 29 -21.5 q11 -13 15.5 -29.5 q4.5 -16.5 4.5 -32.5 Z"/><glyph glyph-name="uni04AB" unicode="" d="M359 -252 q15 -11 30 -19 q13 -7 27.5 -12.5 q14.5 -5.5 26.5 -5.5 q56 0 87.5 25 q31.5 25 31.5 76 q0 53 -26 95 q-26 42 -57 71 q-95 10 -170.5 52.5 q-75.5 42.5 -128.5 110 q-53 67.5 -81.5 156 q-28.5 88.5 -28.5 190.5 q0 129 40 227 q40 98 108 164.5 q68 66.5 157.5 100 q89.5 33.5 187.5 33.5 q67 0 125.5 -13.5 q58.5 -13.5 101 -39.5 q42.5 -26 67 -64 q24.5 -38 24.5 -88 q0 -30 -10.5 -52.5 q-10.5 -22.5 -27.5 -38 q-17 -15.5 -38.5 -23 q-21.5 -7.5 -44.5 -7.5 q-34 0 -59 11.5 q-25 11.5 -44 23.5 l0 178 q-21 12 -43.5 19.5 q-22.5 7.5 -42.5 7.5 q-68 0 -122.5 -31 q-54.5 -31 -92 -86 q-37.5 -55 -57.5 -130.5 q-20 -75.5 -20 -164.5 q0 -85 21.5 -160 q21.5 -75 64 -130.5 q42.5 -55.5 106 -87.5 q63.5 -32 147.5 -32 q72 0 136.5 22.5 q64.5 22.5 130.5 66.5 l0 -117 q-63 -33 -138.5 -62.5 q-75.5 -29.5 -166.5 -36.5 q20 -18 40 -41 q20 -23 35.5 -50.5 q15.5 -27.5 25.5 -59.5 q10 -32 10 -68 q0 -74 -54.5 -111.5 q-54.5 -37.5 -150.5 -37.5 q-23 0 -53.5 8.5 q-30.5 8.5 -57.5 19.5 q-32 12 -65 29 l49 82 Z"/><glyph glyph-name="uniA794" unicode="" d="M885 -229 q0 -118 -64.5 -178 q-64.5 -60 -197.5 -60 q-45 0 -84 12 q-39 12 -67 30.5 q-28 18.5 -44 41.5 q-16 23 -16 45 q0 34 12 56.5 q12 22.5 27.5 36 q15.5 13.5 30.5 20 q15 6.5 20 8.5 l164 -143 q54 0 84.5 27 q30.5 27 30.5 93 l0 265 q-25 -10 -52 -18 q-43 -14 -90.5 -23 q-47.5 -9 -99.5 -9 q-108 0 -194.5 38.5 q-86.5 38.5 -147.5 107 q-61 68.5 -94 162.5 q-33 94 -33 204 q0 129 40 227 q40 98 108 164.5 q68 66.5 157.5 100 q89.5 33.5 187.5 33.5 q67 0 125.5 -13.5 q58.5 -13.5 101 -39.5 q42.5 -26 67 -64 q24.5 -38 24.5 -88 q0 -30 -10.5 -52.5 q-10.5 -22.5 -27.5 -38 q-17 -15.5 -38.5 -23 q-21.5 -7.5 -44.5 -7.5 q-34 0 -59 11.5 q-25 11.5 -44 23.5 l0 178 q-21 12 -43.5 19.5 q-22.5 7.5 -42.5 7.5 q-68 0 -122.5 -31 q-54.5 -31 -92 -86 q-37.5 -55 -57.5 -130.5 q-20 -75.5 -20 -164.5 q0 -85 21.5 -160 q21.5 -75 64 -130.5 q42.5 -55.5 106 -87.5 q63.5 -32 147.5 -32 q72 0 136.5 22.5 q64.5 22.5 130.5 66.5 l0 -422 Z"/><glyph glyph-name="uniA793" unicode="" d="M0 556 l150 0 q11 112 54.5 197.5 q43.5 85.5 110 143 q66.5 57.5 150 86.5 q83.5 29 175.5 29 q67 0 125.5 -13.5 q58.5 -13.5 101 -39.5 q42.5 -26 67 -64 q24.5 -38 24.5 -88 q0 -30 -10.5 -52.5 q-10.5 -22.5 -27.5 -38 q-17 -15.5 -38.5 -23 q-21.5 -7.5 -44.5 -7.5 q-34 0 -59 11.5 q-25 11.5 -44 23.5 l0 178 q-21 12 -43.5 19.5 q-22.5 7.5 -42.5 7.5 q-64 0 -115.5 -27.5 q-51.5 -27.5 -89 -76.5 q-37.5 -49 -59.5 -117 q-22 -68 -27 -149 l256 0 l0 -103 l-254 0 q7 -74 31.5 -138 q24.5 -64 66.5 -111 q42 -47 101.5 -73.5 q59.5 -26.5 136.5 -26.5 q72 0 136.5 22.5 q64.5 22.5 130.5 66.5 l0 -117 q-35 -18 -73.5 -36.5 q-38.5 -18.5 -82 -32.5 q-43.5 -14 -91 -23 q-47.5 -9 -99.5 -9 q-104 0 -188 35.5 q-84 35.5 -144.5 99.5 q-60.5 64 -95.5 151.5 q-35 87.5 -40 191.5 l-148 0 l0 103 Z"/><glyph glyph-name="uni023C" unicode="" d="M145 -168 l-72 43 l134 234 q-5 6 -10 11 q-61 69 -94 163 q-33 94 -33 204 q0 129 40 227 q40 98 108 164.5 q68 66.5 157.5 100 q89.5 33.5 187.5 33.5 q67 0 125 -14 q13 -3 24 -6 l90 157 l74 -41 l-86 -150 q42 -26 66 -63 q25 -38 25 -88 q0 -30 -10.5 -52.5 q-10.5 -22.5 -27.5 -38 q-17 -15.5 -38.5 -23 q-21.5 -7.5 -44.5 -7.5 q-34 0 -59 11.5 q-25 11.5 -44 23.5 l0 4 l-290 -506 q42 -52 103 -83 q64 -32 148 -32 q72 0 136.5 22.5 q64.5 22.5 130.5 66.5 l0 -117 q-35 -18 -73.5 -36.5 q-38.5 -18.5 -82 -32.5 q-43.5 -14 -91 -23 q-47.5 -9 -99.5 -9 q-108 0 -195 38 q-38 17 -72 40 l-127 -221 ZM657 899 q-21 12 -43.5 19.5 q-22.5 7.5 -42.5 7.5 q-68 0 -122.5 -31 q-54.5 -31 -92 -86 q-37.5 -55 -57.5 -130.5 q-20 -75.5 -20 -164.5 q0 -85 21 -160 q8 -27 18 -51 l339 592 l0 4 Z"/><glyph glyph-name="uni0297" unicode="" d="M885 -371 q-34 -18 -72.5 -36 q-38.5 -18 -82 -31.5 q-43.5 -13.5 -91.5 -22 q-48 -8.5 -100 -8.5 q-108 0 -194.5 37.5 q-86.5 37.5 -147.5 104 q-61 66.5 -94 159 q-33 92.5 -33 203.5 l0 452 q0 129 40 227 q40 98 108 164.5 q68 66.5 157.5 100 q89.5 33.5 187.5 33.5 q67 0 125.5 -13.5 q58.5 -13.5 101 -40 q42.5 -26.5 67 -65 q24.5 -38.5 24.5 -88.5 q0 -30 -10.5 -52.5 q-10.5 -22.5 -27.5 -37 q-17 -14.5 -38.5 -22 q-21.5 -7.5 -44.5 -7.5 q-34 0 -59 10 q-25 10 -44 23 l0 180 q-21 12 -43.5 19.5 q-22.5 7.5 -42.5 7.5 q-68 0 -122 -31 q-54 -31 -91.5 -86 q-37.5 -55 -58 -130.5 q-20.5 -75.5 -20.5 -164.5 l0 -455 q0 -85 21.5 -158.5 q21.5 -73.5 64 -127.5 q42.5 -54 106 -84.5 q63.5 -30.5 147.5 -30.5 q73 0 137 23 q64 23 130 65 l0 -117 Z"/><glyph glyph-name="uni0188" unicode="" d="M1145 1100 q0 -27 -11 -44.5 q-11 -17.5 -25 -28.5 q-16 -12 -36 -19 l-147 110 q-26 -10 -41 -24 q-15 -14 -22.5 -37.5 q-7.5 -23.5 -9 -58.5 q-1.5 -35 -1.5 -87 q19 -23 24 -48.5 q5 -25.5 5 -57.5 q0 -30 -10.5 -52.5 q-10.5 -22.5 -27.5 -37 q-17 -14.5 -38.5 -22 q-21.5 -7.5 -44.5 -7.5 q-34 0 -59 10 q-25 10 -44 23 l0 180 q-21 12 -43.5 19.5 q-22.5 7.5 -42.5 7.5 q-68 0 -122 -31 q-54 -31 -91.5 -86 q-37.5 -55 -58 -130.5 q-20.5 -75.5 -20.5 -164.5 q0 -85 21.5 -160 q21.5 -75 64 -130.5 q42.5 -55.5 106 -87.5 q63.5 -32 147.5 -32 q73 0 137 26.5 q64 26.5 130 70.5 l0 -117 q-34 -18 -72.5 -37.5 q-38.5 -19.5 -82 -35.5 q-43.5 -16 -91.5 -26 q-48 -10 -100 -10 q-108 0 -194.5 38.5 q-86.5 38.5 -147.5 107 q-61 68.5 -94 162.5 q-33 94 -33 204 q0 129 40 227 q40 98 108 164.5 q68 66.5 157.5 100 q89.5 33.5 187.5 33.5 q38 0 75 -5.5 q37 -5.5 69 -15.5 q13 46 37.5 84.5 q24.5 38.5 59 66 q34.5 27.5 80 43 q45.5 15.5 101.5 15.5 q37 0 67 -8 q30 -8 50.5 -21.5 q20.5 -13.5 31.5 -31.5 q11 -18 11 -39 Z"/><glyph glyph-name="uni0255" unicode="" d="M899 246 q0 -56 -27.5 -105.5 q-27.5 -49.5 -75 -86.5 q-47.5 -37 -111 -58 q-63.5 -21 -136.5 -21 l-25 0 q-12 0 -24 2 q-13 -61 -20 -122.5 q-7 -61.5 -7 -118.5 l-88 0 q0 57 7 123.5 q7 66.5 18 134.5 q-75 21 -137.5 65.5 q-62.5 44.5 -107.5 108.5 q-45 64 -70 145 q-25 81 -25 174 q0 129 40 227 q40 98 107.5 164.5 q67.5 66.5 156.5 100 q89 33.5 187 33.5 q67 0 125.5 -13.5 q58.5 -13.5 101 -40 q42.5 -26.5 67 -65 q24.5 -38.5 24.5 -88.5 q0 -30 -10 -52.5 q-10 -22.5 -26.5 -37 q-16.5 -14.5 -38 -22 q-21.5 -7.5 -44.5 -7.5 q-34 0 -59 10 q-25 10 -44 23 l0 180 q-21 12 -43.5 19.5 q-22.5 7.5 -42.5 7.5 q-68 0 -122.5 -31 q-54.5 -31 -92 -86.5 q-37.5 -55.5 -57.5 -131.5 q-20 -76 -20 -165 q0 -60 9 -116 q9 -56 28.5 -104 q19.5 -48 49.5 -86 q30 -38 72 -63 q14 57 36.5 108.5 q22.5 51.5 56.5 91 q34 39.5 80 62.5 q46 23 108 23 q38 0 71 -14 q33 -14 57 -38 q24 -24 38 -57.5 q14 -33.5 14 -72.5 ZM788 252 q0 34 -20 58 q-20 24 -57 24 q-41 0 -70.5 -20 q-29.5 -20 -50.5 -52.5 q-21 -32.5 -35.5 -72 q-14.5 -39.5 -24.5 -78.5 q22 -5 42 -8 q20 -3 44 -3 q32 0 63 13 q31 13 55 34 q24 21 39 48.5 q15 27.5 15 56.5 Z"/><glyph glyph-name="uni1D9D" unicode="" d="M589 933 q0 -34 -17.5 -63.5 q-17.5 -29.5 -48.5 -52 q-31 -22.5 -72.5 -35 q-41.5 -12.5 -88.5 -12.5 l-17 0 q-7 0 -15 1 q-8 -36 -13 -73 q-5 -37 -5 -71 l-57 0 q0 34 4.5 74 q4.5 40 11.5 80 q-48 13 -89 39.5 q-41 26.5 -70 65 q-29 38.5 -45.5 87 q-16.5 48.5 -16.5 104.5 q0 78 26 136.5 q26 58.5 70 98.5 q44 40 102 60 q58 20 122 20 q43 0 81 -8 q38 -8 65.5 -24 q27.5 -16 43.5 -39 q16 -23 16 -53 q0 -18 -6.5 -31.5 q-6.5 -13.5 -17 -22 q-10.5 -8.5 -24.5 -13 q-14 -4.5 -29 -4.5 q-22 0 -38.5 6 q-16.5 6 -28.5 13 l0 108 q-14 8 -28.5 12.5 q-14.5 4.5 -27.5 4.5 q-44 0 -79.5 -19 q-35.5 -19 -60 -52 q-24.5 -33 -37.5 -78.5 q-13 -45.5 -13 -99.5 q0 -36 6 -69.5 q6 -33.5 18.5 -62.5 q12.5 -29 32 -51.5 q19.5 -22.5 47.5 -37.5 q9 34 23.5 65 q14.5 31 36.5 54.5 q22 23.5 52 37.5 q30 14 70 14 q25 0 46.5 -8.5 q21.5 -8.5 37 -23 q15.5 -14.5 24.5 -34.5 q9 -20 9 -43 ZM517 936 q0 21 -13 35 q-13 14 -37 14 q-27 0 -46 -12 q-19 -12 -32.5 -31.5 q-13.5 -19.5 -23 -43 q-9.5 -23.5 -16.5 -46.5 q15 -3 28 -5 q13 -2 28 -2 q21 0 41 8 q20 8 36 20.5 q16 12.5 25.5 29 q9.5 16.5 9.5 33.5 Z"/><glyph glyph-name="uni0254" unicode="" d="M885 500 q0 -129 -40.5 -227 q-40.5 -98 -108.5 -164.5 q-68 -66.5 -157.5 -100 q-89.5 -33.5 -187.5 -33.5 q-68 0 -125.5 13.5 q-57.5 13.5 -100.5 39.5 q-43 26 -67 64 q-24 38 -24 88 q0 30 10 52.5 q10 22.5 27 37 q17 14.5 39 22 q22 7.5 45 7.5 q34 0 58.5 -10 q24.5 -10 43.5 -23 l0 -180 q45 -25 86 -25 q68 0 122.5 31 q54.5 31 92.5 86 q38 55 58 130.5 q20 75.5 20 164.5 q0 85 -21.5 160 q-21.5 75 -64 130.5 q-42.5 55.5 -106.5 87.5 q-64 32 -148 32 q-71 0 -135.5 -22.5 q-64.5 -22.5 -130.5 -65.5 l0 116 q34 19 73 37 q39 18 82 32 q43 14 90.5 23 q47.5 9 100.5 9 q107 0 194 -38.5 q87 -38.5 148 -107 q61 -68.5 94 -162 q33 -93.5 33 -204.5 Z"/><glyph glyph-name="uni1D53" unicode="" d="M580 1085 q0 -77 -26 -136 q-26 -59 -70.5 -99 q-44.5 -40 -102.5 -60 q-58 -20 -122 -20 q-44 0 -81.5 8 q-37.5 8 -65.5 23.5 q-28 15.5 -43.5 38.5 q-15.5 23 -15.5 53 q0 18 6.5 31.5 q6.5 13.5 17.5 22 q11 8.5 25.5 13 q14.5 4.5 29.5 4.5 q22 0 38 -6 q16 -6 28 -13 l0 -108 q29 -15 56 -15 q44 0 79.5 18.5 q35.5 18.5 60 51.5 q24.5 33 37.5 78 q13 45 13 99 q0 51 -14 96 q-14 45 -41.5 78 q-27.5 33 -69 52.5 q-41.5 19.5 -96.5 19.5 q-46 0 -88 -13.5 q-42 -13.5 -85 -39.5 l0 70 q23 11 48 22 q25 11 53 19 q28 8 59 13.5 q31 5.5 65 5.5 q70 0 126.5 -23 q56.5 -23 96 -64 q39.5 -41 61 -97 q21.5 -56 21.5 -123 Z"/><glyph glyph-name="uni1D97" unicode="" d="M885 500 q0 -129 -40.5 -227 q-40.5 -98 -108.5 -164.5 q-68 -66.5 -157.5 -100 q-89.5 -33.5 -187.5 -33.5 q-68 0 -126 14 q-50 11 -89 32 l0 -261 q0 -66 30.5 -93 q30.5 -27 86.5 -27 l164 143 q4 -2 19 -8.5 q15 -6.5 30.5 -20 q15.5 -13.5 28 -36 q12.5 -22.5 12.5 -56.5 q0 -22 -16 -45 q-16 -23 -44 -41.5 q-28 -18.5 -67 -30.5 q-39 -12 -84 -12 q-133 0 -197.5 60 q-64.5 60 -64.5 178 l0 409 q0 30 10 52.5 q10 22.5 27 37 q17 14.5 39 22 q22 7.5 45 7.5 q34 0 58.5 -10 q24.5 -10 43.5 -23 l0 -180 q45 -25 86 -25 q68 0 122.5 31 q54.5 31 92.5 86 q38 55 58 130.5 q20 75.5 20 164.5 q0 85 -21.5 160 q-21.5 75 -64 130.5 q-42.5 55.5 -106.5 87.5 q-64 32 -148 32 q-71 0 -135.5 -22.5 q-64.5 -22.5 -130.5 -65.5 l0 116 q34 19 73 37 q39 18 82 32 q43 14 90.5 23 q47.5 9 100.5 9 q107 0 194 -38.5 q87 -38.5 148 -107 q61 -68.5 94 -162 q33 -93.5 33 -204.5 Z"/><glyph glyph-name="uni2C7A" unicode="" d="M700 220 q0 30 -11 56.5 q-11 26.5 -30.5 46.5 q-19.5 20 -45.5 31.5 q-26 11.5 -56 11.5 q-30 0 -56.5 -11.5 q-26.5 -11.5 -46 -31.5 q-19.5 -20 -30.5 -46.5 q-11 -26.5 -11 -56.5 q0 -29 11 -55 q11 -26 30.5 -45.5 q19.5 -19.5 46 -31 q26.5 -11.5 56.5 -11.5 q30 0 56 11.5 q26 11.5 45.5 31 q19.5 19.5 30.5 45.5 q11 26 11 55 ZM831 494 q0 84 -16.5 161 q-16.5 77 -50.5 136 q-34 59 -85 94 q-51 35 -120 35 q-71 0 -123 -35 q-52 -35 -85.5 -94 q-33.5 -59 -49.5 -136 q-16 -77 -16 -161 q0 -60 8 -116 q8 -56 25 -106 q9 41 31 76.5 q22 35.5 53.5 61.5 q31.5 26 71 41 q39.5 15 83.5 15 q45 0 84.5 -15.5 q39.5 -15.5 71 -42.5 q31.5 -27 53 -63.5 q21.5 -36.5 29.5 -78.5 q18 51 27 108.5 q9 57.5 9 119.5 ZM1044 492 q0 -109 -34.5 -203.5 q-34.5 -94.5 -98 -164 q-63.5 -69.5 -154 -109.5 q-90.5 -40 -202.5 -40 q-112 0 -202 39.5 q-90 39.5 -153 108.5 q-63 69 -96.5 163.5 q-33.5 94.5 -33.5 205.5 q0 109 34 204 q34 95 98 165.5 q64 70.5 154.5 110.5 q90.5 40 204.5 40 q114 0 204 -41 q90 -41 152 -111.5 q62 -70.5 94.5 -165 q32.5 -94.5 32.5 -202.5 Z"/><glyph glyph-name="uni2184" unicode="" d="M70 193 q66 -44 130.5 -66.5 q64.5 -22.5 136.5 -22.5 q84 0 147.5 32 q63.5 32 106 87.5 q42.5 55.5 64 130.5 q21.5 75 21.5 160 q0 89 -20 164.5 q-20 75.5 -57.5 130.5 q-37.5 55 -92 86 q-54.5 31 -122.5 31 q-20 0 -42.5 -7.5 q-22.5 -7.5 -43.5 -19.5 l0 -178 q-19 -12 -44 -23.5 q-25 -11.5 -59 -11.5 q-23 0 -44.5 7.5 q-21.5 7.5 -38.5 23 q-17 15.5 -27.5 38 q-10.5 22.5 -10.5 52.5 q0 50 24.5 88 q24.5 38 67 64 q42.5 26 100.5 39.5 q58 13.5 126 13.5 q98 0 187.5 -33.5 q89.5 -33.5 157.5 -100 q68 -66.5 108 -164.5 q40 -98 40 -227 q0 -110 -33 -204 q-33 -94 -94 -162.5 q-61 -68.5 -147.5 -107 q-86.5 -38.5 -194.5 -38.5 q-52 0 -99.5 9 q-47.5 9 -91 23 q-43.5 14 -82.5 32.5 q-39 18.5 -73 36.5 l0 117 Z"/><glyph glyph-name="uniA73F" unicode="" d="M513 506 q0 -25 -9.5 -47 q-9.5 -22 -25.5 -38.5 q-16 -16.5 -38 -26 q-22 -9.5 -47 -9.5 q-26 0 -48 9.5 q-22 9.5 -38 26 q-16 16.5 -25.5 38.5 q-9.5 22 -9.5 47 q0 25 9.5 47.5 q9.5 22.5 25.5 38.5 q16 16 38 25.5 q22 9.5 48 9.5 q25 0 47 -9.5 q22 -9.5 38 -25.5 q16 -16 25.5 -38.5 q9.5 -22.5 9.5 -47.5 ZM70 193 q66 -44 130.5 -66.5 q64.5 -22.5 136.5 -22.5 q84 0 147.5 32 q63.5 32 106 87.5 q42.5 55.5 64 130.5 q21.5 75 21.5 160 q0 89 -20 164.5 q-20 75.5 -57.5 130.5 q-37.5 55 -92 86 q-54.5 31 -122.5 31 q-20 0 -42.5 -7.5 q-22.5 -7.5 -43.5 -19.5 l0 -178 q-19 -12 -44 -23.5 q-25 -11.5 -59 -11.5 q-23 0 -44.5 7.5 q-21.5 7.5 -38.5 23 q-17 15.5 -27.5 38 q-10.5 22.5 -10.5 52.5 q0 50 24.5 88 q24.5 38 67 64 q42.5 26 100.5 39.5 q58 13.5 126 13.5 q98 0 187.5 -33.5 q89.5 -33.5 157.5 -100 q68 -66.5 108 -164.5 q40 -98 40 -227 q0 -110 -33 -204 q-33 -94 -94 -162.5 q-61 -68.5 -147.5 -107 q-86.5 -38.5 -194.5 -38.5 q-52 0 -99.5 9 q-47.5 9 -91 23 q-43.5 14 -82.5 32.5 q-39 18.5 -73 36.5 l0 117 Z"/><glyph glyph-name="uni1D12" unicode="" d="M582 898 q129 0 227 -40.5 q98 -40.5 164.5 -108.5 q66.5 -68 100 -157.5 q33.5 -89.5 33.5 -187.5 q0 -68 -13.5 -125.5 q-13.5 -57.5 -39.5 -100.5 q-26 -43 -64 -67 q-38 -24 -88 -24 q-30 0 -52.5 10 q-22.5 10 -37 27 q-14.5 17 -22 39 q-7.5 22 -7.5 45 q0 34 10 58.5 q10 24.5 23 43.5 l180 0 q25 45 25 86 q0 68 -31 122.5 q-31 54.5 -86 92.5 q-55 38 -130.5 58 q-75.5 20 -164.5 20 q-85 0 -160 -21.5 q-75 -21.5 -130.5 -64 q-55.5 -42.5 -87.5 -106.5 q-32 -64 -32 -148 q0 -71 22.5 -135.5 q22.5 -64.5 65.5 -130.5 l-116 0 q-19 34 -37 73 q-18 39 -32.5 82 q-14.5 43 -23 90.5 q-8.5 47.5 -8.5 100.5 q0 107 38.5 194 q38.5 87 107 148 q68.5 61 162 94 q93.5 33 204.5 33 Z"/><glyph glyph-name="uni0454" unicode="" d="M866 29 q-41 -16 -88 -27 q-40 -11 -92 -19 q-52 -8 -108 -8 q-127 0 -222.5 45 q-95.5 45 -160 118.5 q-64.5 73.5 -97 167.5 q-32.5 94 -32.5 192 q0 114 36 208.5 q36 94.5 103 162.5 q67 68 161.5 105.5 q94.5 37.5 211.5 37.5 q34 0 67 -3 q33 -3 68 -9.5 q35 -6.5 72.5 -16 q37.5 -9.5 80.5 -22.5 l0 -236 l-92 0 l-18 125 q-3 11 -10.5 21.5 q-7.5 10.5 -16.5 15.5 q-8 4 -21 10 q-13 6 -31 12 q-18 6 -42 10.5 q-24 4.5 -55 4.5 q-72 0 -131.5 -23 q-59.5 -23 -102.5 -70 q-43 -47 -68.5 -118 q-25.5 -71 -29.5 -166 l379 0 l0 -86 l-379 0 q10 -194 93 -294.5 q83 -100.5 249 -100.5 q29 0 52 2.5 q23 2.5 40 6.5 q19 4 35 9 q23 11 26 31 l35 155 l88 0 l0 -241 Z"/><glyph glyph-name="uni044D" unicode="" d="M872 498 q0 -98 -33 -192 q-33 -94 -97.5 -167.5 q-64.5 -73.5 -160 -118.5 q-95.5 -45 -221.5 -45 q-57 0 -108.5 8 q-51.5 8 -92.5 19 q-48 11 -89 27 l0 241 l90 0 l33 -155 q3 -18 28 -31 q15 -5 34 -9 q17 -4 40.5 -6.5 q23.5 -2.5 52.5 -2.5 q83 0 141.5 24.5 q58.5 24.5 96.5 73 q38 48.5 58 121.5 q20 73 26 170 l-379 0 l0 100 l379 0 q-10 190 -88.5 279.5 q-78.5 89.5 -223.5 89.5 q-32 0 -56 -4.5 q-24 -4.5 -42 -10.5 q-18 -6 -30.5 -12 q-12.5 -6 -20.5 -10 q-11 -5 -18 -15.5 q-7 -10.5 -9 -21.5 l-20 -125 l-92 0 l0 236 q43 13 81 22.5 q38 9.5 72.5 16 q34.5 6.5 67.5 9.5 q33 3 67 3 q117 0 212 -37.5 q95 -37.5 162 -105.5 q67 -68 103.5 -162.5 q36.5 -94.5 36.5 -208.5 Z"/><glyph glyph-name="uni0421" unicode="" d="M1204 47 q-4 -2 -39 -14.5 q-35 -12.5 -91 -27 q-56 -14.5 -128.5 -26.5 q-72.5 -12 -150.5 -12 q-115 0 -212.5 27.5 q-97.5 27.5 -177 76.5 q-79.5 49 -140 117 q-60.5 68 -102 148 q-41.5 80 -62.5 170 q-21 90 -21 184 q0 159 52 291 q52 132 146 226.5 q94 94.5 226 147 q132 52.5 293 52.5 q50 0 96.5 -5.5 q46.5 -5.5 94.5 -15.5 q48 -10 101 -25 q53 -15 115 -34 l0 -321 l-123 0 l-30 186 q-2 14 -14 28 q-12 14 -21 19 q-12 5 -31.5 14 q-19.5 9 -46.5 17.5 q-27 8.5 -60 15 q-33 6.5 -71 6.5 q-105 0 -195 -39 q-90 -39 -156 -115 q-66 -76 -103.5 -188.5 q-37.5 -112.5 -37.5 -259.5 q0 -143 35.5 -256 q35.5 -113 102.5 -192 q67 -79 163 -120.5 q96 -41.5 218 -41.5 q36 0 65.5 5 q29.5 5 51.5 11.5 q22 6.5 34 12 q12 5.5 14 6.5 q16 6 26 17 q10 11 13 24 l47 223 l119 0 l0 -332 Z"/><glyph glyph-name="uni1D04" unicode="" d="M987 37 q-5 -2 -34.5 -12 q-29.5 -10 -75.5 -21 q-46 -11 -104.5 -20 q-58.5 -9 -121.5 -9 q-140 0 -248 43.5 q-108 43.5 -182 115.5 q-74 72 -112.5 166 q-38.5 94 -38.5 196 q0 114 42.5 209 q42.5 95 119.5 163.5 q77 68.5 184 106 q107 37.5 237 37.5 q41 0 78.5 -4 q37.5 -4 77 -12 q39.5 -8 83 -19 q43.5 -11 95.5 -25 l0 -243 l-115 0 q-1 5 -2.5 29 q-1.5 24 -6.5 52 q-5 28 -14.5 52.5 q-9.5 24.5 -25.5 31.5 q-40 17 -78 27 q-38 10 -83 10 q-82 0 -152.5 -26.5 q-70.5 -26.5 -122.5 -79 q-52 -52.5 -81.5 -130 q-29.5 -77.5 -29.5 -179.5 q0 -100 27.5 -178 q27.5 -78 80 -132 q52.5 -54 128 -82 q75.5 -28 170.5 -28 q35 0 66.5 5.5 q31.5 5.5 62.5 16.5 q22 9 25 23 l41 166 l110 0 l0 -250 Z"/><glyph glyph-name="uni1E08" unicode="" d="M966 -266 q0 -48 -18 -84 q-18 -36 -49.5 -61 q-31.5 -25 -75 -37.5 q-43.5 -12.5 -95.5 -12.5 q-27 0 -53.5 3 q-26.5 3 -48.5 7 q-26 4 -49 11 l0 80 q21 -5 43 -9 q19 -3 40.5 -5.5 q21.5 -2.5 41.5 -2.5 q24 0 47.5 4.5 q23.5 4.5 42 14 q18.5 9.5 30 25.5 q11.5 16 11.5 40 q0 38 -27 57 q-27 19 -69 19 q-8 0 -16 -2 q-8 -2 -15 -4 l-16 -6 l0 202 q-56 7 -108 22 q-97 27 -176.5 76 q-79.5 49 -140 117 q-60.5 68 -102 148 q-41.5 80 -62.5 170 q-21 90 -21 184 q0 159 52 291 q52 132 146 226.5 q94 94.5 226 147 q132 52.5 293 52.5 q50 0 96.5 -5.5 q46.5 -5.5 94.5 -15.5 q48 -10 101 -25 q53 -15 115 -34 l0 -321 l-123 0 l-30 186 q-2 14 -14 28 q-12 14 -21 19 q-12 5 -31.5 14 q-19.5 9 -46.5 17.5 q-27 8.5 -60 15 q-33 6.5 -71 6.5 q-105 0 -195 -39 q-90 -39 -156 -115 q-66 -76 -103.5 -188.5 q-37.5 -112.5 -37.5 -259.5 q0 -143 35.5 -256 q35.5 -113 102.5 -192 q67 -79 163 -120.5 q96 -41.5 218 -41.5 q36 0 65.5 5 q29.5 5 51.5 11.5 q22 6.5 34 12 q12 5.5 14 6.5 q16 6 26 17 q10 11 13 24 l47 223 l119 0 l0 -332 q-4 -2 -39 -14.5 q-35 -12.5 -91 -27 q-56 -14.5 -128.5 -26.5 q-72.5 -12 -150.5 -12 l-24 0 l0 -96 q11 2 21 5 q10 3 27 3 q31 0 57.5 -8 q26.5 -8 46.5 -25.5 q20 -17.5 31.5 -45 q11.5 -27.5 11.5 -66.5 ZM1046 1809 q0 -28 -13.5 -48 q-13.5 -20 -33.5 -34 l-312 -199 l-116 0 l272 318 q12 13 22 23.5 q10 10.5 22 17.5 q12 7 27.5 10.5 q15.5 3.5 37.5 3.5 q27 0 45 -8.5 q18 -8.5 29 -21.5 q11 -13 15.5 -29.5 q4.5 -16.5 4.5 -32.5 Z"/><glyph glyph-name="uni04AA" unicode="" d="M569 -252 q15 -11 30 -19 q13 -7 27.5 -12.5 q14.5 -5.5 26.5 -5.5 q56 0 87.5 25 q31.5 25 31.5 76 q0 49 -24 90.5 q-24 41.5 -53 70.5 q-149 17 -263.5 82.5 q-114.5 65.5 -192.5 163 q-78 97.5 -118.5 219.5 q-40.5 122 -40.5 252 q0 159 52 291 q52 132 146 226.5 q94 94.5 226 147 q132 52.5 293 52.5 q50 0 96.5 -5.5 q46.5 -5.5 94.5 -15.5 q48 -10 101 -25 q53 -15 115 -34 l0 -321 l-123 0 l-30 186 q-2 14 -14 28 q-12 14 -21 19 q-12 5 -31.5 14 q-19.5 9 -46.5 17.5 q-27 8.5 -60 15 q-33 6.5 -71 6.5 q-105 0 -195 -39 q-90 -39 -156 -115 q-66 -76 -103.5 -188.5 q-37.5 -112.5 -37.5 -259.5 q0 -143 35.5 -256 q35.5 -113 102.5 -192 q67 -79 163 -120.5 q96 -41.5 218 -41.5 q36 0 65.5 5 q29.5 5 51.5 11.5 q22 6.5 34 12 q12 5.5 14 6.5 q16 6 26 17 q10 11 13 24 l47 223 l119 0 l0 -332 q-4 -2 -38.5 -14 q-34.5 -12 -89.5 -26.5 q-55 -14.5 -126.5 -26.5 q-71.5 -12 -148.5 -13 q18 -18 36 -40 q18 -22 32.5 -48.5 q14.5 -26.5 23 -57 q8.5 -30.5 8.5 -63.5 q0 -74 -54.5 -111.5 q-54.5 -37.5 -150.5 -37.5 q-23 0 -53.5 8.5 q-30.5 8.5 -57.5 19.5 q-32 12 -65 29 l49 82 Z"/><glyph glyph-name="uniA792" unicode="" d="M1270 47 q-4 -2 -39 -14.5 q-35 -12.5 -91 -27 q-56 -14.5 -128.5 -26.5 q-72.5 -12 -150.5 -12 q-115 0 -212.5 27.5 q-97.5 27.5 -177 76.5 q-79.5 49 -140 117 q-60.5 68 -102 148 q-41.5 80 -62.5 170 q-19 79 -21 162 l-146 0 l0 103 l149 0 q10 112 49 210 q52 132 146 226.5 q94 94.5 226 147 q132 52.5 293 52.5 q50 0 96.5 -5.5 q46.5 -5.5 94.5 -15.5 q48 -10 101 -25 q53 -15 115 -34 l0 -321 l-123 0 l-30 186 q-2 14 -14 28 q-12 14 -21 19 q-12 5 -31.5 14 q-19.5 9 -46.5 17.5 q-27 8.5 -60 15 q-33 6.5 -71 6.5 q-105 0 -195 -39 q-90 -39 -156 -115 q-66 -76 -104 -189 q-27 -80 -34 -178 l308 0 l0 -103 l-311 0 q2 -130 35 -234 q36 -113 103 -192 q67 -79 163 -120.5 q96 -41.5 218 -41.5 q36 0 65.5 5 q29.5 5 51.5 11.5 q22 6.5 34 12 q12 5.5 14 6.5 q16 6 26 17 q10 11 13 24 l47 223 l119 0 l0 -332 Z"/><glyph glyph-name="uni023B" unicode="" d="M1204 47 q-4 -2 -39 -14.5 q-35 -12.5 -91 -27 q-56 -14.5 -128.5 -26.5 q-72.5 -12 -150.5 -12 q-115 0 -212.5 27.5 q-97.5 27.5 -177.5 76.5 l-22 14 l-147 -247 l-94 58 l154 259 q-16 16 -31 33 q-60 68 -101.5 148 q-41.5 80 -62.5 170 q-21 90 -21 184 q0 159 52 291 q52 132 146 226.5 q94 94.5 226 147 q132 52.5 293 52.5 q50 0 96.5 -5.5 q46.5 -5.5 94.5 -15.5 l34 -8 l92 154 l97 -57 l-76 -128 q33 -9 69 -20 l0 -321 l-123 0 l-30 186 q-1 5 -3 10 l-581 -976 q63 -68 149 -105 q96 -41 218 -41 q36 0 65.5 5 q29.5 5 51.5 11.5 q22 6.5 34 12 q12 5.5 14 6.5 q16 6 26 17 q10 11 13 24 l47 223 l119 0 l0 -332 ZM938 1270 q-27 9 -60 15.5 q-33 6.5 -71 6.5 q-105 0 -195 -39 q-90 -39 -156 -115 q-66 -76 -103.5 -188.5 q-37.5 -112.5 -37.5 -259.5 q0 -143 35 -256 q19 -60 46 -110 l559 941 q-8 2 -17 5 Z"/><glyph glyph-name="uni0187" unicode="" d="M1569 1602 q0 -35 -13.5 -57 q-13.5 -22 -30.5 -35 q-19 -15 -44 -23 l-187 141 q-35 -13 -53 -32.5 q-18 -19.5 -26.5 -53.5 q-8.5 -34 -9.5 -85.5 q-1 -51.5 -1 -129.5 l0 -321 l-123 0 l-30 186 q-2 14 -14 28 q-12 14 -21 19 q-12 5 -31.5 14 q-19.5 9 -46.5 17.5 q-27 8.5 -60 15 q-33 6.5 -71 6.5 q-105 0 -195 -39 q-90 -39 -156 -115 q-66 -76 -103.5 -188.5 q-37.5 -112.5 -37.5 -259.5 q0 -143 35.5 -256 q35.5 -113 102.5 -192 q67 -79 163 -120.5 q96 -41.5 218 -41.5 q36 0 65.5 5 q29.5 5 51.5 11.5 q22 6.5 34 12 q12 5.5 14 6.5 q16 6 26 17 q10 11 13 24 l47 223 l119 0 l0 -332 q-4 -2 -39 -14.5 q-35 -12.5 -91 -27 q-56 -14.5 -128.5 -26.5 q-72.5 -12 -150.5 -12 q-115 0 -212.5 27.5 q-97.5 27.5 -177 76.5 q-79.5 49 -140 117 q-60.5 68 -102 148 q-41.5 80 -62.5 170 q-21 90 -21 184 q0 159 52 291 q52 132 146 226.5 q94 94.5 226 147 q132 52.5 293 52.5 q63 0 119.5 -8 q56.5 -8 119.5 -25 q7 77 29.5 142 q22.5 65 63.5 112.5 q41 47.5 101.5 74 q60.5 26.5 143.5 26.5 q48 0 84 -10 q36 -10 61 -27.5 q25 -17.5 37.5 -40.5 q12.5 -23 12.5 -49 Z"/><glyph glyph-name="Euro" unicode="" d="M1073 47 q-3 -2 -32.5 -14.5 q-29.5 -12.5 -77.5 -27 q-48 -14.5 -109.5 -26.5 q-61.5 -12 -127.5 -12 q-128 0 -231 46.5 q-103 46.5 -178.5 126.5 q-75.5 80 -123 186.5 q-47.5 106.5 -65.5 225.5 l-168 0 l20 93 l139 0 q-1 11 -1 22 l0 46 q0 12 1 24 l-159 0 l20 94 l148 0 q18 130 68.5 236 q50.5 106 128.5 181.5 q78 75.5 180 117 q102 41.5 222 41.5 q42 0 81.5 -5.5 q39.5 -5.5 81 -15.5 q41.5 -10 86 -25 q44.5 -15 97.5 -34 l0 -321 l-104 0 l-26 186 q-1 14 -11 28 q-10 14 -18 19 q-10 5 -27 14 q-17 9 -39.5 17.5 q-22.5 8.5 -50.5 15 q-28 6.5 -61 6.5 q-78 0 -146 -29.5 q-68 -29.5 -122 -88 q-54 -58.5 -90.5 -144.5 q-36.5 -86 -51.5 -199 l471 0 l-20 -94 l-458 0 q-1 -12 -1 -24 l0 -46 q0 -11 1 -22 l441 0 l-19 -93 l-415 0 q13 -112 48.5 -199.5 q35.5 -87.5 91 -148 q55.5 -60.5 129.5 -92.5 q74 -32 164 -32 q30 0 55.5 5 q25.5 5 44 11.5 q18.5 6.5 29 12 q10.5 5.5 11.5 6.5 q14 6 22.5 17 q8.5 11 10.5 24 l40 223 l101 0 l0 -332 Z"/><glyph glyph-name="colonmonetary" unicode="" d="M1083 76 q-3 -2 -34.5 -14 q-31.5 -12 -82.5 -25.5 q-51 -13.5 -116 -25 q-65 -11.5 -136 -11.5 q-54 0 -102.5 7 q-48.5 7 -93.5 21 l-48 -177 l-98 0 l58 211 q-17 8 -32.5 16.5 q-15.5 8.5 -30.5 18.5 l-67 -246 l-98 0 l85 308 q-53 49 -93.5 109.5 q-40.5 60.5 -67.5 128.5 q-27 68 -41 142 q-14 74 -14 151 q0 138 39 255 q39 117 110.5 205.5 q71.5 88.5 172.5 144.5 q101 56 225 73 l47 169 l94 0 l-45 -163 l2 0 q19 0 37 -1 q18 -1 36 -3 l46 167 l94 0 l-50 -181 q46 -10 95 -25 q49 -15 109 -34 l0 -306 l-111 0 l-27 178 q-2 13 -13 26.5 q-11 13.5 -19 18.5 q-10 5 -26.5 12.5 q-16.5 7.5 -38.5 15.5 l-297 -1094 q88 -41 199 -41 q32 0 58.5 5 q26.5 5 46 11 q19.5 6 30.5 11 l13 7 q14 5 23.5 16 q9.5 11 11.5 23 l42 213 l108 0 l0 -317 ZM282 690 q0 -189 61 -325 l240 876 q-67 -24 -122.5 -70.5 q-55.5 -46.5 -95 -116 q-39.5 -69.5 -61.5 -161 q-22 -91.5 -22 -203.5 ZM410 257 q28 -33 58 -57 l291 1062 q-8 1 -16.5 1.5 q-8.5 0.5 -17.5 0.5 q-11 0 -21 -0.5 q-10 -0.5 -20 -1.5 l-274 -1005 Z"/><glyph glyph-name="uni20A0" unicode="" d="M396 0 l0 57 l69 5 q14 2 21.5 11 q7.5 9 7.5 19 l0 334 q-99 11 -174.5 56.5 q-75.5 45.5 -127.5 112.5 q-52 67 -78.5 149.5 q-26.5 82.5 -26.5 167.5 q0 103 33.5 193.5 q33.5 90.5 95 157.5 q61.5 67 147.5 105.5 q86 38.5 190 38.5 q32 0 62.5 -3.5 q30.5 -3.5 62 -10 q31.5 -6.5 65.5 -16.5 q34 -10 75 -22 l0 -209 l-80 0 l-20 121 q-1 8 -9 17.5 q-8 9.5 -14 12.5 q-15 7 -50 21 q-35 14 -85 14 q-68 0 -126.5 -29.5 q-58.5 -29.5 -101.5 -84.5 q-43 -55 -67.5 -132.5 q-24.5 -77.5 -24.5 -173.5 q0 -80 17 -148 q17 -68 49.5 -120.5 q32.5 -52.5 80 -88 q47.5 -35.5 107.5 -50.5 l0 296 q0 10 -7.5 19 q-7.5 9 -21.5 11 l-69 5 l0 57 l627 0 l0 -198 l-80 0 l-20 109 q-2 10 -8.5 17.5 q-6.5 7.5 -16.5 7.5 l-268 0 l0 -331 l179 0 q10 0 17 7.5 q7 7.5 7 15.5 l14 91 l68 0 l0 -297 l-68 0 l-14 93 q0 7 -8 15.5 q-8 8.5 -16 8.5 l-179 0 l0 -367 l317 0 q8 0 15 9 q7 9 9 16 l24 132 l71 0 l0 -222 l-670 0 Z"/><glyph glyph-name="uni20A2" unicode="" d="M1078 47 q-3 -2 -34.5 -14.5 q-31.5 -12.5 -82.5 -27 q-51 -14.5 -116 -26.5 q-65 -12 -136 -12 q-103 0 -191 27.5 q-88 27.5 -159.5 76.5 q-71.5 49 -126 117 q-54.5 68 -91.5 148 q-37 80 -56 170 q-19 90 -19 184 q0 159 46.5 291 q46.5 132 131.5 226.5 q85 94.5 204 147 q119 52.5 263 52.5 q45 0 87 -5.5 q42 -5.5 85.5 -15.5 q43.5 -10 91 -25 q47.5 -15 103.5 -34 l0 -321 l-111 0 l-27 186 q-2 14 -13 28 q-11 14 -19 19 q-11 5 -28.5 14 q-17.5 9 -41.5 17.5 q-24 8.5 -54 15 q-30 6.5 -64 6.5 q-94 0 -175 -39 q-81 -39 -140.5 -115 q-59.5 -76 -93.5 -188.5 q-34 -112.5 -34 -259.5 q0 -217 71.5 -363 q71.5 -146 202.5 -207 q13 2 21.5 11 q8.5 9 8.5 23 l0 482 l-111 0 l0 51 l191 58 l63 0 l0 -136 q16 18 39.5 44.5 q23.5 26.5 50.5 51 q27 24.5 56 42 q29 17.5 56 17.5 q24 0 51.5 -7.5 q27.5 -7.5 42.5 -15.5 l0 -153 l-60 0 q-15 18 -34.5 30 q-19.5 12 -48.5 12 q-37 0 -75.5 -25 q-38.5 -25 -77.5 -70 l0 -421 q0 -14 8 -23 q8 -9 22 -11 q30 1 55 6 q25 5 43 11.5 q18 6.5 28.5 11.5 q10.5 5 12.5 6 q30 13 35 41 l42 223 l108 0 l0 -332 Z"/><glyph glyph-name="uni20B5" unicode="" d="M257 689 q0 -116 22 -211.5 q22 -95.5 63.5 -168 q41.5 -72.5 101.5 -120 q60 -47.5 137 -68.5 l0 1131 q-71 -18 -130.5 -62.5 q-59.5 -44.5 -102.5 -115.5 q-43 -71 -67 -167.5 q-24 -96.5 -24 -217.5 ZM1012 76 q-3 -2 -31.5 -13.5 q-28.5 -11.5 -74 -25 q-45.5 -13.5 -105 -25 q-59.5 -11.5 -123.5 -12.5 l0 -211 l-97 0 l0 216 q-127 16 -224.5 78.5 q-97.5 62.5 -164 155.5 q-66.5 93 -101 209.5 q-34.5 116.5 -34.5 240.5 q0 139 37.5 257 q37.5 118 106 206.5 q68.5 88.5 165 144.5 q96.5 56 215.5 71 l0 154 l97 0 l0 -149 q40 -1 78 -6 q38 -5 78 -15 q40 -10 83.5 -23.5 q43.5 -13.5 94.5 -31.5 l0 -306 l-104 0 l-26 177 q-1 13 -11 26.5 q-10 13.5 -18 18.5 q-10 5 -26.5 13.5 q-16.5 8.5 -39 16.5 q-22.5 8 -50 14.5 q-27.5 6.5 -59.5 6.5 l0 -1157 l20 0 q30 0 55.5 5 q25.5 5 44 11 q18.5 6 29 11.5 q10.5 5.5 11.5 6.5 q14 5 22.5 16 q8.5 11 10.5 23 l40 213 l101 0 l0 -317 Z"/><glyph glyph-name="uni2185" unicode="" d="M1204 -419 l-180 -50 l0 463 q-51 -11 -109 -19 q-58 -8 -120 -8 q-115 0 -212.5 27.5 q-97.5 27.5 -177 76.5 q-79.5 49 -140 117 q-60.5 68 -102 148 q-41.5 80 -62.5 170 q-21 90 -21 184 q0 159 52 291 q52 132 146 226.5 q94 94.5 226 147 q132 52.5 293 52.5 q50 0 96.5 -5.5 q46.5 -5.5 94.5 -15.5 q48 -10 101 -25 q53 -15 115 -34 l0 -321 l-123 0 l-30 186 q-2 14 -14 28 q-12 14 -21 19 q-12 5 -31.5 14 q-19.5 9 -46.5 17.5 q-27 8.5 -60 15 q-33 6.5 -71 6.5 q-105 0 -195 -39 q-90 -39 -156 -115 q-66 -76 -103.5 -188.5 q-37.5 -112.5 -37.5 -259.5 q0 -143 35.5 -256 q35.5 -113 102.5 -192 q67 -79 163 -120.5 q96 -41.5 218 -41.5 q36 0 65.5 5 q29.5 5 51.5 11.5 q22 6.5 34 12 q12 5.5 14 6.5 q16 6 26 17 q10 11 13 24 l47 223 l119 0 l0 -798 Z"/><glyph glyph-name="uni212D" unicode="" d="M595 368 q4 10 7.5 24 q3.5 14 4.5 30 q1 16 -2.5 34.5 q-3.5 18.5 -13.5 38.5 l-236 460 q-34 -37 -55 -64.5 q-21 -27.5 -33 -59 q-12 -31.5 -16 -73.5 q-4 -42 -4 -107 q0 -64 16.5 -125.5 q16.5 -61.5 52.5 -115.5 q36 -54 91.5 -96.5 q55.5 -42.5 133.5 -68.5 l54 123 ZM1249 283 l-169 -272 q-53 -11 -107 -19 q-46 -7 -99.5 -12.5 q-53.5 -5.5 -99.5 -5.5 q-134 0 -237 29.5 q-103 29.5 -180 78.5 q-77 49 -130 111 q-53 62 -85.5 127 q-32.5 65 -47 127 q-14.5 62 -14.5 111 q0 71 15 134 q15 63 42 118.5 q27 55.5 64.5 104.5 q37.5 49 82.5 91 l326 301 l586 0 l24 -61 l-162 -173 l-476 0 l190 -361 q18 -35 26.5 -60.5 q8.5 -25.5 8.5 -48 q0 -22.5 -7.5 -44.5 q-7.5 -22 -20.5 -50 l-128 -287 q46 -6 102 -6 q80 0 134.5 8.5 q54.5 8.5 95.5 24.5 q41 16 74.5 39.5 q33.5 23.5 72.5 54.5 l119 -60 Z"/><glyph glyph-name="uni2C88" unicode="" d="M1399 452 q-10 -92 -52.5 -178.5 q-42.5 -86.5 -120.5 -153 q-78 -66.5 -194 -106.5 q-116 -40 -274 -40 q-85 0 -168 18.5 q-83 18.5 -158.5 55 q-75.5 36.5 -139.5 91.5 q-64 55 -111.5 127.5 q-47.5 72.5 -74 163 q-26.5 90.5 -26.5 197.5 q0 138 33 243.5 q33 105.5 89 182.5 q56 77 128.5 129.5 q72.5 52.5 151.5 83.5 q79 31 159 44.5 q80 13.5 150 13.5 q65 0 133.5 -16 q68.5 -16 134 -44.5 q65.5 -28.5 124.5 -69 q59 -40.5 105 -88.5 q46 -48 75.5 -102.5 q29.5 -54.5 35.5 -112.5 l-287 0 q-4 29 -17 66 q-13 37 -32.5 75 q-19.5 38 -46.5 74.5 q-27 36.5 -59.5 65 q-32.5 28.5 -70 46 q-37.5 17.5 -79.5 17.5 q-61 0 -124 -26.5 q-63 -26.5 -115.5 -86 q-52.5 -59.5 -89 -154 q-36.5 -94.5 -43.5 -230.5 l638 0 q83 0 144 -10 q61 -10 101.5 -27 q40.5 -17 60.5 -39.5 q20 -22.5 20 -47.5 q0 -35 -17.5 -52 q-17.5 -17 -35.5 -17 l-97 0 q-31 0 -72 21 q-41 21 -98 46.5 q-57 25.5 -134.5 46.5 q-77.5 21 -182.5 21 l-329 0 l0 -2 q0 -164 28.5 -281 q28.5 -117 76.5 -191 q48 -74 111.5 -108.5 q63.5 -34.5 133.5 -34.5 q78 0 135 37 q57 37 96.5 94 q39.5 57 63 125.5 q23.5 68.5 34.5 130.5 l287 2 Z"/><glyph glyph-name="uni0186" unicode="" d="M1204 684 q0 -159 -52 -291 q-52 -132 -146 -226.5 q-94 -94.5 -226.5 -147 q-132.5 -52.5 -292.5 -52.5 q-49 0 -95 5.5 q-46 5.5 -94.5 15.5 q-48.5 10 -101.5 25 q-53 15 -116 34 l0 322 l123 0 l33 -187 q3 -14 14 -28 q11 -14 20 -19 q12 -5 31.5 -14 q19.5 -9 45.5 -17.5 q26 -8.5 59 -15 q33 -6.5 71 -6.5 q105 0 195 38 q90 38 156.5 113 q66.5 75 104.5 186.5 q38 111.5 38 258.5 q0 143 -35.5 256.5 q-35.5 113.5 -102.5 193 q-67 79.5 -163 122 q-96 42.5 -217 42.5 q-36 0 -66 -4.5 q-30 -4.5 -52 -10.5 q-22 -6 -34.5 -11 q-12.5 -5 -13.5 -6 q-16 -7 -26 -18 q-10 -11 -13 -23 l-47 -224 l-121 0 l0 332 q4 1 39 14 q35 13 91 27.5 q56 14.5 128.5 26.5 q72.5 12 150.5 12 q115 0 212.5 -27.5 q97.5 -27.5 177 -76.5 q79.5 -49 140 -116.5 q60.5 -67.5 102 -147.5 q41.5 -80 62.5 -170.5 q21 -90.5 21 -184.5 Z"/><glyph glyph-name="uni1D10" unicode="" d="M72 287 l110 0 l41 -166 q3 -14 25 -23 q31 -11 62.5 -16.5 q31.5 -5.5 66.5 -5.5 q95 0 170.5 28 q75.5 28 128 82 q52.5 54 80 132 q27.5 78 27.5 178 q0 102 -29.5 179.5 q-29.5 77.5 -81.5 130 q-52 52.5 -122.5 79 q-70.5 26.5 -152.5 26.5 q-45 0 -83 -10 q-38 -10 -78 -27 q-16 -7 -25.5 -31.5 q-9.5 -24.5 -14.5 -52.5 q-5 -28 -6.5 -52 q-1.5 -24 -2.5 -29 l-115 0 l0 243 q52 14 95.5 25 q43.5 11 83 19 q39.5 8 77 12 q37.5 4 78.5 4 q130 0 237 -37.5 q107 -37.5 184 -106 q77 -68.5 119.5 -163.5 q42.5 -95 42.5 -209 q0 -102 -38.5 -196 q-38.5 -94 -112.5 -166 q-74 -72 -182.5 -115.5 q-108.5 -43.5 -247.5 -43.5 q-63 0 -121.5 9 q-58.5 9 -104.5 20 q-46 11 -75.5 21 q-29.5 10 -34.5 12 l0 250 Z"/><glyph glyph-name="uni2183" unicode="" d="M1204 690 q0 -94 -21 -184.5 q-21 -90.5 -62.5 -170.5 q-41.5 -80 -102 -147.5 q-60.5 -67.5 -140 -116.5 q-79.5 -49 -177 -76.5 q-97.5 -27.5 -212.5 -27.5 q-78 0 -150.5 12 q-72.5 12 -128.5 26.5 q-56 14.5 -91 27 q-35 12.5 -39 14.5 l0 332 l121 0 l47 -223 q3 -13 13 -24 q10 -11 26 -17 q2 -1 14.5 -6 q12.5 -5 34 -11 q21.5 -6 51.5 -11 q30 -5 66 -5 q121 0 217 42.5 q96 42.5 163 122 q67 79.5 102.5 193 q35.5 113.5 35.5 256.5 q0 148 -38 259.5 q-38 111.5 -104.5 186.5 q-66.5 75 -156.5 112.5 q-90 37.5 -195 37.5 q-38 0 -71 -6.5 q-33 -6.5 -59.5 -15 q-26.5 -8.5 -46 -17.5 q-19.5 -9 -30.5 -14 q-11 -5 -21 -19 q-10 -14 -13 -28 l-33 -186 l-123 0 l0 321 q63 19 116 34 q53 15 101.5 25 q48.5 10 94.5 15.5 q46 5.5 95 5.5 q160 0 292.5 -52.5 q132.5 -52.5 226.5 -147.5 q94 -95 146 -227 q52 -132 52 -290 Z"/></font>
</defs>
</svg>
